<svg id="Calque_1" data-name="Calque 1" xmlns="http://www.w3.org/2000/svg" viewBox="0 0 300 300"><defs><style>.cls-1{fill:#fc3;}</style></defs><path class="cls-1" d="M124.53,159.53c-2.41-1.08-5.8-1.65-10.14-1.69h-25V184.5h24.61c4.39,0,7.83-.59,10.27-1.76,4.44-2.19,6.66-6.33,6.66-12.48C131,165.05,128.84,161.48,124.53,159.53Z"/><path class="cls-1" d="M124.81,138.81q4.11-2.48,4.11-8.77c0-4.67-1.81-7.74-5.43-9.24a38.93,38.93,0,0,0-12-1.56h-22V141.3h24.65Q120.66,141.3,124.81,138.81Z"/><path class="cls-1" d="M150,0A150,150,0,1,0,300,150,150,150,0,0,0,150,0Zm24,106.54h43.43V119H174Zm-26.19,81.08a27.87,27.87,0,0,1-18.62,12.89,70.87,70.87,0,0,1-14.31,1.34H69.24v-100h49q18.54.27,26.27,10.65a25.24,25.24,0,0,1,4.64,15.26q0,9.15-4.68,14.72a24.23,24.23,0,0,1-7.73,5.69A22.8,22.8,0,0,1,148.42,157a26.21,26.21,0,0,1,3.94,14.65,28.85,28.85,0,0,1-4.52,16Zm85.37-17.29h-54.6c.33,7.41,2.91,12.61,7.85,15.59a20.13,20.13,0,0,0,10.81,2.79c4.44,0,8.08-1.14,10.86-3.39a16,16,0,0,0,4-5.09h20q-.79,6.57-7.26,13.37-10.07,10.77-28.19,10.77a41.08,41.08,0,0,1-26.39-9.09q-11.47-9.09-11.45-29.59,0-19.23,10.32-29.48T196,126a43.06,43.06,0,0,1,17.63,3.48,30.1,30.1,0,0,1,12.94,10.93,35.8,35.8,0,0,1,6,15.29,94.07,94.07,0,0,1,.64,14.63Z"/><path class="cls-1" d="M207.65,145.88a17.37,17.37,0,0,0-11.64-4c-5,0-8.92,1.4-11.69,4.22s-4.51,6.63-5.23,11.44h33.78C212.51,152.44,210.76,148.55,207.65,145.88Z"/></svg>