<svg id="Calque_1" data-name="Calque 1" xmlns="http://www.w3.org/2000/svg" viewBox="0 0 300 300"><defs><style>.cls-1{fill:#fc3;}</style></defs><path class="cls-1" d="M178.67,93.3h-62c-13.65,0-24.82,11.4-24.82,25.34v61C91.85,193.58,103,205,116.67,205h62c13.65,0,24.81-11.4,24.81-25.34v-61C203.48,104.7,192.32,93.3,178.67,93.3Zm-31,90.75c-18.88,0-34.19-15.63-34.19-34.92s15.3-34.92,34.19-34.92,34.19,15.64,34.19,34.92-15.33,34.92-34.21,34.92Zm36-63.83a7.89,7.89,0,1,1,7.72-8.06v.18a7.81,7.81,0,0,1-7.71,7.88Z"/><path class="cls-1" d="M147.65,126.6a22.54,22.54,0,1,0,22,23c0-.16,0-.32,0-.48A22.3,22.3,0,0,0,147.65,126.6Z"/><path class="cls-1" d="M150,0A150,150,0,1,0,300,150,150,150,0,0,0,150,0Zm65.66,180.51c0,20.14-16.13,36.62-35.85,36.62H115.5c-19.71,0-35.84-16.48-35.84-36.62V117.74c0-20.14,16.13-36.61,35.84-36.61h64.31c19.72,0,35.85,16.47,35.85,36.61Z"/></svg>