<svg id="Calque_1" data-name="Calque 1" xmlns="http://www.w3.org/2000/svg" viewBox="0 0 300 300"><defs><style>.cls-1{fill:#fc3;}</style></defs><path class="cls-1" d="M150,0A150,150,0,1,0,300,150,150,150,0,0,0,150,0ZM115.6,210.75H86v-94h29.6ZM100,105h-.21c-10.74,0-17.7-7.18-17.7-16.29,0-9.28,7.17-16.31,18.12-16.31s17.66,7,17.88,16.29C118.11,97.83,111.17,105,100,105ZM234.25,210.75H200.63V162.13c0-12.73-5.26-21.41-16.83-21.41-8.84,0-13.76,5.86-16.05,11.51-.86,2-.73,4.85-.73,7.68v50.84H133.71s.43-86.13,0-94H167V131.5c2-6.45,12.61-15.65,29.6-15.65,21.08,0,37.63,13.52,37.63,42.62Z"/></svg>