<svg id="Calque_1" data-name="Calque 1" xmlns="http://www.w3.org/2000/svg" viewBox="0 0 300 300"><path d="M300,166c73.89,0,134,60.11,134,134S373.89,434,300,434,166,373.89,166,300s60.11-134,134-134m0-16A150,150,0,1,0,450,300,150,150,0,0,0,300,150Z" transform="translate(-150 -150)"/><path d="M286.71,298.2a24.24,24.24,0,0,0,7.73-5.69q4.69-5.56,4.68-14.72a25.23,25.23,0,0,0-4.64-15.26q-7.74-10.38-26.27-10.65h-49v100h45.67a71.45,71.45,0,0,0,14.31-1.34,27.85,27.85,0,0,0,18.62-12.89,28.83,28.83,0,0,0,4.52-15.94A26.23,26.23,0,0,0,298.42,307,22.79,22.79,0,0,0,286.71,298.2Zm-47.27-29H261.5a38.84,38.84,0,0,1,12,1.56c3.62,1.5,5.43,4.57,5.43,9.24q0,6.29-4.11,8.77t-10.72,2.49H239.44Zm34.88,63.5c-2.44,1.17-5.88,1.76-10.27,1.76H239.44V307.84h24.95c4.34,0,7.73.61,10.14,1.69,4.31,2,6.45,5.52,6.45,10.73C281,326.41,278.76,330.55,274.32,332.74Z" transform="translate(-150 -150)"/><rect x="174.03" y="106.54" width="43.43" height="12.44"/><path d="M376.57,290.36a30.11,30.11,0,0,0-12.94-10.93A43,43,0,0,0,346,276q-16.47,0-26.79,10.26t-10.32,29.48q0,20.49,11.45,29.59a41.08,41.08,0,0,0,26.39,9.09q18.12,0,28.19-10.77,6.45-6.8,7.26-13.37h-20a15.94,15.94,0,0,1-4,5.09c-2.78,2.25-6.42,3.39-10.86,3.39a20.12,20.12,0,0,1-10.81-2.79c-4.94-3-7.52-8.18-7.85-15.59h54.6a93.72,93.72,0,0,0-.65-14.68A35.89,35.89,0,0,0,376.57,290.36Zm-47.48,17.21q1.08-7.21,5.23-11.44c2.77-2.82,6.68-4.22,11.69-4.22a17.41,17.41,0,0,1,11.64,4c3.11,2.67,4.86,6.56,5.22,11.69Z" transform="translate(-150 -150)"/></svg>