<svg id="Calque_1" data-name="Calque 1" xmlns="http://www.w3.org/2000/svg" viewBox="0 0 300 300"><path d="M300,166c73.89,0,134,60.11,134,134S373.89,434,300,434,166,373.89,166,300s60.11-134,134-134m0-16A150,150,0,1,0,450,300,150,150,0,0,0,300,150Z" transform="translate(-150 -150)"/><polygon points="176.88 153.89 114.94 153.89 114.94 125.3 181.64 125.3 176.88 153.89"/><path id="Facebook" d="M279.36,256.44V370.59h28.46V261c0-3.12,1.78-4.76,4.76-4.76h19.06V227.66H309.7C278.63,227.66,279.36,252.71,279.36,256.44Z" transform="translate(-150 -150)"/></svg>