<svg id="Calque_1" data-name="Calque 1" xmlns="http://www.w3.org/2000/svg" viewBox="0 0 300 300"><path d="M300,166c73.89,0,134,60.11,134,134S373.89,434,300,434,166,373.89,166,300s60.11-134,134-134m0-16A150,150,0,1,0,450,300,150,150,0,0,0,300,150Z" transform="translate(-150 -150)"/><path d="M329.81,231.13H265.5c-19.71,0-35.84,16.47-35.84,36.61v62.77c0,20.14,16.13,36.62,35.84,36.62h64.31c19.72,0,35.85-16.48,35.85-36.62V267.74C365.66,247.6,349.53,231.13,329.81,231.13Zm23.67,98.48c0,13.94-11.16,25.34-24.81,25.34h-62c-13.65,0-24.82-11.4-24.82-25.34v-61c0-13.94,11.17-25.34,24.82-25.34h62c13.65,0,24.81,11.4,24.81,25.34Z" transform="translate(-150 -150)"/><path d="M297.65,264.21c-18.89,0-34.19,15.64-34.19,34.92s15.3,34.92,34.19,34.92,34.19-15.63,34.19-34.92S316.53,264.21,297.65,264.21Zm0,57.45a22.54,22.54,0,1,1,22.06-22.53A22.3,22.3,0,0,1,297.65,321.66Z" transform="translate(-150 -150)"/><ellipse cx="183.68" cy="112.34" rx="7.72" ry="7.89"/></svg>