<svg id="Calque_1" data-name="Calque 1" xmlns="http://www.w3.org/2000/svg" viewBox="0 0 300 300"><path d="M300,166c73.89,0,134,60.11,134,134S373.89,434,300,434,166,373.89,166,300s60.11-134,134-134m0-16A150,150,0,1,0,450,300,150,150,0,0,0,300,150Z" transform="translate(-150 -150)"/><rect x="85.95" y="116.79" width="29.65" height="93.96"/><path d="M346.62,265.89c-17,0-27.63,9.2-29.6,15.65V266.79H283.71c.43,7.83,0,94,0,94H317V309.91c0-2.83-.13-5.65.73-7.68,2.29-5.65,7.21-11.51,16.05-11.51,11.57,0,16.83,8.68,16.83,21.41v48.62h33.62V308.51C384.25,279.41,367.7,265.89,346.62,265.89Z" transform="translate(-150 -150)"/><path d="M250.23,222.44c-10.95,0-18.12,7-18.12,16.31,0,9.11,7,16.29,17.7,16.29H250c11.15,0,18.09-7.21,18.09-16.31C267.89,229.46,261.17,222.44,250.23,222.44Z" transform="translate(-150 -150)"/></svg>