<svg id="Mazz_Kitchen" data-name="Mazz Kitchen" xmlns="http://www.w3.org/2000/svg" viewBox="0 0 311.81 311.12"><defs><style>.cls-1,.cls-2{fill:#fff;}.cls-2{fill-rule:evenodd;}</style></defs><g id="Blanc_Transparent" data-name="Blanc Transparent"><path class="cls-1" d="M373.49,180.78l12.9,12.92-194,193.64a9.13,9.13,0,0,1-12.91,0h0a9.12,9.12,0,0,1,0-12.91l194-193.64Z" transform="translate(-127.56 -127.91)"/><path class="cls-1" d="M163,370.81h0a9.12,9.12,0,0,0,12.91,0l194-193.64-6.45-6.46L163,370.81Z" transform="translate(-127.56 -127.91)"/><path class="cls-1" d="M196,403.85h0a9.13,9.13,0,0,1,0-12.92L390,197.29l6.45,6.46L196,403.85Z" transform="translate(-127.56 -127.91)"/><path class="cls-1" d="M189.75,393.68a12.12,12.12,0,0,1-16.49-16.51,12.15,12.15,0,0,1-14-1.56l-18,36.18a60.26,60.26,0,0,1,7.41,6.33,61.12,61.12,0,0,1,6.24,7.31l36.29-17.81a12.16,12.16,0,0,1-1.46-13.94Z" transform="translate(-127.56 -127.91)"/><path class="cls-1" d="M139.11,416.21l-10.89,22.34L150.5,427.6a56.91,56.91,0,0,0-11.39-11.39Z" transform="translate(-127.56 -127.91)"/><polygon class="cls-1" points="251.61 27.12 284.59 60.16 271.9 72.82 238.93 39.79 251.61 27.12 251.61 27.12"/><path class="cls-1" d="M413.78,129.85l23.6,23.65a6.62,6.62,0,0,1,0,9.38L415.42,184.8l-33-33,22-21.91a6.63,6.63,0,0,1,9.38,0Z" transform="translate(-127.56 -127.91)"/><path class="cls-2" d="M266.47,276.13c-1.49-1.59-3-3.18-4.45-4.79a132.7,132.7,0,0,0-9.93-10.19c-5-4.42-11.13-6.53-18.52-6.42a63.9,63.9,0,0,1-9.67-.59c-3.05-.43-6.13-.82-9.21-1.19-4.82-.58-8.71-2.87-12.74-4.93-3.35-1.72-5.74-4.43-8-7.31-1.24-1.6-2.69-3-4-4.57-2.9-3.53-6.15-6.77-9.05-10.3-5.75-7-12-13.52-18-20.28-4.81-5.41-9.45-11-14.22-16.42-3.59-4.1-7.07-8.29-10.7-12.34-3.34-3.73-6.52-7.59-9.8-11.38a2.08,2.08,0,0,1,.16-3.14c1.19-1.24,2.5-1.44,3.46-.41,3.06,3.27,6.67,6,9.77,9.2,5.9,6.14,12.5,11.54,18.65,17.42,4.1,3.91,8.37,7.64,12.55,11.47,4.38,4,8.84,7.94,13.12,12,2.35,2.25,3.46,2,6-.83,1.19-1.31,1.35-2.32.18-3.47-6.45-6.35-12.83-12.78-19.24-19.19l-7.17-7.17q-13.08-13.08-26.16-26.17c-1.53-1.52-1.54-2.54-.07-4.07a2.73,2.73,0,0,1,4.21-.06c5.66,5.28,11.24,10.64,17,15.82q10.16,9.13,20.12,18.46c6,5.59,12.1,11,18.11,16.53,1,.89,1.74.7,2.72-.36s1.75-1.89.63-3c-2.82-2.89-5.54-5.87-8.33-8.8-7.85-8.25-15.78-16.44-23.56-24.77-5.74-6.14-11.41-12.33-17.29-18.32-1-1-2-2.21-2.92-3.32s-.5-2.33.57-3.32,2.16-1.22,3.28-.21c6.62,6,13,12.27,19.52,18.39s12.76,12.07,19.18,18.06c5.45,5.1,10.91,10.19,16.32,15.35,1.31,1.25,2.27.24,3.32-.76s1.7-2,.57-3.18q-12-12.68-24.06-25.21c-9.42-9.77-18.66-19.72-28-29.55a2,2,0,0,1,0-3c.9-1.08,2-1.52,3.19-.79a27.8,27.8,0,0,1,3.65,3c5.74,4.94,11.75,9.55,17.24,14.77,3.41,3.25,7.3,6,11,9,2.49,2,4.93,4.11,7.41,6.15,3.94,3.25,7.9,6.47,11.84,9.72,2.47,2,5,4.07,7.37,6.19,4.84,4.29,9.63,8.65,14.75,12.65,2.92,2.28,6,4.47,8.36,7.28a30.93,30.93,0,0,1,7.14,15.94c.64,4.6,1.11,9.24,1.79,13.81.53,3.55.38,7.28,1.22,10.75a26,26,0,0,0,9.72,15.34c2.53,1.89,4.52,4.4,7,6.42,1.65,1.35,3.21,2.8,4.76,4.26" transform="translate(-127.56 -127.91)"/><path class="cls-2" d="M301.83,287c2.69,2.47,3.17,3.09,5.93,5.48,3.66,3.19,7.06,6.66,10.63,9.95,8.17,7.53,16.4,15,24.57,22.55,2,1.85,3.87,3.85,5.86,5.72,5.84,5.48,11.64,11,17.59,16.39,6.48,5.83,12.87,11.76,19.27,17.68,7.69,7.11,15.51,14.07,23.23,21.14,5.47,5,10.94,10,16.29,15.15,2.48,2.38,5.08,4.63,7.56,7,3.2,3.07,4.86,7.11,6,11.53a17.52,17.52,0,0,1,.24,7.94,11.51,11.51,0,0,1-1.82,4.46,15,15,0,0,1-15,6.83c-7.22-1.21-12.47-5-16.76-10.25-2.23-2.76-4.62-5.39-7.1-7.92-6.94-7.09-13.35-14.68-20.11-21.94-5.16-5.54-10.19-11.21-15.26-16.83-5.55-6.15-11.19-12.22-16.67-18.43-5-5.65-10.23-11-15.34-16.55-3.7-4-7.48-7.92-11.1-12-5.42-6.12-10.94-12.15-16.45-18.19-3.34-3.65-6.65-7.34-10-11-2.3-2.56-2.33-2.59-4.65-5.13" transform="translate(-127.56 -127.91)"/></g></svg>