<svg id="Calque_1" data-name="Calque 1" xmlns="http://www.w3.org/2000/svg" viewBox="0 0 300 300"><path d="M300,166c73.89,0,134,60.11,134,134S373.89,434,300,434,166,373.89,166,300s60.11-134,134-134m0-16A150,150,0,1,0,450,300,150,150,0,0,0,300,150Z" transform="translate(-150 -150)"/><path id="Twitter" d="M371.36,248.28a59,59,0,0,1-19.12,7.47,29.67,29.67,0,0,0-22-9.73c-16.6,0-30.07,13.81-30.07,30.85a31.14,31.14,0,0,0,.77,7,84.66,84.66,0,0,1-62-32.24,31.43,31.43,0,0,0-4.08,15.53,31.09,31.09,0,0,0,13.39,25.68A29.58,29.58,0,0,1,234.64,289v.38a30.68,30.68,0,0,0,24.14,30.25,28.81,28.81,0,0,1-7.93,1.08,29.36,29.36,0,0,1-5.66-.54,30.2,30.2,0,0,0,28.11,21.41,59.43,59.43,0,0,1-37.37,13.22,58.66,58.66,0,0,1-7.18-.43,83.76,83.76,0,0,0,46.12,13.86c55.35,0,85.61-47,85.61-87.79,0-1.34,0-2.68-.07-4a61.67,61.67,0,0,0,15-16,58.55,58.55,0,0,1-17.28,4.86A30.73,30.73,0,0,0,371.36,248.28Z" transform="translate(-150 -150)"/></svg>