<svg id="Calque_1" data-name="Calque 1" xmlns="http://www.w3.org/2000/svg" viewBox="0 0 186.98 33.65"><defs><style>.cls-1{fill:#f2f2f2;}</style></defs><path class="cls-1" d="M12.65,39.43c.3-.18.5-.13.59.14a1.19,1.19,0,0,1,.09.54c-.18.45-.45,1.11-.79,2s-.74,1.79-1.17,2.72-.89,1.79-1.37,2.59A5.39,5.39,0,0,1,8.69,49a1.24,1.24,0,0,1-1.78-.14,5.94,5.94,0,0,1-1.1-2.18,20.74,20.74,0,0,1-.61-2.79c-.13-.95-.23-1.6-.29-2-.12-1.08-.19-2.32-.22-3.73s0-2.82.09-4.21.23-2.7.42-3.92A12.5,12.5,0,0,1,6,27.24a41.22,41.22,0,0,0-.88,7.29A58.05,58.05,0,0,0,5.32,42,46.09,46.09,0,0,1,6.67,26.56a1.22,1.22,0,0,1,.11-.38c0-.11.08-.2.11-.29a8.79,8.79,0,0,0,.92-.48c.29-.16.58-.32.88-.47.36.06.56.2.61.43a2.57,2.57,0,0,1,0,.74c-.06.78-.14,1.57-.25,2.36s-.18,1.59-.24,2.37q-.32,4.46-.54,9.09,0,.59,0,1.35c0,.51,0,1,0,1.57v3c0,.6.14.88.34.83s.42-.28.67-.72.55-1,.88-1.66.65-1.35,1-2,.61-1.27.88-1.8A3.62,3.62,0,0,1,12.65,39.43Z" transform="translate(-4.67 -19.17)"/><path class="cls-1" d="M19.4,43.8q-.58.86-1.08,1.62l-1,1.53a2.75,2.75,0,0,1-1.28,1.14,5.6,5.6,0,0,1-1.69.43,1.87,1.87,0,0,1-1.85-.81,4,4,0,0,1-.31-.45,2.43,2.43,0,0,1-.22-.49,13.16,13.16,0,0,1-.61-4.59A8.29,8.29,0,0,1,13,37.81a4.91,4.91,0,0,1,1.6-1.51,6.44,6.44,0,0,1,2-.76,6.25,6.25,0,0,1,2.2,0,4.83,4.83,0,0,1,2,.81,2.27,2.27,0,0,0,1.21.36l.77.09a.59.59,0,0,1,.38.18.46.46,0,0,1,.07.4c0,.18-.09.44-.18.77-.15.69-.29,1.38-.43,2.09s-.28,1.42-.43,2.14a1.81,1.81,0,0,0,0,.47,5.94,5.94,0,0,1,0,.65l.54-.36a1.23,1.23,0,0,0,.36-.31c.3-.33.57-.61.79-.84l.65-.63.64-.6c.2-.21.46-.48.76-.81a1.53,1.53,0,0,1,.74-.59,4.19,4.19,0,0,1,1.24.18L27.7,40c-.07.13-.16.26-.24.38-.34.36-.61.68-.84,1l-.65.78-.65.79c-.23.27-.51.59-.84.95a5.86,5.86,0,0,1-1.17,1.12,2.31,2.31,0,0,1-2.11.45A3.11,3.11,0,0,1,19.4,43.8ZM14.9,46l.2.09.2.09,2.48-3.74c.81-1.23,1.6-2.46,2.39-3.69-.25-.24-.46-.46-.66-.67L19,37.45a1.86,1.86,0,0,0-1-.65c-.24,0-.57.19-1,.61a5.39,5.39,0,0,0-.59.58,8.11,8.11,0,0,0-1.59,3.83A14.13,14.13,0,0,0,14.9,46Z" transform="translate(-4.67 -19.17)"/><path class="cls-1" d="M44.64,38.26a6.55,6.55,0,0,1-.51.7,4.88,4.88,0,0,0-.52.7c-.27.51-.61,1.11-1,1.8s-.79,1.41-1.15,2.18-.68,1.52-1,2.27a8.31,8.31,0,0,0-.52,2,.55.55,0,0,1-.22.42,1.47,1.47,0,0,1-.45.3,1.22,1.22,0,0,1-.56.06l-.7,0c-.06-.39-.13-.75-.2-1.08a6.8,6.8,0,0,1-.16-1,16.39,16.39,0,0,1,0-3.64c.15-1.2.35-2.39.59-3.56l.09-.36a1.39,1.39,0,0,1,.09-.27,2.22,2.22,0,0,1,.81-1.15,2.44,2.44,0,0,1,1.53,0l-.27,2.52c-.09.84-.2,1.68-.32,2.52a.74.74,0,0,0,.32.09c.27-.51.59-1.13,1-1.87s.78-1.47,1.23-2.2.9-1.44,1.35-2.12a11,11,0,0,1,1.31-1.64c.06-.06.28-.08.67-.07a3.73,3.73,0,0,0,.81,0c-.06,1.29-.06,2.57,0,3.83s0,2.53,0,3.82a4.22,4.22,0,0,1-1.17-.92,2,2,0,0,1-.54-1.15c0-.33,0-.67-.07-1s0-.7-.07-1.06a.63.63,0,0,0-.2,0A.41.41,0,0,1,44.64,38.26Z" transform="translate(-4.67 -19.17)"/><path class="cls-1" d="M58.77,41.73a23.82,23.82,0,0,1-1.35,2.07,14.85,14.85,0,0,1-1.8,2.07,9.1,9.1,0,0,1-2.13,1.53,4.14,4.14,0,0,1-2.37.45,3.15,3.15,0,0,1-2.36-1.4,5.73,5.73,0,0,1-.85-2.7,12.37,12.37,0,0,1,1-5.71A4.63,4.63,0,0,1,51,35.67a4.2,4.2,0,0,1,2.88-.29,1.72,1.72,0,0,1,1.1.95,2.32,2.32,0,0,1,.09,1.39,5.31,5.31,0,0,1-.63,1.6,8.26,8.26,0,0,1-1.08,1.51A11,11,0,0,1,52.14,42a2.63,2.63,0,0,1-1.06.58A13.69,13.69,0,0,0,51.17,44a3.59,3.59,0,0,0,.36,1.33.83.83,0,0,0,1.12.43,5.71,5.71,0,0,0,1.8-1,17,17,0,0,0,2.07-2,23.5,23.5,0,0,0,2-2.49c.45-.45.75-.67.88-.66s.18.15.14.39a3.64,3.64,0,0,1-.32.87C59,41.24,58.89,41.52,58.77,41.73Zm-5.94-5.18a7.9,7.9,0,0,0-.78,1.17,5,5,0,0,0-.45,1.08A7.77,7.77,0,0,0,51.35,40a9.35,9.35,0,0,0-.09,1.37l.83-1.06a14.42,14.42,0,0,0,1-1.35,8.1,8.1,0,0,0,.72-1.35,1.29,1.29,0,0,0,0-1.1.43.43,0,0,0-.4-.27A.86.86,0,0,0,52.83,36.55Z" transform="translate(-4.67 -19.17)"/><path class="cls-1" d="M63.72,37.59a5.72,5.72,0,0,0-1.46,1.62,8.85,8.85,0,0,0-.94,2.13A8.73,8.73,0,0,0,61,43.75a8.52,8.52,0,0,0,.29,2.43c.54-.45,1-.87,1.39-1.26.57-.54,1-1,1.42-1.42l1.08-1.14c.35-.36.71-.74,1.1-1.13l1.44-1.44a2.17,2.17,0,0,1,.95-.65,1.18,1.18,0,0,1,1.12.38c-.06.12-.12.26-.18.41a1.18,1.18,0,0,1-.27.4c-.63.69-1.15,1.3-1.57,1.82s-.82,1-1.19,1.53l-1.17,1.51c-.41.51-.91,1.1-1.51,1.76a5.89,5.89,0,0,1-1.53,1.26,3.17,3.17,0,0,1-1.85.36A3.54,3.54,0,0,1,58.62,48a3.2,3.2,0,0,1-1.06-1.73,12.31,12.31,0,0,1-.32-2.46,10,10,0,0,1,.27-2.65,9.2,9.2,0,0,1,1.06-2.57,8.7,8.7,0,0,1,2-2.22,3.67,3.67,0,0,1,3.91-.5,1.55,1.55,0,0,1,.61.34,6.26,6.26,0,0,1,.52.47,2,2,0,0,1,.22,1.15,1.1,1.1,0,0,1-.4.92c-.36.21-.64.22-.83,0A3.51,3.51,0,0,1,64,38a.63.63,0,0,1-.13-.2A.56.56,0,0,0,63.72,37.59Z" transform="translate(-4.67 -19.17)"/><path class="cls-1" d="M77.94,41.73a23.82,23.82,0,0,1-1.35,2.07,14.85,14.85,0,0,1-1.8,2.07,9.1,9.1,0,0,1-2.13,1.53,4.14,4.14,0,0,1-2.37.45,3.15,3.15,0,0,1-2.36-1.4,5.73,5.73,0,0,1-.85-2.7,12.37,12.37,0,0,1,1-5.71,4.63,4.63,0,0,1,2.07-2.37A4.2,4.2,0,0,1,73,35.38a1.72,1.72,0,0,1,1.1.95,2.48,2.48,0,0,1,.09,1.39,5.58,5.58,0,0,1-.63,1.6,8.26,8.26,0,0,1-1.08,1.51A11,11,0,0,1,71.31,42a2.63,2.63,0,0,1-1.06.58A13.69,13.69,0,0,0,70.34,44a3.59,3.59,0,0,0,.36,1.33.83.83,0,0,0,1.12.43,5.71,5.71,0,0,0,1.8-1,17,17,0,0,0,2.07-2,23.5,23.5,0,0,0,2-2.49c.45-.45.75-.67.88-.66s.18.15.14.39a4.13,4.13,0,0,1-.32.87C78.21,41.24,78.06,41.52,77.94,41.73ZM72,36.55a7.9,7.9,0,0,0-.78,1.17,5,5,0,0,0-.45,1.08A7.77,7.77,0,0,0,70.52,40a9.35,9.35,0,0,0-.09,1.37l.83-1.06a16.51,16.51,0,0,0,1-1.35A8.1,8.1,0,0,0,73,37.56a1.29,1.29,0,0,0,0-1.1.43.43,0,0,0-.4-.27A.86.86,0,0,0,72,36.55Z" transform="translate(-4.67 -19.17)"/><path class="cls-1" d="M79.88,30.88a6.74,6.74,0,0,1-.84,0,1.58,1.58,0,0,0-.65,0c-1.23.24-2.43.5-3.62.77l-3.62.81-.63.13a.63.63,0,0,1-.41,0,1.13,1.13,0,0,1-.36-.34c-.12-.17-.27-.4-.45-.7l.61-.36a2.53,2.53,0,0,1,.61-.27q1.22-.36,2.43-.63c.81-.18,1.62-.37,2.43-.58a7.87,7.87,0,0,0,.9-.18l1.17-.27L78.71,29l1.12-.23c0-.27.08-.6.16-1a10.83,10.83,0,0,1,.29-1.19,11,11,0,0,1,.41-1.15,5.49,5.49,0,0,1,.49-.94l.72,2.74a2,2,0,0,0,.36.92c.12.11.42.13.9.07l3-.38c1-.14,2-.23,3-.29,1.35-.06,2.69-.1,4-.12s2.68-.05,4-.11a2.16,2.16,0,0,1,1.08.25,1.44,1.44,0,0,1,.63,1c-.9.06-1.8.11-2.7.14s-1.79.09-2.66.18-1.8.21-2.79.36-2,.29-3,.42l-3,.41c-1,.13-1.93.25-2.83.34-.24,1.59-.47,3-.7,4.34s-.42,2.58-.58,3.82-.3,2.51-.39,3.78-.13,2.67-.13,4.17c.06.3.18.36.38.18a4.73,4.73,0,0,0,.7-1c.27-.45.55-1,.85-1.64l.9-2,.83-1.82c.26-.56.46-1,.61-1.28a.94.94,0,0,1,.63.56,1,1,0,0,1,0,.74l-2.79,6.89a7.07,7.07,0,0,1-.67,1.17,2.19,2.19,0,0,1-.86.78,2,2,0,0,1-1,.23A2.05,2.05,0,0,1,78,48.25a5.46,5.46,0,0,1-.63-2.34q-.09-1.48,0-3.42t.3-4c.15-1.35.34-2.65.58-3.91s.5-2.37.77-3.33A.5.5,0,0,1,79.2,31c.09-.05.14.08.14.38a5,5,0,0,1-.07.68c0,.27-.1.54-.16.81s-.11.53-.15.78a3.32,3.32,0,0,0-.07.61c0,.3.07.43.13.38a.65.65,0,0,0,.18-.29c0-.09.08-.3.16-.63s.15-.68.22-1.06.15-.73.21-1.08A4.87,4.87,0,0,0,79.88,30.88Z" transform="translate(-4.67 -19.17)"/><path class="cls-1" d="M86.36,30.88a6.74,6.74,0,0,1-.84,0,1.58,1.58,0,0,0-.65,0c-1.23.24-2.43.5-3.62.77l-3.62.81-.63.13a.63.63,0,0,1-.41,0,1.13,1.13,0,0,1-.36-.34c-.12-.17-.27-.4-.45-.7l.61-.36a2.53,2.53,0,0,1,.61-.27q1.22-.36,2.43-.63c.81-.18,1.62-.37,2.43-.58a7.87,7.87,0,0,0,.9-.18l1.17-.27L85.19,29l1.12-.23c0-.27.08-.6.16-1a10.83,10.83,0,0,1,.29-1.19,11,11,0,0,1,.41-1.15,5.49,5.49,0,0,1,.49-.94l.72,2.74a2,2,0,0,0,.36.92c.12.11.42.13.9.07l3-.38c1-.14,2-.23,3-.29,1.35-.06,2.69-.1,4-.12s2.68-.05,4-.11a2.16,2.16,0,0,1,1.08.25,1.44,1.44,0,0,1,.63,1c-.9.06-1.8.11-2.7.14s-1.79.09-2.66.18-1.8.21-2.79.36-2,.29-3,.42l-3,.41c-1,.13-1.93.25-2.83.34-.24,1.59-.47,3-.7,4.34s-.42,2.58-.58,3.82-.3,2.51-.39,3.78-.13,2.67-.13,4.17c.06.3.18.36.38.18a4.73,4.73,0,0,0,.7-1c.27-.45.55-1,.85-1.64l.9-2,.83-1.82c.26-.56.46-1,.61-1.28a.94.94,0,0,1,.63.56,1,1,0,0,1,0,.74l-2.79,6.89a7.07,7.07,0,0,1-.67,1.17,2.19,2.19,0,0,1-.86.78,2,2,0,0,1-1,.23,2.05,2.05,0,0,1-1.73-1.15,5.46,5.46,0,0,1-.63-2.34q-.09-1.48,0-3.42t.3-4c.15-1.35.34-2.65.58-3.91s.5-2.37.77-3.33a.5.5,0,0,1,.22-.25c.09-.05.14.08.14.38a5,5,0,0,1-.07.68c0,.27-.1.54-.16.81s-.11.53-.15.78a3.32,3.32,0,0,0-.07.61c0,.3.07.43.13.38a.65.65,0,0,0,.18-.29c0-.09.08-.3.16-.63s.15-.68.22-1.06.15-.73.21-1.08A4.87,4.87,0,0,0,86.36,30.88Z" transform="translate(-4.67 -19.17)"/><path class="cls-1" d="M100.94,41.73a23.82,23.82,0,0,1-1.35,2.07,14.85,14.85,0,0,1-1.8,2.07,9,9,0,0,1-2.14,1.53,4.11,4.11,0,0,1-2.36.45,3.17,3.17,0,0,1-2.37-1.4,5.85,5.85,0,0,1-.85-2.7,11.64,11.64,0,0,1,.2-3.1A11.21,11.21,0,0,1,91.08,38a4.63,4.63,0,0,1,2.07-2.37A4.2,4.2,0,0,1,96,35.38a1.72,1.72,0,0,1,1.1.95,2.32,2.32,0,0,1,.09,1.39,5.31,5.31,0,0,1-.63,1.6,8.26,8.26,0,0,1-1.08,1.51A11,11,0,0,1,94.3,42a2.57,2.57,0,0,1-1.06.58A13.69,13.69,0,0,0,93.33,44a3.59,3.59,0,0,0,.36,1.33.84.84,0,0,0,1.13.43,5.71,5.71,0,0,0,1.8-1,17,17,0,0,0,2.07-2,23.5,23.5,0,0,0,2-2.49q.67-.67.87-.66c.14,0,.18.15.14.39a4,4,0,0,1-.31.87C101.2,41.24,101.06,41.52,100.94,41.73ZM95,36.55a8,8,0,0,0-.79,1.17,5,5,0,0,0-.45,1.08A7.77,7.77,0,0,0,93.51,40a9.35,9.35,0,0,0-.09,1.37l.83-1.06a14.42,14.42,0,0,0,1-1.35,8.1,8.1,0,0,0,.72-1.35,1.3,1.3,0,0,0,0-1.1.44.44,0,0,0-.41-.27A.84.84,0,0,0,95,36.55Z" transform="translate(-4.67 -19.17)"/><path class="cls-1" d="M120.56,41c-.18.39-.39.86-.63,1.4s-.51,1.08-.81,1.62-.61,1.05-.93,1.53a5.89,5.89,0,0,1-1,1.17,4.46,4.46,0,0,1-1.78,1.1,2.75,2.75,0,0,1-1.58,0,2.17,2.17,0,0,1-1.14-.88,3.41,3.41,0,0,1-.54-1.68,14.38,14.38,0,0,1-.07-3,12.43,12.43,0,0,1,.52-2.86,1.12,1.12,0,0,1,.51-.47,3.79,3.79,0,0,1,.93-.38,2.84,2.84,0,0,1,.85-.12c.24,0,.35.13.32.34q-.27,2.12-.39,3.33a17.52,17.52,0,0,0-.09,1.76c0,.36,0,.51.09.47a1.24,1.24,0,0,0,.12-.56q.09-.9.24-2.34a21.78,21.78,0,0,1,.43-2.57c0-.09.08,0,.16.25a2.47,2.47,0,0,1,.11.61c-.09.78-.16,1.62-.22,2.54s-.12,1.75-.18,2.5a1.32,1.32,0,0,0,.15.92.48.48,0,0,0,.52.09,1.67,1.67,0,0,0,.61-.43,3.68,3.68,0,0,0,.47-.63c.39-.72.8-1.52,1.24-2.41s.82-1.64,1.15-2.27a.73.73,0,0,1,.38-.31.71.71,0,0,1,.52-.07.43.43,0,0,1,.29.36A1.52,1.52,0,0,1,120.56,41Zm-5-6.88c.39.75.38,1.29,0,1.62a1.84,1.84,0,0,1-1.76.13,1.52,1.52,0,0,1-.34-.85,1.19,1.19,0,0,1,.23-.79,1,1,0,0,1,.74-.41A2,2,0,0,1,115.56,34.08Z" transform="translate(-4.67 -19.17)"/><path class="cls-1" d="M128.3,22.42a1.22,1.22,0,0,1,.33-.38,1.32,1.32,0,0,1,.66-.27,2,2,0,0,1,.94.09,5.07,5.07,0,0,1,1.31.65.14.14,0,0,0,0,.09.52.52,0,0,1,0,.11.3.3,0,0,0,0,.12,44.56,44.56,0,0,0-1.87,6.48,65.33,65.33,0,0,0-1,6.5q-.33,3.16-.42,6c-.06,1.92-.07,3.62,0,5.09s.12,2.66.23,3.57a6.1,6.1,0,0,0,.29,1.6.39.39,0,0,1-.18.47,1.19,1.19,0,0,1-.65.23,1.75,1.75,0,0,1-.79-.16,1,1,0,0,1-.54-.72,37.22,37.22,0,0,1-1-6.39,41.24,41.24,0,0,1,.07-6.21q-1,4.23-1.73,6.53c-.47,1.53-1.06,2.32-1.78,2.38a2.1,2.1,0,0,1-1.37-.25,2.64,2.64,0,0,1-.92-.9,4.26,4.26,0,0,1-.54-1.23,11.32,11.32,0,0,1-.27-1.31,10.24,10.24,0,0,1,.11-3.42,7.56,7.56,0,0,1,1.17-2.83,6,6,0,0,1,2.16-1.94,6.54,6.54,0,0,1,3.17-.72q.4-3.78,1-7.24A23.57,23.57,0,0,1,128.3,22.42Zm-7.56,23.72a8.53,8.53,0,0,1,0-1.92c.07-.49.2-.72.38-.69v1.1a3.06,3.06,0,0,0,.11.92c.08.21.21.28.39.2s.43-.41.76-1a13.25,13.25,0,0,0,1.35-3.53,24.12,24.12,0,0,1,1-3.26,6.66,6.66,0,0,0-1.85,1.39,8.86,8.86,0,0,0-2.25,4.43A4.84,4.84,0,0,0,120.74,46.14Z" transform="translate(-4.67 -19.17)"/><path class="cls-1" d="M141.17,41.73a23.82,23.82,0,0,1-1.35,2.07,14.85,14.85,0,0,1-1.8,2.07,9.15,9.15,0,0,1-2.14,1.53,4.11,4.11,0,0,1-2.36.45,3.17,3.17,0,0,1-2.37-1.4,5.73,5.73,0,0,1-.85-2.7,12.37,12.37,0,0,1,1-5.71,4.63,4.63,0,0,1,2.07-2.37,4.2,4.2,0,0,1,2.88-.29,1.72,1.72,0,0,1,1.1.95,2.32,2.32,0,0,1,.09,1.39,5.31,5.31,0,0,1-.63,1.6,8.26,8.26,0,0,1-1.08,1.51A11,11,0,0,1,134.53,42a2.63,2.63,0,0,1-1.06.58,13.69,13.69,0,0,0,.09,1.46,3.59,3.59,0,0,0,.36,1.33.84.84,0,0,0,1.13.43,5.71,5.71,0,0,0,1.8-1,17,17,0,0,0,2.07-2,23.5,23.5,0,0,0,2-2.49q.67-.67.87-.66c.14,0,.18.15.14.39a3.64,3.64,0,0,1-.32.87Q141.35,41.42,141.17,41.73Zm-4.64-17.1a.71.71,0,0,1,1,0,.68.68,0,0,1,.65.13,3.18,3.18,0,0,1,.48.54,9.76,9.76,0,0,1-.86,1.4,9.14,9.14,0,0,1-1.08,1.23,8.13,8.13,0,0,1-1.17.95,4.05,4.05,0,0,1-1.08.52c-.33-.3-.42-.57-.27-.79l.45-.7c.33-.39.65-.77,1-1.15l.9-1.1c-.45.45-.9.91-1.33,1.37s-.86.91-1.28,1.33a.38.38,0,0,1-.27.16.74.74,0,0,0-.27.07,1,1,0,0,1-.23-.18q.85-1,1.71-1.89T136.53,24.63Zm-1.3,11.92a8,8,0,0,0-.79,1.17A5,5,0,0,0,134,38.8a7.77,7.77,0,0,0-.25,1.15,9.35,9.35,0,0,0-.09,1.37l.83-1.06a14.42,14.42,0,0,0,1-1.35,8.1,8.1,0,0,0,.72-1.35,1.3,1.3,0,0,0,.05-1.1.44.44,0,0,0-.41-.27A.84.84,0,0,0,135.23,36.55Z" transform="translate(-4.67 -19.17)"/><path class="cls-1" d="M147.92,43.8q-.58.86-1.08,1.62t-1,1.53a2.77,2.77,0,0,1-1.29,1.14,5.47,5.47,0,0,1-1.68.43,1.86,1.86,0,0,1-1.85-.81,4,4,0,0,1-.31-.45,2.45,2.45,0,0,1-.23-.49,13.4,13.4,0,0,1-.61-4.59,8.31,8.31,0,0,1,1.6-4.37,4.81,4.81,0,0,1,1.6-1.51,6.35,6.35,0,0,1,2-.76,6.25,6.25,0,0,1,2.2,0,4.88,4.88,0,0,1,2,.81,2.27,2.27,0,0,0,1.21.36l.77.09a.62.62,0,0,1,.38.18.5.5,0,0,1,.07.4c0,.18-.09.44-.18.77-.15.69-.3,1.38-.43,2.09s-.28,1.42-.43,2.14a1.46,1.46,0,0,0,0,.47c0,.16,0,.38,0,.65q.31-.23.54-.36a1.23,1.23,0,0,0,.36-.31c.3-.33.56-.61.79-.84l.65-.63q.32-.29.63-.6c.21-.21.47-.48.77-.81s.54-.56.74-.59a4.23,4.23,0,0,1,1.24.18c-.09.15-.18.29-.25.43s-.16.26-.25.38c-.33.36-.61.68-.83,1l-.65.78-.66.79c-.22.27-.5.59-.83.95a5.86,5.86,0,0,1-1.17,1.12,2.31,2.31,0,0,1-2.11.45A3.11,3.11,0,0,1,147.92,43.8ZM143.42,46l.2.09.2.09,2.48-3.74q1.22-1.84,2.38-3.69c-.24-.24-.46-.46-.65-.67l-.56-.59a1.93,1.93,0,0,0-1-.65c-.24,0-.57.19-1,.61a5.39,5.39,0,0,0-.59.58,8.23,8.23,0,0,0-1.6,3.83A14.14,14.14,0,0,0,143.42,46Z" transform="translate(-4.67 -19.17)"/><path class="cls-1" d="M162.27,39.43c.3-.18.49-.13.58.14a1.06,1.06,0,0,1,.09.54c-.18.45-.44,1.11-.78,2s-.74,1.79-1.17,2.72-.9,1.79-1.38,2.59a5.39,5.39,0,0,1-1.3,1.6,1.24,1.24,0,0,1-1.78-.14,5.94,5.94,0,0,1-1.1-2.18,20.74,20.74,0,0,1-.61-2.79c-.13-.95-.23-1.6-.29-2-.12-1.08-.2-2.32-.23-3.73s0-2.82.09-4.21.24-2.7.43-3.92a12.56,12.56,0,0,1,.74-2.85,41.2,41.2,0,0,0-.87,7.29,59.91,59.91,0,0,0,.24,7.42,46.09,46.09,0,0,1,1.35-15.39,1.55,1.55,0,0,1,.12-.38c0-.11.08-.2.11-.29a8.79,8.79,0,0,0,.92-.48c.29-.16.58-.32.88-.47.36.06.56.2.61.43a2.57,2.57,0,0,1,0,.74c-.06.78-.14,1.57-.25,2.36s-.19,1.59-.25,2.37q-.31,4.46-.54,9.09c0,.39,0,.84,0,1.35s0,1,0,1.57v3c0,.6.14.88.34.83s.42-.28.67-.72.55-1,.88-1.66.65-1.35,1-2,.6-1.27.87-1.8A3.59,3.59,0,0,1,162.27,39.43Z" transform="translate(-4.67 -19.17)"/><path class="cls-1" d="M172.3,41.73A23.82,23.82,0,0,1,171,43.8a14.85,14.85,0,0,1-1.8,2.07A9.1,9.1,0,0,1,167,47.4a4.14,4.14,0,0,1-2.37.45,3.15,3.15,0,0,1-2.36-1.4,5.73,5.73,0,0,1-.85-2.7,12.37,12.37,0,0,1,1-5.71,4.63,4.63,0,0,1,2.07-2.37,4.2,4.2,0,0,1,2.88-.29,1.72,1.72,0,0,1,1.1.95,2.32,2.32,0,0,1,.09,1.39,5.31,5.31,0,0,1-.63,1.6,8.26,8.26,0,0,1-1.08,1.51A11,11,0,0,1,165.67,42a2.63,2.63,0,0,1-1.06.58A13.69,13.69,0,0,0,164.7,44a3.59,3.59,0,0,0,.36,1.33.83.83,0,0,0,1.12.43,5.71,5.71,0,0,0,1.8-1,17,17,0,0,0,2.07-2,23.5,23.5,0,0,0,2-2.49c.45-.45.75-.67.88-.66s.18.15.14.39a3.64,3.64,0,0,1-.32.87C172.57,41.24,172.42,41.52,172.3,41.73Zm-5.94-5.18a7.9,7.9,0,0,0-.78,1.17,5,5,0,0,0-.45,1.08,7.77,7.77,0,0,0-.25,1.15,9.35,9.35,0,0,0-.09,1.37l.83-1.06a14.42,14.42,0,0,0,1-1.35,8.1,8.1,0,0,0,.72-1.35,1.29,1.29,0,0,0,0-1.1.43.43,0,0,0-.4-.27A.86.86,0,0,0,166.36,36.55Z" transform="translate(-4.67 -19.17)"/><path class="cls-1" d="M185.62,45.55c.48.06.93.14,1.35.23s.89.16,1.4.22l-.18,1.64c-.06.56-.14,1.15-.23,1.78l-.56.23a1,1,0,0,1-.65,0,1.81,1.81,0,0,1-.72-.18c-.27-.12-.41-.25-.41-.4-.06-.57-.09-1.14-.11-1.71s0-1.16,0-1.76a.12.12,0,0,0,.09,0S185.62,45.58,185.62,45.55Zm3.78-3.78a3.8,3.8,0,0,1-.76.32,2.69,2.69,0,0,1-2,0c-.39-.25-.61-.83-.67-1.73q-.09-3,.11-6a49.93,49.93,0,0,1,.79-6l.63-3.42c.21-1.14.43-2.26.67-3.37a5.22,5.22,0,0,1,.23-.81,5.25,5.25,0,0,0,.22-.81,1.36,1.36,0,0,0,.74-.21c.23-.13.46-.25.7-.36a2.77,2.77,0,0,1,.75-.2,1.37,1.37,0,0,1,.87.27q-.18,2.75-.54,5.51t-.72,5.58c-.24,1.88-.45,3.75-.65,5.61S189.43,39.88,189.4,41.77Z" transform="translate(-4.67 -19.17)"/></svg>