<svg id="_ÎÓÈ_1" data-name="—ÎÓÈ_1" xmlns="http://www.w3.org/2000/svg" xmlns:xlink="http://www.w3.org/1999/xlink" viewBox="0 0 196.15 165.33"><defs><style>.cls-1,.cls-3{fill:#fff;}.cls-1,.cls-2{clip-rule:evenodd;}.cls-2{fill:none;}.cls-3,.cls-4,.cls-6{fill-rule:evenodd;}.cls-5{clip-path:url(#clip-path);}.cls-6,.cls-8{fill:#ffd140;}.cls-7{clip-path:url(#clip-path-2);}</style><clipPath id="clip-path"><path class="cls-1" d="M123.31,49.53l5.29-.61a3.48,3.48,0,0,0,2.85,2.88c2.47.33,9.13-1.23,12.85,3.85S156,71.88,156.06,72.57a8.21,8.21,0,0,1-2.46,6.54C150.85,82,141.38,90.2,141.38,90.2l-1.63-5.71,6.12-9.93-5.86-8,3,24.71-21.79-1.41-.42-6-4.23-17.43a91.2,91.2,0,0,1-7.34,7c-2.81,2.2-5,3.4-6.92.77s-5.1-18.87-5.1-18.87a19.89,19.89,0,0,0,3.33-1.22l3.91-2,2.86,11s4.76-7.78,7.59-8.91,4.06-1.53,5.83-1.38,3.53-.54,2.83-1.73S123.31,49.53,123.31,49.53Z"/></clipPath><clipPath id="clip-path-2"><path class="cls-2" d="M46.61,91.78l2.87,1.59,4.34.9,2.29.68,2.34-1s1.15-1,1.24-1L62,92.45l.85.06s0,1.25-.18,1.16-.87.56-1,.63-1,.65-1,.65-.24.65-.15.8.27.22.7.22a6.71,6.71,0,0,0,1.65-.22,10.12,10.12,0,0,0,1-.51,7.3,7.3,0,0,0,1.21-1c0-.09.65-1,.65-1s1-.25,1-.22a5,5,0,0,0,.48-.36s.37-.75.55-1.18,0-1.65.58-2.48,1-1.75,1.2-2.16a4.72,4.72,0,0,0,.46-1.84,41.68,41.68,0,0,0-2.76-3.88c-.24-.19-.28-.87-2-1s-1.65-.73-3.82-1.06a41.28,41.28,0,0,0-6-.65c-.67.12-1-1.35-1.68.42s.24,1.17-.83,2.53A3.19,3.19,0,0,0,52,84l-.77,1.31-.82,1.34-.82,1.43L49,89.51l-1.42,3.27Z"/></clipPath></defs><path class="cls-3" d="M155.39,71.55c-.7-1.34-9.88-14.5-12.59-17.7s-10.41-1.88-12-2.08-2.47-3.72-2.47-3.72l.42-2.66a23.59,23.59,0,0,0,3.08-3.78c1.12-1.85.21-4.16-.93-6a13.87,13.87,0,0,1-1.57-3.37,2.47,2.47,0,0,0-.93.26c-.52.25-1.44-.25-2.69-.77s-4.68.52-6.86,1.32a3.89,3.89,0,0,1-3.34,0l.13,2.18-2.21.09.19,1.29-.51,1.18,2.82,1.6-.06,1,.54.44a16,16,0,0,0-.16,2.15c0,.81,1.3,4.11,2.85,5.1a4.68,4.68,0,0,0,3.62.25s1.15,2.59.87,3.56-5.42,1-8.33,2-8,9.36-8,9.36-3.55-11.88-4.65-16.54-1.48-5-2.6-5.64-2.27.61-2.27.61-.75-.31-1.61-.58S95,42,95,42s-1-.72-2,.64a3.82,3.82,0,0,0-.25,3.2l1.47-.51s0,.83,1.09.42c.28-.11.82-.4,1-.49,0,0,0,0,0,0l0,0a.59.59,0,0,0,.72.55c.58-.16-2.61,1.23-2.53,1.51,1.08,3.75,3.28,12.2,4.9,18.2,2.23,8.24,2.57,9.06,4.74,10.1s3.53-.65,4.56-1.41,7.94-7.76,7.94-7.76l4.2,17.15,0,6.22-4.17,37,30.33.29-3.21-32.91-1.51-13-.06-.46-1.63-14,6.47,8.3-4.84,5.73.06.47,1.06,8.57s6.22-6.3,10.16-10.12S156.09,72.88,155.39,71.55Z"/><path class="cls-4" d="M127.69,43.68l-.61,1.63L128.49,48l0-2.37s2.91-2.11,3.2-4.2.48-4-.22-5.29-1.83-2.89-1.83-2.89l-.32-.83-1,.32s-3.44-1.26-5.84-.74-4.54,1.67-5.09,1.41-1.73-.64-1.73-.64l-.26,2.54-1.83-.07.26,1.38-.67.8L115.35,39l.86-1.92.39-.45.77.42,6-1.38.7.83,1.22.07a31.75,31.75,0,0,0,.23,3.39,4.74,4.74,0,0,0,.7,1.7l1.09-.58s.29-1.31,1-1.15,1.75-.27,1.61.67a4.27,4.27,0,0,1-.9,2.28A4.18,4.18,0,0,1,127.69,43.68Z"/><path class="cls-3" d="M123.31,49.53l5.29-.61a3.48,3.48,0,0,0,2.85,2.88c2.47.33,9.13-1.23,12.85,3.85S156,71.88,156.06,72.57a8.21,8.21,0,0,1-2.46,6.54C150.85,82,141.38,90.2,141.38,90.2l-1.63-5.71,6.12-9.93-5.86-8,3,24.71-21.79-1.41-.42-6-4.23-17.43a91.2,91.2,0,0,1-7.34,7c-2.81,2.2-5,3.4-6.92.77s-5.1-18.87-5.1-18.87a19.89,19.89,0,0,0,3.33-1.22l3.91-2,2.86,11s4.76-7.78,7.59-8.91,4.06-1.53,5.83-1.38,3.53-.54,2.83-1.73S123.31,49.53,123.31,49.53Z"/><g class="cls-5"><path class="cls-4" d="M116.3,66.89l22.56-2,2.37,2.54,8.62-6.93L154.69,66l-9.42,6.06-28,3.65-5-4.36s.62-3.7-1.18-6.31-3.24-2.73-3.24-2.73l2.66-3a5.85,5.85,0,0,1,3.46,2.15C116.52,64.49,116.3,66.89,116.3,66.89Z"/></g><path d="M97.66,55.66a1.66,1.66,0,0,1-1-.27.83.83,0,0,1-.32-.77.47.47,0,0,1,.53-.42.47.47,0,0,1,.43.46,4.91,4.91,0,0,0,2.55-.47c1.85-.69,3.43-1.82,3.61-2.37a.48.48,0,0,1,.61-.3.47.47,0,0,1,.3.6c-.34,1.05-2.37,2.29-4.19,3A7.89,7.89,0,0,1,97.66,55.66Z"/><path class="cls-4" d="M143.41,90c1.22,10.89,2.55,21.88,3.75,32.88.08.68.15,1.45.26,2.37.05.46.47,2-.29,2s-.59-1.44-.64-1.92c-1.26-11.32-2.66-23-3.91-34.26-7-.21-14.28-.32-21.31-.55-1,10.89-2.37,21.29-3.59,32.05-.13,1.11-.23,2.2-.39,3.43-.07.55-.3.89-.73.67s-.25-.69-.2-1.18c1.21-10.16,2.37-20.17,3.53-30.42.19-1.7.41-3.57.45-5.44,0-1,0-2,0-2.95a25,25,0,0,0-.07-2.89,20.16,20.16,0,0,0-.48-2.05c-1.09-4.74-2.22-9.67-3.3-14.42-.2,0-.31.22-.41.32C114,69.72,111.87,72,109.63,74a13.61,13.61,0,0,1-2,1.44,5.47,5.47,0,0,1-2.44,1c-2,.17-3.2-1.28-4.07-2.69a10.85,10.85,0,0,1-.9-2.53c-1.64-5.73-2.92-11.74-4.42-17.73A7.37,7.37,0,0,1,95.53,52c0-.33.58-.6.74-.8,1.58,6.35,3,12.85,4.74,19.17a17.09,17.09,0,0,0,.8,2.59,5.39,5.39,0,0,0,1.48,1.83,2.68,2.68,0,0,0,2.5.51,9,9,0,0,0,2.11-1.15,13.67,13.67,0,0,0,1.77-1.51c2.29-2.11,4.4-4.37,6.53-6.57-.1-.36-.22-.94-.35-1.47s-.43-1.42.35-1.35c.4,0,.45.61.55,1.06,1.28,5.63,2.62,11.14,3.91,16.79a25.68,25.68,0,0,1,.58,2.6c.19,1.88,0,4.07.06,5.86l21.12.52c-.17-2.58-.57-5.2-.84-7.79a11.48,11.48,0,0,0-1.08,1.25c-.27.33-.73,1.17-1.22,1.09-.86-.14-.1-1,.16-1.28l1.34-1.64a3.56,3.56,0,0,0,.64-.83,9.05,9.05,0,0,0-.19-1.73c-.39-3.43-.79-6.91-1.18-10.35a11,11,0,0,0-.2-1.7c-.09-.32-.49-.66-.73-1-.58-.71-.9-1.13-1.51-1.89-.25-.32-.66-.7-.54-1.06a.44.44,0,0,1,.41-.29c.45,0,1,.83,1.32,1.28,2.74,3.46,5.34,6.65,8.07,10.07.32-.06.54-1.1,1.16-.93s.08,1-.07,1.18c-1.82,2.19-3.83,4.59-5.54,6.73.29,2.56.6,5.1.86,7.69.15.09.23-.13.29-.19.65-.65,1.34-1.37,2-2.05,2.71-2.71,5.46-5.47,8-8.33a16.37,16.37,0,0,0,1-1.32,3.81,3.81,0,0,0,.9-3.52A11.09,11.09,0,0,0,154,70.43c-.59-.9-1.24-1.81-1.89-2.79-2.52-3.75-5.12-7.48-7.73-11-1.24-1.68-2.9-3.51-5.35-4a34.3,34.3,0,0,0-6.6-.29,5.92,5.92,0,0,1-2.24-.19c-1-.45-1.2-1.7-1.77-2.63-1.48.2-3,.38-4.48.55a1.88,1.88,0,0,1-.58,2.63,14.58,14.58,0,0,1-2.72.61c-1,.18-1.92.35-2.79.54-3.6.79-5.56,3.33-7.41,5.87-.92,1.27-1.82,2.45-2.78,3.84.1.34.24.83.41,1.44.11.39.61,1.58-.22,1.54-.41,0-.55-.69-.71-1.25-1.56-5.58-3.08-11.26-4.68-16.79-.27-.94-.56-2-.83-3.08a15.55,15.55,0,0,0-.86-3c-.29-.55-1.21-1.27-2-1a3.08,3.08,0,0,0-1.31,1.47A7,7,0,0,0,96.81,45c.9-.11,1.13-.76,1.58-1.51.2-.35.53-1.23,1-1.22,1,0,0,1.5-.26,1.86C98.64,45,98,46.08,96.59,46a1,1,0,0,1-.61-.26,1.23,1.23,0,0,1-2,0c-.4.46-1.55.73-2,.13a3.72,3.72,0,0,1,0-2.18c.31-1.33,1.07-2.78,2.92-2.34.21-.12.33-.4.73-.48.63-.13,1.54,0,1.73.48.34-.23.48-.45.77-.61a2.7,2.7,0,0,1,3.34,1.12,10.05,10.05,0,0,1,.8,2.5c1.5,6.06,3.41,12.15,5,18,.18-.07.28-.27.39-.41.81-1.11,1.63-2.28,2.47-3.4a14.92,14.92,0,0,1,5.25-4.84c1.87-.9,4.43-1.15,6.8-1.64.48-.09,1-.21,1.09-.57a3.48,3.48,0,0,0-.36-1.32c-.16-.48-.3-.9-.41-1.25a4.78,4.78,0,0,1-5-1.79,7.76,7.76,0,0,1-1.28-2.24c-.15-.43-.71-2.8.12-2.82.63,0,.44.7.52,1.41a4.58,4.58,0,0,0,.41,1.5c.82,1.72,1.88,3.33,4.49,3.14a4.62,4.62,0,0,0,1.47-.45c.5-.21,1.58-1,1.67-.16s-1.17.8-1.54,1.13c.05.19.14.35.19.54,1.41-.12,3-.36,4.43-.51-.3-.81-.62-1.54-1-2.37a2.66,2.66,0,0,1-.29-.8,3.39,3.39,0,0,1,.25-1,3.27,3.27,0,0,1,.29-.93c.17-.22.58-.28.9-.48a2.27,2.27,0,0,0,1.06-1.34,1.63,1.63,0,0,0,.12-.77.77.77,0,0,0-1.47,0c.47,0,1-.19,1.06.29,0,.68-1.22.43-1.83.61-.38.1-.42.57-.9.54s-.59-.58-.76-.93A10,10,0,0,1,125,37c-.78.1-1.55-.08-1.6-.83-1.5.31-3,.74-4.55,1.12-.74.19-1.54.55-2.21.16a24.33,24.33,0,0,0-.13,2.76c1.56.49,3.43,1.11,3.27,3.24a4.19,4.19,0,0,1-.29,1c.11.28.56.31.51.74s-.71.32-.83.26-.66-.41-.71-.64c-.08-.43.42-1.13.42-1.61,0-1.6-1.83-1.88-3.11-2.27-.39-.12-.86-.46-.35-.87.21,0,.24-.3.19-.45s-.52-.28-.77-.38a4.31,4.31,0,0,1-.73-.39c-.5-.3-1.21-.65-1.25-1s.37-.67.51-1.12c-.06-.51-.48-1-.32-1.44s1.31-.24,2-.42c-.19-.65-.22-2,.35-2.18a2.49,2.49,0,0,1,1.06.13,4,4,0,0,0,1.18.13,13.81,13.81,0,0,0,2.69-.87,9.7,9.7,0,0,1,6.89-.13,5.21,5.21,0,0,0,1.22.29c.42,0,.75-.38,1.12-.29s.51,1,.71,1.45a8.09,8.09,0,0,0,.64.92,7.61,7.61,0,0,1,1.41,3.24,10.17,10.17,0,0,1-.67,5.42A10.33,10.33,0,0,1,129,45.69c-.14.62-.17,1.35-.35,1.92.3.65.51,1.29.86,2,.25.5.63,1.49,1.12,1.7a7.16,7.16,0,0,0,2.34.09,26.73,26.73,0,0,1,6.8.42c2.49.7,4.08,2.57,5.38,4.29,2.77,3.69,5.36,7.49,8,11.35.68,1,1.34,1.93,2,2.88a10.14,10.14,0,0,1,1.5,3.34,4.74,4.74,0,0,1-1,3.75c-2.05,2.84-4.56,4.93-7,7.56-1.11,1.22-2.42,2.4-3.62,3.65A4.42,4.42,0,0,1,143.41,90ZM128.19,33.16c-.69-.08-1.47-.37-2.28-.55a8,8,0,0,0-2.53-.28,14.84,14.84,0,0,0-3,.73c-1.47.49-2.87,1.17-4.52.61-.27.66.3,1.18.19,1.73s-1.33.28-2,.48a1.64,1.64,0,0,1-.16,1.8,6.18,6.18,0,0,0,1.7.93c0-.88,0-2.14,1-2.15.22,0,.44.23.71.26a6.19,6.19,0,0,0,1.57-.39l3.17-.77a5.11,5.11,0,0,1,1.67-.32c.39.07.54.58.7.87.55.07,1.07-.33,1.41,0s.13,1.44.13,2.08a5.58,5.58,0,0,0,.48,3c.76-.42.91-1.39,1.76-1.66a1.7,1.7,0,0,1,2.18,1.5A3.42,3.42,0,0,1,128,44.18c-.15.66-.54,1.32-.07,1.86a1.5,1.5,0,0,1,.81-1.41,8.31,8.31,0,0,0,1.82-1.73c1.11-1.56,1-5.29.23-6.89a18.13,18.13,0,0,1-1.73-3A1.51,1.51,0,0,1,128.19,33.16Zm-32.3,8.59a13,13,0,0,0-1,2.56c-.08.3-.26.68,0,.93a5,5,0,0,0,1-.7A7.07,7.07,0,0,1,97,41.88C96.61,41.87,96.27,41.67,95.89,41.75Zm-2.7,1.44a3.82,3.82,0,0,0-.28,2.05,4.78,4.78,0,0,0,.92-.58,19.15,19.15,0,0,1,.77-2.46C93.7,42.05,93.45,42.6,93.19,43.19Zm49.07,36.69c1.38-1.55,2.65-3.22,4-4.8-1.72-2.24-3.51-4.41-5.28-6.61C141.39,72.29,141.85,76.06,142.26,79.88Z"/><path class="cls-4" d="M121.52,38.93c.54,0,2,.14,2,.7,0,.92-1.35.11-2,.19a1.79,1.79,0,0,0-.7.36c-.2.12-.48.35-.74.32a.46.46,0,0,1-.38-.42c0-.36.54-.65.73-.77A2.2,2.2,0,0,1,121.52,38.93Z"/><path class="cls-4" d="M122.61,44.12a.44.44,0,0,1,.61.35c0,.38-.7,1.16-1,1.38s-1.66,1.09-1.6.1c0-.35.73-.57,1-.81C122.1,44.76,122.24,44.23,122.61,44.12Z"/><path class="cls-6" d="M102.34,43.14h-15v4a2.7,2.7,0,0,1,0,5.4V58.1h4.79a2.7,2.7,0,1,0,5.4,0h4.78Z"/><path d="M94.86,61.29a3.19,3.19,0,0,1-3.15-2.71H87.37a.49.49,0,0,1-.48-.48V52.58a.48.48,0,0,1,.48-.48,2.22,2.22,0,0,0,0-4.44.49.49,0,0,1-.48-.48v-4a.49.49,0,0,1,.48-.48h15a.49.49,0,0,1,.48.48v15a.49.49,0,0,1-.48.48H98A3.18,3.18,0,0,1,94.86,61.29Zm-7-3.67h4.31a.48.48,0,0,1,.48.48,2.22,2.22,0,1,0,4.44,0,.48.48,0,0,1,.48-.49h4.3v-14h-14v3.11a3.18,3.18,0,0,1,0,6.29Z"/><path class="cls-3" d="M102,77.73v-15H98a2.7,2.7,0,1,1-5.4,0H87.06v4.79A2.7,2.7,0,0,0,87,73s0,4.78,0,4.78Z"/><path d="M102,78.21h-15a.47.47,0,0,1-.48-.48V73.39a3.18,3.18,0,0,1,0-6.29V62.76a.48.48,0,0,1,.48-.48h5.52a.49.49,0,0,1,.48.48,2.22,2.22,0,0,0,4.44,0,.48.48,0,0,1,.48-.48h4a.49.49,0,0,1,.48.48v15A.48.48,0,0,1,102,78.21Zm-14.48-1h14v-14H98.42a3.18,3.18,0,0,1-6.29,0H87.54v4.31a.49.49,0,0,1-.48.48,2.22,2.22,0,0,0,0,4.44.49.49,0,0,1,.5.48Z"/><path class="cls-3" d="M94.21,41.73a11.64,11.64,0,0,0-1.32.88,3.87,3.87,0,0,0-.34.78,2.29,2.29,0,0,0-.14.85,7.6,7.6,0,0,1,0,.83c0,.38-.09.59.15.62a3.12,3.12,0,0,0,.86-.11c.32-.07.53-.4.8-.32s.61.43.83.44.56.15.85-.14.06-.41.46-.22A2.28,2.28,0,0,0,97.92,45c.09-.15.46-.67.6-.88s.5-.8.5-.8l.06-.16.61-.51,1.82-.08s-1-1.33-1-1.37-1.14-.43-1.2-.45a4.31,4.31,0,0,0-1.21.48c0,.11-.23.24-.35.29s-.38.16-.48.09a6.14,6.14,0,0,0-.56-.4c-.07,0-.64.1-.82.13S94.21,41.73,94.21,41.73Z"/><path class="cls-4" d="M102.08,43.28a6.34,6.34,0,0,0-.55-1.47,2.7,2.7,0,0,0-3.34-1.12c-.29.16-.43.38-.77.61-.19-.46-1.1-.61-1.73-.48-.4.08-.52.36-.73.48-1.85-.44-2.61,1-2.92,2.34a3.72,3.72,0,0,0,0,2.18c.41.6,1.56.33,2-.13a1.23,1.23,0,0,0,2,0,1,1,0,0,0,.61.26c1.38.1,2-1,2.53-1.83.22-.36,1.28-1.84.26-1.86-.46,0-.79.87-1,1.22-.45.75-.68,1.4-1.58,1.51a7,7,0,0,1,.68-2.09,3.08,3.08,0,0,1,1.31-1.47c.75-.31,1.67.41,2,1a5.13,5.13,0,0,1,.33.86Zm-8.25,1.38a4.78,4.78,0,0,1-.92.58,3.82,3.82,0,0,1,.28-2.05c.26-.59.51-1.14,1.41-1A19.15,19.15,0,0,0,93.83,44.66ZM96,44.54a5,5,0,0,1-1,.7c-.29-.25-.11-.63,0-.93a13,13,0,0,1,1-2.56c.38-.08.72.12,1.12.13A7.07,7.07,0,0,0,96,44.54Z"/><path class="cls-4" d="M118.27,41.64a.64.64,0,0,1,.65.64v.77a.65.65,0,0,1-1.29,0v-.77A.64.64,0,0,1,118.27,41.64Z"/><path class="cls-4" d="M122.25,40.74a.64.64,0,0,1,.64.64v.77a.64.64,0,0,1-.64.64.64.64,0,0,1-.64-.64v-.77A.64.64,0,0,1,122.25,40.74Z"/><path class="cls-3" d="M42.55,99.09a4.82,4.82,0,0,0,3.21.9s-.84,2.21-1.48,4-1.63,6.34-1.63,6.34l-.94,16.8H72.65L64,104.54l-.35-3.75a31.8,31.8,0,0,0,3-1.41c1.21-.69,1.75-3.16,1.57-3.94S67,94.83,67,94.83l-.16-.93,1-1.35,1.86-1.15A12.88,12.88,0,0,0,72,89.19S80.66,98.46,82.9,99s3.54-1.41,4.94-3.94S94.38,82,94.38,82a57.31,57.31,0,0,0,5.9-1.45c1.87-.66,5.19-4.08,5.44-4.39s-.45-.82-1.41-1.34S101.08,76,101.08,76s.14-2.15.13-2.82-.73-.17-1.48.16-1.06,2.57-1.06,2.57l-1,1.92s-2.1-.42-3.56-.55a6.38,6.38,0,0,0-3.94,1.51c-.66.59-6.86,9.84-6.86,9.84l-1.54-2.34s1.68-2.48,1.61-4-2.22-4-2.22-4a8.24,8.24,0,0,0,.93-3.46c.09-2-3.17-3.37-3.17-3.37a26,26,0,0,0,0-10.9,11.73,11.73,0,0,0-7.82-8.65c-4.52-1.61-8.47,2-9.81,3.24s-5.51,17.79-5.51,17.79a9.23,9.23,0,0,0-4.84,1c-2.27,1.27-6.87,13-8.91,18.53S41.44,98,42.55,99.09Z"/><path class="cls-4" d="M72.1,127.12,64,105.48l-.48-4.63a10.13,10.13,0,0,1-4.1.33c-3-.14-13.69-.73-13.69-.73a40.51,40.51,0,0,0-3.46,15.19c-.06,8-.23,11.61-.23,11.61Z"/><path class="cls-4" d="M49.74,93.06,53.2,86.2a9.31,9.31,0,0,0-2.27-4,16.62,16.62,0,0,0-3.53-2.57A14.35,14.35,0,0,1,50,75.4a8.49,8.49,0,0,1,3.11-2.05,6,6,0,0,0,4,4.23c3.41,1.15,6.94,3.11,11.48,2s6.22-3.46,6.22-3.46a4,4,0,0,1,2.75,2.4c1.09,2.19,2,3.85,2,3.85A9.39,9.39,0,0,0,75.22,86a20.6,20.6,0,0,0-2.3,4.14L71.6,88.8s-1.17,2.57-2.47,3.14a9,9,0,0,0-2.24,1.46l-.22-.18s0-.8-.84-.09-.75,1.66-2,2.11a12.05,12.05,0,0,1-3.11.51L61,94.41c-.09.48,2.31-.75,1.49-1.92-.36-.51-1.65-.48-2.6,0A30.16,30.16,0,0,0,56.35,95Z"/><path class="cls-3" d="M81.93,85.85s2.21-2.3,1.22-4.55a6.87,6.87,0,0,0-2.18-3s1.51-2.84.58-4.3A9.68,9.68,0,0,0,79,71.49s1.26-8.72-1.18-13.65c-1.79-3.59-6.2-6-8.85-6a9.21,9.21,0,0,0-9.14,6.34c-1.75,5.31-4.52,15-4.52,15s5.64.48,6.3-.7,2.07-4.62,2.07-4.62l-.9-2.37s-1.95-1-1.7-2.47.92-2.2,1.45-1.67a5.32,5.32,0,0,0,1.44.93s4.34-.88,5.83-1.79a16.16,16.16,0,0,0,3.18-3,2.91,2.91,0,0,1,1.44,1.79,7.83,7.83,0,0,1,.29,1.63l-.55.16s1,7.15-2.27,8.27-4.11.71-4.11.71-1.87,3.84-.38,4.23,7.37.79,9.61,3.59A61.51,61.51,0,0,1,81.93,85.85Z"/><path class="cls-4" d="M103.18,74.32a12.51,12.51,0,0,0-1.76.64c.06-.87,0-2-.67-2.15s-1.72.78-2,1.25-.16.88-.32,1.31a4.26,4.26,0,0,1-.61.93c-.22.3-.47.81-.7.87a3.15,3.15,0,0,1-.71-.07c-1.56-.13-3.69-.37-5,.16a8,8,0,0,0-3.17,3c-1.65,2.37-3.25,5-4.9,7.44-.28-.54-.64-1-.9-1.54a6.79,6.79,0,0,0,1.32-3.68c0-2.12-1.3-3.28-2.25-4.43a9.3,9.3,0,0,0,.74-2.56c.13-2.19-1.7-3.25-2.79-4.33a27.43,27.43,0,0,0,.13-7.69c-.22-2.51-.6-5-1.64-6.66a11.56,11.56,0,0,0-4.23-4A9.93,9.93,0,0,0,67,51.53a8.94,8.94,0,0,0-5.45,2.82c-1.4,1.41-2,3.45-2.66,5.64-1.29,4.21-2.53,8.57-3.81,12.76-4-.19-5.75,2.13-7.11,4.71S45.44,83,44.31,85.6,41.93,91.15,40.88,94c-.56,1.52-1,3.32,0,4.62A5.6,5.6,0,0,0,45,100.43,71.64,71.64,0,0,0,42.61,108a54,54,0,0,0-.83,9.16c-.16,3.24-.31,6.57-.44,9.91h.95c.13-3.35.27-6.69.42-10a50.6,50.6,0,0,1,.9-9A52.36,52.36,0,0,1,46,100.53c2.74.25,5.65.42,8.56.61a44.07,44.07,0,0,0,8.59,0c.19,1.26.05,2.57.32,3.78a16.74,16.74,0,0,0,.73,2c2.6,6.74,5.15,13.43,7.69,20.13h1c-2.56-6.83-5.16-13.56-7.77-20.35a14.25,14.25,0,0,1-.73-2c-.24-1.21-.15-2.65-.32-3.78a6.5,6.5,0,0,0,3.07-1.64,5.77,5.77,0,0,0,.87-1.47A4.71,4.71,0,0,0,68.57,96a1.48,1.48,0,0,0-1.38-1.51c.16-.72,0-1.56-.51-1.73a1.91,1.91,0,0,0-1.67.64c-.48.49-.63,1.24-1.31,1.6a9.5,9.5,0,0,1-2.76.58c.08-1,1.2-.87,1.77-1.41a1.72,1.72,0,0,0,.44-1.79c-.29-.55-1.44-.4-2.17-.29a4.93,4.93,0,0,0-1.83.58c-1.15.64-1.83,1.43-2.89,1.92-1.92-.48-3.89-.92-5.83-1.38,1.11-2.43,2.51-4.84,3.62-7.28.17-.35.25-.95-.29-1-.38,0-.52.48-.7.84-1.21,2.41-2.41,4.87-3.62,7.18-.49-.13-1.57-.54-1.57.22,0,.55,1.28.7,1.86.83,1.93.46,3.64.84,5.51,1.28a4.5,4.5,0,0,0,1.15.23,3.22,3.22,0,0,0,1.38-.74c1.21-1,2.46-2,4.52-1.86-.17.86-1.22.78-1.76,1.35-.29.3-.92,1.67-.58,2.15s1.68,0,2.21-.07a7.47,7.47,0,0,0,2-.54c1.07-.57,1.17-1.8,2.15-2.09a2.53,2.53,0,0,1-.68,1.67,3.77,3.77,0,0,1-1.41,1.47c-.41.21-1.76.34-1.73.93s.87.39,1.35.23a4.65,4.65,0,0,0,2.63-2.12c.08-.13.21-.47.41-.51s.2.06.45.1a9.92,9.92,0,0,1-1.7,2.46,4.45,4.45,0,0,1-1.31.71c-.41.16-1.1.22-1.06.74,0,.7,1.09.26,1.44.13a4.34,4.34,0,0,0,2.25-1.64c0-.07.09-.07,0,0-.73,1.52-2.47,2.09-4.46,2.44a17.67,17.67,0,0,1-3.2.09c-4.43-.09-8.55-.39-12.69-.8a18.53,18.53,0,0,1-3-.35,3.1,3.1,0,0,1-2.37-2.34,5.79,5.79,0,0,1,.32-1.8,14.86,14.86,0,0,1,.55-1.6c1.19-3.09,2.51-6.13,3.78-9,.84-1.93,1.66-4,2.66-5.89s1.91-3.79,4-4.55a23,23,0,0,0,1.74,2.24,7.59,7.59,0,0,0,2.33,1.67,26.1,26.1,0,0,0,6.06,2,18.55,18.55,0,0,0,7.24-.06,8.13,8.13,0,0,0,4.56-2.44c.14-.16.24-.41.48-.48a5.91,5.91,0,0,1,2.4,2.5c1.75,3.14,3.76,6.18,5.54,9.2-.27.38-.6.92-.93,1.44-.17.28-1,1.35-.16,1.48.52.07,1-1.07,1.29-1.48,1.84-2.94,3.68-5.71,5.57-8.56a13.81,13.81,0,0,1,1.19-1.63,7.41,7.41,0,0,1,1.44-1.41c1.15-.73,3.28-.55,5-.42a5.17,5.17,0,0,0,1.31.1c.31-.08.72-.72,1-1.09a8.09,8.09,0,0,0,.8-1.31c.13-.33.19-.83.28-1.16a1.4,1.4,0,0,1,.81-.73,4.25,4.25,0,0,1-.77,3.3c-.25.39-.5.81-.84,1.28-.2.28-.87.84-.73,1.31a.42.42,0,0,0,.38.32c.43,0,.75-.56.9-.77a13.62,13.62,0,0,0,1.86-3.14,7.52,7.52,0,0,1,2.43-.89,11.55,11.55,0,0,1-3.07,3.9,8.15,8.15,0,0,1-1.32,1,8,8,0,0,1-1.31.45c-1,.3-1.73.51-2.73.8a6,6,0,0,0-1.37.42,6.55,6.55,0,0,0-1,1.82C91.92,85.59,91,87.51,90,89.31S88.21,93.12,87.22,95c-.89,1.66-1.49,3.49-4,3.5-1.69,0-2.57-.91-3.53-1.73a36.68,36.68,0,0,1-2.62-2.66c-1.42-1.47-3-3.24-4.46-4.78-.2-.21-.58-.51-.61-.73a6.32,6.32,0,0,1,.13-1.09,5.71,5.71,0,0,0-.54-3.15c.25-.51,1.34-.77,1.21-1.44a.41.41,0,0,0-.35-.38c-.43-.07-.81.48-1.06.7s-.8.53-.83.93.23.68.35,1c.69,1.91.11,4.54-1,5.57a10.25,10.25,0,0,1-1.22.84c-.22.14-1.12.53-1.06,1s.73.31,1,.13c1.22-.74,2.51-1.52,3-3,2.68,2.57,5.12,5.71,8,8.24a5.2,5.2,0,0,0,4,1.41C86.2,99.2,87.1,97.3,88,95.53c2.15-4.27,4.34-8.66,6.47-12.88a61.61,61.61,0,0,0,6.9-2.25,9.73,9.73,0,0,0,3.84-3,2.77,2.77,0,0,0,.8-1.5C106,74.91,104.28,74.15,103.18,74.32ZM79.56,81.43a28.46,28.46,0,0,0-2.34-3.85c-1.47-1.7-3.67-2.48-6.25-3-.79-.17-1.68-.28-2.53-.54-.3-.1-1-.36-1.09-.68a2.7,2.7,0,0,1,.16-.8c.18-.74.34-1.62.55-2.24a5.12,5.12,0,0,0,5.51-2.44,9.88,9.88,0,0,0,1.09-4.29c0-.76,0-1.31-.54-1.25s-.39.71-.42,1.38a8.79,8.79,0,0,1-.9,3.65,4.25,4.25,0,0,1-5.25,1.79A3.71,3.71,0,0,1,66,67.75c-.13-.18-.22-.38-.48-.39a.48.48,0,0,0-.52.39c-.05.47.59,1,.87,1.31a6.11,6.11,0,0,0,1.25.93c-.22.76-.36,1.63-.58,2.5a2.16,2.16,0,0,0-.13,1.06c.28,1.21,2.16,1.45,3.46,1.73a17,17,0,0,1,4,1.15c.16,0-.08.18-.13.23C72.79,78,71,78.65,69,79A20.63,20.63,0,0,1,57.19,77.2a8.32,8.32,0,0,1-3.65-3.43c1.77-.15,3.61-.06,5.45-.06a6.49,6.49,0,0,0,2.37-.1c1-.48,1.51-2,1.89-3.17.15-.48.32-1,.48-1.51a6.93,6.93,0,0,0,.39-1.57,5.55,5.55,0,0,0-1-2.43c-.23-.33-.58-.63-.86-1s-.71-.73-.74-1.12c0-.57.4-.94.7-1.25a3.59,3.59,0,0,1,1,.87c.31.31.89,1.16,1.34.7.2-.2.09-.49,0-.74a30.78,30.78,0,0,0,3.07-.6,3,3,0,0,1,1-.2c.54.1.62.83,1.22.8A.42.42,0,0,0,70.3,62c0-.48-.49-.57-.51-.9a9.33,9.33,0,0,0,3.08-3A5,5,0,0,1,74,60.38a3.77,3.77,0,0,0-3.26,3A3.73,3.73,0,0,0,71,66.11c-.05.21-.47.25-.48.61,0,.93,1.54.22,1.6-.26,0-.29-.21-.68-.32-1a2.45,2.45,0,0,1-.29-1.6,4.84,4.84,0,0,1,.77-1.73A2.73,2.73,0,0,1,74,61.34c.45-.1.94-.12,1-.45a2.66,2.66,0,0,0-.29-1.28,6.47,6.47,0,0,0-1-2c-.22-.3-.43-.76-.77-.77s-.68.53-.9.83a8.71,8.71,0,0,1-2.6,2.6,18.2,18.2,0,0,1-4.87,1.18,3.22,3.22,0,0,1-.73.13c-.25,0-.46-.38-.71-.58a1.52,1.52,0,0,0-.86-.38c-.92,0-1.88,1.39-1.64,2.53.2,1,1.21,1.61,1.73,2.34a5.78,5.78,0,0,1,.48.9,2.61,2.61,0,0,1,.35,1,6.66,6.66,0,0,1-.41,1.51,14.55,14.55,0,0,1-1,2.85c-.18.36-.46.94-.83,1.06a4.65,4.65,0,0,1-1.12,0c-1.16,0-2.44-.07-3.65,0,1.25-4.25,2.47-8.59,3.78-12.73A26.24,26.24,0,0,1,61,57a7.67,7.67,0,0,1,4.23-4,11.12,11.12,0,0,1,3.58-.64,9.16,9.16,0,0,1,5.52,1.92,9.53,9.53,0,0,1,3.39,4,21.28,21.28,0,0,1,1.09,6.35,28.22,28.22,0,0,1,0,5.28,6,6,0,0,0-.19,1.61c.1.41,1.11,1,1.41,1.31a3.27,3.27,0,0,1,1.38,2.72,8.5,8.5,0,0,1-.61,2,1.65,1.65,0,0,0-.19.68c0,.31.47.65.7.89a4.73,4.73,0,0,1,1.6,3.11,5.2,5.2,0,0,1-.89,3C81.1,83.91,80.35,82.7,79.56,81.43Zm24.94-4.68a12.18,12.18,0,0,1-2,1.92,19.29,19.29,0,0,0,2-3.07C105.33,75.8,104.82,76.35,104.5,76.75Z"/><path class="cls-4" d="M62.39,62.59c.37-.13.61.23.92.51s.72.44.58.86-.87,0-1.15-.28S61.71,62.81,62.39,62.59Z"/><path class="cls-4" d="M67.55,66.43c.5-.08.48.41.86.64s1.41.18,1.35.84-1.53.19-1.93-.07S66.7,66.57,67.55,66.43Z"/><path class="cls-4" d="M68.23,62.56a.65.65,0,0,1,.22.88l-.39.66a.64.64,0,0,1-.88.23.65.65,0,0,1-.22-.88l.39-.66A.64.64,0,0,1,68.23,62.56Z"/><path class="cls-4" d="M72.42,63a.64.64,0,0,1,.22.87l-.39.67a.64.64,0,0,1-1.1-.66l.39-.66A.64.64,0,0,1,72.42,63Z"/><path d="M73.12,91a.54.54,0,0,1-.21,0,.84.84,0,0,1-.46-.61c-.21-1.14,1.53-3.69,3.27-5.51.88-.91,3-3,4.09-2.39a.48.48,0,0,1,.19.65.49.49,0,0,1-.66.19c-.12,0-1.09.3-2.92,2.22-2,2.1-3.07,4.13-3,4.62a.49.49,0,0,1,.16.6A.47.47,0,0,1,73.12,91Z"/><path d="M53.18,87.37a.48.48,0,0,1-.26-.07.48.48,0,0,1-.14-.67c.22-.34-.44-2-1.93-3.65s-2.65-2.34-3.22-2.34a.48.48,0,1,1-.06-1c1.19,0,2.89,1.41,4,2.66s2.76,3.66,2,4.82A.46.46,0,0,1,53.18,87.37Z"/><g class="cls-7"><path class="cls-6" d="M66.22,91.24l2.29-4.48-4.26-2.17a2.7,2.7,0,1,0-4.8-2.46S55.19,80,55.19,80L48.38,93.3l13.32,6.79,1.84-3.6a2.64,2.64,0,0,1-1.06-1,2.81,2.81,0,0,0,2,.86,2.85,2.85,0,0,0,1.71-5.13Z"/><path d="M61.7,100.61a.53.53,0,0,1-.24-.06L48.15,93.76a.48.48,0,0,1-.26-.3.53.53,0,0,1,0-.39l6.81-13.34a.52.52,0,0,1,.7-.22l3.84,1.95a3.2,3.2,0,0,1,5.64,2.88l3.83,2a.48.48,0,0,1,.26.3A.53.53,0,0,1,69,87l-2.11,4.13a3.31,3.31,0,0,1,1,2.4,3.36,3.36,0,0,1-3.36,3.36,3.64,3.64,0,0,1-.57,0l-1.78,3.49A.51.51,0,0,1,61.7,100.61ZM49.08,93.08,61.47,99.4l1.39-2.72a3.16,3.16,0,0,1-.82-.89.51.51,0,0,1,.12-.68.52.52,0,0,1,.69,0,2.31,2.31,0,0,0,1.66.7,2.33,2.33,0,0,0,2.33-2.33,2.3,2.3,0,0,0-.93-1.86.51.51,0,0,1-.15-.65l2-4L64,85.05a.53.53,0,0,1-.24-.67l0,0a2.18,2.18,0,0,0-3.9-2,.52.52,0,0,1-.69.24l-3.8-1.94Z"/></g><path class="cls-4" d="M103.18,74.32a12.51,12.51,0,0,0-1.76.64c.06-.87,0-2-.67-2.15s-1.72.78-2,1.25-.16.88-.32,1.31a4.26,4.26,0,0,1-.61.93c-.22.3-.47.81-.7.87a3.15,3.15,0,0,1-.71-.07c-1.56-.13-3.69-.37-5,.16a8,8,0,0,0-3.17,3c-1.65,2.37-3.25,5-4.9,7.44-.28-.54-.64-1-.9-1.54a6.79,6.79,0,0,0,1.32-3.68c0-2.12-1.3-3.28-2.25-4.43a9.3,9.3,0,0,0,.74-2.56c.13-2.19-1.7-3.25-2.79-4.33a27.43,27.43,0,0,0,.13-7.69c-.22-2.51-.6-5-1.64-6.66a11.56,11.56,0,0,0-4.23-4A9.93,9.93,0,0,0,67,51.53a8.94,8.94,0,0,0-5.45,2.82c-1.4,1.41-2,3.45-2.66,5.64-1.29,4.21-2.53,8.57-3.81,12.76-4-.19-5.75,2.13-7.11,4.71S45.44,83,44.31,85.6,41.93,91.15,40.88,94c-.56,1.52-1,3.32,0,4.62A5.6,5.6,0,0,0,45,100.43,71.64,71.64,0,0,0,42.61,108a54,54,0,0,0-.83,9.16c-.16,3.24-.31,6.57-.44,9.91h.95c.13-3.35.27-6.69.42-10a50.6,50.6,0,0,1,.9-9A52.36,52.36,0,0,1,46,100.53c2.74.25,5.65.42,8.56.61a44.07,44.07,0,0,0,8.59,0c.19,1.26.05,2.57.32,3.78a16.74,16.74,0,0,0,.73,2c2.6,6.74,5.15,13.43,7.69,20.13h1c-2.56-6.83-5.16-13.56-7.77-20.35a14.25,14.25,0,0,1-.73-2c-.24-1.21-.15-2.65-.32-3.78a6.5,6.5,0,0,0,3.07-1.64,5.77,5.77,0,0,0,.87-1.47A4.71,4.71,0,0,0,68.57,96a1.48,1.48,0,0,0-1.38-1.51c.16-.72,0-1.56-.51-1.73a1.91,1.91,0,0,0-1.67.64c-.48.49-.63,1.24-1.31,1.6a9.5,9.5,0,0,1-2.76.58c.08-1,1.2-.87,1.77-1.41a1.72,1.72,0,0,0,.44-1.79c-.29-.55-1.44-.4-2.17-.29a4.93,4.93,0,0,0-1.83.58c-1.15.64-1.83,1.43-2.89,1.92-1.92-.48-5.83-1.38-5.83-1.38l-1-.22s-1.57-.54-1.57.22c0,.55,1.28.7,1.86.83,1.93.46,3.64.84,5.51,1.28a4.5,4.5,0,0,0,1.15.23,3.22,3.22,0,0,0,1.38-.74c1.21-1,2.46-2,4.52-1.86-.17.86-1.22.78-1.76,1.35-.29.3-.92,1.67-.58,2.15s1.68,0,2.21-.07a7.47,7.47,0,0,0,2-.54c1.07-.57,1.17-1.8,2.15-2.09a2.53,2.53,0,0,1-.68,1.67,3.77,3.77,0,0,1-1.41,1.47c-.41.21-1.76.34-1.73.93s.87.39,1.35.23a4.65,4.65,0,0,0,2.63-2.12c.08-.13.21-.47.41-.51s.2.06.45.1a9.92,9.92,0,0,1-1.7,2.46,4.45,4.45,0,0,1-1.31.71c-.41.16-1.1.22-1.06.74,0,.7,1.09.26,1.44.13a4.34,4.34,0,0,0,2.25-1.64c0-.07.09-.07,0,0-.73,1.52-2.47,2.09-4.46,2.44a17.67,17.67,0,0,1-3.2.09c-4.43-.09-8.55-.39-12.69-.8a18.53,18.53,0,0,1-3-.35,3.1,3.1,0,0,1-2.37-2.34,5.79,5.79,0,0,1,.32-1.8,14.86,14.86,0,0,1,.55-1.6c1.19-3.09,2.51-6.13,3.78-9,.84-1.93,1.66-4,2.66-5.89s1.91-3.79,4-4.55a23,23,0,0,0,1.74,2.24,7.59,7.59,0,0,0,2.33,1.67,26.1,26.1,0,0,0,6.06,2,18.55,18.55,0,0,0,7.24-.06,8.13,8.13,0,0,0,4.56-2.44c.14-.16.24-.41.48-.48a5.91,5.91,0,0,1,2.4,2.5c1.75,3.14,3.76,6.18,5.54,9.2-.27.38-.6.92-.93,1.44-.17.28-1,1.35-.16,1.48.52.07,1-1.07,1.29-1.48,1.84-2.94,3.68-5.71,5.57-8.56a13.81,13.81,0,0,1,1.19-1.63,7.41,7.41,0,0,1,1.44-1.41c1.15-.73,3.28-.55,5-.42a5.17,5.17,0,0,0,1.31.1c.31-.08.72-.72,1-1.09a8.09,8.09,0,0,0,.8-1.31c.13-.33.19-.83.28-1.16a1.4,1.4,0,0,1,.81-.73,4.25,4.25,0,0,1-.77,3.3c-.25.39-.5.81-.84,1.28-.2.28-.87.84-.73,1.31a.42.42,0,0,0,.38.32c.43,0,.75-.56.9-.77a13.62,13.62,0,0,0,1.86-3.14,7.52,7.52,0,0,1,2.43-.89,11.55,11.55,0,0,1-3.07,3.9,8.15,8.15,0,0,1-1.32,1,8,8,0,0,1-1.31.45c-1,.3-1.73.51-2.73.8a6,6,0,0,0-1.37.42,6.55,6.55,0,0,0-1,1.82C91.92,85.59,91,87.51,90,89.31S88.21,93.12,87.22,95c-.89,1.66-1.49,3.49-4,3.5-1.69,0-2.57-.91-3.53-1.73a36.68,36.68,0,0,1-2.62-2.66c-1.42-1.47-3-3.24-4.46-4.78-.2-.21-.58-.51-.61-.73a6.32,6.32,0,0,1,.13-1.09,5.71,5.71,0,0,0-.54-3.15c.25-.51,1.34-.77,1.21-1.44a.41.41,0,0,0-.35-.38c-.43-.07-.81.48-1.06.7s-.8.53-.83.93.23.68.35,1c.69,1.91.11,4.54-1,5.57a10.25,10.25,0,0,1-1.22.84c-.22.14-1.12.53-1.06,1s.73.31,1,.13c1.22-.74,2.51-1.52,3-3,2.68,2.57,5.12,5.71,8,8.24a5.2,5.2,0,0,0,4,1.41C86.2,99.2,87.1,97.3,88,95.53c2.15-4.27,4.34-8.66,6.47-12.88a61.61,61.61,0,0,0,6.9-2.25,9.73,9.73,0,0,0,3.84-3,2.77,2.77,0,0,0,.8-1.5C106,74.91,104.28,74.15,103.18,74.32ZM79.56,81.43a28.46,28.46,0,0,0-2.34-3.85c-1.47-1.7-3.67-2.48-6.25-3-.79-.17-1.68-.28-2.53-.54-.3-.1-1-.36-1.09-.68a2.7,2.7,0,0,1,.16-.8c.18-.74.34-1.62.55-2.24a5.12,5.12,0,0,0,5.51-2.44,9.88,9.88,0,0,0,1.09-4.29c0-.76,0-1.31-.54-1.25s-.39.71-.42,1.38a8.79,8.79,0,0,1-.9,3.65,4.25,4.25,0,0,1-5.25,1.79A3.71,3.71,0,0,1,66,67.75c-.13-.18-.22-.38-.48-.39a.48.48,0,0,0-.52.39c-.05.47.59,1,.87,1.31a6.11,6.11,0,0,0,1.25.93c-.22.76-.36,1.63-.58,2.5a2.16,2.16,0,0,0-.13,1.06c.28,1.21,2.16,1.45,3.46,1.73a17,17,0,0,1,4,1.15c.16,0-.08.18-.13.23C72.79,78,71,78.65,69,79A20.63,20.63,0,0,1,57.19,77.2a8.32,8.32,0,0,1-3.65-3.43c1.77-.15,3.61-.06,5.45-.06a6.49,6.49,0,0,0,2.37-.1c1-.48,1.51-2,1.89-3.17.15-.48.32-1,.48-1.51a6.93,6.93,0,0,0,.39-1.57,5.55,5.55,0,0,0-1-2.43c-.23-.33-.58-.63-.86-1s-.71-.73-.74-1.12c0-.57.4-.94.7-1.25a3.59,3.59,0,0,1,1,.87c.31.31.89,1.16,1.34.7.2-.2.09-.49,0-.74a30.78,30.78,0,0,0,3.07-.6,3,3,0,0,1,1-.2c.54.1.62.83,1.22.8A.42.42,0,0,0,70.3,62c0-.48-.49-.57-.51-.9a9.33,9.33,0,0,0,3.08-3A5,5,0,0,1,74,60.38a3.77,3.77,0,0,0-3.26,3A3.73,3.73,0,0,0,71,66.11c-.05.21-.47.25-.48.61,0,.93,1.54.22,1.6-.26,0-.29-.21-.68-.32-1a2.45,2.45,0,0,1-.29-1.6,4.84,4.84,0,0,1,.77-1.73A2.73,2.73,0,0,1,74,61.34c.45-.1.94-.12,1-.45a2.66,2.66,0,0,0-.29-1.28,6.47,6.47,0,0,0-1-2c-.22-.3-.43-.76-.77-.77s-.68.53-.9.83a8.71,8.71,0,0,1-2.6,2.6,18.2,18.2,0,0,1-4.87,1.18,3.22,3.22,0,0,1-.73.13c-.25,0-.46-.38-.71-.58a1.52,1.52,0,0,0-.86-.38c-.92,0-1.88,1.39-1.64,2.53.2,1,1.21,1.61,1.73,2.34a5.78,5.78,0,0,1,.48.9,2.61,2.61,0,0,1,.35,1,6.66,6.66,0,0,1-.41,1.51,14.55,14.55,0,0,1-1,2.85c-.18.36-.46.94-.83,1.06a4.65,4.65,0,0,1-1.12,0c-1.16,0-2.44-.07-3.65,0,1.25-4.25,2.47-8.59,3.78-12.73A26.24,26.24,0,0,1,61,57a7.67,7.67,0,0,1,4.23-4,11.12,11.12,0,0,1,3.58-.64,9.16,9.16,0,0,1,5.52,1.92,9.53,9.53,0,0,1,3.39,4,21.28,21.28,0,0,1,1.09,6.35,28.22,28.22,0,0,1,0,5.28,6,6,0,0,0-.19,1.61c.1.41,1.11,1,1.41,1.31a3.27,3.27,0,0,1,1.38,2.72,8.5,8.5,0,0,1-.61,2,1.65,1.65,0,0,0-.19.68c0,.31.47.65.7.89a4.73,4.73,0,0,1,1.6,3.11,5.2,5.2,0,0,1-.89,3C81.1,83.91,80.35,82.7,79.56,81.43Zm24.94-4.68a12.18,12.18,0,0,1-2,1.92,19.29,19.29,0,0,0,2-3.07C105.33,75.8,104.82,76.35,104.5,76.75Z"/><path class="cls-6" d="M108.14,91.71a2.7,2.7,0,0,1,0-5.4V80.79h-4.78a2.7,2.7,0,0,1-5.4,0H93.18v15h15v-4Z"/><path d="M108.14,96.24h-15a.49.49,0,0,1-.48-.49v-15a.48.48,0,0,1,.48-.48H98a.47.47,0,0,1,.48.48,2.22,2.22,0,0,0,4.44,0,.48.48,0,0,1,.48-.48h4.78a.47.47,0,0,1,.48.48v5.52a.48.48,0,0,1-.48.48,2.22,2.22,0,0,0,0,4.44.47.47,0,0,1,.48.48v4a.48.48,0,0,1-.14.34A.49.49,0,0,1,108.14,96.24Zm-14.48-1h14V92.15a3.18,3.18,0,0,1,0-6.28v-4.6H103.8a3.18,3.18,0,0,1-6.28,0H93.66Z"/><path class="cls-3" d="M148.37,104s1.94-6,.41-8.37-4.58-2.77-5-5.54-.59-6.12-.83-7.18a11.7,11.7,0,0,0-1.12-2.53s3.45-1,3.91-2.12-.09-5.11-2-5.7-5.18-1.27-6.51.35a10.66,10.66,0,0,0-1.73,2.76s-4.71-.79-7.72.89-6.25,4.31-5.26,7.7a17.38,17.38,0,0,0,4,6.34l-1.67,5.8s-2.78,0-5.67,4.65a52.81,52.81,0,0,1-4.93,7l-3.18-7.6s-.74-3.65-2.18-4.07-4.19-.57-5.38-1.25-2.58-2.91-3.27-2.92-1.29-.41-1.12.42a26.25,26.25,0,0,0,1.66,3.59s-2.88-2-4.19-1.83-3.48.33-2.73,1.41,4.66,3.2,5.77,3.59a18.42,18.42,0,0,0,3.75.48l2.21.87s4.23,14.3,4.52,15.25,1.38,2.83,3,3,5-2.66,5.71-4.07a34,34,0,0,1,3.33-4.36l1.48,1.76.16,9.33-2.25,4.45,21.22,0-1.6-2.21s9.14,1.5,10.74,1.6,4.21,0,4.51-2.11-.64-3-2.08-6S148.37,104,148.37,104Z"/><path class="cls-3" d="M139.1,117.2l3-5.77,4,6.83Z"/><path class="cls-4" d="M135.85,90.44a34.49,34.49,0,0,0,.87,4.68c.34.7,1.67.8,3.59,1.22s4,.61,5,2.14,2.91,5.23,2.91,5.23,1.84-5.3.16-8-4.26-3-4.74-5.61-.71-6.68-1.09-7.73-.83-2.18-.83-2.18,3.39-.46,3.71-1.79.26-4.65-1.28-5.58-4-2.34-5.8-1.09a9.31,9.31,0,0,0-2.82,3.69s-5.07-1-8.3,1.12-5.68,3.79-5,6.63,3.94,7.12,3.94,7.12l-1.73,5.9s7.76.78,7.63-.42-.64-4.55-.64-4.55-4.09.66-4.65-2.89a8.72,8.72,0,0,1,1.25-6l-.26-.45,1.67-2.69,8.05,5.28.22,1.93s2.82-.38,2.56,1.18-3.33,1.77-3.33,1.77Z"/><path class="cls-3" d="M142.41,117.89a3.55,3.55,0,0,1,.64,2.6A25.27,25.27,0,0,1,142,124.4s10.78,1.95,12.18,1.5a3.08,3.08,0,0,0,2-4.1c-.75-2.15-8.36-18.4-9.81-21.09s-1.79-2.6-2.76-2.95-4.1-1-4.1-1a10,10,0,0,1-5.74,3c-3.35.31-5.23,0-5.54-.84a6.83,6.83,0,0,1-.29-2.11s-4-1-6,1.28-7.75,10.16-7.75,10.16l-.45-1a4.32,4.32,0,0,1-2.44,2.27,5.49,5.49,0,0,1-3,.55s1.88,7.32,2,7.76a3.07,3.07,0,0,0,4.78.89c2.64-2.1,6.6-8.07,6.6-8.07l1.51,1.69.19,9.56-2.24,4.29,21.22,0L141,124.08s-6.74-.58-8.14-1-1.78-.48-1.93-1.15-.32-1.83-.32-1.83-2.68,1-3.72.26a4.54,4.54,0,0,1-1.37-3.85c.13-1.31,4.8-3.59,4.8-3.59l-2.21-.41a7.28,7.28,0,0,1-2.53.83c-.6-.14-1.25-.79-.13-1.44a6.37,6.37,0,0,1,3.46-1.25c1.21.08,2.95-.57,3.47.74s2,5.67,2,5.67l4.4.48,3.14-5.71,3.75,6.13Z"/><path class="cls-4" d="M114.24,107.06c1.44-2,2.86-4.17,4.36-6.22s3-4.18,5.74-4.9c.34-1.48.82-3.18,1.22-4.75a4.44,4.44,0,0,0,.16-.67c0-.25-.65-.9-.87-1.18a18.51,18.51,0,0,1-2.47-3.66,6.73,6.73,0,0,1-.54-3.49,5,5,0,0,1,1.28-2.79c2.51-2.9,6.21-4.63,11.95-4.29A5,5,0,0,1,137.64,72,5.53,5.53,0,0,1,145,73.5c.75,1.09,1.59,3.76.71,5.52-.58,1.14-2,1.46-3.34,1.92.35,1,.74,1.9,1,2.92a17.49,17.49,0,0,1,.32,3.62,9.12,9.12,0,0,0,.64,3.3,5.73,5.73,0,0,0,1.83,2.08c1.46,1.2,3,2.23,3.39,4.49s-.33,4.73-.86,6.79c2.37,5.15,5.07,10.7,7.37,16.15a5.93,5.93,0,0,1,.54,2.79,3.46,3.46,0,0,1-2.82,3,8.2,8.2,0,0,1-1.54-.09c-3.43-.32-6.79-.88-10.09-1.32,0,.44.92.82.8,1.48a.43.43,0,0,1-.38.35c-.44,0-.76-.61-1-.93s-.53-.74-.8-1.09c-2.12-.41-4.94-.63-7.27-1.06a6.06,6.06,0,0,1-2.31-.7c-.68-.53-.77-1.47-1-2.41-.93.11-2,.76-3,.55-.78-.17-1-.82-1.48-1.38-.34-1.22-1.08-2.9-.41-4.2.57-1.12,2.23-1.67,3.27-2.37-1.13-.25-1.86.86-3.11.71a1.49,1.49,0,0,1-1.19-1.41c.07-.58,1.12-.94,1.6-1.19a8.46,8.46,0,0,1,1.89-.87,11.69,11.69,0,0,1,3.91.2c.94.38,1.47,1.69,1.83,2.66a34.93,34.93,0,0,1,1,3.46l3.91.41a2.41,2.41,0,0,1,.16-.54c.44-.81,1-1.57,1.41-2.34s.93-1.56,1.45-2.31c-.13-.24-.34-.52-.52-.83s-.68-1.21,0-1.28c.42,0,.66.54.83.83,1.39,2.38,2.89,5,4.26,7.28.54.26,2.64-.14,2.57.76,0,.57-.85.39-1.45.33-4-.42-8.45-.92-12.37-1.32-.08.24.86,2.13-.19,2-.55-.08-.71-1.58-.83-2.05a32.53,32.53,0,0,0-1.32-4.46c-.19-.48-.6-1.51-1.15-1.73a5.34,5.34,0,0,0-1.6-.13,10,10,0,0,0-1.73,0,6,6,0,0,0-1.35.65,9.49,9.49,0,0,0-1.31.67c.31.49.89.11,1.31,0a6.65,6.65,0,0,1,1.35-.48,10.44,10.44,0,0,1,1.63.12c.51,0,1.21,0,1.25.52s-.9.75-1.25.93A17.08,17.08,0,0,0,127,115a1.62,1.62,0,0,0-.84,1.34c1.14-.49,2.57-1.2,3.88-1.86.34-.17,1.64-1,1.7-.09,0,.49-.83.76-1.19.93-1.44.68-2.89,1.38-4.26,2.08a8.71,8.71,0,0,0,.29,1.12c1.47-.55,3.1-1.23,4.68-1.89.36-.15,1.35-.68,1.41.07,0,.54-.87.71-1.22.86-1.48.63-2.93,1.24-4.39,1.83.15.74,1.29.4,2,.22.95-.24,1.73-.5,2.72-.8.5-.15,1.39-.45,1.31.32s-1.35.58-1.85.84c.17.73.18,1.59.67,1.95a8.54,8.54,0,0,0,2.53.61c2.75.43,5.55.81,8.2,1.18,2.8.4,5.37.75,8.3,1.09a12.33,12.33,0,0,0,2.86.26,2.34,2.34,0,0,0,1.63-1.22c.83-1.38-.08-3.17-.61-4.36-2.64-5.91-5.23-11.69-8.07-17.43a11.26,11.26,0,0,0-2.12-3.56,8.48,8.48,0,0,0-4.23-1.44,22.45,22.45,0,0,1-5.9,2.73c-3.12.72-7.36.7-7.05-3.08-2.26-.13-3.7.19-4.9,1.12a15.31,15.31,0,0,0-2.85,3.17c-1.69,2.31-3.39,4.76-4.94,7.12,0,.49,1,1.61.71,2.18a.46.46,0,0,1-.39.29c-.48,0-.81-1.13-1-1.54-1-2.41-2-4.73-3-7.15-.25-.6-.4-1.25-.64-1.89-.4-1-1-2.75-2-3.2a9.51,9.51,0,0,0-2.66-.61,10.45,10.45,0,0,1-2.59-.64,8.47,8.47,0,0,1-2.53-2.34c-.23-.26-.53-.67-1-.58,0,.28.19.57.35.86s.32.56.48.84a7.24,7.24,0,0,0,1,1.63c.33.3,1.36.46,1.19,1.12s-1.17,0-1.51-.19c-.55-.29-1-.5-1.44-.8s-.92-.6-1.41-.87a3.23,3.23,0,0,0-2.95-.35,26,26,0,0,0,4.45,2.21c.31.13,1.35.37,1.35.87,0,1-1.73,0-2.08-.13a34.28,34.28,0,0,1-4.07-2,3.92,3.92,0,0,0-.77-.38c0,.25.22.42.38.54a15.41,15.41,0,0,0,2,1.12c.94.5,1.93.94,2.89,1.35a7,7,0,0,0,1.6.51c.57.11,1.19.15,1.83.29a12.77,12.77,0,0,1,1.6.51,4.72,4.72,0,0,1,1.44.68,4.25,4.25,0,0,1,.32,1.05c1.24,4.73,2.3,9.31,3.72,13.91a10.81,10.81,0,0,0,.7,2,3,3,0,0,0,2.15,1.22c2.08.29,3.11-1.5,4-2.63,1.51-1.85,3.06-3.79,4.49-5.7a5.48,5.48,0,0,1,2.21-6.64c0-.4-1-2.12,0-2.15.5,0,.56.58.71,1.06a3.25,3.25,0,0,1,.35,1.41c-.07.38-.63.56-.86.74a4.54,4.54,0,0,0-1.8,3,4.67,4.67,0,0,0,1.09,3.65c.19.24.66.56.71.87a4.57,4.57,0,0,1-.07.61c0,1.42.09,3,.16,4.55,0,1.05.08,2.29.1,3.43a7.22,7.22,0,0,1,0,1.12,6.79,6.79,0,0,1-.7,1.44c-.52,1-.84,1.81-1.38,2.88-.23.46-.5,1.2-.93,1.19-.91,0-.14-1.22.09-1.7l1.32-2.66a7.59,7.59,0,0,0,.64-1.34,8.17,8.17,0,0,0,0-1.19c0-1.86-.12-3.88-.19-5.74a14.47,14.47,0,0,0-.07-2.3c-.12-.52-.67-.65-.86-1.22-1.78,2.2-3.59,4.67-5.52,6.82a4,4,0,0,1-3.43,1.48,4,4,0,0,1-3-1.64,9.22,9.22,0,0,1-.7-2c-1.51-4.81-2.7-9.88-4-14.84-1.7-1.11-4.16-.94-6.12-1.76-1.35-.57-2.65-1.27-3.94-2a7.32,7.32,0,0,1-1.25-.7,1.76,1.76,0,0,1-.77-1.35c.06-.66.92-1,1.51-1.18A4.4,4.4,0,0,1,97,93.73a8.3,8.3,0,0,1,2.66,1.18s0,0,0,0c-.06-.18-.37-.74-.61-1.21s-.58-.89-.48-1.38,1.32-.76,1.92-.51,1.07,1,1.54,1.53a5.92,5.92,0,0,0,1.7,1.38c1.54.71,4.13.45,5.48,1.41,1.55,1.1,2,3.59,2.69,5.29C112.71,103.4,113.46,105.14,114.24,107.06ZM143.6,79.53c.47-.2,1.14-.55,1.31-1a5.46,5.46,0,0,0-.7-4.59,4.82,4.82,0,0,0-3.94-1.82,5.43,5.43,0,0,0-3.79,2c-.24.36-.39,1.6-.8,1.79a2.16,2.16,0,0,1-.86,0,17.57,17.57,0,0,0-6.16.7A12,12,0,0,0,124,79.85a4.19,4.19,0,0,0-1.18,2.72,5.7,5.7,0,0,0,.7,3.14,24.71,24.71,0,0,0,2.44,3.43c.25.31.76.79.8,1.16a4.82,4.82,0,0,1-.32,1.38c-.37,1.47-.7,2.72-1,4.16,2-.17,4.33.09,6.35-.06A19.75,19.75,0,0,0,131,91.9c-2.24-.24-4-1.46-4.49-3.56a9.31,9.31,0,0,1,.07-3.33c.13-.56.59-2.45,1.22-2.44.81,0,.26,1,.09,1.45-.46,1.23-.89,3.51-.22,4.87a4,4,0,0,0,3.11,2,5.54,5.54,0,0,0,1.34-.1c.54-.08,1.64-.51,1.61.29s-1.2.5-1.77.74a21.52,21.52,0,0,1,.74,3.52,2.59,2.59,0,0,1,0,.68c-.32,1.17-2.93.57-4.23.67-.35,2.46,2,2.6,4.2,2.4a14,14,0,0,0,6.18-2.27,10.51,10.51,0,0,1-1.79-.42c-1.12-.58-1.32-2.85-1.54-4.33a5.16,5.16,0,0,1-.16-1.47c.07-.32.46-.59.73-.9s.5-.68.84-.8c.61-.21,1.41-.08,2-.35.28-.12.91-.55.9-1s-.47-.69-.8-.76c-.59-.13-1.16.25-1.54.12s-.34-1.12-.29-1.82c-.71-.6-1.62-1.24-2.4-1.83a3.13,3.13,0,0,0-.87-.58c-.49-.06-1.1.39-1.51.16s-.06-1.06.48-.92a34.92,34.92,0,0,0-3-2.22c-.34.57-.72,1.09-1,1.67,2.59-.13,2.78,4.55.83,5.29.38.23.51,1-.1,1.06-.23,0-.56-.31-.73-.45s-.51-.4-.48-.71.42-.47.7-.64a2.42,2.42,0,0,0,.74-.61c.48-.79.22-2.68-.58-3a3.33,3.33,0,0,0-1.18,0c-.28,0-.76.25-1.09.07-.58-.32,0-1.12.67-1l1-1.54c.21-.33.7-1.35,1.16-1.38s.79.43,1.12.67l6.25,4.62c.32.24.86.55,1,.86a4.88,4.88,0,0,1,0,1.16A2.21,2.21,0,0,1,140.62,87a1.41,1.41,0,0,1,0,1.21c-.51,1.15-1.81,1.55-3.43,1.64-.18.31-.89.74-1,1.12a6,6,0,0,0,.19,1.25c.08.48.13.87.19,1.25.13.69.31,1.84.77,2.12a3.7,3.7,0,0,0,.9.22c2.34.46,4.6.52,6.28,1.57,2,1.23,2.37,3.47,3.56,5.45a21,21,0,0,0,.61-4,4.6,4.6,0,0,0-1.19-3.49c-.77-.82-1.7-1.43-2.5-2.15a5.84,5.84,0,0,1-1.86-2.82,17.91,17.91,0,0,1-.45-4.2,11.62,11.62,0,0,0-.86-3.81,9.06,9.06,0,0,0-2.82-4.17c-.25-.19-1.21-.71-1.19-1.15,0-.93,1.19-.08,1.51.16a9,9,0,0,1,1,.83c.74.73,1,1.48,1.61,2.08A12.48,12.48,0,0,0,143.6,79.53ZM139.46,117c1.82.17,3.69.45,5.48.55-1-1.61-1.87-3.34-2.91-4.91C141.21,114.09,140.29,115.47,139.46,117Z"/><path class="cls-4" d="M138.47,87c.32,0,.64,0,.64.42s-.31.44-.7.58-1.44.61-1.38-.23C137.06,87.26,138.05,87,138.47,87Z"/><path class="cls-4" d="M132.77,88.09c-.15,0-.65.15-1.13.25s-1.66.5-1.5-.38c.08-.45,1-.49,1.57-.61a7.58,7.58,0,0,0,.86-.23c.66-.21,1.43-.29,1.32.71a2.12,2.12,0,0,1-.52,1,2.51,2.51,0,0,1-1.79.77.5.5,0,0,1-.32-.77c.23-.3,1.12-.29,1.44-.67C132.73,88.15,132.7,88.08,132.77,88.09Z"/><path d="M108.92,110.8a1.66,1.66,0,0,1-.91-.22,1,1,0,0,1-.45-.82.48.48,0,0,1,.48-.48.47.47,0,0,1,.48.48c.11.13.89.19,2.16-.38,1.55-.7,2.55-1.75,2.55-2.17a.48.48,0,0,1,.48-.48.49.49,0,0,1,.48.48c0,1.08-1.57,2.35-3.12,3A5.4,5.4,0,0,1,108.92,110.8Z"/><path class="cls-3" d="M142.42,117.89c.63.38,1,2.07.74,3.77s-.9,2.77-1.53,2.39Z"/><path d="M141.89,124.61a1,1,0,0,1-.51-.15.49.49,0,0,1-.16-.66.48.48,0,0,1,.66-.16c.17,0,.63-.66.8-2,.22-1.69-.16-3.08-.51-3.3a.48.48,0,1,1,.5-.82c.92.56,1.18,2.56,1,4.24-.18,1.44-.68,2.48-1.32,2.79A1.08,1.08,0,0,1,141.89,124.61Z"/><path class="cls-4" d="M129.41,83.72a.64.64,0,0,1,.64.64v.77a.64.64,0,1,1-1.28,0v-.77A.64.64,0,0,1,129.41,83.72Z"/><path class="cls-4" d="M133.8,83.59a.64.64,0,0,1,.64.64V85a.64.64,0,0,1-1.28,0v-.77A.64.64,0,0,1,133.8,83.59Z"/><path class="cls-4" d="M28,125.6H163.56a1.06,1.06,0,0,1,0,2.12H28a1.06,1.06,0,1,1,0-2.12Z"/><path class="cls-3" d="M85,122.66h34.48a.32.32,0,0,1,.32.32v.88a1.6,1.6,0,0,1-1.6,1.6H86.26a1.6,1.6,0,0,1-1.6-1.6V123A.32.32,0,0,1,85,122.66Z"/><path d="M118.18,125.94H86.26a2.08,2.08,0,0,1-2.08-2.08V123a.8.8,0,0,1,.8-.8h34.48a.8.8,0,0,1,.8.8v.88A2.08,2.08,0,0,1,118.18,125.94Zm-33-2.8v.72A1.12,1.12,0,0,0,86.26,125h31.92a1.12,1.12,0,0,0,1.12-1.12v-.72Z"/><path class="cls-3" d="M102.94,105.18H80.09c-1,0-2.23,1.41-2,2.31l4.16,14a2.46,2.46,0,0,0,2.24,1.65h22.84c1,0,2.23-1.42,2-2.32l-4.15-14A2.46,2.46,0,0,0,102.94,105.18Z"/><path d="M107.37,123.57H84.53a2.93,2.93,0,0,1-2.7-2l-4.16-14a2,2,0,0,1,.46-1.75,2.7,2.7,0,0,1,2-1.18h22.85a2.94,2.94,0,0,1,2.7,2l4.16,13.95a2.09,2.09,0,0,1-.46,1.76A2.77,2.77,0,0,1,107.37,123.57ZM80.09,105.66a1.8,1.8,0,0,0-1.19.79,1.23,1.23,0,0,0-.31.91l4.16,14a2,2,0,0,0,1.78,1.3h22.84a1.81,1.81,0,0,0,1.19-.8,1.15,1.15,0,0,0,.31-.91L104.72,107a2,2,0,0,0-1.78-1.3Z"/><path d="M92.91,118.05a4,4,0,0,1-3.51-2.83,2.56,2.56,0,0,1,.28-2.31,2.1,2.1,0,0,1,1.71-.84,4,4,0,0,1,3.54,2.82,2.57,2.57,0,0,1-.28,2.32,2.1,2.1,0,0,1-1.71.84Zm-1.49-5a1.16,1.16,0,0,0-1,.45,1.64,1.64,0,0,0-.13,1.46,3.05,3.05,0,0,0,2.59,2.15,1.16,1.16,0,0,0,1-.45,1.64,1.64,0,0,0,.13-1.46A3.05,3.05,0,0,0,91.42,113Z"/><path class="cls-8" d="M78.62,42.83a2.65,2.65,0,0,1-2.23-1.27,4.3,4.3,0,0,1-.32-.56,4,4,0,0,1-2.45-.45,6.86,6.86,0,0,1-2.48-2.43,5.2,5.2,0,0,1-3.58-1.49c-1.81-1.52-1.58-1.83-1.4-2.08l.44.33.4.37-.4-.37.44-.32c.37.47,2,2.22,3.56,2.44a4.45,4.45,0,0,1,.06-3.47,2.5,2.5,0,0,1,2.22-1.7A1.92,1.92,0,0,1,74.62,33c.23.55.56,2-1.29,4a3.52,3.52,0,0,1-1.08.81,5.47,5.47,0,0,0,1.87,1.74,3,3,0,0,0,1.57.37c-.48-1.86-.24-4.15.72-5.2a1.83,1.83,0,0,1,2.4-.3c1.2.66,1.41,2.4.49,4.12a4.89,4.89,0,0,1-2.17,2.12c.05.09.11.18.17.27a1.57,1.57,0,0,0,2.06.64.55.55,0,0,1,.71.32.54.54,0,0,1-.32.7A3.1,3.1,0,0,1,78.62,42.83Zm-.89-7.61a.66.66,0,0,0-.51.25c-.66.73-.88,2.64-.48,4.2a3.82,3.82,0,0,0,1.59-1.62c.53-1,.66-2.26,0-2.66A1.24,1.24,0,0,0,77.73,35.22Zm-4.87-2.29c-.46,0-.91.39-1.2,1a3.55,3.55,0,0,0,0,2.89,2.58,2.58,0,0,0,.83-.6c1.45-1.52,1.18-2.53,1.07-2.81a.81.81,0,0,0-.74-.53Z"/><path class="cls-4" d="M167.22,92.65a.76.76,0,1,1-.75.76A.76.76,0,0,1,167.22,92.65Z"/><path class="cls-4" d="M164.63,92.65a.76.76,0,1,1-.75.76A.76.76,0,0,1,164.63,92.65Z"/><path class="cls-4" d="M162,92.65a.76.76,0,1,1-.76.76A.76.76,0,0,1,162,92.65Z"/><path class="cls-4" d="M162,92.65a.76.76,0,1,1-.76.76A.76.76,0,0,1,162,92.65Z"/><path class="cls-4" d="M159.45,92.65a.76.76,0,1,1-.76.76A.76.76,0,0,1,159.45,92.65Z"/><path class="cls-4" d="M156.86,92.65a.76.76,0,1,1-.76.76A.76.76,0,0,1,156.86,92.65Z"/><path class="cls-4" d="M154.26,92.65a.76.76,0,1,1-.75.76A.76.76,0,0,1,154.26,92.65Z"/><path class="cls-4" d="M167.22,92.65a.76.76,0,1,1-.75.76A.76.76,0,0,1,167.22,92.65Z"/><path class="cls-4" d="M164.63,92.65a.76.76,0,1,1-.75.76A.76.76,0,0,1,164.63,92.65Z"/><path class="cls-4" d="M162,92.65a.76.76,0,1,1-.76.76A.76.76,0,0,1,162,92.65Z"/><path class="cls-4" d="M162,92.65a.76.76,0,1,1-.76.76A.76.76,0,0,1,162,92.65Z"/><path class="cls-4" d="M159.45,92.65a.76.76,0,1,1-.76.76A.76.76,0,0,1,159.45,92.65Z"/><path class="cls-4" d="M156.86,92.65a.76.76,0,1,1-.76.76A.76.76,0,0,1,156.86,92.65Z"/><path class="cls-4" d="M154.26,92.65a.76.76,0,1,1-.75.76A.76.76,0,0,1,154.26,92.65Z"/><path class="cls-4" d="M167.22,95.25a.76.76,0,1,1-.75.76A.76.76,0,0,1,167.22,95.25Z"/><path class="cls-4" d="M164.63,95.25a.76.76,0,1,1-.75.76A.76.76,0,0,1,164.63,95.25Z"/><path class="cls-4" d="M162,95.25a.76.76,0,1,1-.76.76A.76.76,0,0,1,162,95.25Z"/><path class="cls-4" d="M162,95.25a.76.76,0,1,1-.76.76A.76.76,0,0,1,162,95.25Z"/><path class="cls-4" d="M159.45,95.25a.76.76,0,0,1,0,1.52.76.76,0,0,1,0-1.52Z"/><path class="cls-4" d="M156.86,95.25a.76.76,0,1,1-.76.76A.76.76,0,0,1,156.86,95.25Z"/><path class="cls-4" d="M154.26,95.25a.76.76,0,1,1-.75.76A.76.76,0,0,1,154.26,95.25Z"/></svg>