<svg id="_ÎÓÈ_1" data-name="—ÎÓÈ_1" xmlns="http://www.w3.org/2000/svg" xmlns:xlink="http://www.w3.org/1999/xlink" viewBox="0 0 196.15 165.33"><defs><style>.cls-1{fill:none;clip-rule:evenodd;}.cls-2,.cls-5{fill:#fff;}.cls-10,.cls-2,.cls-3,.cls-8{fill-rule:evenodd;}.cls-4{clip-path:url(#clip-path);}.cls-10,.cls-6{fill:#ffd140;}.cls-7{clip-path:url(#clip-path-2);}.cls-8,.cls-9{fill:#d6d6d6;}</style><clipPath id="clip-path"><path class="cls-1" d="M69.93,36.09h60.31a2.52,2.52,0,0,1,2.52,2.52v94.22a2.51,2.51,0,0,1-2.52,2.51H69.93a2.51,2.51,0,0,1-2.52-2.51V38.61A2.52,2.52,0,0,1,69.93,36.09Z"/></clipPath><clipPath id="clip-path-2"><path class="cls-1" d="M124.05,103.71H162a2.51,2.51,0,0,1,2.51,2.52v20.6a2.51,2.51,0,0,1-2.51,2.52H124.05a2.52,2.52,0,0,1-2.52-2.52v-20.6A2.52,2.52,0,0,1,124.05,103.71Z"/></clipPath></defs><path class="cls-2" d="M52,147.28a5.5,5.5,0,0,1,5.5,5.35H79.56a27.55,27.55,0,0,0-55.09,0h22A5.51,5.51,0,0,1,52,147.28Z"/><path d="M79.56,152.94H57.51a.3.3,0,0,1-.31-.3,5.19,5.19,0,0,0-10.38,0,.32.32,0,0,1-.32.3h-22a.31.31,0,0,1-.31-.31,27.86,27.86,0,0,1,55.72,0,.31.31,0,0,1-.09.22A.32.32,0,0,1,79.56,152.94Zm-21.75-.63H79.24a27.23,27.23,0,0,0-54.45,0H46.2a5.82,5.82,0,0,1,11.61,0Z"/><path class="cls-3" d="M149,132.12a3.19,3.19,0,0,1-4.45.07l-9,9a16,16,0,0,0,22.58-22.57l-9,9A3.19,3.19,0,0,1,149,132.12Z"/><path d="M146.74,146.13a16.23,16.23,0,0,1-11.44-4.68.32.32,0,0,1-.09-.23.31.31,0,0,1,.09-.22l9-9a.31.31,0,0,1,.44,0,2.88,2.88,0,0,0,4.07-4.07.31.31,0,0,1,0-.44l9-9a.41.41,0,0,1,.23-.1.32.32,0,0,1,.22.1,16.26,16.26,0,0,1-11.58,27.7ZM136,141.22a15.65,15.65,0,0,0,22.12-22.12l-8.59,8.59a3.51,3.51,0,0,1-4.93,4.93Z"/><path class="cls-2" d="M135.63,134.07a3.18,3.18,0,0,1,4.45-.06l9-9a16,16,0,0,0-22.57,22.57l9-9A3.18,3.18,0,0,1,135.63,134.07Z"/><path d="M126.54,147.86a.36.36,0,0,1-.23-.09,16.28,16.28,0,0,1,23-23,.3.3,0,0,1,.1.22.36.36,0,0,1-.09.22l-9,9a.31.31,0,0,1-.44,0,2.88,2.88,0,0,0-4.07,4.07.31.31,0,0,1,0,.44l-9,9A.31.31,0,0,1,126.54,147.86Zm11.35-27.17a15.64,15.64,0,0,0-11.35,26.41l8.59-8.6a3.51,3.51,0,0,1,4.93-4.92l8.6-8.61A15.61,15.61,0,0,0,137.89,120.69Z"/><path class="cls-2" d="M69.93,36.09h60.31a2.52,2.52,0,0,1,2.52,2.52v94.22a2.51,2.51,0,0,1-2.52,2.51H69.93a2.51,2.51,0,0,1-2.52-2.51V38.61A2.52,2.52,0,0,1,69.93,36.09Z"/><path d="M130.24,135.66H69.93a2.83,2.83,0,0,1-2.83-2.83V38.61a2.83,2.83,0,0,1,2.83-2.83h60.31a2.84,2.84,0,0,1,2.84,2.83v94.22A2.84,2.84,0,0,1,130.24,135.66ZM69.93,36.41a2.19,2.19,0,0,0-2.2,2.2v94.22a2.2,2.2,0,0,0,2.2,2.2h60.31a2.21,2.21,0,0,0,2.21-2.2V38.61a2.2,2.2,0,0,0-2.21-2.2Z"/><g class="cls-4"><path class="cls-3" d="M66.51,34.77H134v6.86H66.51Z"/></g><path d="M94.86,81.91H73a.32.32,0,0,1,0-.63H94.86a.32.32,0,0,1,0,.63Z"/><path d="M80,85.27H73a.32.32,0,0,1,0-.63H80a.32.32,0,0,1,0,.63Z"/><path d="M94.86,85.27H87.79a.32.32,0,0,1,0-.63h7.07a.32.32,0,0,1,0,.63Z"/><path d="M94.86,88.53H73a.32.32,0,0,1,0-.63H94.86a.32.32,0,0,1,0,.63Z"/><path d="M77.65,91.89H73a.32.32,0,0,1,0-.63h4.67a.32.32,0,1,1,0,.63Z"/><path d="M94.86,91.89H82.15a.32.32,0,0,1,0-.63H94.86a.32.32,0,0,1,0,.63Z"/><path d="M95.06,99.68H73.16a.32.32,0,0,1,0-.63h21.9a.32.32,0,1,1,0,.63Z"/><path d="M95,96.32H90.36a.31.31,0,0,1-.31-.31.32.32,0,0,1,.31-.32H95a.32.32,0,0,1,.32.32A.31.31,0,0,1,95,96.32Z"/><path d="M85.86,96.32H73.16a.31.31,0,0,1-.31-.31.32.32,0,0,1,.31-.32h12.7a.32.32,0,0,1,.32.32A.31.31,0,0,1,85.86,96.32Z"/><path d="M103.32,45.71H73a.32.32,0,0,1,0-.63h30.37a.32.32,0,0,1,0,.63Z"/><path d="M82.75,49.31H73a.32.32,0,0,1,0-.63h9.8a.32.32,0,0,1,0,.63Z"/><path d="M103.32,49.31H93.53a.32.32,0,1,1,0-.63h9.79a.32.32,0,0,1,0,.63Z"/><path d="M89.85,49.29H85.73a.32.32,0,0,1,0-.63h4.12a.32.32,0,1,1,0,.63Z"/><path d="M103.32,52.8H73a.32.32,0,0,1,0-.63h30.37a.32.32,0,0,1,0,.63Z"/><path d="M79.47,56.4H73a.32.32,0,1,1,0-.63h6.47a.32.32,0,0,1,0,.63Z"/><path d="M103.32,56.4H85.71a.32.32,0,1,1,0-.63h17.61a.32.32,0,0,1,0,.63Z"/><path d="M103.61,71.85H73.24a.32.32,0,1,1,0-.63h30.37a.32.32,0,0,1,0,.63Z"/><path d="M103.61,68.25h-9.8a.32.32,0,0,1-.31-.32.31.31,0,0,1,.31-.31h9.8a.31.31,0,0,1,.31.31A.32.32,0,0,1,103.61,68.25Z"/><path d="M83,68.25H73.24a.33.33,0,0,1-.32-.32.32.32,0,0,1,.32-.31H83a.31.31,0,0,1,.32.31A.32.32,0,0,1,83,68.25Z"/><path d="M90.82,68.26H86.71a.31.31,0,1,1,0-.62h4.11a.31.31,0,1,1,0,.62Z"/><path d="M103.61,64.75H73.24a.32.32,0,1,1,0-.63h30.37a.32.32,0,0,1,0,.63Z"/><path d="M103.56,61.15H97.09a.31.31,0,0,1-.31-.31.32.32,0,0,1,.31-.32h6.47a.32.32,0,0,1,.32.32A.31.31,0,0,1,103.56,61.15Z"/><path d="M90.85,61.15H73.24a.32.32,0,0,1-.32-.31.33.33,0,0,1,.32-.32H90.85a.32.32,0,0,1,.31.32A.31.31,0,0,1,90.85,61.15Z"/><rect class="cls-5" x="98.36" y="77.47" width="28.26" height="24.29" rx="1.36"/><path d="M125.25,77.79a1,1,0,0,1,1,1V100.4a1,1,0,0,1-1,1H99.72a1,1,0,0,1-1-1V78.84a1,1,0,0,1,1-1Zm0-.63H99.72A1.68,1.68,0,0,0,98,78.84V100.4a1.68,1.68,0,0,0,1.68,1.68h25.53a1.68,1.68,0,0,0,1.68-1.68V78.84a1.68,1.68,0,0,0-1.68-1.68Z"/><rect class="cls-5" x="98.47" y="106.53" width="29.94" height="22.7" rx="1.36"/><path d="M127.05,106.85a1,1,0,0,1,1,1v20a1.06,1.06,0,0,1-1,1H99.84a1.06,1.06,0,0,1-1-1v-20a1,1,0,0,1,1-1Zm0-.63H99.84a1.68,1.68,0,0,0-1.68,1.67v20a1.68,1.68,0,0,0,1.68,1.68h27.21a1.69,1.69,0,0,0,1.68-1.68v-20a1.68,1.68,0,0,0-1.68-1.67Z"/><path class="cls-6" d="M79.87,120.71l-6.94-4v-8l6.94-4,6.93,4v8Z"/><path class="cls-6" d="M120.12,61.61l-6.93-4v-8l6.93-4,6.93,4v8Z"/><path class="cls-2" d="M124.05,103.71H162a2.51,2.51,0,0,1,2.51,2.52v20.6a2.51,2.51,0,0,1-2.51,2.52H124.05a2.52,2.52,0,0,1-2.52-2.52v-20.6A2.52,2.52,0,0,1,124.05,103.71Z"/><path d="M162,129.66H124.05a2.84,2.84,0,0,1-2.84-2.83v-20.6a2.84,2.84,0,0,1,2.84-2.83H162a2.83,2.83,0,0,1,2.83,2.83v20.6A2.83,2.83,0,0,1,162,129.66ZM124.05,104a2.21,2.21,0,0,0-2.21,2.2v20.6a2.21,2.21,0,0,0,2.21,2.2H162a2.21,2.21,0,0,0,2.2-2.2v-20.6A2.21,2.21,0,0,0,162,104Z"/><g class="cls-7"><path class="cls-3" d="M115.75,102.7h50.3v6.16h-50.3Z"/></g><path class="cls-2" d="M155,105.71a.66.66,0,1,0,0,1.32.66.66,0,0,0,0-1.32Zm2.91,0a.66.66,0,0,0,0,1.32.66.66,0,1,0,0-1.32Zm3.17,0a.66.66,0,1,0,.66.66A.66.66,0,0,0,161.06,105.71Z"/><path class="cls-8" d="M122.17,38.2a.66.66,0,1,0,.66.66A.66.66,0,0,0,122.17,38.2Zm2.92,0a.66.66,0,1,0,0,1.32.66.66,0,1,0,0-1.32Zm3.16,0a.66.66,0,1,0,0,1.32.66.66,0,1,0,0-1.32Z"/><path d="M148.84,111.54H123.38a.31.31,0,0,1-.32-.31.32.32,0,0,1,.32-.32h25.46a.32.32,0,0,1,.31.32A.31.31,0,0,1,148.84,111.54Z"/><path d="M131.59,113.64h-8.21a.32.32,0,1,1,0-.63h8.21a.32.32,0,0,1,0,.63Z"/><path d="M148.84,113.64h-8.21a.32.32,0,1,1,0-.63h8.21a.32.32,0,0,1,0,.63Z"/><path d="M137.55,113.63h-3.46a.32.32,0,0,1,0-.63h3.46a.32.32,0,0,1,0,.63Z"/><path d="M148.84,115.68H123.38a.32.32,0,1,1,0-.63h25.46a.32.32,0,0,1,0,.63Z"/><path d="M128.84,117.77h-5.43a.32.32,0,0,1,0-.63h5.43a.32.32,0,0,1,0,.63Z"/><path d="M148.84,117.77H134.07a.32.32,0,0,1,0-.63h14.77a.32.32,0,0,1,0,.63Z"/><rect class="cls-5" x="151.19" y="110.72" width="11.01" height="16.15" rx="1.36"/><path d="M160.84,111a1.06,1.06,0,0,1,1,1v13.43a1,1,0,0,1-1,1h-8.28a1,1,0,0,1-1.05-1V112.08a1.06,1.06,0,0,1,1.05-1Zm0-.62h-8.28a1.68,1.68,0,0,0-1.68,1.67v13.43a1.68,1.68,0,0,0,1.68,1.68h8.28a1.68,1.68,0,0,0,1.68-1.68V112.08a1.68,1.68,0,0,0-1.68-1.67Z"/><path class="cls-9" d="M149.13,125.64h-8.21s8.21,0,8.21,0Z"/><path class="cls-9" d="M131.88,125.64h-8.21s8.21,0,8.21,0Z"/><path class="cls-9" d="M138.42,125.65H135s3.46,0,3.46,0Z"/><path class="cls-9" d="M149.13,123.6H123.67s25.46,0,25.46,0Z"/><path class="cls-9" d="M149.1,121.51h-5.43s5.43,0,5.43,0Z"/><path class="cls-9" d="M138.44,121.51H123.67s14.77,0,14.77,0Z"/><path d="M149.13,125.94h-8.21a.32.32,0,0,1,0-.63h8.21a.32.32,0,1,1,0,.63Z"/><path d="M131.88,125.94h-8.21a.32.32,0,0,1,0-.63h8.21a.32.32,0,1,1,0,.63Z"/><path d="M138.42,126H135a.32.32,0,0,1,0-.63h3.46a.32.32,0,0,1,0,.63Z"/><path d="M149.13,123.91H123.67a.32.32,0,0,1,0-.63h25.46a.32.32,0,1,1,0,.63Z"/><path d="M149.1,121.81h-5.43a.32.32,0,0,1,0-.63h5.43a.32.32,0,0,1,0,.63Z"/><path d="M138.44,121.81H123.67a.32.32,0,0,1,0-.63h14.77a.32.32,0,0,1,0,.63Z"/><path class="cls-10" d="M87.19,60.16v-7h-7a5.34,5.34,0,0,1-10.68,0h-7V77.8H87.19v-7a5.34,5.34,0,0,0,0-10.68Z"/><path d="M87.19,78.12H62.58a.32.32,0,0,1-.32-.32V53.19a.32.32,0,0,1,.32-.31h7a.31.31,0,0,1,.32.31,5,5,0,0,0,10,0,.31.31,0,0,1,.31-.31h7a.31.31,0,0,1,.31.31v6.67a5.65,5.65,0,0,1,0,11.27V77.8A.31.31,0,0,1,87.19,78.12Zm-24.3-.63h24V70.84a.33.33,0,0,1,.31-.32,5.06,5.06,0,0,0,4.9-5,5,5,0,0,0-4.9-5,.33.33,0,0,1-.31-.32V53.51H80.53a5.65,5.65,0,0,1-11.29,0H62.89Z"/><path class="cls-2" d="M162.28,71.44c-.76-3-4.24-3-4.24-3a3.92,3.92,0,0,0-.38-2.9c-.83-1.64-3.33-1.11-3.33-1.11s-.82-.65-3.23-5.91-3.31-5.68-4.83-5.84S144,54.13,144,54.13a15.59,15.59,0,0,0-4.75-.56c-2.36.14-4.61,2-5.26,5.45s1.7,3.38,1.7,3.38a7,7,0,0,0,.69,1.72A2.9,2.9,0,0,0,138.53,66a5.66,5.66,0,0,0,2.39,0s.36,1.73.42,2.35-1.18,1-1.61,1.11a14.39,14.39,0,0,0-2.63.79,10.93,10.93,0,0,0-2.41,1.62h2.94v1.74a2.23,2.23,0,0,0-1.22-.56,5.28,5.28,0,0,0-1.87.25,8.08,8.08,0,0,0-1.67,1,1.37,1.37,0,0,0-.42,1.62c.08.34,2-1,2-1l1.68-.54a15,15,0,0,0-1.91,1.48c-.63.65-.64,1.09-.86,2.14s-.07,1.07.82,1.87a1.88,1.88,0,0,0,2.07.15,74.23,74.23,0,0,0,4.54,8.16c1.49,1.92,3,1.72,3,1.72l-1.18,3.1s-11.35.26-15.59,0-6,.46-7.59,1.34-6.57,13.26-6.57,13.26a.91.91,0,0,0-.92.12c-.54.35-1.08,2-1.41,3s.32,1,.32,1l-3.74,5.71-2.53.77a12.86,12.86,0,0,0-4.18-.63,2.47,2.47,0,0,0-2.16,2.19l10.13,6.06,1.37-.36,7.42-9.73a1.47,1.47,0,0,0,1.22.5c.86,0,1.62-1.95,2.08-3s-.23-1.24-.23-1.24l3.54-4.17,1.83,7s-.52.2-.61.61a8.52,8.52,0,0,0,1,3.5c.58.91,2,.17,2,.17l1.79,5.7-.95,3a26.21,26.21,0,0,0-3.27,3.08c-1,1.27.5,3,.5,3s10.92-4.55,11.21-4.85a4.64,4.64,0,0,0,.48-1.51l-2.79-10.19a2.06,2.06,0,0,0,.82-.55c.28-.36-.19-1.69-.55-3s-.94-1.38-.94-1.38l-2.08-8.94s18.87.17,21.19,0,2.76-.62,4.13-2.56.86-4.26,0-7.19a83.35,83.35,0,0,0-4-9.28,20.79,20.79,0,0,0,1-2.14c.37-1-.27-3.79-.27-3.79a17,17,0,0,0,5.52-.86C162,76.81,163,74.41,162.28,71.44ZM146,69a1.34,1.34,0,0,1-.84,0c-.53-.14-.49-.65-.69-1.49s-.42-2.1-.42-2.1.62-.35,1-.61a2.08,2.08,0,0,1,1-.25,9.36,9.36,0,0,1,.4,2.29A5.57,5.57,0,0,1,146,69Z"/><path class="cls-3" d="M129.37,123.51l.49,1.36-.84,2.81-1.24.91a5.09,5.09,0,0,1,1.68.67,8.54,8.54,0,0,1,1.32,1l5-2.08a3,3,0,0,1-.14-2.1c.38-1,1-2.62,1-2.62l-.48-2Z"/><path class="cls-2" d="M144,90.06l-1.11,3.06-5.18-.25,0,.77s-9.78.79-11.31,1.18a5.79,5.79,0,0,0-3.46,2.05l-5.12.13-4.81,10.57,7.47,4.66,3.36-4.49,2.12,7.07,8.41-2.18-2-9,21.36.06s3.43-1.08,4.28-3.71-.1-5.76-1.33-8.79-3-6.4-3-6.4L148,85s-.77,1.74-1.47,3A6.07,6.07,0,0,1,144,90.06Z"/><path class="cls-3" d="M150.61,84.76s.49,4.71,1.89,5.43a12,12,0,0,0,4.11.78l-2.86-6.42Z"/><path d="M132.86,113.15a.32.32,0,0,1-.31-.24L129.43,100a.33.33,0,0,1,0-.27.33.33,0,0,1,.25-.12c.15,0,15-.14,18.43,0s6,0,7.08-2c1.79-3.15-1-8.22-1-8.27a.32.32,0,0,1,.13-.43.31.31,0,0,1,.42.12c.13.22,3,5.44,1,8.89-1.29,2.28-4.1,2.38-7.65,2.28-3.12-.09-15.62,0-18,0l3,12.52a.31.31,0,0,1-.23.38Z"/><path class="cls-3" d="M108.12,116l-.74,1.24-2.71,1.14-1.48-.38a5,5,0,0,1,.55,1.72,9.47,9.47,0,0,1,.05,1.68l4.79,2.54a3,3,0,0,1,1.53-1.45l2.67-.88L114,120Z"/><path class="cls-3" d="M137.82,57.5s1.65,1.16,3,2.24S143.92,62,143.92,62l.27-1.45s1.34-.34,1.53.11a1,1,0,0,1,0,1.11,12.41,12.41,0,0,1-1.3,1.8l-.4.82.38.78a7.26,7.26,0,0,0,1-.32c.18-.11.69-.52.69-.52a5.77,5.77,0,0,1,.42,2,20.59,20.59,0,0,1-.38,2.69s3.71-.6,5.27,1.3S153,72,153.3,73.59s1,5,1,5,4.57.5,6.42-1.38,2.44-4.08,1.7-5.94c-1.07-2.7-4.23-2.75-4.23-2.75s.72-2.5-.63-3.31a9,9,0,0,0-3.13-1s-2.81-4.55-4.13-7.09-2.82-5.32-4.37-4.51-1.51,1.74-1.51,1.74-3.46-1.9-6.23-.3-4,2.8-4.21,5.25c-.22,2.79,1.88,3.19,1.88,3.19a5.7,5.7,0,0,1,.47-3.21A7.75,7.75,0,0,1,137.82,57.5Z"/><path class="cls-3" d="M158.45,68.16a4.91,4.91,0,0,1,3.8,2.14,6.16,6.16,0,0,1,.32,4.89,5.63,5.63,0,0,1-2.92,3,10.34,10.34,0,0,1-5.1.77c0,1,.36,2,.32,3.09a6.3,6.3,0,0,1-1,2.45c1.38,3.19,3,6.3,4.2,9.73a9.79,9.79,0,0,1,.14,6,6,6,0,0,1-2.32,2.9,4.9,4.9,0,0,1-1.14.58,11.91,11.91,0,0,1-2.6.24c-6.42.2-13.11,0-19.51-.05.57,2.59,1.21,5.35,1.83,8.06a3.39,3.39,0,0,0,.12.52c.06.11.22.16.32.23.45.35.61,1.43.77,2.1.08.31.14.64.21,1a2.49,2.49,0,0,1,.15,1,1,1,0,0,1-.71.72c.87,3.31,1.72,6.51,2.6,9.86a3.29,3.29,0,0,1,.15.67,3.43,3.43,0,0,1-.76,1.51,5.57,5.57,0,0,1-1.34.65c-3,1.28-6,2.42-9.15,3.67-.26.1-.53.29-.77.25s-.45-.51-.57-.76a3.35,3.35,0,0,1-.34-1,2.69,2.69,0,0,1,.45-1.64,9.34,9.34,0,0,1,2.49-2.68,3.3,3.3,0,0,0,.55-.49,6.33,6.33,0,0,0,.21-.62c.14-.42.26-.81.42-1.24a2.54,2.54,0,0,0,.18-.63,3,3,0,0,0-.18-.74c-.48-1.66-1-3.28-1.45-5-.61.06-1.33.33-1.81,0a3.35,3.35,0,0,1-.88-1.84,4.61,4.61,0,0,1-.27-2.29,1.33,1.33,0,0,1,.44-.54q-.83-3.12-1.61-6.28a1.6,1.6,0,0,0-.4.42c-.85,1.06-1.77,2.17-2.65,3.23a1.64,1.64,0,0,1,.3,1,2.68,2.68,0,0,1-.44.9c-.35.58-.66,1.1-1,1.66s-.69,1.2-1.49.94c-.33-.1-.51-.34-.84-.5-2.16,3-4.39,6-6.56,9-.18.25-.31.55-.55.65a3.23,3.23,0,0,1-1.72.23,8.3,8.3,0,0,1-1.34-.71c-2.67-1.46-5.25-3-7.83-4.51a5.65,5.65,0,0,1-1.23-.8,2,2,0,0,1,.29-.94,2.57,2.57,0,0,1,2.14-1.51,9.27,9.27,0,0,1,3.27.25,5.21,5.21,0,0,0,1,.21,3.3,3.3,0,0,0,.63-.21c.6-.21,1.24-.44,1.82-.63.14,0,.37-.54.49-.71l2.81-4.47c.06-.1.23-.31.23-.32s-.2-.17-.25-.23a.85.85,0,0,1-.19-.86,8,8,0,0,1,.88-1.61c.37-.75.68-1.55,1.59-1.64,1.17-2.53,2.3-5.09,3.46-7.68.56-1.23,1.15-2.52,1.83-3.73a5.61,5.61,0,0,1,3-2.6,10.54,10.54,0,0,1,2.58-.21c4.47-.09,9-.27,13.61-.27,1.84,0,3.66,0,5.45-.11.38-.79.67-1.67,1-2.5A4.45,4.45,0,0,1,141,89a8.73,8.73,0,0,1-1.15-1.72c-.92-1.54-1.69-3-2.56-4.64-.14-.25-.63-1-.11-1.11.3,0,.49.44.65.76a59.65,59.65,0,0,0,3,5.41,6.13,6.13,0,0,0,.56.84,3.59,3.59,0,0,0,2,1,2.2,2.2,0,0,0,2-1,19.34,19.34,0,0,0,2.16-3.88c1.16-2.4,2.24-4.69,3.42-7.16.14-.29.34-.89.58-.92a.39.39,0,0,1,.4.23c0,.19-.11.33-.21.53-1.23,2.45-2.27,4.9-3.5,7.34l4.3-.23a3.83,3.83,0,0,0,.61,0c.09,0,.25-.35.33-.49a5,5,0,0,0,.72-1.74,5.43,5.43,0,0,0-.07-1.19c-.12-1.1-.31-2.25-.48-3.28-.23-1.41-.5-2.86-.82-4.17a5.54,5.54,0,0,0-1.93-3.08,4.66,4.66,0,0,0-2.68-1.07,4.79,4.79,0,0,0-1.26,0,2.65,2.65,0,0,0-.65.33c-1.43.81-2.46,2.16-3.94,2.9a3.32,3.32,0,0,1-3.11.1,2.23,2.23,0,0,1-.4-2.83,8.31,8.31,0,0,0-3.35,1.74c-.11.12-.24.31-.38.48s-.28.38-.5.34a.37.37,0,0,1-.23-.23c-.05-.26.32-.64.48-.82a8.29,8.29,0,0,1,4.19-2.2,14.73,14.73,0,0,0,2-.59c-.05-.86-.23-1.58-.34-2.37a4,4,0,0,1-3.52-.59,4.77,4.77,0,0,1-1.6-2.94,3.84,3.84,0,0,1-1.49-1.06c-.67-1-.42-3.11-.06-4.22a5.61,5.61,0,0,1,2.22-2.71,7.33,7.33,0,0,1,3.51-1.44,9.31,9.31,0,0,1,4.27.52c.49-.69.93-1.37,2-1.47a3.09,3.09,0,0,1,2,.55,4.43,4.43,0,0,1,1.28,1.23,30.16,30.16,0,0,1,1.63,3.4,37,37,0,0,0,3.65,6.44,4.47,4.47,0,0,1,3.07,1A3.59,3.59,0,0,1,158.45,68.16Zm.26,9.77a7.1,7.1,0,0,0,1.53-.83A5,5,0,0,0,161.47,76a5.58,5.58,0,0,0,.78-3.81,3.68,3.68,0,0,0-3.19-3.23c-.38-.08-1.16-.1-1.26-.36s.06-.67.09-1a2.63,2.63,0,0,0-1.2-2.64,4.19,4.19,0,0,0-1.17-.31,6.57,6.57,0,0,1-1.22-.15c-.15-.06-.29-.32-.44-.55-.41-.59-.85-1.25-1.17-1.78a60,60,0,0,1-3.3-6.56,8.33,8.33,0,0,0-.67-1.3,3.34,3.34,0,0,0-2.18-1.39A1.74,1.74,0,0,0,144.69,54a6,6,0,0,1,3.36,4.41,8.12,8.12,0,0,1-.11,3.48,5.41,5.41,0,0,1-1,1.93c-.12.15-.42.4-.44.54a3,3,0,0,0,.1.57l.11.57a7.09,7.09,0,0,1-.21,3.21c3.16-.28,4.89.87,6.1,2.62a8.75,8.75,0,0,1,1.13,3.25c.26,1.2.46,2.49.68,3.71A12.09,12.09,0,0,0,158.71,77.93ZM147.57,59.77a6.1,6.1,0,0,0-1-3.23,4.6,4.6,0,0,0-2.49-2,5,5,0,0,0-1.68-.54,8.71,8.71,0,0,0-2.08-.15A7.23,7.23,0,0,0,135.69,56a5,5,0,0,0-1.32,3.74,3.58,3.58,0,0,0,.23,1.47,2.11,2.11,0,0,0,.72.6c.08.05.16.15.25.11v-1.2c-.38.1-.87.16-.86-.23s.52-.32.88-.4a3.43,3.43,0,0,1,.44-1.21,3.74,3.74,0,0,1,1.07-1.32c.19-.16.52-.47.73-.47s.55.37.74.53a36.63,36.63,0,0,0,5.05,3.9c.15-.45-.07-1.84.57-1.7.19,0,.21.22.23.46.84-.76,1.92.26,1.8,1.32a3.17,3.17,0,0,1-1.72,2.14c-.06.39-.34.77-.16,1.2C146.41,64.13,147.62,62.51,147.57,59.77ZM136.24,60c1.78-.15,2.63,1.92,1.82,3.29.15.31.6.33.59.7a.3.3,0,0,1-.31.29c-.22,0-.41-.24-.55-.36s-.4-.29-.42-.48a2.43,2.43,0,0,1,.23-.67,1.92,1.92,0,0,0,.17-.74,1.65,1.65,0,0,0-.84-1.34,2.33,2.33,0,0,0-.71-.06c-.15,2.09.23,3.61,1.4,4.51a3.18,3.18,0,0,0,2.35.61,4.27,4.27,0,0,0,1.58-.67c.25-.16.76-.42.75.08s-.8.56-1,.76c.08.39.15.83.23,1.3s.32,1.42,0,1.8-1,.29-1.45.52a1.85,1.85,0,0,0-.4.34,1.76,1.76,0,0,0-.46,1c-.12,1.12.52,1.62,1.55,1.55a5.21,5.21,0,0,0,2.67-1.28c.79-.64,1.44-1.28,2.16-1.79-1.43-.25-1.53-1.94-1.77-3.37a7.22,7.22,0,0,1-.21-1.51,4.88,4.88,0,0,1,.15-.53,4.55,4.55,0,0,1,.17-.52c.1-.18.39-.3.59-.44a3.94,3.94,0,0,0,.56-.46,1.74,1.74,0,0,0,.51-1.16.9.9,0,0,0-.55-.73,2.52,2.52,0,0,0-.46.29c-.13.1-.38.18-.34.44.22,0,1-.53,1,0,0,.22-.28.3-.46.38a5.44,5.44,0,0,1-.59.25c-.13.77-.8.14-1.13-.08-.58-.39-1-.67-1.56-1a4,4,0,0,0-.75-.55,4.56,4.56,0,0,0-1-.08c-.27,0-.41.26-.67.21s-.22-.14-.21-.32c0-.39.72-.51,1-.5-.63-.58-1.4-1.22-2.1-1.8A3.77,3.77,0,0,0,136.24,60Zm9.69,4.76a7.22,7.22,0,0,1-1.51.8c.34,1.2.09,3,1.45,3.19A6.78,6.78,0,0,0,145.93,64.76Zm-2.33,38.62c2.68,0,5.66.06,8.35-.06a14.27,14.27,0,0,0,2.6-.21,4.3,4.3,0,0,0,1.09-.55,5.29,5.29,0,0,0,2.1-2.81,9.57,9.57,0,0,0-.36-5.62c-1-2.95-2.4-5.8-3.69-8.58-.07-.16-.19-.51-.29-.55a.88.88,0,0,0-.23,0c-1.72,0-3.4.25-5.18.28-1,1.81-1.64,4-3.72,4.82-.31.86-.68,1.67-1,2.52,1.45-.11,3.1-.19,4.63-.3.52,0,1.27-.2,1.28.26,0,.21-.16.33-.48.35-1.82.15-3.72.24-5.37.34-2.14.13-4,.35-6,.57-4,.43-7.94.77-11.66,1.38a3.55,3.55,0,0,0-2.14,1.11A4.85,4.85,0,0,0,122.4,100a8.74,8.74,0,0,0,.27,1.37c.94,4.44,2.14,8.66,3.25,13.07,2.57-.79,5.33-1.39,8-2-.66-3-1.41-6.2-2.11-9.25-.08-.31-.39-1.13.12-1.13s.35.93.53,1.19C136.26,103.31,139.88,103.38,143.6,103.38Zm-12.31-9.9c-2.82,0-5.66.09-8.41.21a10.7,10.7,0,0,0-1.64.1,3.77,3.77,0,0,0-1.68,1,6.41,6.41,0,0,0-1.17,1.53c-1.92,3.61-3.38,7.42-5.12,11.14,2.44,1.26,4.6,2.79,6.86,4.24,1.12-1.39,2.27-2.75,3.38-4.16-.54-2.33-1.27-4.7-1.68-7.17a5.54,5.54,0,0,1,.65-3.65,4.49,4.49,0,0,1,2.41-2,7.82,7.82,0,0,1,1.24-.21c3-.43,6.09-.77,9.08-1.11C133.92,93.43,132.6,93.48,131.29,93.48Zm-18.8,14.45c-.47.21-.64.86-.92,1.39-.12.22-.27.45-.44.71s-.4.53-.36.8.68.61.84.73c1.89,1.42,3.73,2.6,5.71,3.86.28.18.79.58,1.05.55s.46-.48.58-.68c.36-.52.66-1,1-1.55.18-.31.56-.72.36-1.11a3.55,3.55,0,0,0-.91-.65c-1.93-1.24-3.7-2.46-5.72-3.59-.3-.16-.81-.54-1.11-.48Zm-1.38,4q-1.23,1.92-2.43,3.86c1.75,1.19,3.49,2.41,5.26,3.59.87-1.27,1.81-2.46,2.67-3.74C114.73,114.5,112.88,113.28,111.11,112Zm20,6c1.11-.28,2.21-.54,3.32-.86.28-.08.91-.21,1-.42a2.57,2.57,0,0,0-.14-.86c-.15-.68-.24-1.13-.4-1.74s-.25-1.14-.76-1c-2.49.56-5.24,1.14-7.63,1.89a2.53,2.53,0,0,0-1,.4c-.33.42.13,1.57.21,1.93a2.58,2.58,0,0,0,.73,1.61A26,26,0,0,0,131.14,118Zm-22.8-1.57a6.19,6.19,0,0,0-.42.65,1.83,1.83,0,0,1-.42.56,3.47,3.47,0,0,1-.67.25l-1.41.49a3.88,3.88,0,0,1-.71.23c-.35,0-.7-.18-1-.19A5,5,0,0,1,104,121q2.25,1.28,4.53,2.5c.84-1.19,2.39-1.67,3.94-2.14.36-.48.71-1,1-1.45C111.81,118.76,110.11,117.54,108.34,116.39Zm20.14,2.83c.34,1.31.74,2.55,1.09,3.86,2.06-.61,4.07-1.26,6.12-1.87-.32-1.18-.58-2.42-1-3.55C132.68,118.22,130.65,118.79,128.48,119.22Zm-29.16-.72a3.24,3.24,0,0,0-.71,1.18c3,1.75,6.18,3.69,9.33,5.37a2.76,2.76,0,0,0,.67.31,3.69,3.69,0,0,0,1.18-.21c.61-.83,1.24-1.73,1.84-2.56.1-.12.24-.24.21-.35A12.89,12.89,0,0,0,110,123a4.63,4.63,0,0,0-.67.61c-.18.19-.42.62-.68.63a2.05,2.05,0,0,1-.69-.31l-3.27-1.83c-.28-.16-1.16-.49-1.26-.8a3.12,3.12,0,0,1,0-.75,3.89,3.89,0,0,0-.54-2.33C101.74,118,100.12,117.88,99.32,118.5Zm30.44,5.18c0,.45.38.95.38,1.39a3.5,3.5,0,0,1-.24.71l-.48,1.43a3.44,3.44,0,0,1-.25.71c-.2.31-.64.45-.8.72a5.22,5.22,0,0,1,2.35,1.32c1.57-.68,3.19-1.32,4.72-2a4.71,4.71,0,0,1,.23-2.91,7.45,7.45,0,0,1,.61-1.62c-.18-.5-.24-1.11-.46-1.57Zm6.16,2.75a4.3,4.3,0,0,0,.07.95,2.5,2.5,0,0,1,.1.86c-.06.18-.39.28-.61.37l-4.15,1.77a1.87,1.87,0,0,1-.73.25c-.25,0-.54-.39-.78-.59a3.7,3.7,0,0,0-1.38-.75,1.76,1.76,0,0,0-.63-.15c-.15,0-.38.33-.57.5a4.74,4.74,0,0,0-1.34,1.91,2,2,0,0,0,.4,1.85c3-1.17,6.3-2.45,9.29-3.72a6.33,6.33,0,0,0,1.28-.58,1.71,1.71,0,0,0,.36-.51,2.66,2.66,0,0,0,.25-.63,5.78,5.78,0,0,0-.23-.88c-.23-.88-.51-2-.74-2.68A18,18,0,0,0,135.92,126.43Z"/><path class="cls-3" d="M141.09,63.38a.29.29,0,0,1,.37.23c0,.23-.22.47-.37.63a2,2,0,0,1-.57.42c-.27.1-1,.24-1.11-.09-.16-.5.61-.38.92-.52s.39-.54.71-.67C141.05,63.37,141.07,63.38,141.09,63.38Z"/><path class="cls-3" d="M142.89,82.05c1.18-3.23,2.34-6.57,3.52-9.86.09-.24.14-.5.38-.51.54,0,.23.63.13.93-1,2.87-2,5.78-3.07,8.66a6.86,6.86,0,0,1-.52,1.28c.08.3.86.69.78,1.11a.28.28,0,0,1-.21.23c-.28.06-.46-.26-.63-.46-1.16-1.33-2.4-2.76-3.42-4.19a22.54,22.54,0,0,1-2.14-4.41c-.32-.74-.51-1.44-1.49-1.45a5.07,5.07,0,0,0-2,.46,2.74,2.74,0,0,0-1.37,1,1.65,1.65,0,0,0-.06.53c.61-.08,1-.61,1.57-.9.42-.21,1.09-.31,1.51-.49.14,0,.32-.22.49-.19a.35.35,0,0,1,.23.28c0,.23-.24.36-.42.5a6.3,6.3,0,0,0-2.12,2.48,2.35,2.35,0,0,0-.25,1.49,9.87,9.87,0,0,1,2-2.63c.17-.15.63-.68.93-.65a.35.35,0,0,1,.25.25c0,.33-.59.71-.76.87a8.86,8.86,0,0,0-2.07,2.76c.06.18.24.25.37.36a14.74,14.74,0,0,1,2.14-2.2c.17-.13.6-.6.91-.55a.33.33,0,0,1,.23.27c0,.34-.51.57-.68.7a10.07,10.07,0,0,0-2,2,1.86,1.86,0,0,0,1.45-.48c.17-.12.36-.27.57-.44s.38-.41.65-.34a.45.45,0,0,1,.19.24c0,.27-.31.48-.47.6a4,4,0,0,1-2.09,1.09,2.34,2.34,0,0,1-1.6-.67,2.07,2.07,0,0,1-.77-1.49,3.67,3.67,0,0,1,.52-1.82,5,5,0,0,1,1-1.41s0,0,0,0c-.37.19-.84.63-1.28.84a1.38,1.38,0,0,1-.88.13c-.39-.16-.44-.89-.25-1.35A3,3,0,0,1,134,73.3c.92-.38,2.7-.92,3.53-.13a7.14,7.14,0,0,1,1.19,2.39A18.36,18.36,0,0,0,139.81,78,31.26,31.26,0,0,0,142.89,82.05Z"/><path d="M149.68,81.17a.31.31,0,0,1-.31-.31c0-.54-1.2-1.77-2.65-2.5-1-.48-1.5-.48-1.65-.4a.33.33,0,0,1-.43-.14.31.31,0,0,1,.15-.42,2.73,2.73,0,0,1,2.21.4c1.43.72,3,2.08,3,3a.33.33,0,0,1-.31.32Z"/><path class="cls-3" d="M140.38,60.38a.49.49,0,0,1,.49.48v.72a.49.49,0,0,1-1,0v-.72A.49.49,0,0,1,140.38,60.38Z"/><path class="cls-3" d="M137.42,61a.48.48,0,0,1,.49.48v.71a.49.49,0,1,1-1,0v-.71A.48.48,0,0,1,137.42,61Z"/><path class="cls-3" d="M130.52,72.09a5.34,5.34,0,1,0-10.68,0s-7,0-7,0v7H113a5.34,5.34,0,0,1,0,10.68h-.13v7h24.6V72.09Z"/><path d="M137.48,97h-24.6a.32.32,0,0,1-.32-.32v-7a.33.33,0,0,1,.1-.23.36.36,0,0,1,.22-.09H113a5,5,0,1,0,0-10h-.13a.31.31,0,0,1-.22-.09.34.34,0,0,1-.1-.23v-7a.31.31,0,0,1,.32-.31h6.66a5.65,5.65,0,0,1,11.29,0h6.65a.31.31,0,0,1,.32.31V96.7A.32.32,0,0,1,137.48,97Zm-24.29-.63h24v-24h-6.65a.32.32,0,0,1-.32-.32,5,5,0,1,0-10,0,.32.32,0,0,1-.32.33h-6.65v6.34a5.65,5.65,0,0,1,0,11.3Z"/><path class="cls-2" d="M116.83,72l.83.92s-.2,2,1.56,2.33,2.49-.41,2.82-1.49a4.61,4.61,0,0,0-.82-3.46l1.17,1s-.18,2,.41,2.14.92-1,1-1.49a2.57,2.57,0,0,0-.66-2.23,2.94,2.94,0,0,0-2.93-.88,11.74,11.74,0,0,0-4.26,1.85,1.66,1.66,0,0,0-.58,1.24Z"/><path class="cls-3" d="M122.19,73.11a2.44,2.44,0,0,1-.91,1.89c-.78.54-2.68.64-3.31-.17a3.72,3.72,0,0,1-.55-1.43,3.78,3.78,0,0,0-.08-.56,2.68,2.68,0,0,0-.44-.61c-.12-.16-.62-.78-.13-.88s.47.3.65.54a3.72,3.72,0,0,1,.51.67c.1.29.11.71.19,1,.14.55.28,1.07.9,1.16a8.74,8.74,0,0,0-.34-2.17,3.69,3.69,0,0,0-.44-.83c-.13-.22-.48-.56-.42-.84a.33.33,0,0,1,.25-.21c.33,0,.57.48.72.71a4.9,4.9,0,0,1,.48.94,12,12,0,0,1,.4,2.46,2,2,0,0,0,.44,0,12.64,12.64,0,0,0,.17-2.19,5.25,5.25,0,0,0-.47-1.74c-.1-.27-.29-.75.13-.77s.46.55.57.84a7.73,7.73,0,0,1,.31,1.07,9.26,9.26,0,0,1,0,2.58,2.14,2.14,0,0,0,.8-2.19,5.39,5.39,0,0,0-.63-1.76c-.13-.25-.35-.72,0-.79s.72.44.9.58.67.46.76.72-.07,1.09,0,1.51a.87.87,0,0,0,.25.46c.41-.22.52-1.08.48-1.72a2.14,2.14,0,0,0-1.11-1.72,2.83,2.83,0,0,0-1.74-.59,7.68,7.68,0,0,0-2.37.65,8.18,8.18,0,0,0-2,1,3,3,0,0,0-.78,1.43,1,1,0,0,0-.59-.21c.31-1.54,1.54-2.16,2.9-2.73a9.52,9.52,0,0,1,2.81-.8,3.58,3.58,0,0,1,2.39.9A2.61,2.61,0,0,1,124,71.47a3.72,3.72,0,0,1-.33,1.75,1,1,0,0,1-.86.48C122.48,73.66,122.35,73.37,122.19,73.11ZM122,71.56v-.23c-.05,0-.08-.08-.13-.11A1.51,1.51,0,0,0,122,71.56Z"/><path class="cls-2" d="M122.09,99c0-3.6,3.5-4.11,7.52-4.65,4.27-.57,9.12-1.06,9.12-1.06l1.51,4.14Z"/><path class="cls-3" d="M162.25,70.3a4.91,4.91,0,0,0-3.8-2.14,3.59,3.59,0,0,0-.79-3.19,4.47,4.47,0,0,0-3.07-1,37,37,0,0,1-3.65-6.44,30.16,30.16,0,0,0-1.63-3.4A4.43,4.43,0,0,0,148,52.85a3.09,3.09,0,0,0-2-.55c-1,.1-1.47.78-2,1.47a9.31,9.31,0,0,0-4.27-.52,7.33,7.33,0,0,0-3.51,1.44,5.61,5.61,0,0,0-2.22,2.71c-.36,1.11-.61,3.21.06,4.22a3.84,3.84,0,0,0,1.49,1.06,4.77,4.77,0,0,0,1.6,2.94,4,4,0,0,0,3.52.59c.11.79.29,1.51.34,2.37a14.73,14.73,0,0,1-2,.59,8.29,8.29,0,0,0-4.19,2.2,3.49,3.49,0,0,0-.41.52,7.3,7.3,0,0,1,.81,0l.23-.28a8.31,8.31,0,0,1,3.35-1.74,2.23,2.23,0,0,0,.4,2.83,3.32,3.32,0,0,0,3.11-.1c1.48-.74,2.51-2.09,3.94-2.9a2.65,2.65,0,0,1,.65-.33,4.79,4.79,0,0,1,1.26,0,4.66,4.66,0,0,1,2.68,1.07,5.54,5.54,0,0,1,1.93,3.08c.32,1.31.59,2.76.82,4.17.17,1,.36,2.18.48,3.28a5.43,5.43,0,0,1,.07,1.19,5,5,0,0,1-.72,1.74c-.08.14-.24.45-.33.49a3.83,3.83,0,0,1-.61,0l-4.3.23c1.23-2.44,2.27-4.89,3.5-7.34.1-.2.26-.34.21-.53a.39.39,0,0,0-.4-.23c-.24,0-.44.63-.58.92-1.18,2.47-2.26,4.76-3.42,7.16a19.34,19.34,0,0,1-2.16,3.88,2.2,2.2,0,0,1-2,1,3.59,3.59,0,0,1-2-1,6.13,6.13,0,0,1-.56-.84,59.65,59.65,0,0,1-3-5.41,5,5,0,0,0-.27-.51.88.88,0,0,1-.15.48c-.06.08-.12.18-.18.27l.06.11c.87,1.63,1.64,3.1,2.56,4.64A8.73,8.73,0,0,0,141,89a4.45,4.45,0,0,0,2.54,1.19c-.34.83-.63,1.71-1,2.5-1.82.19-4.17.36-7.34.76-3,.34-6.12.68-9.08,1.11a7.82,7.82,0,0,0-1.24.21,4.49,4.49,0,0,0-2.41,2,5.54,5.54,0,0,0-.65,3.65c.41,2.47,1.14,4.84,1.68,7.17-1.11,1.41-2.26,2.77-3.38,4.16-2.26-1.45-4.42-3-6.86-4.24,1.54-3.29,2.86-6.66,4.47-9.88H117c-.32.66-.63,1.32-.92,2-1.16,2.59-2.29,5.15-3.46,7.68-.91.09-1.22.89-1.59,1.64a8,8,0,0,0-.88,1.61.85.85,0,0,0,.19.86c.05.06.24.18.25.23s-.17.22-.23.32l-2.81,4.47c-.12.17-.35.66-.49.71-.58.19-1.22.42-1.82.63a3.3,3.3,0,0,1-.63.21,5.21,5.21,0,0,1-1-.21,9.27,9.27,0,0,0-3.27-.25A2.57,2.57,0,0,0,98.23,119a2,2,0,0,0-.29.94,5.65,5.65,0,0,0,1.23.8c2.58,1.52,5.16,3,7.83,4.51a8.3,8.3,0,0,0,1.34.71,3.23,3.23,0,0,0,1.72-.23c.24-.1.37-.4.55-.65,2.17-3,4.4-6,6.56-9,.33.16.51.4.84.5.8.26,1.19-.48,1.49-.94s.68-1.08,1-1.66a2.68,2.68,0,0,0,.44-.9,1.64,1.64,0,0,0-.3-1c.88-1.06,1.8-2.17,2.65-3.23a1.6,1.6,0,0,1,.4-.42q.78,3.17,1.61,6.28a1.33,1.33,0,0,0-.44.54,4.61,4.61,0,0,0,.27,2.29,3.35,3.35,0,0,0,.88,1.84c.48.35,1.2.08,1.81,0,.48,1.67,1,3.29,1.45,5a3,3,0,0,1,.18.74,2.54,2.54,0,0,1-.18.63c-.16.43-.28.82-.42,1.24a6.33,6.33,0,0,1-.21.62,3.3,3.3,0,0,1-.55.49,9.34,9.34,0,0,0-2.49,2.68,2.69,2.69,0,0,0-.45,1.64,3.35,3.35,0,0,0,.34,1c.12.25.29.71.57.76s.51-.15.77-.25c3.1-1.25,6.15-2.39,9.15-3.67a5.57,5.57,0,0,0,1.34-.65,3.43,3.43,0,0,0,.76-1.51,3.29,3.29,0,0,0-.15-.67c-.88-3.35-1.73-6.55-2.6-9.86a1,1,0,0,0,.71-.72,2.49,2.49,0,0,0-.15-1c-.07-.33-.13-.66-.21-1-.16-.67-.32-1.75-.77-2.1-.1-.07-.26-.12-.32-.23a3.39,3.39,0,0,1-.12-.52c-.62-2.71-1.26-5.47-1.83-8.06,6.4.07,13.09.25,19.51.05a11.91,11.91,0,0,0,2.6-.24,4.9,4.9,0,0,0,1.14-.58,6,6,0,0,0,2.32-2.9,9.79,9.79,0,0,0-.14-6c-1.17-3.43-2.82-6.54-4.2-9.73a6.3,6.3,0,0,0,1-2.45c0-1-.29-2.08-.32-3.09a10.34,10.34,0,0,0,5.1-.77,5.63,5.63,0,0,0,2.92-3A6.16,6.16,0,0,0,162.25,70.3Zm-50.62,52.29c-.6.83-1.23,1.73-1.84,2.56a3.69,3.69,0,0,1-1.18.21,2.76,2.76,0,0,1-.67-.31c-3.15-1.68-6.31-3.62-9.33-5.37a3.24,3.24,0,0,1,.71-1.18c.8-.62,2.42-.5,3.57-.29a3.89,3.89,0,0,1,.54,2.33,3.12,3.12,0,0,0,0,.75c.1.31,1,.64,1.26.8l3.27,1.83a2.05,2.05,0,0,0,.69.31c.26,0,.5-.44.68-.63A4.63,4.63,0,0,1,110,123a12.89,12.89,0,0,1,1.84-.75C111.87,122.35,111.73,122.47,111.63,122.59Zm.88-1.21c-1.55.47-3.1,1-3.94,2.14q-2.28-1.23-4.53-2.5a5,5,0,0,0-.36-2.64c.33,0,.68.21,1,.19a3.88,3.88,0,0,0,.71-.23l1.41-.49a3.47,3.47,0,0,0,.67-.25,1.83,1.83,0,0,0,.42-.56,6.19,6.19,0,0,1,.42-.65c1.77,1.15,3.47,2.37,5.22,3.54C113.22,120.41,112.87,120.9,112.51,121.38Zm1.43-1.95c-1.77-1.18-3.51-2.4-5.26-3.59q1.2-1.94,2.43-3.86c1.77,1.3,3.62,2.52,5.5,3.71C115.75,117,114.81,118.16,113.94,119.43Zm6-5.69c-.31.53-.61,1-1,1.55-.12.2-.36.65-.58.68s-.77-.37-1.05-.55c-2-1.26-3.82-2.44-5.71-3.86-.16-.12-.8-.5-.84-.73s.25-.63.36-.8.32-.49.44-.71c.28-.53.45-1.18.92-1.39s.86.3,1.16.46c2,1.13,3.79,2.35,5.72,3.59a3.55,3.55,0,0,1,.91.65C120.48,113,120.1,113.43,119.92,113.74Zm17.33,13.34a5.78,5.78,0,0,1,.23.88,2.66,2.66,0,0,1-.25.63,1.71,1.71,0,0,1-.36.51,6.33,6.33,0,0,1-1.28.58c-3,1.27-6.33,2.55-9.29,3.72a2,2,0,0,1-.4-1.85,4.74,4.74,0,0,1,1.34-1.91c.19-.17.42-.48.57-.5a1.76,1.76,0,0,1,.63.15,3.7,3.7,0,0,1,1.38.75c.24.2.53.56.78.59a1.87,1.87,0,0,0,.73-.25l4.15-1.77c.22-.09.55-.19.61-.37a2.5,2.5,0,0,0-.1-.86,4.3,4.3,0,0,1-.07-.95,18,18,0,0,1,.59-2C136.74,125.13,137,126.2,137.25,127.08Zm-1-3.69a7.45,7.45,0,0,0-.61,1.62,4.71,4.71,0,0,0-.23,2.91c-1.53.72-3.15,1.36-4.72,2a5.22,5.22,0,0,0-2.35-1.32c.16-.27.6-.41.8-.72a3.44,3.44,0,0,0,.25-.71l.48-1.43a3.5,3.5,0,0,0,.24-.71c0-.44-.34-.94-.38-1.39l6.06-1.86C136,122.28,136.1,122.89,136.28,123.39Zm-.59-2.18c-2.05.61-4.06,1.26-6.12,1.87-.35-1.31-.75-2.55-1.09-3.86,2.17-.43,4.2-1,6.25-1.56C135.11,118.79,135.37,120,135.69,121.21Zm-.79-7.13c.16.61.25,1.06.4,1.74a2.57,2.57,0,0,1,.14.86c-.07.21-.7.34-1,.42-1.11.32-2.21.58-3.32.86a26,26,0,0,1-4.66.92,2.58,2.58,0,0,1-.73-1.61c-.08-.36-.54-1.51-.21-1.93a2.53,2.53,0,0,1,1-.4c2.39-.75,5.14-1.33,7.63-1.89C134.65,112.94,134.77,113.61,134.9,114.08Zm22.48-20a9.57,9.57,0,0,1,.36,5.62,5.29,5.29,0,0,1-2.1,2.81,4.3,4.3,0,0,1-1.09.55,14.27,14.27,0,0,1-2.6.21c-2.69.12-5.67.06-8.35.06-3.72,0-7.34-.07-11.09-.13-.18-.26,0-1.19-.53-1.19s-.2.82-.12,1.13c.7,3,1.45,6.27,2.11,9.25-2.72.63-5.48,1.23-8,2-1.11-4.41-2.31-8.63-3.25-13.07a8.74,8.74,0,0,1-.27-1.37,4.85,4.85,0,0,1,1.17-3.69,3.55,3.55,0,0,1,2.14-1.11c3.72-.61,7.69-1,11.66-1.38,2-.22,3.82-.44,6-.57,1.65-.1,3.55-.19,5.37-.34.32,0,.49-.14.48-.35,0-.46-.76-.29-1.28-.26-1.53.11-3.18.19-4.63.3.32-.85.69-1.66,1-2.52,2.08-.77,2.68-3,3.72-4.82,1.78,0,3.46-.23,5.18-.28a.88.88,0,0,1,.23,0c.1,0,.22.39.29.55C155,88.33,156.35,91.18,157.38,94.13Zm-13.92-23a5.21,5.21,0,0,1-2.67,1.28c-1,.07-1.67-.43-1.55-1.55a1.76,1.76,0,0,1,.46-1,1.85,1.85,0,0,1,.4-.34c.47-.23,1.11-.14,1.45-.52s.09-1.23,0-1.8-.15-.91-.23-1.3c.18-.2,1-.32,1-.76s-.5-.24-.75-.08a4.27,4.27,0,0,1-1.58.67,3.18,3.18,0,0,1-2.35-.61c-1.17-.9-1.55-2.42-1.4-4.51a2.33,2.33,0,0,1,.71.06,1.65,1.65,0,0,1,.84,1.34,1.92,1.92,0,0,1-.17.74,2.43,2.43,0,0,0-.23.67c0,.19.25.34.42.48s.33.36.55.36a.3.3,0,0,0,.31-.29c0-.37-.44-.39-.59-.7.81-1.37,0-3.44-1.82-3.29a3.77,3.77,0,0,1,1.55-2.2c.7.58,1.47,1.22,2.1,1.8-.33,0-1,.11-1,.5,0,.18.06.29.21.32s.4-.18.67-.21a4.56,4.56,0,0,1,1,.08,4,4,0,0,1,.75.55c.54.38,1,.66,1.56,1,.33.22,1,.85,1.13.08a5.44,5.44,0,0,0,.59-.25c.18-.08.45-.16.46-.38,0-.53-.75,0-1,0,0-.26.21-.34.34-.44a2.52,2.52,0,0,1,.46-.29.9.9,0,0,1,.55.73,1.74,1.74,0,0,1-.51,1.16,3.94,3.94,0,0,1-.56.46c-.2.14-.49.26-.59.44a4.55,4.55,0,0,0-.17.52,4.88,4.88,0,0,0-.15.53,7.22,7.22,0,0,0,.21,1.51c.24,1.43.34,3.12,1.77,3.37C144.9,69.84,144.25,70.48,143.46,71.12Zm2.41-2.37c-1.36-.19-1.11-2-1.45-3.19a7.22,7.22,0,0,0,1.51-.8A6.78,6.78,0,0,1,145.87,68.75Zm-1.53-3.82c-.18-.43.1-.81.16-1.2a3.17,3.17,0,0,0,1.72-2.14c.12-1.06-1-2.08-1.8-1.32,0-.24,0-.42-.23-.46-.64-.14-.42,1.25-.57,1.7a36.63,36.63,0,0,1-5.05-3.9c-.19-.16-.52-.52-.74-.53s-.54.31-.73.47A3.74,3.74,0,0,0,136,58.87a3.43,3.43,0,0,0-.44,1.21c-.36.08-.87,0-.88.4s.48.33.86.23v1.2c-.09,0-.17-.06-.25-.11a2.11,2.11,0,0,1-.72-.6,3.58,3.58,0,0,1-.23-1.47A5,5,0,0,1,135.69,56a7.23,7.23,0,0,1,4.66-2.18,8.71,8.71,0,0,1,2.08.15,5,5,0,0,1,1.68.54,4.6,4.6,0,0,1,2.49,2,6.1,6.1,0,0,1,1,3.23C147.62,62.51,146.41,64.13,144.34,64.93Zm17.13,11a5,5,0,0,1-1.23,1.14,7.1,7.1,0,0,1-1.53.83,12.09,12.09,0,0,1-4.28.4c-.22-1.22-.42-2.51-.68-3.71a8.75,8.75,0,0,0-1.13-3.25c-1.21-1.75-2.94-2.9-6.1-2.62a7.09,7.09,0,0,0,.21-3.21l-.11-.57a3,3,0,0,1-.1-.57c0-.14.32-.39.44-.54a5.41,5.41,0,0,0,1-1.93,8.12,8.12,0,0,0,.11-3.48A6,6,0,0,0,144.69,54a1.74,1.74,0,0,1,1.85-1.11,3.34,3.34,0,0,1,2.18,1.39,8.33,8.33,0,0,1,.67,1.3,60,60,0,0,0,3.3,6.56c.32.53.76,1.19,1.17,1.78.15.23.29.49.44.55a6.57,6.57,0,0,0,1.22.15,4.19,4.19,0,0,1,1.17.31,2.63,2.63,0,0,1,1.2,2.64c0,.28-.19.67-.09,1s.88.28,1.26.36a3.68,3.68,0,0,1,3.19,3.23A5.58,5.58,0,0,1,161.47,76Z"/><path class="cls-3" d="M141.09,63.38a.29.29,0,0,1,.37.23c0,.23-.22.47-.37.63a2,2,0,0,1-.57.42c-.27.1-1,.24-1.11-.09-.16-.5.61-.38.92-.52s.39-.54.71-.67C141.05,63.37,141.07,63.38,141.09,63.38Z"/><polygon class="cls-2" points="139.65 78.21 137.88 74.32 137.15 73.19 136.02 73.02 134.71 73.24 133.16 74.02 132.66 74.72 132.45 75.87 133.41 75.5 134.14 75 135.04 74.67 135.61 74.66 134.71 75.42 133.76 77.16 133.43 78.21 133.76 78.94 134.37 79.94 135.61 80.27 137.63 78.94 138.43 78.62 139.65 78.21"/><path class="cls-3" d="M142.89,82.05c1.18-3.23,2.34-6.57,3.52-9.86.09-.24.14-.5.38-.51.54,0,.23.63.13.93-1,2.87-2,5.78-3.07,8.66a6.86,6.86,0,0,1-.52,1.28c.08.3.86.69.78,1.11a.28.28,0,0,1-.21.23c-.28.06-.46-.26-.63-.46-1.16-1.33-2.4-2.76-3.42-4.19a22.54,22.54,0,0,1-2.14-4.41c-.32-.74-.51-1.44-1.49-1.45a5.07,5.07,0,0,0-2,.46,2.74,2.74,0,0,0-1.37,1,1.65,1.65,0,0,0-.06.53c.61-.08,1-.61,1.57-.9.42-.21,1.09-.31,1.51-.49.14,0,.32-.22.49-.19a.35.35,0,0,1,.23.28c0,.23-.24.36-.42.5a6.3,6.3,0,0,0-2.12,2.48,2.35,2.35,0,0,0-.25,1.49,9.87,9.87,0,0,1,2-2.63c.17-.15.63-.68.93-.65a.35.35,0,0,1,.25.25c0,.33-.59.71-.76.87a8.86,8.86,0,0,0-2.07,2.76c.06.18.24.25.37.36a14.74,14.74,0,0,1,2.14-2.2c.17-.13.6-.6.91-.55a.33.33,0,0,1,.23.27c0,.34-.51.57-.68.7a10.07,10.07,0,0,0-2,2,1.86,1.86,0,0,0,1.45-.48c.17-.12.36-.27.57-.44s.38-.41.65-.34a.45.45,0,0,1,.19.24c0,.27-.31.48-.47.6a4,4,0,0,1-2.09,1.09,2.34,2.34,0,0,1-1.6-.67,2.07,2.07,0,0,1-.77-1.49,3.67,3.67,0,0,1,.52-1.82,5,5,0,0,1,1-1.41s0,0,0,0c-.37.19-.84.63-1.28.84a1.38,1.38,0,0,1-.88.13c-.39-.16-.44-.89-.25-1.35A3,3,0,0,1,134,73.3c.92-.38,2.7-.92,3.53-.13a7.14,7.14,0,0,1,1.19,2.39A18.36,18.36,0,0,0,139.81,78,31.26,31.26,0,0,0,142.89,82.05Z"/><path class="cls-3" d="M112.15,54.59a4.66,4.66,0,1,1-4.65,4.65A4.66,4.66,0,0,1,112.15,54.59Z"/><path d="M90.23,123.5l-2.7,7.74h5.39Z"/><path class="cls-2" d="M87.62,140.09a10.07,10.07,0,0,0-2.87,2.42l-3,.37-6.5-10.8s.83-11.94.82-13.91-.6-5.31-2.35-6.21-4-1.11-8.52-.46S53.11,113,53.11,113l-.56-2.1.86-12.65s10.07,0,11.3,0,4,.2,4.47-2.27.63-15.88.63-15.88l3.55-.44c2.1-.27,4.45-.44,4.38-1s-.51-1.91-1.44-1.78S72,78,72,78s1.82-2,1.66-2.41a.93.93,0,0,0-1.59-.27c-.73.78-2.06,2.52-2.06,2.52s-3.86-1.25-4.72-.34-1,1.79-1.15,4.93-.21,9.4-.21,9.4-11.71-1.07-13.47-.46S46.83,93,46.53,93s-.76.34-.86-.46a13.1,13.1,0,0,1,.08-2.39s2.37.11,3.27-1.55c1.43-2.64-.42-5.48-.42-5.48L49,83l-.69-1.07s1.41-1,.94-1.66a1.55,1.55,0,0,0-2.08-.63s-1-1.81-2.24-1.51A3.67,3.67,0,0,0,43,79.21a3.93,3.93,0,0,0-2.16-.82,2.16,2.16,0,0,0-1.74,1.16,5.45,5.45,0,0,0-.46,1.67s-1.73.46-2,1.85c-.41,2.33.92,2.69.92,2.69a1.35,1.35,0,0,0-.21,1.78c.66,1,1,1.11,1.55,1.11A3.65,3.65,0,0,0,40,88.46a1.87,1.87,0,0,0,1,.72c.73.28,1.76,0,1.68.27s-.22,4.27-1.07,4.4-6,.51-6.87,1.45a36.81,36.81,0,0,0-5.28,8.92c-2.16,4.87-3.73,6.76-2.29,8.41s3.39,2.35,4.76,1.6a63.4,63.4,0,0,0,5.6-4.49s-.34,6.23-.35,9.29-.89,7.31,4.28,8.54,18.17.8,18.17.8l5.05,6.37.25,7.68,1.7.27L66,152.56l14.18.14L80,151.4l1.34,1.36s3.3-3.6,5.1-5.58a42.69,42.69,0,0,0,3.94-5.58S89,139.51,87.62,140.09Zm-12.18,8-1.16-1.95,0-1.09,3.19,3.29Z"/><path class="cls-3" d="M84.58,144.51a7.4,7.4,0,0,1,.38-2l-.73.29-2.31,0L81,141.41l-5,5.14,2.81,3,2.58,1L85,146.71A8.27,8.27,0,0,1,84.58,144.51ZM74.3,146.23l0-.71-7.68-.34-.15,3s.78.61,1.55,1.12A9.58,9.58,0,0,1,69.77,151l5.31.23a6.51,6.51,0,0,1,.67-1.62,3,3,0,0,1,1.11-1.17l-1.25-.4Z"/><path class="cls-2" d="M37,118.49l4.66-.75.36.63,16.07-.27.42-4.54a1.51,1.51,0,0,0,1.59-.33,9.94,9.94,0,0,1,1.47-1.15s7.44-1.3,8.94-1.18,4.92.56,5.24,5.18-.61,15.67-.61,15.67l4.08,6.85-6.74,5.61-1.53-1.53-5.9-.29-.38-7.85-5.3-6.16S47,128.38,44,128s-5.83-1-6.63-4.18A12.84,12.84,0,0,1,37,118.49Z"/><path class="cls-3" d="M42.12,95.21,40.22,94l-4.2.69-2.26,1.6L32,99l-.39,1-.89,1.84.92-.22,2.21.83,2,1.26,5.65-4.57L44,97.53l2.17.82,1.4,1.11,1.34-.86,1.82-.21,1.38.52.94.87.37-1.56h4.26l.2-1.11.27-3.48-.47-2.29-5.41-.09-1.54,0-2,.65L47,92.71l.18.9-.66,1.33L45,95.66S42.56,95.74,42.12,95.21Z"/><path class="cls-3" d="M72.58,77.6c.82-.29,1.77-.5,2.71-.78a3,3,0,0,1,.94-.21,1.49,1.49,0,0,1,1.18.73c.25.35.69,1.06.35,1.56s-1.09.52-1.65.63a59.67,59.67,0,0,1-6,.75c-.1,4.27-.15,8.5-.32,12.75,0,.71,0,1.43-.1,2.08a5.32,5.32,0,0,1-.49,1.68,3.1,3.1,0,0,1-2.7,1.66,75,75,0,0,1-8.52.1c-1,0-2.12,0-3.21-.06a4.37,4.37,0,0,0-1,0c-.2.1-.16,1.05-.18,1.47-.2,3.13-.39,6.11-.61,9.25a13.6,13.6,0,0,0-.11,1.53c0,.66.38,1.3.46,2,5.14-.57,10.32-1.38,15.74-1.8a8.49,8.49,0,0,1,4.93.79,5.58,5.58,0,0,1,2.16,3.69,22.47,22.47,0,0,1,.16,5.56c-.17,3.74-.31,7.52-.6,11.1,2.1,3.49,4.2,7,6.33,10.47.6,0,1.16-.06,1.76-.11a2.55,2.55,0,0,0,.57,0c.23-.07.46-.45.67-.65A6.26,6.26,0,0,1,87.23,140a2.37,2.37,0,0,1,1.11-.14,2.75,2.75,0,0,1,1.63,1c.18.16.58.4.61.69s-.28.62-.44.86a54.12,54.12,0,0,1-3.78,5.27c-1.33,1.6-2.82,3.2-4.25,4.8-.19.21-.48.58-.7.59-.46,0-.58-.65-.92-.82.36,1-1,.68-1.84.71q-4.64.19-9.34,0c-.59,0-1.18,0-1.87,0-.48,0-1.55.06-1.72-.16s0-.81,0-1.22c.21-2.88.38-5.83.59-8.69-.4-.16-1.38.17-1.68-.14-.12-.14-.07-.65-.08-.93,0-.95,0-2,0-2.93,0-1.38-.09-2.74,0-3.86-1.72-2.16-3.44-4.3-5.18-6.42-3.41-.08-6.8,0-10.2-.17s-6.77,0-9.29-1.07a4.41,4.41,0,0,1-2.56-2.62,9.37,9.37,0,0,1-.44-2.16c-.44-4,.17-8.34.35-12.23-.3.22-.58.48-.86.73-.84.77-1.67,1.55-2.58,2.29a5.31,5.31,0,0,1-2,1.24,5.17,5.17,0,0,1-2.81,0,3.54,3.54,0,0,1-1.85-1.41,3.6,3.6,0,0,1-.67-2.5,12.5,12.5,0,0,1,.88-2.37c1.27-3,2.81-5.85,4.24-8.74.36-.72.72-1.44,1.13-2.1a5.9,5.9,0,0,1,3.49-3c1.45-.39,3.18-.52,4.84-.84a2.06,2.06,0,0,0,.63-.17c.29-.21.37-1.26.42-1.7.07-.69.13-1.29.17-1.95A3,3,0,0,1,40,88.92a2.9,2.9,0,0,1-2.05-.37,2.15,2.15,0,0,1-1-1.51,2.56,2.56,0,0,1,.36-1.2c-.35-.53-1-.85-1-1.59a2.72,2.72,0,0,1,2-3,4.59,4.59,0,0,1,1.53-2.77,2,2,0,0,1,1.7-.26,5.84,5.84,0,0,1,1.47.68,2.39,2.39,0,0,1,2.31-1.07,3,3,0,0,1,1.91,1.51,1.65,1.65,0,0,1,1-.23,2.17,2.17,0,0,1,1.34,1.57c.07.68-.5,1-.86,1.49.11.31.76.61.5,1-.12.19-.5.1-.75.08a1.72,1.72,0,0,0-1.47.44,1.37,1.37,0,0,0-.08,1.66,1.67,1.67,0,0,0,.75.56c.31.13.83.15.92.38a1,1,0,0,1-.06.65c0,.23-.11.42-.31.44-.4,0-.39-.43-.28-.71A2.22,2.22,0,0,1,46,84.31a2,2,0,0,1,2.2-1.68,2.7,2.7,0,0,0-.46-.59,2.59,2.59,0,0,0-.53-.56,3.88,3.88,0,0,0-2-.13,7.4,7.4,0,0,0-4.55,1.93c.17.36.61.42.82.71a3.89,3.89,0,0,1,.31.86c.19.58.38,1.15.59,1.72.14.39.34,1.05-.13,1.2-.18.06-.3-.06-.5,0a2.55,2.55,0,0,0-.63.33c-.24.13-.55.17-.59-.1s.36-.34.55-.51c-.15-.23-.78-.09-.88.15a1.08,1.08,0,0,0,.19.88,1.76,1.76,0,0,0,1.25.61c.37,0,1-.06,1.12.15s0,.78,0,1.11-.08.79-.11,1.11a6.54,6.54,0,0,1-.4,2c-.24.49-.7.65-1.36.71a5.72,5.72,0,0,0,2.89,1.05c1.74.16,3.13-.37,3.07-2.12-.6.27-1.51.19-1.68-.5a3.87,3.87,0,0,1,.06-1.16c0-.37.09-.75.15-1.09l-1-.12c-.32,0-.75-.06-.76-.38,0-.5.75-.26,1.14-.21a9.86,9.86,0,0,0,1.44.1,3.05,3.05,0,0,0,2.17-.92,3.14,3.14,0,0,0,.9-2.18,3.11,3.11,0,0,0-.25-1.3c-.14-.37-.56-1.11-.11-1.2s.5.43.63.76A5.3,5.3,0,0,1,49.84,86a4.29,4.29,0,0,1-.35,2.33,3.68,3.68,0,0,1-3.44,2.07,6.88,6.88,0,0,0-.17,1,2.82,2.82,0,0,0-.06,1.07c0,.1.21.16.31.17a3,3,0,0,0,.95-.32c.86-.34,1.78-.78,2.66-1A15.3,15.3,0,0,1,54.29,91c3.29.09,6.42.32,9.46.44.06-3.33.11-7,.15-10.38,0-1.73.11-3.35,1.4-3.86s3.1,0,4.58.21c.76-.92,1.42-2.2,2.66-2.58.58-.18,1.42.4,1.34,1,0,.32-.38.65-.6.93S72.78,77.37,72.58,77.6Zm.11-2.17a3.59,3.59,0,0,0-1.43,1.16c-.16.2-.35.46-.54.73s-.35.66-.59.72A4.6,4.6,0,0,1,69,77.89c-1.06-.16-2.54-.54-3.53-.08s-.94,2.46-.94,4c0,3.12-.11,6.1-.11,9.19,0,.44.18,1.56-.33,1.53a.26.26,0,0,1-.25-.15c0-.07,0-.21-.11-.29-2.77-.15-5.77-.29-8.62-.42a22,22,0,0,0-4.32.06,21.33,21.33,0,0,0-3.36,1.18,1,1,0,0,1,.06.52c-.1,1.82-1.47,2.58-3.29,2.5a7.39,7.39,0,0,1-3.8-1.26c-.15-.09-.34-.26-.46-.27a4,4,0,0,0-.77.12,23.74,23.74,0,0,0-2.37.4,4.61,4.61,0,0,0-2.42,1.26,20.34,20.34,0,0,0-2.77,4.57c-.87,1.64-1.61,3.2-2.43,4.91-.57,1.21-1.17,2.52-1.7,3.8a6.57,6.57,0,0,0-.46,1.38.71.71,0,0,0,0,.21,3.31,3.31,0,0,0,1.55,2.67,4.39,4.39,0,0,0,3.48.14,5.56,5.56,0,0,0,1.14-.79c2.34-1.9,4.38-4,6.54-6,.18-.18.36-.44.59-.4a.31.31,0,0,1,.23.29c0,.31-.45.61-.63.78-.76.7-1.49,1.45-2.16,2.09.11.09.09.26.08.42-.09,2.58-.43,5.31-.48,8a36.31,36.31,0,0,0,4.66-.55,29.76,29.76,0,0,0,5.85-2c.62-.26,1.24-.5,1.8-.8a14.26,14.26,0,0,0,2.63-1.93,1.5,1.5,0,0,0,.35-.31c-.07-.53-.4-1.22-.44-1.83a16.58,16.58,0,0,1,.13-1.8c.19-3.12.36-6,.59-9.06.06-1,.1-1.68.16-2.73,0-.29.07-.61.34-.63.6,0,.11,1,.34,1.22a3.08,3.08,0,0,0,.94.08c.4,0,.76,0,1,0,2.06.07,4.21.08,6.21.08a34,34,0,0,0,4.09-.1,5,5,0,0,0,1.7-.4,3.28,3.28,0,0,0,1.34-2.83c.32-4.71.2-9.55.38-14.31-.43-.08-1.87.38-1.89-.21,0-.41.64-.33.92-.35l2.39-.17A6.15,6.15,0,0,0,72,79.48c.17,0,.37-.17.56-.25,1.37-.54,2.82-1.19,4.14-1.7-.37-.55-1-.17-1.64,0-.77.2-1.5.43-2.18.65a7.3,7.3,0,0,0-1.09.34c-.22.11-.3.49-.65.42a.29.29,0,0,1-.21-.23c0-.32.35-.59.52-.78a18,18,0,0,0,1.76-2.2C73.12,75.56,72.89,75.37,72.69,75.43Zm4.4,2.63c-.88.36-1.77.71-2.64,1.09a10.46,10.46,0,0,0,2.81-.63C77.23,78.34,77.22,78.14,77.09,78.06ZM48.9,80.81c0-.3-.19-.47-.33-.66s-.35-.41-.55-.44c-.37,0-.71.36-1,.32s-.49-.52-.65-.71a1.83,1.83,0,0,0-1.28-.89,1.52,1.52,0,0,0-1.32.49c-.22.21-.42.68-.71.69s-.35-.16-.49-.23A4.32,4.32,0,0,0,41,78.75a1.35,1.35,0,0,0-1,.31,4,4,0,0,0-1.12,2.1,1.62,1.62,0,0,1-.18.55A3.49,3.49,0,0,1,38,82a2.08,2.08,0,0,0-1.15,2,1.65,1.65,0,0,0,.54,1c.17.18.58.38.59.67s-.17.44-.25.63a1.09,1.09,0,0,0,0,1.09,1.88,1.88,0,0,0,2,.86,1.37,1.37,0,0,1,0-1,1.64,1.64,0,0,1,1.24-.63c.34,0,.68.43,1,.46-.32-.91-.65-1.81-.93-2.75-.35-.3-1-.56-1-1.11s.74-.89,1.11-1.13a9.82,9.82,0,0,1,1.36-.76,8.62,8.62,0,0,1,3.55-.69,2.58,2.58,0,0,1,1.7.42c.2.17.3.39.48.57C48.51,81.37,48.89,81.22,48.9,80.81Zm26.56,44.11c.09-2.08.23-4.19.23-6.29a14.7,14.7,0,0,0-.19-3.07,6.68,6.68,0,0,0-.9-2.37,4.09,4.09,0,0,0-3.28-1.63,10.69,10.69,0,0,0-1.53-.11c-1.4.07-2.84.26-4.25.4s-2.77.3-4.14.46c-2.75.33-5.47.75-8.16,1a.53.53,0,0,1-.42-.06,18,18,0,0,1-6.75,3.77,24,24,0,0,1-4,1.22,35.58,35.58,0,0,1-4.72.54,22.8,22.8,0,0,0,.15,3.74,5.88,5.88,0,0,0,.94,3A4.61,4.61,0,0,0,40.82,127a15.69,15.69,0,0,0,3.38.56c1.22.08,2.48.1,3.78.15,2.58.1,5,.17,7.7.17.58,0,1.28,0,1.93,0a11.33,11.33,0,0,1,2,0c.27.08.61.68.84,1C64.5,134,68.52,139,72.58,144c1.58-1.37,3.12-2.8,4.66-4.18a17.14,17.14,0,0,0,1.53-1.42c-2.94-4.81-5.67-9.42-8.66-14.29-.36-.58-.71-1.18-1.09-1.76s-.69-1.24-1.11-1.76A5.58,5.58,0,0,0,64,118.73c-1.72-.13-3.75-.15-5.58-.15-1.35,0-2.85,0-4.27,0a4.62,4.62,0,0,1-1.37-.08.46.46,0,0,1,.07-.5,2.12,2.12,0,0,1,.81,0c2.07,0,4.22,0,6.13,0,2.38,0,4.81-.06,6.38.65.13-.33.18-.93.6-.91a.38.38,0,0,1,.28.21c.11.34-.35.66-.28.95,0,.08.23.15.38.25a5.15,5.15,0,0,1,1,.88,11.91,11.91,0,0,1,1,1.55c1.89,3.09,3.8,6.13,5.62,9.19.07.11.18.37.23.34C75.22,129.06,75.36,127,75.46,124.92ZM65.18,142.18c1.72.07,3.49.09,5.22.15-1.7-2.18-3.53-4.41-5.31-6.59C65.13,137.88,65.12,140.07,65.18,142.18ZM79.11,139c-1.5,1.33-3.18,2.9-4.74,4.28-.09.08-.68.53-.68.61l.26.27c.6.67,1.21,1.29,1.76,1.93,1.64-1.55,3.24-3.14,4.82-4.74C80.06,140.56,79.59,139.77,79.11,139Zm9.35,1.56a2.13,2.13,0,0,0-1.61.33,6.64,6.64,0,0,0-.76.65,4.35,4.35,0,0,0-.71.72,4.43,4.43,0,0,0-.65,1.86,7,7,0,0,0,.1,1.39,4.71,4.71,0,0,1,.21,1.3c0,.15-.25.34-.42.52-.92,1.05-1.73,2-2.66,3-.14.15-.31.43-.48.46a.92.92,0,0,1-.53-.14c-.52-.21-1-.35-1.51-.51.59.72,1.31,1.48,2,2.18,1.51-1.68,3-3.33,4.49-5.07a59.22,59.22,0,0,0,4-5.58C89.43,141.25,89.06,140.72,88.46,140.55Zm-6.1,2.56a2.58,2.58,0,0,1-.67,0c-.18-.06-.33-.41-.42-.57l-.38-.63c-1.57,1.47-3.17,3.1-4.74,4.64L78,148.62c.19.21.43.58.65.67a5,5,0,0,0,.69.17,19,19,0,0,1,1.93.65c.92-1,1.81-2,2.73-3.06.12-.14.36-.35.37-.46a2.45,2.45,0,0,0-.08-.44,5.51,5.51,0,0,1,0-3.17Zm-15.57,1.8c1.29,0,2.51.09,3.78.1,1.1,0,2.2.12,3.25.07.07-.16-.12-.31-.23-.42a2.55,2.55,0,0,0-.38-.36c-.2.1-.33.48-.67.46s-.33-.23-.46-.4c-.29-.36-.5-.59-.78-.94-.09-.12-.29-.43-.4-.46a1.62,1.62,0,0,0-.44,0c-1.15-.05-2.28-.06-3.5-.11C66.85,143.48,66.86,144.23,66.79,144.91Zm0,.67c0,.69-.09,1.39-.14,2.08a14.28,14.28,0,0,1,2.89,2.66c.12.15.24.4.36.44a4.56,4.56,0,0,0,1.07,0c1.28,0,2.62.07,3.77.11a4.73,4.73,0,0,1,1.16-2.2c.06-.07.2-.13.16-.23-.22-.1-.49-.07-.71-.19s-.52-.72-.67-.95a2.94,2.94,0,0,1-.74-1.59c-2.36-.09-4.77-.14-7.13-.23C66.75,145.52,66.75,145.55,66.75,145.58Zm8.1,1,.8,1.19c.3.07.61.14.9.23.06-.05,0-.08-.07-.1-.61-.73-1.3-1.44-1.92-2.12A1.24,1.24,0,0,0,74.85,146.55Zm4.91,4.92a3.82,3.82,0,0,0-.59-.69c-.45-.5-.78-.82-1.24-1.32s-.54-.78-1.11-.77a3.72,3.72,0,0,0-1.38,1.95c-.11.29-.18.79-.42.88a2.34,2.34,0,0,1-.65,0c-1.26-.06-2.23-.05-3.42-.11a6.23,6.23,0,0,1-1.39,0c-.22-.08-.47-.55-.67-.8a11,11,0,0,0-2.31-2.14s0,0,0,0c-.09,1.25-.2,2.6-.25,3.82,4.46.08,9.08.21,13.55,0C79.8,152.07,79.85,151.73,79.76,151.47Z"/><path class="cls-3" d="M44.14,83.2c.28,0,1-.1,1,.31s-.93.2-1.37.36a3.39,3.39,0,0,0-1,.86c-.07.06-.2.23-.38.23a.3.3,0,0,1-.29-.27c0-.3.37-.56.6-.78A2,2,0,0,1,44.14,83.2Z"/><path class="cls-3" d="M45.08,87.48c.22-.06.39.09.57.18a2.15,2.15,0,0,0,.48.23c.4.11,1,0,1,.34,0,.55-1.09.32-1.43.19s-.89-.34-.9-.65A.3.3,0,0,1,45.08,87.48Z"/><path class="cls-3" d="M44.31,104.68a4.6,4.6,0,0,0-.74-1.43,4.44,4.44,0,0,0-1.61-.92c-.23-.1-.45-.16-.44-.4,0-.59,1,0,1.28.08a4.53,4.53,0,0,1,1.17.76,5,5,0,0,1,.92,1.68,6.56,6.56,0,0,0,.7-.36,5.92,5.92,0,0,0-.91-2.27,7.24,7.24,0,0,0-1.25-1.13c-.18-.13-.35-.24-.34-.44a.3.3,0,0,1,.23-.27c.32-.06.83.48,1,.63a6.84,6.84,0,0,1,.82.79,5.35,5.35,0,0,1,1,2.27c.69-.5.42-1.85,0-2.48a3.34,3.34,0,0,0-.92-.88l-.55-.35c-.2-.13-.46-.23-.46-.44a.35.35,0,0,1,.21-.3c.34-.1.84.39,1,.51.38.22.72.35,1,.54a19.19,19.19,0,0,1,1.66,1.47c.51-.4-.19-1.21-.42-1.55a5.74,5.74,0,0,0-2-1.74,2.34,2.34,0,0,0-1.65-.57A5.34,5.34,0,0,0,42.23,99c-2.82,2.18-5.52,4.31-8.33,6.55-.79.63-1.65,1.29-2.49,2-.24.19-.64.6-.91.56a.28.28,0,0,1-.25-.27c0-.24.55-.61.74-.75,3.59-2.82,7.12-5.67,10.76-8.48a8.82,8.82,0,0,1,1.78-1.17,2.72,2.72,0,0,1,2.48.46,6.52,6.52,0,0,1,2.26,2A3.17,3.17,0,0,1,49,101.3a1,1,0,0,1-.81,1.09c-.42,0-.89-.66-1.2-.88a2.74,2.74,0,0,1-.15,2.35,3.52,3.52,0,0,1-1.3,1c-.64.35-1.61.78-2.3.38a3.17,3.17,0,0,1-.63-.54,6.4,6.4,0,0,0-1.39-1c-.23-.14-.77-.37-.52-.71s.6,0,.86.19a6.41,6.41,0,0,1,1.49,1C43.35,104.53,43.7,105,44.31,104.68Z"/><path class="cls-10" d="M61.86,110.11a3.55,3.55,0,0,0-3.47-3.55V106L59,102l-4.43-.11h-.8a3.56,3.56,0,1,0-7.11,0s-4.63,0-4.63,0l-2.43,9.29,2.43,7.1H58.39v-4.65A3.55,3.55,0,0,0,61.86,110.11Z"/><path d="M58.39,118.62H42a.32.32,0,0,1-.3-.21l-2.43-7.1a.36.36,0,0,1,0-.18l2.43-9.29a.32.32,0,0,1,.31-.24h4.33a3.87,3.87,0,0,1,7.72,0h.49l4.44.11a.34.34,0,0,1,.23.11.32.32,0,0,1,.07.25l-.59,4v.24a3.9,3.9,0,0,1,3.46,3.85A3.85,3.85,0,0,1,58.71,114v4.35A.31.31,0,0,1,58.39,118.62ZM42.23,118H58.08v-4.33a.3.3,0,0,1,.3-.31,3.24,3.24,0,0,0,0-6.48.3.3,0,0,1-.3-.31V106l.54-3.64-4.08-.1h-.79a.31.31,0,0,1-.31-.31,3.24,3.24,0,1,0-6.48,0,.32.32,0,0,1-.32.32H42.25l-2.34,9Z"/><path class="cls-3" d="M47.48,83.91a.48.48,0,0,0-.48.48v.71a.48.48,0,0,0,.48.49A.49.49,0,0,0,48,85.1v-.71A.49.49,0,0,0,47.48,83.91Zm-3.15.42a.48.48,0,0,0-.48.48v.71a.48.48,0,1,0,1,0v-.71A.48.48,0,0,0,44.33,84.33Z"/><path class="cls-3" d="M40.18,83.48a7.42,7.42,0,0,1,3.61-2.12c2-.4,3.17-.48,3.54-.19a8.86,8.86,0,0,1,.93,1s1.17-.6.94-1.28-.73-1.29-1.22-1.26a3,3,0,0,0-1,.31s-.64-2.09-2.06-1.65A3.4,3.4,0,0,0,43,79.37s-1.43-1-2.24-.88a1.83,1.83,0,0,0-1.64,1.26c-.44.92-.8,1.93-.8,1.93a2.18,2.18,0,0,0-1.57,1.49,2.56,2.56,0,0,0,.34,2.43,2.12,2.12,0,0,0,.44.32s-.94,1.13-.15,1.82a5.23,5.23,0,0,0,2.43.84,1.12,1.12,0,0,1,.23-1.15c.5-.43.74-.4.74-.4s1.3.64,1.4.37a22.3,22.3,0,0,0-.94-3.31S39.89,83.74,40.18,83.48Z"/><path d="M57.33,98.46a.33.33,0,0,1-.25-.12.32.32,0,0,1,.06-.44c.5-.39.8-2.29.69-4.25-.07-1.25-.51-1.85-.72-1.9a.32.32,0,0,1,.13-.62c.65.15,1.14,1.14,1.22,2.49.11,1.86-.14,4.16-.93,4.78A.36.36,0,0,1,57.33,98.46Z"/><path class="cls-2" d="M30.88,101.72c.42-.27,1.44-.06,2.55.51a9.12,9.12,0,0,1,2.1,1.48Z"/><path d="M35.53,104a.31.31,0,0,1-.22-.09,8.34,8.34,0,0,0-2-1.43c-1.1-.57-2-.69-2.24-.52a.33.33,0,0,1-.44-.09.32.32,0,0,1,.1-.44c.62-.4,1.89,0,2.87.49a9.32,9.32,0,0,1,2.17,1.54.31.31,0,0,1,0,.44A.28.28,0,0,1,35.53,104Z"/><path class="cls-2" d="M46.3,98.21s3.42,3,1.88,3.84l-2.25-1.73.85,1.84-.15,1.33-.49.64-2,.86L42,103.88l-2.17-1.1s.1-.94.52-1.18,1-1.11,1.23-1.17.9-.88,1.21-1,.62-.54,1-.7S45.87,97.81,46.3,98.21Z"/><path class="cls-3" d="M44.31,104.68a4.6,4.6,0,0,0-.74-1.43,4.44,4.44,0,0,0-1.61-.92c-.23-.1-.45-.16-.44-.4,0-.59,1,0,1.28.08a4.53,4.53,0,0,1,1.17.76,5,5,0,0,1,.92,1.68,6.56,6.56,0,0,0,.7-.36,5.92,5.92,0,0,0-.91-2.27,7.24,7.24,0,0,0-1.25-1.13c-.18-.13-.35-.24-.34-.44a.3.3,0,0,1,.23-.27c.32-.06.83.48,1,.63a6.84,6.84,0,0,1,.82.79,5.35,5.35,0,0,1,1,2.27c.69-.5.42-1.85,0-2.48a3.34,3.34,0,0,0-.92-.88l-.55-.35c-.2-.13-.46-.23-.46-.44a.35.35,0,0,1,.21-.3c.34-.1.84.39,1,.51.38.22.72.35,1,.54a19.19,19.19,0,0,1,1.66,1.47c.51-.4-.19-1.21-.42-1.55a5.74,5.74,0,0,0-2-1.74,2.34,2.34,0,0,0-1.65-.57A5.34,5.34,0,0,0,42.23,99c-2.82,2.18-5.52,4.31-8.33,6.55-.79.63-1.65,1.29-2.49,2-.24.19-.64.6-.91.56a.28.28,0,0,1-.25-.27c0-.24.55-.61.74-.75,3.59-2.82,7.12-5.67,10.76-8.48a8.82,8.82,0,0,1,1.78-1.17,2.72,2.72,0,0,1,2.48.46,6.52,6.52,0,0,1,2.26,2A3.17,3.17,0,0,1,49,101.3a1,1,0,0,1-.81,1.09c-.42,0-.89-.66-1.2-.88a2.74,2.74,0,0,1-.15,2.35,3.52,3.52,0,0,1-1.3,1c-.64.35-1.61.78-2.3.38a3.17,3.17,0,0,1-.63-.54,6.4,6.4,0,0,0-1.39-1c-.23-.14-.77-.37-.52-.71s.6,0,.86.19a6.41,6.41,0,0,1,1.49,1C43.35,104.53,43.7,105,44.31,104.68Z"/><path class="cls-3" d="M58,44.33a.86.86,0,0,1,.85.86.85.85,0,0,1-1.7,0A.86.86,0,0,1,58,44.33Z"/><path class="cls-3" d="M55.1,44.33a.86.86,0,0,1,.85.86.85.85,0,0,1-1.7,0A.86.86,0,0,1,55.1,44.33Z"/><path class="cls-3" d="M52.18,44.33a.86.86,0,0,1,.85.86.85.85,0,0,1-1.7,0A.86.86,0,0,1,52.18,44.33Z"/><path class="cls-3" d="M52.18,44.33a.86.86,0,0,1,.85.86.85.85,0,0,1-1.7,0A.86.86,0,0,1,52.18,44.33Z"/><path class="cls-3" d="M49.26,44.33a.86.86,0,0,1,.85.86.85.85,0,0,1-.85.85.86.86,0,1,1,0-1.71Z"/><path class="cls-3" d="M46.34,44.33a.86.86,0,0,1,.85.86.85.85,0,1,1-1.7,0A.86.86,0,0,1,46.34,44.33Z"/><path class="cls-3" d="M43.42,44.33a.86.86,0,0,1,.85.86.85.85,0,0,1-1.7,0A.86.86,0,0,1,43.42,44.33Z"/><path class="cls-3" d="M58,44.33a.86.86,0,0,1,.85.86.85.85,0,0,1-1.7,0A.86.86,0,0,1,58,44.33Z"/><path class="cls-3" d="M55.1,44.33a.86.86,0,0,1,.85.86.85.85,0,0,1-1.7,0A.86.86,0,0,1,55.1,44.33Z"/><path class="cls-3" d="M52.18,44.33a.86.86,0,0,1,.85.86.85.85,0,0,1-1.7,0A.86.86,0,0,1,52.18,44.33Z"/><path class="cls-3" d="M52.18,44.33a.86.86,0,0,1,.85.86.85.85,0,0,1-1.7,0A.86.86,0,0,1,52.18,44.33Z"/><path class="cls-3" d="M49.26,44.33a.86.86,0,0,1,.85.86.85.85,0,0,1-.85.85.86.86,0,1,1,0-1.71Z"/><path class="cls-3" d="M46.34,44.33a.86.86,0,0,1,.85.86.85.85,0,1,1-1.7,0A.86.86,0,0,1,46.34,44.33Z"/><path class="cls-3" d="M43.42,44.33a.86.86,0,0,1,.85.86.85.85,0,0,1-1.7,0A.86.86,0,0,1,43.42,44.33Z"/><path class="cls-3" d="M58,47.27a.85.85,0,1,1-.85.85A.85.85,0,0,1,58,47.27Z"/><path class="cls-3" d="M55.1,47.27a.85.85,0,1,1-.85.85A.85.85,0,0,1,55.1,47.27Z"/><path class="cls-3" d="M52.18,47.27a.85.85,0,1,1-.85.85A.85.85,0,0,1,52.18,47.27Z"/><path class="cls-3" d="M52.18,47.27a.85.85,0,1,1-.85.85A.85.85,0,0,1,52.18,47.27Z"/><path class="cls-3" d="M49.26,47.27a.85.85,0,0,1,0,1.7.85.85,0,1,1,0-1.7Z"/><path class="cls-3" d="M46.34,47.27a.85.85,0,1,1-.85.85A.85.85,0,0,1,46.34,47.27Z"/><path class="cls-3" d="M43.42,47.27a.85.85,0,1,1-.85.85A.85.85,0,0,1,43.42,47.27Z"/><rect x="163.71" y="91.69" width="4.38" height="1.12" transform="translate(-16.64 144.33) rotate(-45)"/><rect x="165.34" y="90.06" width="1.12" height="4.38" transform="translate(-16.64 144.33) rotate(-45)"/></svg>