<svg id="_ÎÓÈ_1" data-name="—ÎÓÈ_1" xmlns="http://www.w3.org/2000/svg" viewBox="0 0 196.15 165.33"><defs><style>.cls-1,.cls-5{fill:#fff;}.cls-1,.cls-2,.cls-4,.cls-6{fill-rule:evenodd;}.cls-2,.cls-3{fill:#ffd140;}.cls-6{fill:#f7f7f7;}</style></defs><path class="cls-1" d="M142.68,106.39,131.29,54.18a1.38,1.38,0,0,0-1.16-1.13H58.48c-.5,0-.79.51-.66,1.14l11.4,52.2a1.36,1.36,0,0,0,1.15,1.14l71.65,0Z"/><path d="M70.37,107.82a1.63,1.63,0,0,1-1.43-1.36L57.55,54.26a1.31,1.31,0,0,1,.21-1.13.89.89,0,0,1,.72-.35l71.65,0a1.65,1.65,0,0,1,1.44,1.36L143,106.33a.29.29,0,0,1-.56.12L131,54.24c-.11-.49-.51-.91-.88-.91l-71.65,0a.34.34,0,0,0-.28.13.79.79,0,0,0-.1.66l11.39,52.2c.11.5.51.91.88.91H142a.28.28,0,1,1,0,.56l-71.65,0Z"/><path class="cls-1" d="M117.46,104.51c-.36,0-.77-.42-.87-.91L106.19,56a.79.79,0,0,1,.1-.66.33.33,0,0,1,.28-.13h27.89c.37,0,.77.42.88.91l10.4,47.64a.83.83,0,0,1-.1.66.35.35,0,0,1-.29.13Z"/><path d="M106.57,55.45h27.89c.18,0,.51.28.6.69l10.4,47.65a.55.55,0,0,1,0,.41.08.08,0,0,1-.07,0H117.46a.84.84,0,0,1-.6-.68L106.47,55.9a.53.53,0,0,1,0-.42.06.06,0,0,1,.06,0Zm0-.56c-.5,0-.8.5-.66,1.13l10.4,47.64a1.37,1.37,0,0,0,1.15,1.13h27.89c.5,0,.8-.51.66-1.13L135.61,56a1.35,1.35,0,0,0-1.15-1.13Z"/><path class="cls-2" d="M125.85,75.48a.27.27,0,0,1-.17-.22l-4-18.39c0-.07,0-.1,0-.11h10.74a.31.31,0,0,1,.16.22l4,18.4a.26.26,0,0,1,0,.09Z"/><path d="M122,57.06h10.3l3.95,18.14H126l-4-18.13Zm-.36-.57c-.19,0-.31.2-.25.44l4,18.4a.52.52,0,0,0,.45.43h10.76c.19,0,.31-.2.25-.44l-4-18.4a.53.53,0,0,0-.44-.44Z"/><path class="cls-1" d="M66.49,69.71c-.37,0-.77-.42-.88-.91l-2.85-13a.83.83,0,0,1,.1-.66.35.35,0,0,1,.29-.13h39.23c.37,0,.77.42.88.91l2.84,13a.77.77,0,0,1-.09.65.37.37,0,0,1-.29.14Z"/><path d="M102.38,55.24c.18,0,.51.28.6.69l2.85,13a.52.52,0,0,1,0,.42s0,0-.06,0H66.49a.84.84,0,0,1-.6-.68L63,55.7a.58.58,0,0,1,0-.42.08.08,0,0,1,.07,0Zm0-.56H63.15c-.51,0-.8.51-.66,1.14l2.84,13A1.37,1.37,0,0,0,66.49,70h39.23c.5,0,.8-.51.66-1.13l-2.84-13a1.37,1.37,0,0,0-1.16-1.13Z"/><path class="cls-1" d="M66.21,62.65c-.06,0-.19-.11-.23-.3l-1.26-6c0-.11,0-.18,0-.19h17.4a.35.35,0,0,1,.23.3l1.27,6a.24.24,0,0,1,0,.18H66.21Z"/><path d="M82.07,56.46a.24.24,0,0,1,0,.07l1.22,5.83h-17a.21.21,0,0,1,0-.07L65,56.46Zm.07-.57H64.73c-.22,0-.35.24-.29.52l1.26,6a.61.61,0,0,0,.52.52h17.4c.22,0,.35-.23.29-.52l-1.26-6a.61.61,0,0,0-.51-.52Z"/><path d="M122.31,76.2h-7.44a.34.34,0,0,1,0-.68h7.44a.34.34,0,0,1,0,.68Z"/><path d="M121.91,74.28h-9.78a.34.34,0,1,1,0-.68h9.78a.34.34,0,0,1,0,.68Z"/><path d="M116.36,72.23h-4.68a.34.34,0,0,1,0-.68h4.68a.34.34,0,0,1,0,.68Z"/><path d="M121.46,72.23h-3.89a.34.34,0,1,1,0-.68h3.89a.34.34,0,0,1,0,.68Z"/><path d="M121,70.29h-9.78a.34.34,0,0,1,0-.68H121a.34.34,0,0,1,0,.68Z"/><path d="M72.59,68.13H68.53a.34.34,0,0,1,0-.68h4.06a.34.34,0,0,1,0,.68Z"/><path d="M85.48,68.13H74.67a.34.34,0,0,1,0-.68H85.48a.34.34,0,0,1,0,.68Z"/><path d="M85,66.46h-17a.34.34,0,0,1,0-.68H85a.34.34,0,0,1,0,.68Z"/><path d="M78.29,64.73H67.46a.34.34,0,1,1,0-.68H78.29a.34.34,0,0,1,0,.68Z"/><path d="M84.32,64.73H80.43a.34.34,0,0,1,0-.68h3.89a.34.34,0,0,1,0,.68Z"/><path d="M112.64,66.3h-2.35a.34.34,0,1,1,0-.68h2.35a.34.34,0,1,1,0,.68Z"/><path d="M120.07,66.3h-6.23a.34.34,0,1,1,0-.68h6.23a.34.34,0,1,1,0,.68Z"/><path d="M119.76,64.36H110a.34.34,0,1,1,0-.68h9.78a.34.34,0,1,1,0,.68Z"/><path d="M115.84,62.34H109.6a.35.35,0,0,1,0-.69h6.24a.35.35,0,0,1,0,.69Z"/><path d="M119.32,62.34h-2.24a.35.35,0,1,1,0-.69h2.24a.35.35,0,0,1,0,.69Z"/><path d="M118.9,60.4h-9.78a.35.35,0,0,1,0-.69h9.78a.35.35,0,0,1,0,.69Z"/><path d="M112.36,58.43h-3.71a.34.34,0,1,1,0-.68h3.71a.34.34,0,0,1,0,.68Z"/><path d="M118.44,58.43H113.8a.34.34,0,1,1,0-.68h4.64a.34.34,0,0,1,0,.68Z"/><path d="M119.08,98a.34.34,0,0,1-.34-.34.34.34,0,0,1,.34-.34l17.66,0a.34.34,0,0,1,.34.34.33.33,0,0,1-.34.34L119.08,98Z"/><path d="M118.85,98a.34.34,0,0,1-.34-.33.35.35,0,0,1,.34-.35l11.09,0a.34.34,0,0,1,0,.68l-11.09,0Z"/><path d="M139.49,98a.34.34,0,0,1,0-.68h2.58a.34.34,0,1,1,0,.68Z"/><path d="M118.4,96.12a.34.34,0,0,1-.34-.34.33.33,0,0,1,.34-.34l23.21-.08a.34.34,0,0,1,.34.34.35.35,0,0,1-.34.35l-23.21.07Z"/><path d="M117.91,94.11a.34.34,0,0,1-.34-.34.34.34,0,0,1,.34-.34l11.09,0a.34.34,0,1,1,0,.68l-11.09,0Z"/><path d="M131.89,94.07a.34.34,0,0,1-.34-.34.34.34,0,0,1,.34-.34l9.24,0a.34.34,0,0,1,0,.68l-9.23,0Z"/><path d="M117.46,92.22a.34.34,0,0,1-.34-.34.35.35,0,0,1,.34-.35l23.21-.07a.36.36,0,0,1,.34.34.34.34,0,0,1-.34.34l-23.21.08Z"/><path d="M116.27,88.32a.34.34,0,0,1-.34-.34.35.35,0,0,1,.34-.35h5.56a.34.34,0,0,1,.34.34.34.34,0,0,1-.34.34l-5.56,0Z"/><path d="M124.68,88.29a.34.34,0,0,1,0-.68l14.79,0a.34.34,0,0,1,0,.68l-14.79.05Z"/><path d="M116.06,86.42a.34.34,0,0,1,0-.68l23.21-.08a.35.35,0,0,1,.35.35.35.35,0,0,1-.34.34l-23.22.07Z"/><path d="M115.73,84.44a.34.34,0,1,1,0-.68l14.82-.05a.34.34,0,0,1,.34.34.34.34,0,0,1-.34.34l-14.82,0Z"/><path d="M133.47,84.39a.35.35,0,0,1,0-.69h5.33a.34.34,0,1,1,0,.68l-5.33,0Z"/><path d="M115.13,82.54a.34.34,0,1,1,0-.68l23.21-.07a.34.34,0,1,1,0,.68l-23.21.07Z"/><path d="M114.57,80.62a.34.34,0,1,1,0-.68l8.81,0a.34.34,0,0,1,.34.34.34.34,0,0,1-.34.34l-8.81,0Z"/><path d="M126.79,80.58a.34.34,0,1,1,0-.68l11,0a.35.35,0,0,1,.35.34.35.35,0,0,1-.34.34l-11,0Z"/><path d="M114.2,78.72a.34.34,0,0,1-.34-.34.34.34,0,0,1,.34-.34L137.42,78a.34.34,0,0,1,0,.68l-23.22.07Z"/><path class="cls-1" d="M106.48,73.26H67.24c-.5,0-.8.51-.66,1.13l6.29,28.82A1.38,1.38,0,0,0,74,104.36h39.23c.5,0,.8-.51.66-1.14l-6.29-28.82A1.37,1.37,0,0,0,106.48,73.26Z"/><path d="M74,104.64a1.65,1.65,0,0,1-1.44-1.36L66.3,74.46a1.35,1.35,0,0,1,.21-1.13.93.93,0,0,1,.73-.35h39.24a1.64,1.64,0,0,1,1.43,1.35l6.29,28.82a1.37,1.37,0,0,1-.21,1.14.93.93,0,0,1-.73.34Zm32.45-31.1H67.24a.34.34,0,0,0-.28.14.76.76,0,0,0-.1.65l6.29,28.82c.11.49.51.91.88.91h39.23a.36.36,0,0,0,.29-.13.79.79,0,0,0,.09-.66l-6.29-28.82c-.1-.49-.51-.91-.87-.91Z"/><path class="cls-2" d="M71.34,77.38l6.16,24.24L111,101.5l-2.3-8.64s-5.48-4.81-7.43-2.84c-2.58,2.6-1.59,6.4-5.71,6.44-2.37,0-7.38-9.36-9.91-10.55-4-1.87-7.14-1-9-2.3a19,19,0,0,1-3.68-3.43A13.78,13.78,0,0,1,71.34,77.38Z"/><path d="M96.63,96.89c-2.68,0-4.63-2.76-6.51-5.43-1.38-2-2.8-4-4.47-4.87A14.09,14.09,0,0,0,80.12,85a8.22,8.22,0,0,1-4.54-1.5c-3.44-2.64-5.12-7.42-5.19-7.62A.34.34,0,1,1,71,75.7s1.69,4.78,5,7.3a7.6,7.6,0,0,0,4.21,1.36A14.86,14.86,0,0,1,86,86c1.81,1,3.29,3.06,4.71,5.09,1.86,2.64,3.62,5.14,5.95,5.14,1.5,0,2-1.34,2.53-2.9.63-1.75,1.33-3.74,3.77-3.74,4.71,0,7.13,5.83,7.23,6.08a.35.35,0,0,1-.64.26c0-.06-2.35-5.66-6.59-5.66-2,0-2.52,1.6-3.12,3.29s-1.2,3.35-3.18,3.35Z"/><path d="M77.6,102.16a.34.34,0,1,1,0-.68h33.12l-5.47-25a.35.35,0,0,1,.26-.41.35.35,0,0,1,.41.26l5.56,25.47a.35.35,0,0,1-.34.41Z"/><polygon class="cls-1" points="104.96 68.4 102.01 55.9 84.73 55.91 87.68 68.41 104.96 68.4"/><path d="M87.68,68.7a.29.29,0,0,1-.28-.22L84.45,56a.27.27,0,0,1,.06-.24.27.27,0,0,1,.22-.11H102a.29.29,0,0,1,.28.22l2.95,12.51a.28.28,0,0,1-.28.35ZM85.09,56.19,87.9,68.13h16.7l-2.81-11.94Z"/><path class="cls-3" d="M90.33,68.48a.29.29,0,0,1-.27-.22L87.2,56.45a.3.3,0,0,1,.21-.35.28.28,0,0,1,.34.21l2.86,11.82a.28.28,0,0,1-.21.34Z"/><path class="cls-3" d="M92.73,68.48a.28.28,0,0,1-.27-.22L89.6,56.45a.29.29,0,0,1,.21-.35.28.28,0,0,1,.34.21L93,68.13a.28.28,0,0,1-.21.34Z"/><path class="cls-3" d="M95.13,68.48a.28.28,0,0,1-.27-.22L92,56.45a.28.28,0,1,1,.55-.14l2.86,11.82a.28.28,0,0,1-.21.34Z"/><path class="cls-3" d="M97.53,68.48a.28.28,0,0,1-.27-.22L94.4,56.45a.28.28,0,1,1,.55-.14l2.86,11.82a.29.29,0,0,1-.21.34Z"/><path class="cls-3" d="M99.93,68.48a.3.3,0,0,1-.28-.22L96.8,56.45a.28.28,0,1,1,.55-.14l2.86,11.82a.29.29,0,0,1-.21.34Z"/><path class="cls-3" d="M102.33,68.48a.29.29,0,0,1-.28-.22L99.2,56.45a.28.28,0,0,1,.21-.35.29.29,0,0,1,.34.21l2.86,11.82a.29.29,0,0,1-.21.34Z"/><path class="cls-3" d="M102.33,58.35h-17a.29.29,0,1,1,0-.57h17a.29.29,0,0,1,0,.57Z"/><path class="cls-3" d="M102.87,60.42h-17a.29.29,0,0,1-.28-.29.28.28,0,0,1,.28-.28h17a.28.28,0,0,1,.29.28A.29.29,0,0,1,102.87,60.42Z"/><path class="cls-3" d="M103.37,62.35h-17a.29.29,0,0,1,0-.57h17a.29.29,0,1,1,0,.57Z"/><path class="cls-3" d="M103.85,64.33h-17a.28.28,0,0,1-.28-.29.27.27,0,0,1,.28-.28h17a.28.28,0,0,1,.29.28A.29.29,0,0,1,103.85,64.33Z"/><path class="cls-3" d="M104.35,66.41h-17a.29.29,0,0,1,0-.57h17a.29.29,0,1,1,0,.57Z"/><polygon class="cls-2" points="84.73 55.91 85.27 58.22 102.56 58.22 102.15 55.91 84.73 55.91"/><path d="M87.68,68.7a.29.29,0,0,1-.28-.22L84.45,56a.27.27,0,0,1,.06-.24.27.27,0,0,1,.22-.11H102a.29.29,0,0,1,.28.22l2.95,12.51a.28.28,0,0,1-.28.35ZM85.09,56.19,87.9,68.13h16.7l-2.81-11.94Z"/><path class="cls-4" d="M103.72,88.76c-.56,0-.9.57-.74,1.27a1.53,1.53,0,0,0,1.29,1.27c.56,0,.89-.57.74-1.27A1.53,1.53,0,0,0,103.72,88.76Z"/><path class="cls-4" d="M96.68,97.91a1.81,1.81,0,0,1-1.58-1.5,1.48,1.48,0,0,1,.23-1.24,1,1,0,0,1,.79-.38,1.81,1.81,0,0,1,1.58,1.5,1.48,1.48,0,0,1-.23,1.24,1,1,0,0,1-.79.38Z"/><path class="cls-5" d="M96.12,95.08a1.55,1.55,0,0,1,1.3,1.27c.15.7-.18,1.27-.74,1.27a1.55,1.55,0,0,1-1.3-1.27c-.15-.7.18-1.27.74-1.27Zm0-.58a1.31,1.31,0,0,0-1,.48,1.76,1.76,0,0,0-.28,1.49,2.11,2.11,0,0,0,1.86,1.73,1.27,1.27,0,0,0,1-.49A1.74,1.74,0,0,0,98,96.23a2.1,2.1,0,0,0-1.86-1.73Z"/><path class="cls-4" d="M85.74,87.67a1.82,1.82,0,0,1-1.58-1.5,1.48,1.48,0,0,1,.23-1.24,1,1,0,0,1,.79-.38,1.8,1.8,0,0,1,1.58,1.5,1.44,1.44,0,0,1-.23,1.24A1,1,0,0,1,85.74,87.67Z"/><path class="cls-5" d="M85.18,84.84a1.53,1.53,0,0,1,1.3,1.27c.15.7-.18,1.27-.74,1.27a1.53,1.53,0,0,1-1.29-1.27c-.16-.7.17-1.27.73-1.27Zm0-.58a1.25,1.25,0,0,0-1,.49,1.74,1.74,0,0,0-.29,1.48A2.11,2.11,0,0,0,85.74,88a1.31,1.31,0,0,0,1-.48A1.76,1.76,0,0,0,87,86a2.1,2.1,0,0,0-1.86-1.73Z"/><path class="cls-4" d="M72.11,79.17a1.82,1.82,0,0,1-1.58-1.5,1.48,1.48,0,0,1,.23-1.24,1,1,0,0,1,.79-.38,1.8,1.8,0,0,1,1.58,1.5,1.47,1.47,0,0,1-.23,1.25A1,1,0,0,1,72.11,79.17Z"/><path class="cls-5" d="M71.55,76.34a1.53,1.53,0,0,1,1.3,1.27c.15.7-.18,1.27-.74,1.27a1.53,1.53,0,0,1-1.29-1.27c-.16-.7.17-1.27.73-1.27Zm0-.58a1.25,1.25,0,0,0-1,.49,1.76,1.76,0,0,0-.29,1.49,2.11,2.11,0,0,0,1.86,1.72,1.29,1.29,0,0,0,1-.48,1.76,1.76,0,0,0,.28-1.49,2.1,2.1,0,0,0-1.86-1.73Z"/><path class="cls-1" d="M149.12,54.35s-1-1.61-.59-2.15,4.32-2.48,6.88-.35,3.35,2.91,3.25,4.53a15.3,15.3,0,0,1-.86,3.68s0,3.76,2.07,5.16,3.71,2.48,3.57,3.52a3.66,3.66,0,0,1-1.12,1.89,2.7,2.7,0,0,1,0,1.64,2.56,2.56,0,0,1-.71,1.32,19.11,19.11,0,0,1,1.23,3.09c.41,1.48.65,3-.23,3.95a15.37,15.37,0,0,1-3.36,2.16s2.3,2.21,1.32,10.78-2.78,22.27-2.78,22.27l2.35,4.75a10.93,10.93,0,0,1,3.27,1.73c.78.87,1.07,1.41.29,3.41s-1.71,5.88-2.54,6.21-8.07.16-8.07.16l-8.57,0a4.38,4.38,0,0,1,1.2-2.31c.91-.71,3.1-2.46,3.1-2.46l.11-.7.77-9.55s-4.32-6.09-4.79-7.07a16.36,16.36,0,0,1-1.19-6.25c-.09-3.13-.32-16,0-18.35s2.7-6,2.7-6L146.07,75s-.51-.32-1-.75A5.42,5.42,0,0,1,144,73s-3.72,1.59-4.81,1.84a3.71,3.71,0,0,1-3.69-1.45c-1.08-1.37-3.7-5.3-3.7-5.3L130,67s-.87.53-1.31.05-1.36-1.39-.89-2.39a10.81,10.81,0,0,1,2.54-2.5,1.81,1.81,0,0,0-1.11-.95c-.79-.22-1.69-.39-1.73-.78s-.07-1.16.82-.93,2.13-.29,4.46,2.55,6.07,7.59,6.07,7.59,5.08-4.21,6.7-4.52,5.32.16,5.43-.09a3.22,3.22,0,0,0,.16-.82L151,60.92s-2.2-.64-2.61-1.52a2.93,2.93,0,0,1-.34-1.5l-.48-.89a1.84,1.84,0,0,0,.64-.7c.22-.46.47-1.07.59-1.36A3.08,3.08,0,0,1,149.12,54.35Z"/><path class="cls-1" d="M155.3,125s.86.34.84.93-.41,2.57-.41,2.57l-.95.64Z"/><path class="cls-4" d="M156.69,79.42l-10.29,0L145.94,75s-.72-.55-1.07-.86-1.2-1.27-1.2-1.27-4.18,2.15-5,2.15a4.29,4.29,0,0,1-3.18-1.56A11,11,0,0,1,133.92,71a3.8,3.8,0,0,1,1.2-2.2,5.35,5.35,0,0,1,2-.75l1.44,1.43,5.27-3.23s1.11-1.07,1.68-1.07.93,0,.93,0a5.86,5.86,0,0,0,2.87,1.18c1.81.26,9.66.73,9.66.73s2.68,6,3.5,8.09,1.41,4.74-.39,5.94a16.72,16.72,0,0,1-2.84,1.61s-.38-.55-.91-1.27S157,79.69,157,79.69l-.16-1.25,1.25-.64-.43-1.7a4,4,0,0,0-.75,1.5A6.63,6.63,0,0,0,156.69,79.42Z"/><path class="cls-1" d="M164,123.05s-1.31-1.47-2.2.68-2.14,5.77-2.66,6.73a7.82,7.82,0,0,1-1.21,1.63H153l-8.41-.22a2.82,2.82,0,0,1,.61-1.5,9.28,9.28,0,0,1,1.91-1.37l-.56,1.75h2.29s.42-1.36,1.48-1.63a46.91,46.91,0,0,1,4.71-.55l-.05.5s-.61,1.29-.23,1.45a14.57,14.57,0,0,0,2.41.23,11,11,0,0,0,1.46-2.63,11.83,11.83,0,0,0,1-3.91s-1.31-1.78-1-2.39a1.75,1.75,0,0,1,1.86-1.07,4.73,4.73,0,0,1,2.18.84A16.51,16.51,0,0,1,164,123.05Z"/><path class="cls-4" d="M159.86,124.46a23.73,23.73,0,0,1-1.11,3.37A35.45,35.45,0,0,1,157,131s-2.2.31-2.25,0a7.83,7.83,0,0,1,.32-1.59l-.18-.86s-4.24-.06-5.16,1.09a6,6,0,0,0-1,1.41h-2.14l.32-1.71,1.61-1.34.37-1.16,6.2.09-.41,2.23.6,0,.5-.39.38-3L154.75,124s.53-2.91,1.7-3.5a13.15,13.15,0,0,1,3-.91l.61.86s-1.69.82-1.46,1.66A11.75,11.75,0,0,0,159.86,124.46Z"/><path class="cls-1" d="M152.55,83,148,82.76s-.13,3.61.45,4.69a5.91,5.91,0,0,0,2.29,1.67,4.52,4.52,0,0,0,1.74-1.78C153,86.3,152.55,83,152.55,83Z"/><path class="cls-1" d="M159.25,82.93l-3.4,0s.22,4.06,1.09,5A8.56,8.56,0,0,0,158.76,89a2.68,2.68,0,0,0,1.29-1.62C160.33,86.31,159.25,82.93,159.25,82.93Z"/><path d="M150.78,89.46a.35.35,0,0,1-.14,0,6,6,0,0,1-2.45-1.82c-.61-1.13-.5-4.48-.49-4.86a.32.32,0,0,1,.11-.24.38.38,0,0,1,.24-.09l4.51.19a.33.33,0,0,1,.32.3c.05.35.42,3.47,0,4.57A4.8,4.8,0,0,1,151,89.42.33.33,0,0,1,150.78,89.46Zm-2.41-6.35a13.07,13.07,0,0,0,.42,4.18,5.19,5.19,0,0,0,2,1.45,4.06,4.06,0,0,0,1.45-1.53,12.21,12.21,0,0,0,0-3.93Z"/><path d="M158.76,89.38a.32.32,0,0,1-.14,0,8.52,8.52,0,0,1-1.93-1.22c-.93-1-1.15-4.78-1.18-5.21a.35.35,0,0,1,.1-.25.3.3,0,0,1,.25-.11l3.39,0a.32.32,0,0,1,.32.24c.12.35,1.1,3.5.81,4.67a3,3,0,0,1-1.46,1.84A.29.29,0,0,1,158.76,89.38Zm-2.54-6.13c.11,1.55.44,3.85,1,4.42a7.27,7.27,0,0,0,1.56,1,2.3,2.3,0,0,0,1-1.31c.19-.77-.4-3-.72-4.07Z"/><path class="cls-1" d="M152.89,59.86s1.13-.29,1.41-.86a.91.91,0,0,0-.45-1.32,2.54,2.54,0,0,0-1.28.27,2.12,2.12,0,0,1-.88-1.18c-.11-.67-.59-3.68-.59-3.68a4.23,4.23,0,0,0-1.12.45c-.35.26-.88.73-.88.73S148,52.44,148.48,52a5.86,5.86,0,0,1,5.12-.91,19.53,19.53,0,0,1,3.2,1.52s3.81-2.43,5.14,0,.5,3.87-.59,4.55a5.68,5.68,0,0,1-2.8.59l-1,2.37s.35,4.28,2.16,5.25,4.05,2.32,3.79,3.2a4.24,4.24,0,0,1-1.13,1.66,7,7,0,0,1-.69,3.34c-.93,1.39-3.78.47-4.5-.18a3.53,3.53,0,0,1-.93-1.32,38.67,38.67,0,0,1-3.88.43c-.73,0-2.44-.44-1.87-2.38s1.94-4.39,2.05-5.46S152.89,59.86,152.89,59.86Z"/><path class="cls-4" d="M162.08,73.68c.56,1.73,1.68,3.36,1.31,5.68-.32,2.06-2.06,2.65-3.72,3.41a14.14,14.14,0,0,1,1.18,3.52,18.82,18.82,0,0,1,.11,4.39c-.19,2.92-.54,5.76-.86,8.5-.57,4.87-1.13,9.79-1.73,14.66a15.41,15.41,0,0,1-.29,2c.81,1.48,1.6,3,2.43,4.44a10.26,10.26,0,0,1,2.36,1.2,2.75,2.75,0,0,1,1.5,2.66,12.46,12.46,0,0,1-1,3.18c-.12.35-.19.71-.3,1.09a18.76,18.76,0,0,1-.72,2.07c-.32.77-.55,1.53-1.21,1.75a7.33,7.33,0,0,1-2,.16c-1.4,0-2.79,0-4.19,0-3.18,0-6.38,0-9.72,0-.44,0-.82,0-.91-.21s0-.65.11-.93a4.05,4.05,0,0,1,.3-.84,5.55,5.55,0,0,1,1.91-1.59,11.08,11.08,0,0,0,1.38-1.23,1.67,1.67,0,0,0,.41-.45,5.76,5.76,0,0,0,0-.66c.27-2.67.52-5.34.79-8.07a7.78,7.78,0,0,0,.12-1.25,3.7,3.7,0,0,0-.59-.89c-1.06-1.45-2-2.8-3.05-4.27a15.33,15.33,0,0,1-1.18-1.75,9,9,0,0,1-.73-2.2c-.17-.81-.36-1.63-.48-2.46a41.31,41.31,0,0,1-.22-5.64c0-3.92-.17-7.83,0-11.63s1.33-5.79,2.56-8.44a2.4,2.4,0,0,0,.23-.5,6,6,0,0,0,0-1.09c0-.75-.08-1.38-.12-2.16a7,7,0,0,0,0-1.09c0-.12-.37-.3-.55-.43a5.57,5.57,0,0,1-1.45-1.41A31.39,31.39,0,0,1,140,74.86a4.19,4.19,0,0,1-2.27.23,4.5,4.5,0,0,1-1.75-.94,13.73,13.73,0,0,1-2.41-3c-.78-1.06-1.56-2.11-2.25-3.11-.19-.09-.45-.2-.71-.35s-.43-.33-.59-.36a2.49,2.49,0,0,0-.59.07,1.85,1.85,0,0,1-1.89-1.32,1.74,1.74,0,0,1,.09-1.75A8.22,8.22,0,0,1,129.91,62c-.2-.2-.3-.45-.63-.59-.73-.31-1.9-.19-2.18-.82s0-1.28.43-1.43a4.73,4.73,0,0,1,2.32.25,3.88,3.88,0,0,1,1.72.93,16.5,16.5,0,0,1,2.34,3,47.48,47.48,0,0,0,4.82,5.82c1.62-1.15,3.33-2.12,4.89-3.39a5.78,5.78,0,0,1,3-1.18c1.24-.16,2.59.13,4,.07a4.66,4.66,0,0,0,.13-1.66c0-.59,0-1.19,0-1.75A3.12,3.12,0,0,1,148,59c-.1-.33-.4-1.12.07-1.18s.4.58.54.93c.36,0,.61-.68,1-.41s-.53.92-.77.93c.32.85,1.23,1.25,2.41,1.41.4.06.87,0,.86.41s-.34.35-.7.3c0,.72,0,1.45,0,2.23s0,1.66-.71,1.77a10,10,0,0,1-1.7,0c-.57,0-1.13-.06-1.68,0a10.8,10.8,0,0,0,4.47.84,27.47,27.47,0,0,0,.84-5.46,3.49,3.49,0,0,1,.09-.86c.13-.21.66-.25.89-.39a1.14,1.14,0,0,0,.57-.95.66.66,0,0,0-.57-.5c-.33,0-.62.43-.91.39-.13,0-.21-.13-.34-.21a2.41,2.41,0,0,1-.89-.68c-.31-.55-.18-1.34-.38-2.07-.43-.13-1.25.18-1.23-.36s.72-.35,1.16-.34c0-.37-.08-.68-.09-1a3.6,3.6,0,0,0-1.66,1.14c-.39.64-.37,1.35-.73,1.91a1.63,1.63,0,0,1-.63.52c-.26.13-.72.23-.75-.14s.61-.42.81-.7a11.89,11.89,0,0,1,.73-1.93c-.39-.75-1-1.93-.32-2.62a6.26,6.26,0,0,1,3.39-1.09,6.36,6.36,0,0,1,6.05,2.68A5.68,5.68,0,0,1,159,56.63a6.71,6.71,0,0,1-.57,2.71,3.79,3.79,0,0,0-.29.77,3.53,3.53,0,0,0,.11.88,11.11,11.11,0,0,0,.59,2.37,5.13,5.13,0,0,0,1.84,2.11,22.25,22.25,0,0,1,2.25,1.71,2.13,2.13,0,0,1,.73,1.25,2.62,2.62,0,0,1-.23,1.63c-.18.33-.43.45-.72.78A3.71,3.71,0,0,1,162.08,73.68ZM158.28,57a5.33,5.33,0,0,0-1.77-4.14,5,5,0,0,0-1.8-1.16,7.88,7.88,0,0,0-4.54,0c-.46.13-1.32.36-1.41.77s.34,1,.41,1.39a8.5,8.5,0,0,1,1.7-1c-.05-.42-.2-1.09.3-1.07s.34.72.38,1.16c.09,1.07.19,1.8.3,2.8a4.35,4.35,0,0,0,.23,1.32c.14.25.49.3.65.48a1.28,1.28,0,0,1,2.07,1.31c.93.26,1.81.56,2.73.82A10.1,10.1,0,0,0,158.28,57Zm-4.91,3.18c-.19,1.92-.34,3.51-.66,5.12a8.5,8.5,0,0,1-.73,2.15c-.3.66-.71,1.27-.95,1.94a4,4,0,0,0-.32,1.34,1.63,1.63,0,0,0,1,1.25,5.9,5.9,0,0,0,2.5,0l1-.13a3.33,3.33,0,0,1,1-.12c.21.06.4.48.57.73a3.7,3.7,0,0,0,.57.73A4,4,0,0,0,160,74a2.43,2.43,0,0,0,1.85-1.07,6,6,0,0,0,.15-2.34c.27-.36.66-.48.85-.89a2.19,2.19,0,0,0,0-1.43,1.92,1.92,0,0,0-.48-.57c-1.15-1.09-2.64-1.71-3.63-3s-1-2.47-1.32-4.25c-1-.29-1.95-.61-3-.88A2.09,2.09,0,0,1,153.37,60.22Zm-18.64,5.43c-.89-1.13-1.63-2.47-2.57-3.56a14.53,14.53,0,0,0-.93-1.12,4.76,4.76,0,0,0-3.45-1.13c-.11.08-.11.35-.07.52.5.19,1.1.26,1.61.41a1.8,1.8,0,0,1,1.21,1.11c.43,0,1-.08.95.34s-.89.26-1.25.41c-.12,0-.26.12-.25.23.36,0,.7,0,.73.34,0,.6-.93.26-1.43.27-.1.09-.21.2-.32.32s-.25.25-.23.34c.4.05.86,0,.84.41s-.89.25-1.36.23c-.34.4-.13.9.14,1.34s.41.7.88.68c-.07-.2-.43-.26-.45-.55a.32.32,0,0,1,.32-.36c.22,0,.45.24.63.39s.39.38.62.43c.29.45,1.1.54,1.47.89a4.21,4.21,0,0,1,.48.65c.48.68.94,1.37,1.43,2a3.28,3.28,0,0,1,2.87-2.39C136,67.13,135.34,66.43,134.73,65.65Zm12.46.32c-.32-.13-1-.56-1.25-.54a3.58,3.58,0,0,0-1.12.36,4.35,4.35,0,0,0-.88.59c-.54.45-1.16.88-1.71,1.25-.83.58-1.74,1.2-2.63,1.8-.19.12-.67.54-1,.52s-.3-.16-.41-.27c-.3-.34-.67-.91-1-1.07a1.94,1.94,0,0,0-1.39.13c-.71.34-1.7,1.44-1.43,2.37a2.23,2.23,0,0,0,.32.45L135,72a6,6,0,0,0,2.45,2.27,3.47,3.47,0,0,0,2.59-.18,54.82,54.82,0,0,0,5.46-2.52c.3-.16.84-.54,1.11-.46a.32.32,0,0,1,.23.32c0,.23-.3.37-.5.48-.71.38-1.3.63-2,1a4.32,4.32,0,0,0,.89,1c.24.19,1,.54,1.11.82a4.38,4.38,0,0,1,.07,1c.06,1.11.11,2.17.16,3.22,3.21.08,6.52.18,9.71.21A9.49,9.49,0,0,1,158,74.29a3.87,3.87,0,0,1-2.12-1.89,19.8,19.8,0,0,1-4,.39,2.44,2.44,0,0,1-1.82-1.66,3,3,0,0,1,.23-1.7c.3-1,.91-1.72,1.25-2.66A11.79,11.79,0,0,1,147.19,66Zm11.52,8.55c-.32.45-.57,1-.86,1.45.11.29.2.57.32.89s.33.64.27.93-.47.44-.66.57-.51.32-.75.5a3.24,3.24,0,0,1,0,.45,10.75,10.75,0,0,1,2.34,2.87c1.5-.72,3.3-1.22,3.43-3.23s-.76-3.33-1.23-4.8c0,0,0,0,0,0A3.82,3.82,0,0,1,158.71,74.52ZM157.14,78c.21-.1.37-.26.57-.36a3.18,3.18,0,0,0-.29-.73A6.94,6.94,0,0,0,157.14,78Zm-10.56,1.77a41.4,41.4,0,0,0-2,4.59,18.37,18.37,0,0,0-.75,5.89c0,4.34,0,8.86.09,13.18a17.35,17.35,0,0,0,.32,3,22.1,22.1,0,0,0,.64,2.69A8.06,8.06,0,0,0,146,111.2c2.26,3.3,4.6,6.45,6.95,9.64a5.09,5.09,0,0,1,1.69-2.73,4,4,0,0,1,3.43-.73c-2-3.77-4.13-7.56-6.18-11.38a3.11,3.11,0,0,1-.41-.78,4.22,4.22,0,0,1,.07-.9c.36-4.27.79-8.34,1.18-12.55a3.94,3.94,0,0,1,.09-.91c.06-.14.26-.27.41-.39l.45-.36c.25-.2.7-.69,1-.57a.37.37,0,0,1,.19.23c.07.37-.46.61-.66.77s-.7.45-.78.66a4.8,4.8,0,0,0-.09.84c-.39,4.13-.75,8.07-1.13,12.16a4.17,4.17,0,0,0-.07.89,2.26,2.26,0,0,0,.32.61q2.48,4.5,4.88,8.93c.05.09.07.23.19.25.68-6.1,1.48-12.35,2.18-18.63.16-1.49.34-3.1.47-4.73a20.25,20.25,0,0,0,0-4.86,11.33,11.33,0,0,0-3-6.16c-.21-.21-.49-.57-.71-.62a8.14,8.14,0,0,0-1.22,0c-2.9-.11-5.87-.11-8.71-.21A.05.05,0,0,0,146.58,79.72Zm10.31,38.21c-2,.18-3,1.85-3.43,3.59.32.48.73,1,1.07,1.46,0,0,.06.18.14.13a4.35,4.35,0,0,1,4.41-4c-.15-.34-.35-.63-.5-1A5.38,5.38,0,0,0,156.89,117.93Zm-7.45,6.16c1.71,0,3.38.07,5.09.09-1.44-2-3-4.14-4.5-6.2C149.82,120,149.62,122,149.44,124.09Zm5.77-.16c.06.2.29.27.41.43s0,.14.07.23.31.31.43.48a1.66,1.66,0,0,1,.3.63,5.54,5.54,0,0,1-.16,1.62c0,.23-.09.49-.14.75a3.65,3.65,0,0,1-.16.75c-.11.22-.48.32-.66.45.16.53-.4.82-.34,1.32.58.06,1.2,0,1.82,0a11.27,11.27,0,0,0,1.7-2.7,25,25,0,0,0,.8-2.53,4.59,4.59,0,0,0,.23-.88c0-.18-.42-.45-.53-.59a4.66,4.66,0,0,1-.75-1.46c-.28-1.15.71-1.77,1.53-2a3,3,0,0,0-.3-.59C156.64,119.8,155.5,121.44,155.21,123.93Zm3.91,7.84a6.35,6.35,0,0,0,1.8-.16c.44-.19.69-1.12.93-1.68a13.6,13.6,0,0,0,.63-2,15.64,15.64,0,0,1,.69-2,5.5,5.5,0,0,0,.54-2.09c0-1.11-.86-1.6-1.63-2a4,4,0,0,0-1.91-.8,1.4,1.4,0,0,0-1.3.91,2.71,2.71,0,0,0,.64,1.53c.16.22.7.53.72.86a4.16,4.16,0,0,1-.25,1,26,26,0,0,1-.9,2.86,11.92,11.92,0,0,1-1.41,2.34c-.18.25-.37.6-.59.69a4.44,4.44,0,0,1-1.19,0,4.36,4.36,0,0,1-1.2,0,.89.89,0,0,1-.32-1.18c-.06,0-.1.07-.14.11a3.75,3.75,0,0,0-.88,1.53C155.31,131.72,157.09,131.87,159.12,131.77Zm-9.77-7c0,.53-.11,1-.14,1.54,1.86,0,3.71.08,5.55.14.07-.55.15-1.08.2-1.64-1.88,0-3.69-.08-5.57-.09C149.38,124.71,149.36,124.81,149.35,124.82Zm5.84,3.75c.2-.06.19-.3.23-.5s.07-.42.11-.64c.11-.63.37-1.47.05-1.93C155.44,126.5,155.28,127.6,155.19,128.57Zm-8.05.77a5.2,5.2,0,0,0-.31,1.25c.63,0,1.24,0,1.86-.07a4.2,4.2,0,0,1,1.09-1.38,6.26,6.26,0,0,1,1.91-.69,7.59,7.59,0,0,1,2.84-.22c.05-.35.1-.7.14-1.07-1.85,0-3.7-.08-5.53-.14-.15.46.09,1.7-.43,1.75-.28,0-.41-.2-.38-.48A9.12,9.12,0,0,1,147.14,129.34Zm5.94-.45a9.18,9.18,0,0,0-2.85.75,2.28,2.28,0,0,0-.65.75c-.13.19-.33.67-.55.77a5.09,5.09,0,0,1-1.32.07,4,4,0,0,1-1.34,0c-.33-.14-.25-.91-.14-1.27a2.14,2.14,0,0,0-1.18,1.75c2.54,0,5.06,0,7.62,0a4.77,4.77,0,0,1,1.52-2.5c.09-.09.29-.16.25-.34A5.21,5.21,0,0,0,153.08,128.89Z"/><path class="cls-4" d="M153.33,58.31c.17,0,.43-.05.45.23s-.28.32-.57.41-.62.18-.68-.11S153,58.36,153.33,58.31Z"/><path d="M154,119.62a.21.21,0,0,1-.18-.09s-3.54-4.69-5.53-7.48c-3-4.21-3.07-4.86-3.18-12v-.64c-.07-4.18-.19-12,1-16.23a12.75,12.75,0,0,1,2.74-5.1.25.25,0,0,1,.33,0,.26.26,0,0,1,0,.33,12.18,12.18,0,0,0-2.63,4.9c-1.22,4.2-1.09,11.94-1,16.1V100c.1,7,.18,7.67,3.09,11.76,2,2.79,5.49,7.43,5.52,7.48a.21.21,0,0,1,0,.31A.24.24,0,0,1,154,119.62Z"/><path class="cls-6" d="M151.43,119.39l-.56,4.92Z"/><path d="M150.87,124.54a.22.22,0,0,1-.23-.25l.56-4.92a.22.22,0,0,1,.25-.2.23.23,0,0,1,.21.25l-.57,4.92A.22.22,0,0,1,150.87,124.54Z"/><path class="cls-4" d="M150.21,55.52a.35.35,0,0,1,.3.4l-.08.56a.35.35,0,1,1-.69-.1l.07-.56A.36.36,0,0,1,150.21,55.52Z"/><path class="cls-1" d="M159.43,51.63a3.09,3.09,0,1,1-3.09,3.09A3.08,3.08,0,0,1,159.43,51.63Z"/><path class="cls-1" d="M159.43,52.13a2.59,2.59,0,1,1-2.59,2.59,2.59,2.59,0,0,1,2.59-2.59Zm0-.5a3.09,3.09,0,1,0,3.08,3.09,3.09,3.09,0,0,0-3.08-3.09Z"/><path d="M159.43,58a3.26,3.26,0,1,1,3.26-3.26A3.27,3.27,0,0,1,159.43,58Zm0-6.17a2.91,2.91,0,1,0,2.91,2.91A2.91,2.91,0,0,0,159.43,51.81Z"/><path d="M159.43,58a3.26,3.26,0,1,1,3.26-3.26A3.27,3.27,0,0,1,159.43,58Zm0-6.17a2.91,2.91,0,1,0,2.91,2.91A2.91,2.91,0,0,0,159.43,51.81Zm0,5.67a2.77,2.77,0,1,1,2.76-2.76A2.77,2.77,0,0,1,159.43,57.48Zm0-5.17a2.41,2.41,0,1,0,2.41,2.41A2.42,2.42,0,0,0,159.43,52.31Z"/><path class="cls-1" d="M106.56,52.51H79.9S83.7,56,86,57.85a69.75,69.75,0,0,1,6.28,5.52,4.86,4.86,0,0,1,1.13,2.5c.09.61.17,1.33-.32,1.37s-.55.21-.68-.27a10.93,10.93,0,0,0-.82-1.66l-.79-.94a15.39,15.39,0,0,1-3.16,2.32c-.89.26-2.43-.48-2.43-.88a3.39,3.39,0,0,1,.18-1s-1.5-1.36-1.64-2l-.29-1.25s-7.21-4.6-8.6-5.54a4.75,4.75,0,0,1-2.09-3.21c-.18-1.07-.38-2.21.84-3S84.38,44.6,84.38,44.6s.1-2.26,2.11-2.39,2.88.49,3.46-.45.44-4.17,1.77-5.19,5.91-4.3,9.75-.63,1.75,6.28,1.89,8.41-.38,3.65.77,4.36,2.26.54,2.82,1a21.47,21.47,0,0,1,1.66,1.91l1.07,0s.94-1.25,1.48-1.16a3.65,3.65,0,0,0,.79.07s.81-.57,1.07-.32a1.6,1.6,0,0,1,.36.5s.51-.62.91-.25a2.13,2.13,0,0,1,.48.57,1.19,1.19,0,0,1,1.16.23c.59.47,1.58,1.12,1.29,1.57s-.33.69-.65.45l-1.19-.84s.28,1.49-.16,1.75a2,2,0,0,1-.86.27s0,.32-.57.5a.79.79,0,0,1-.86-.11s-1.07.51-1.39-.14a18.58,18.58,0,0,1-.77-2.34s-.08.9-1.21.82A14.82,14.82,0,0,1,106.56,52.51Z"/><path class="cls-4" d="M108.51,51.56l-2.05,1.35-2.55,0s-1.89-4.13-3.06-5.09a13,13,0,0,0-2.68-1.64,3.73,3.73,0,0,0,1.77-1.46,6.15,6.15,0,0,0,.91-2.52l.37-.11.15-1.75-4,1a19.25,19.25,0,0,1-4.34.5l.41-1.32s-1.68-1-1.59.32a2.5,2.5,0,0,0,.73,1.82l.29.71-1.7,1.09-1.48.18s-1.44-1.28-2.5-1S84,44.81,84,44.81s.82-2.56,2.21-2.75,2.72.6,3.45-.23.77-4.14,2.21-5.34,5.47-4,9.11-1.07,2.51,7,2.41,9.14-.51,3.72.62,4.16,1.93.35,2.72,1A14,14,0,0,1,108.51,51.56Z"/><path class="cls-4" d="M96.18,41.52a.45.45,0,0,0-.55.33l-.14.58a.45.45,0,0,0,.88.21l.14-.58A.44.44,0,0,0,96.18,41.52Z"/><path class="cls-4" d="M99.36,42.18a.45.45,0,0,0-.55.33l-.14.58a.44.44,0,0,0,.34.54.46.46,0,0,0,.55-.33l.13-.58A.44.44,0,0,0,99.36,42.18Z"/><path class="cls-1" d="M56.64,80.59l-.16,6.48s.3,3.2,1.77,3.66,3.87,0,6-1.84S70.37,84,70.37,84l.5-.68a.56.56,0,0,0,.81-.23,3.25,3.25,0,0,0,.66-2.52c0-.11.56-.43.82-.8a.79.79,0,0,0,.09-.93,1,1,0,0,0-.93-.09c-.55.22-1.14.81-1.3.73a11.48,11.48,0,0,1-1.31-.62c-.38-.29-1,0-1,0l.77-1.55a8.54,8.54,0,0,0,1.91-1.06c.29-.38.57-1.42-.34-1.28s-2.89.39-3.59,1.87-2.28,5.59-2.28,5.59l-3.09,1.7,1.23-6.5s0-3-1.43-3.89-4-2.06-4-2.06l1.75-1.57a4.69,4.69,0,0,0,2.53-.71,2.53,2.53,0,0,0,.91-1.13c.26-.49.45-1,.45-1a3.5,3.5,0,0,0,.41-.7l.32-.75s-.91.3-1.05-.46a5.12,5.12,0,0,0-.77-1.7,5.29,5.29,0,0,0-.64-.82s1-.52.62-1a5.88,5.88,0,0,0-1.78-1.11s-.19-1.61-1.22-1.77-1.88-.5-2.21,0a9.79,9.79,0,0,0-.52,1s-2.36-.65-3,.36a3.84,3.84,0,0,0-.48,2.36s-1.34,1-1.23,2c.16,1.37,1.82,2.12,1.82,2.12s-.57,1,0,1.36a1.6,1.6,0,0,0,1.09.32l.5.77-1.14.64-4.54-1.55s-2-1.74-8.76.75-9,2.27-8.77,4.14S35,81.68,35,81.68s-2.52,1.46-1.59,11.46,1.73,32.6,1.73,32.6l.79.36.07,5.75,11.11.14a3.42,3.42,0,0,0-1.29-2.1,4.6,4.6,0,0,0-2.05-.7l-1.47-1.68.09-27.05,10.7,24.68.91.07,2.62,6.73,10.79.07A4,4,0,0,0,66,129.74a2.4,2.4,0,0,0-1.63-.41l-2.71-2.14L48.11,89.61l.55-2.11Z"/><path class="cls-4" d="M42.39,99.88l10.85,25.39,7.86-.36L48.55,90.31s-4.3,1.85-7.84-.75a56.31,56.31,0,0,1-6.59-5.82s-1.33,3.1-.21,16.41c1.18,14,1.23,25.69,1.23,25.69l7.19.09Z"/><path class="cls-4" d="M64.42,129.61l-.29,1.16-3.89.32s-1.3-2.22-2.5-2.21-2.39.07-2.39.07l-1.11-2.43,6.93-.52.73,1.54a14.55,14.55,0,0,0,1.39.91A4.66,4.66,0,0,1,64.42,129.61Z"/><path class="cls-4" d="M43.78,129.38l.55,1.3-4.23.14s-.72-2-2-2.3a4.78,4.78,0,0,0-2.25-.05l.09-1.61,6.52-.07-.07.89Z"/><path class="cls-4" d="M59.15,68.83,57.24,70l-1.89-.53L55,68.58s-1.23.3-1.38-.52.09-1.12.09-1.12-1.78-1.26-1.78-2a2.47,2.47,0,0,1,1.3-2.05s.09-2.23.75-2.77a1.57,1.57,0,0,1,1.5-.39,9.34,9.34,0,0,1,1.2.55,1.2,1.2,0,0,1,.94-1.09c.89-.18,1.66-.54,2.18,0a7.28,7.28,0,0,1,.95,1.57s1.63.34,1.53,1-1.69,1.44-1.69,1.44,1.7.63,1.25,1.32A6.94,6.94,0,0,1,60.33,66l.32,1.2s-2.07-1-2.46-.09S59.15,68.83,59.15,68.83Z"/><path class="cls-4" d="M62.23,62.78c.71.66.91,1.82,1.44,2.66.43,0,.84-.12.86.27s-.89.49-1.23.32-.58-.92-.82-1.5a4,4,0,0,0-.61-1.14c-.08-.09-.25-.22-.36-.11s.22.34.27.41A1.16,1.16,0,0,1,61.87,65c.26,0,.49,0,.5.28,0,.41-.48.22-.86.34s-.56.49-.82.57c.05.44.34.89.07,1.22-.11.14-.33.13-.48.18-.31.1-1.32.6-1.34.05,0-.3.27-.33.54-.39a1,1,0,0,0-.7,0,.89.89,0,0,0-.12.57c.06.22.6.52.8.54s.32-.11.48-.07a.38.38,0,0,1,.23.3c0,.48-1.13.66-1.48.82a5.32,5.32,0,0,0-.75.45,2.47,2.47,0,0,1-.75.43A2.31,2.31,0,0,1,56.3,70a3.83,3.83,0,0,0-.84-.29c-.2,0-.33.23-.55.29.66.33,1.31.55,2.05.87.2.08.48.29.66.29s.79-.58,1-.72l.5-.39a1.61,1.61,0,0,1,.5-.36,4.92,4.92,0,0,1,.93,0,2.31,2.31,0,0,0,1.7-.86c-.4-.07-1.07-.18-.91-.62s.51,0,.85,0,.36-.06.54,0c.34-.29,0-1.42.64-1.34.49.06.18,1.15.07,1.43a3,3,0,0,1-.8,1.09,3,3,0,0,1-1.89,1c-.26,0-.58,0-.88,0a2.73,2.73,0,0,0-.75.55c-.29.23-.48.4-.71.59A25.37,25.37,0,0,1,61.48,73a5.49,5.49,0,0,1,2,2.62,8.26,8.26,0,0,1-.18,4.07c-.26,1.3-.53,2.55-.79,3.79.8-.37,1.6-.94,2.43-1.36.67-1.51,1.29-3.19,2.11-4.87a3.72,3.72,0,0,1,1.64-1.84A7.5,7.5,0,0,1,70,74.94c.62-.17,1.67-.54,1.94.11a1.57,1.57,0,0,1-.14,1.25c-.38.59-1.41.78-2,1.07-.18.35-.34.72-.52,1.07a6.81,6.81,0,0,1,1.79.7c.51-.12.89-.77,1.59-.7a1.09,1.09,0,0,1,1,1c0,.56-.61.76-.82,1.19a2.86,2.86,0,0,1-.32,1.86,3,3,0,0,1-1,1.27c-.19.08-.4.05-.55.12s-.36.38-.5.52a19.32,19.32,0,0,1-1.66,1.36c-.75.6-1.57,1.21-2.27,1.75-.38.29-.76.58-1.12.91a10.58,10.58,0,0,1-1.15.84,15.72,15.72,0,0,1-2.46,1.57,4.81,4.81,0,0,1-3.39.23,3.22,3.22,0,0,1-1.93-2.09,10.88,10.88,0,0,1-.27-3.71c0-1.32.12-2.61.16-3.86-2.26,1.87-4.66,3.93-7,5.93a2.68,2.68,0,0,0-.45.39,5.08,5.08,0,0,0-.28.88,4.21,4.21,0,0,0-.29.84,6.17,6.17,0,0,0,.43,1.21c3.89,10.6,7.86,21.17,11.77,31.82l1.32,3.52a7.85,7.85,0,0,0,.43,1.18,2.85,2.85,0,0,0,.55.46l1.11.88a4.58,4.58,0,0,0,.57.44c.39.18.83.22,1.21.38a2.79,2.79,0,0,1,1.59,1.59c.15.35.52,1.11.22,1.35a4.26,4.26,0,0,1-1.34.06c-2.85,0-5.54-.06-8.34-.06a5,5,0,0,1-1.41-.07c-.28-.16-.59-1.24-.75-1.62-.7-1.71-1.4-3.3-2-5-.63.09-.64-.28-.84-.75-3.27-7.59-6.74-15.35-10-22.87,0,7.79-.07,16-.07,23.93a9.27,9.27,0,0,0,0,1.57c.05.27.43.58.61.8s.42.51.64.75A4.73,4.73,0,0,1,46.26,130a5.55,5.55,0,0,1,.68,1c.15.29.52.86.43,1.16s-.73.23-1.23.23c-2.56,0-4.9-.07-7.43-.07-.45,0-1,0-1.5,0s-1.26,0-1.41-.16-.12-1-.14-1.43c-.08-1.58-.13-3-.2-4.48-.67,0-.54-.71-.59-1.43-.44-6.68-.7-13.43-1.12-20.14-.21-3.52-.36-7.2-.56-10.77-.1-1.76-.21-3.63-.25-5.43a12,12,0,0,1,.11-2.64,16.55,16.55,0,0,1,.66-2.16,14.22,14.22,0,0,1,1-1.84c-.57-1.24-1.08-2.4-1.61-3.64a13.46,13.46,0,0,1-1.32-3.91A2.7,2.7,0,0,1,33.73,71a81.11,81.11,0,0,1,8.09-2.36c1.35-.38,2.73-.78,4.16-1.07,2.54-.52,4.42.58,6.25,1.32l1.41.56a2,2,0,0,0,.46.19c.24,0,.58-.39.79-.48,0-.1-.12-.2-.18-.3a1.39,1.39,0,0,1-1.52-1.38c0-.15.11-.36.09-.5s-.27-.27-.41-.39a3.68,3.68,0,0,1-1.11-1.25,2.13,2.13,0,0,1,1.13-2.73,2.9,2.9,0,0,1,1.16-3,2.3,2.3,0,0,1,2.46,0,1.66,1.66,0,0,1,1.7-1.12A3,3,0,0,1,60.1,59,3.11,3.11,0,0,1,60.8,60c.06.13.08.34.16.43a4.91,4.91,0,0,0,.89.43c.26.15.62.38.7.68A1.55,1.55,0,0,1,62.23,62.78ZM59.94,66c0-.32.7-.52.93-.73a1.19,1.19,0,0,0,.48-.93c0-.21-.32-.45-.5-.63s-.52-.39-.5-.64c0-.47.78-.25,1.13-.43a.9.9,0,0,0,.41-.8c-.06-.24-.49-.37-.7-.48s-.65-.22-.77-.41a6.8,6.8,0,0,1-.35-.81,1.69,1.69,0,0,0-.5-.69,3.37,3.37,0,0,0-2.06,0c-.37.22-.32,1-.75,1.09-.22,0-.45-.16-.6-.22a3,3,0,0,0-.61-.23,1.66,1.66,0,0,0-1.84,1,3.36,3.36,0,0,0-.16,1,4.17,4.17,0,0,1,0,1c-.08.22-.41.33-.59.46a1.82,1.82,0,0,0-.55.52c-.48,1,.31,1.66.78,2.07.21.18.78.48.82.79s-.22.54-.14.91.28.47.57.5.31-.08.5,0,.39.63.66.84a3,3,0,0,0,.72.27c.26.09.5.15.78.25a10.27,10.27,0,0,1,1.52-.89c-.64-.19-.79-1.22-.46-1.77s1.54-.4,2-.09C60.13,66.47,59.9,66.25,59.94,66Zm2.11,19.68c-.07.34-.12,1-.52,1s-.3-.44-.23-.77c.49-2.23,1-4.42,1.39-6.62a12.69,12.69,0,0,0,.27-2,3.58,3.58,0,0,0-.34-1.91,5.06,5.06,0,0,0-2.32-2.25c-2-1-4.22-1.85-6.39-2.75-1-.43-2.12-.87-3.25-1.31a8,8,0,0,0-3.79-.84,22,22,0,0,0-3.62.79l-3.47,1a50.87,50.87,0,0,0-5.14,1.5,6.62,6.62,0,0,0-1.54.68c-.92.68-.72,2.3-.3,3.45.72,2,1.57,3.71,2.36,5.57.93-1.11,2.18-2.1,3.21-3.18-.14-.62-.24-1.28-.37-1.91-.26.07-.73.18-.75-.23s.88-.53,1.23-.63L42.1,74.1a6.17,6.17,0,0,0,.75-.21,3.1,3.1,0,0,0,.52-.43c1.05-1,2.05-1.83,3.07-2.77.16-.15.4-.38.61-.32a.35.35,0,0,1,.23.27c0,.33-.5.64-.75.87-3.16,2.77-6.27,5.65-9.3,8.47a10.11,10.11,0,0,0-2.77,3.71,41.39,41.39,0,0,0,5.45,5,8.44,8.44,0,0,0,3.41,1.82,7.57,7.57,0,0,0,4.53-.32c-.06-.3-.25-.47-.25-.79a3.7,3.7,0,0,1,.31-1.07,7.6,7.6,0,0,1,.35-1,5.14,5.14,0,0,1,1-.86c2.21-1.92,4.35-3.74,6.59-5.66.19-.16.45-.32.5-.45.15-.47-.2-1.55.43-1.5.34,0,.3.44.27.88-.13,2.1-.15,3.75-.25,5.82a13.61,13.61,0,0,0,0,2.39,2.92,2.92,0,0,0,4.05,2.47A4.7,4.7,0,0,0,62,89.85c.74-.46,1.37-.9,2-1.39a7.2,7.2,0,0,0,1-.75,2.39,2.39,0,0,0,.18-2.61,2.19,2.19,0,0,0-2.18-1c-.32.06-.4.21-.71.34C62.21,84.81,62.15,85.17,62.05,85.64ZM40.32,76.21c.47-.42.93-.87,1.39-1.27-1,.28-2,.58-3.05.88.08.55.21,1,.28,1.6C39.41,77.07,39.86,76.63,40.32,76.21Zm28.57,1.46c.12-.24.22-.67.48-.85a7.32,7.32,0,0,1,1-.4c.3-.13.77-.27.9-.48s.18-.62,0-.59a8.69,8.69,0,0,0-1.29.32,4.25,4.25,0,0,0-1.16.45A4.07,4.07,0,0,0,67.44,78c-.54,1.19-1.15,2.64-1.68,3.91a4.93,4.93,0,0,1-.25.56,2.2,2.2,0,0,1-.75.48c-.29.17-.56.33-.78.48a2.91,2.91,0,0,1,2.16,3.39c1-.69,2-1.5,3-2.35a3.86,3.86,0,0,0,1.27-1.43c.13-.29.24-.6.39-1s.2-.81.57-.8c.56,0,.18.73.06,1a4.18,4.18,0,0,1-.27.68c.08.06.11-.07.14-.11a3,3,0,0,0,.79-1.68c0-.39-.06-.83-.34-.86a1.69,1.69,0,0,0-.45.11c-.4.11-1.69.67-1.66,0,0-.49.93-.37,1.23-.59a3.32,3.32,0,0,0-.71-.34c-.34,0-.92.65-1.34.54a.4.4,0,0,1-.23-.34c0-.37.55-.34.75-.59-.52,0-1.85.49-1.86-.14,0-.44.53-.34.93-.43C68.59,78.24,68.74,78,68.89,77.67ZM73,79.35c0-.15-.27-.33-.41-.34-.36,0-.68.36-.91.45a3.09,3.09,0,0,1,.79.52C72.63,79.81,73,79.62,73,79.35ZM43.46,91.26a8.17,8.17,0,0,1-3.61-1.78,46.9,46.9,0,0,1-5.69-5.06,7.28,7.28,0,0,0-.54,2.25,16.34,16.34,0,0,0,0,2.61c.49,12.13,1.35,24.32,2,36.21q3.19-.06,6.43-.07c0-8.2.07-16.83.07-25.09a2.48,2.48,0,0,0-.25-.64c-1.15-2.58-2.22-5.07-3.35-7.64-.08-.18-.6-1-.09-1.16s.52.48.69.87q3.46,8,7,16c2.55,5.76,4.94,11.42,7.43,17.06,2.38,0,4.69-.1,7.07-.13q-6.26-16.92-12.5-33.82A8.42,8.42,0,0,1,43.46,91.26Zm10.86,33.85a3.83,3.83,0,0,0,.19.85c2.15-.08,4.31-.16,6.47-.22,0-.16-.1-.61-.13-.76C58.68,125,56.52,125.09,54.32,125.11Zm-18.18.68c0,.07,0,.57,0,.7,2,0,3.89-.06,5.86-.07a1.68,1.68,0,0,0,0-.67C40.12,125.74,38.1,125.79,36.14,125.79Zm18.64.83c.23.62.48,1.2.73,1.8a5.54,5.54,0,0,1,3,.43,4.89,4.89,0,0,1,1.38,1.23c.12.14.32.42.43.45a4,4,0,0,0,.91,0c1,0,1.85,0,2.78,0a1.1,1.1,0,0,0-.19-1.25,7.81,7.81,0,0,0-1.11-.86,5.35,5.35,0,0,1-1.07-.91c-.2-.37-.19-.67-.41-1.09Zm-18.59.55c0,.27,0,.49,0,.75a3.63,3.63,0,0,1,2.91.7,10.68,10.68,0,0,1,1.16,1.78c1.23,0,2.47,0,3.68,0a3.06,3.06,0,0,0-.77-1.34c-.15-.17-.26-.35-.39-.5-.34-.41-.9-.74-.77-1.5C40.06,127.1,38.13,127.15,36.19,127.17Zm8.52,3.75c-.12.29-.82.18-1.27.18l-2.37,0a4.19,4.19,0,0,1-1.16-.05c-.3-.13-.42-.64-.61-1a4,4,0,0,0-.66-1,3.17,3.17,0,0,0-2.39-.52c0,1,.09,2,.14,3,3.4.06,6.73.05,10.14.11a2.87,2.87,0,0,0-2.09-1.91C44.48,130.11,44.89,130.5,44.71,130.92Zm19.64.23a3.87,3.87,0,0,1-1,0c-1.09,0-2.29,0-3.25,0-.5-.43-.85-1-1.32-1.39a3.9,3.9,0,0,0-2.93-.75c.26.79.65,1.65,1,2.45,3.33,0,6.66.07,10,.07a2.51,2.51,0,0,0-2-1.91C64.86,130.22,64.7,131,64.35,131.15Z"/><path class="cls-4" d="M61.81,65.71a.36.36,0,0,1,.46.23l.18.52a.38.38,0,0,1-.24.48.36.36,0,0,1-.46-.24l-.18-.52A.37.37,0,0,1,61.81,65.71Z"/><path class="cls-1" d="M103.91,52.75s-2.49-5.1-3.68-5.73a12.39,12.39,0,0,0-3.59-.81S95.61,49,93.86,49a3,3,0,0,1-3.11-1.56,10.55,10.55,0,0,1-1.11-3s-1.89-1.64-6,.21-10.36,4.62-10.73,5.95-.38,3.77,1.09,4.73,9.14,6,9.14,6,.39-2,1.54-2.41,1.91-.62,1.91-.62L80.8,52.76Z"/><path d="M83.09,61.72a.3.3,0,0,1-.16,0c-.08-.05-7.68-5.1-9.13-6-1.62-1.05-1.6-3.65-1.21-5S77,47.31,83.47,44.45c4.28-1.9,6.27-.23,6.35-.16a.24.24,0,0,1,.09.15A10.38,10.38,0,0,0,91,47.3a2.74,2.74,0,0,0,2.84,1.44c1.56,0,2.53-2.61,2.54-2.63a.28.28,0,0,1,.29-.19,12.58,12.58,0,0,1,3.7.85c1.24.65,3.55,5.33,3.81,5.86a.29.29,0,0,1,0,.27.27.27,0,0,1-.24.14H81.5l5.24,5.16a.29.29,0,0,1,.08.28.3.3,0,0,1-.21.2,19.53,19.53,0,0,0-1.88.6c-.82.31-1.26,1.69-1.36,2.2a.33.33,0,0,1-.17.21Zm4.12-17.6A8.65,8.65,0,0,0,83.7,45c-3.06,1.35-10.22,4.53-10.57,5.77s-.31,3.57,1,4.41S81.42,60,82.91,61a3.31,3.31,0,0,1,1.63-2.22c.61-.23,1.12-.39,1.45-.49L80.6,53a.3.3,0,0,1-.06-.31.28.28,0,0,1,.26-.18h22.65c-1-2-2.59-4.8-3.35-5.19a11.06,11.06,0,0,0-3.28-.77c-.29.68-1.31,2.79-3,2.8-1.92,0-2.61-.55-3.35-1.7a10.58,10.58,0,0,1-1.13-2.94A3.82,3.82,0,0,0,87.21,44.12Z"/><path class="cls-4" d="M97,33.79h.18s0,0,0,0a6.53,6.53,0,0,1,3.91,1.39,7.56,7.56,0,0,1,2.2,3.09,6.18,6.18,0,0,1,.5,2.14,21.51,21.51,0,0,1,0,2.54c-.07.77-.14,1.59-.21,2.43a6.45,6.45,0,0,0,.09,2.48c.29.61,1.36.7,2,.89,1.48.44,2.13,1.6,3.12,2.57.17-.08.35-.05.52-.12a1.81,1.81,0,0,0,.41-.34A3.43,3.43,0,0,1,111.2,50c.15,0,.34,0,.46,0a5.16,5.16,0,0,0,.52-.16,1.25,1.25,0,0,1,1.09.12,1.22,1.22,0,0,1,1.59.66c1-.21,1.44.44,1.89.93.24.26.82.82.8,1.25a1,1,0,0,1-1,.82,2.18,2.18,0,0,1-.89-.43c-.07-.06-.16-.17-.25-.12.32.95-.08,1.78-1.09,1.73-.17.19-.26.48-.56.54a1.86,1.86,0,0,1-1-.2,1.52,1.52,0,0,1-1.52-.27c-.43-.46-.49-1.29-.75-1.87a1.93,1.93,0,0,1-.89.34,6.5,6.5,0,0,1-1.69-.31c-.4-.1-.71-.08-1.11-.21a.44.44,0,1,1-.57-.66,6.23,6.23,0,0,1,1.73-.68,6.65,6.65,0,0,0-2.16-2c-1-.44-2.32-.42-2.77-1.41a4.69,4.69,0,0,1-.2-2,36.76,36.76,0,0,0,.25-6.14,7.18,7.18,0,0,0-1.3-3,5.8,5.8,0,0,0-6.07-2.34A7.21,7.21,0,0,0,92.84,36,4.74,4.74,0,0,0,91,38.54c-.37,1.2-.42,3.14-1.41,3.73s-1.9,0-2.88,0-1.51.94-1.91,1.52c0,.07-.17.13-.12.23a7.2,7.2,0,0,1,2.75-.57,5.48,5.48,0,0,1,1.89.64,3.62,3.62,0,0,0,.54.29,2.31,2.31,0,0,0,1.78-.45,5.59,5.59,0,0,0,.91-.53c-.07-.09,0-.24,0-.34s-.29-.17-.38-.25a1.62,1.62,0,0,1-.32-.32c-.71-.93-.63-2.72.79-2.7a1,1,0,0,1,.55.2,8.49,8.49,0,0,1,1.29-2.29c.12-.15.34-.58.66-.55a.32.32,0,0,1,.28.25c0,.35-.43.74-.57.94a8.2,8.2,0,0,0-1.41,3.11,31.28,31.28,0,0,0,4.45-.55c.9-.25,1.84-.67,2.78-1,.27-.09.75-.33,1-.23s.11.88.06,1.32,0,1.21-.31,1.32-.74-.17-1.14-.19a1.31,1.31,0,0,0-1.3,2c.07.19.25.49.19.73s-1.41.66-1.39,0c0-.31.34-.33.61-.39a2,2,0,0,1,1.84-3,4.21,4.21,0,0,1,.78.12c0-.36.1-.78.09-1.1a34.44,34.44,0,0,1-3.78,1.23c-1,.18-2.23.26-3.38.37a3.1,3.1,0,0,1-1.12,0c-.19-.1-.11-.3-.2-.48s-.51-.46-.39-.75a.3.3,0,0,1,.44-.09c.09.06.15.23.2.12s-.15-.45-.3-.46a.6.6,0,0,0-.45.27,1.49,1.49,0,0,0,.48,1.57c.25.15.37.06.5.23s.11.75.18,1.18a3.26,3.26,0,0,1-1.11.71,3.16,3.16,0,0,1-2.07.63c.6,1.55,1.32,3.35,3.38,3.53A2.47,2.47,0,0,0,95.36,48a2.08,2.08,0,0,0,.82-1.68,7,7,0,0,1-1.2-.59c-.18.14-.42.26-.69.43s-.5.41-.77.36a.36.36,0,0,1-.25-.32c0-.28.31-.38.5-.5s.41-.28.62-.38c-.18-.24-.45-.3-.41-.59a.31.31,0,0,1,.27-.28c.3,0,.51.3.79.5a3.13,3.13,0,0,0,5.12-1.38c.1-.21.27-.81.61-.8.64,0,.06,1,0,1.18a6.29,6.29,0,0,1-.48.87A4.92,4.92,0,0,1,98.84,46a5.6,5.6,0,0,1,3.39,2.77c.57,1,1.09,2,1.61,3,.11.22.56.76.36,1.09A.24.24,0,0,1,104,53c-.4,0-.53-.56-.71-.89-.58-1.07-1.12-2.12-1.73-3.11a5.6,5.6,0,0,0-1.5-1.73A5,5,0,0,0,99,46.79a4.07,4.07,0,0,0-2-.41,1.74,1.74,0,0,1-.07.59,3.34,3.34,0,0,1-4.66,2,3.92,3.92,0,0,1-1.93-1.75c-.45-.81-.7-1.73-1.21-2.5a4,4,0,0,0-2.2-.57,9,9,0,0,0-2.18.64c-1.33.53-2.66,1.14-3.91,1.72-1.88.88-3.87,1.8-5.66,2.8a6.29,6.29,0,0,0-1.71,1.14c-.73,1-.42,3.1.23,3.93a10.66,10.66,0,0,0,2.21,1.77c2.24,1.58,4.61,3.11,6.93,4.52.08.05.19.14.29.12A4,4,0,0,1,86,58.11c-1.66-1.6-3.53-3.32-5.27-4.91-.26-.24-.49-.53-.75-.73s-.46-.12-.46-.43.79-.49,1.21-.61c1-.31,1.86-.54,2.82-.82.36-.11,1.67-.7,1.66,0,0,.34-.66.45-1,.54-1.3.38-2.26.64-3.55,1,1.74,1.65,3.58,3.38,5.37,5,.59.55,1.18,1.12,1.79,1.68C89,60,90.21,61,91.43,62.2A7.67,7.67,0,0,1,93.09,64a4.87,4.87,0,0,1,.43,1.32,3.26,3.26,0,0,1,.12,1.54,1.11,1.11,0,0,1-1.25.66c-.36-.1-.5-.65-.64-1-.23-.62-.37-1.4-.86-1.71-.45.36-1,.7-1.48,1.12A8.83,8.83,0,0,1,87.91,67a2.52,2.52,0,0,1-2.07-.37c-.4-.19-1-.49-1.07-.95a1.58,1.58,0,0,1,.3-1.07,7.84,7.84,0,0,1-1.32-1.18,6,6,0,0,1-.71-1.8c-3-2-6.2-3.72-9-5.93A5.28,5.28,0,0,1,73,54.65c-.73-1.18-1-3.49-.11-4.65A4.45,4.45,0,0,1,74,49.13a89.49,89.49,0,0,1,9.59-4.66c.64-1,1.21-2.21,2.3-2.7a3.4,3.4,0,0,1,1.88-.05,2.82,2.82,0,0,0,1.32.05c.51-.17.65-.85.8-1.48s.24-1.12.36-1.57a5.28,5.28,0,0,1,1.37-2.52A7.63,7.63,0,0,1,97,33.79Zm15.11,16.82a14.5,14.5,0,0,1,1,4,1.18,1.18,0,0,0,.53.13,1.65,1.65,0,0,0,0-1.07,20.68,20.68,0,0,0-.82-3.13A1.92,1.92,0,0,0,112.11,50.61Zm2.5,1.57a4,4,0,0,0-.25-.84c-.15-.39-.25-.84-.81-.73a30.6,30.6,0,0,1,.81,3.54.76.76,0,0,0,.48-.11A7.25,7.25,0,0,0,114.61,52.18Zm-2.86-.64c-.07-.22-.27-.89-.48-.82a4.24,4.24,0,0,0-1.09.68,4.73,4.73,0,0,1,.32.46c.42-.13.5.28.59.59.16.54.27.92.43,1.39s.28.84.91.77A15,15,0,0,0,111.75,51.54Zm4.45.5c-.26-.29-.55-.74-1-.73,0,0,0,0,0,0,.06.28.14.54.19.84.49.22.82.61,1.34.82.06-.06.16-.09.2-.16A4.08,4.08,0,0,0,116.2,52Zm-8.09.21c.61.11,1.32.7,1.94.31a1.28,1.28,0,0,0-.39-.68A5.42,5.42,0,0,0,108.11,52.25ZM92.18,63.93a17.48,17.48,0,0,0-1.77-1.78c-1-.94-2.21-2-3.25-2.95-.3-.28-.42-.49-.89-.45a3.07,3.07,0,0,0-1.84,1,2.09,2.09,0,0,0-.7,1.84,3.79,3.79,0,0,0,.61,1.55,6.1,6.1,0,0,0,1.43,1.11c.24.17.44.29.77.5s.67.4.66.64c0,.58-.73.16-1,0a6,6,0,0,0-.6-.39c-.06.22-.22.31-.18.55s.55.41.78.52a3.42,3.42,0,0,0,.93.39c.31.06.84-.16.88-.37a1.63,1.63,0,0,0-.09-.52c-.06-.35-.18-.81.23-.82s.38.57.45.89c.13,0,.22-.15.35-.25s.31-.15.36-.3c.13-.42-.44-1.41.27-1.36.38,0,.31.51.37.91.11-.12.37-.15.43-.34.13-.46-.45-1.5.25-1.48.48,0,.3.73.41,1.16a6.45,6.45,0,0,1,.86,1,10.17,10.17,0,0,0,.75,1.93.68.68,0,0,0,.32-.22A4.35,4.35,0,0,0,92.18,63.93Z"/><path class="cls-4" d="M95.73,44c.39-.09.34.27.56.46s.67.16.73.41a.36.36,0,0,1-.27.45,1.45,1.45,0,0,1-.86-.32C95.64,44.79,95.21,44.1,95.73,44Z"/><path class="cls-4" d="M98,53.11a.53.53,0,0,1-.75,0,4,4,0,0,0-.89-2.5c-.13-.18-.4-.4-.41-.57a.37.37,0,0,1,.48-.37,3.67,3.67,0,0,1,1.09,1.46A5.49,5.49,0,0,1,98,53.11Z"/><path class="cls-1" d="M135.82,104.74H134.5l-1.2-.93s.49-.27,1.07-.52.7-1.41.7-1.41-1.39.72-2,.32a3.6,3.6,0,0,0-2.38-.86,4.13,4.13,0,0,0-1.57.61l-5.21-.48s-5.63-8.18-7.16-8.89-4.78-1-4.84-1.29a1.41,1.41,0,0,1,0-.59l.87-2.62a4,4,0,0,0,1.75-1,5.47,5.47,0,0,0,.72-1.52l.6-.94s-.84-.4-.94-1a4.63,4.63,0,0,0-.82-2.48,1.82,1.82,0,0,0-1.38-.54l1-2.18-1.84.91-.54-1.89-2.78,1.75-.38-9.05a1.86,1.86,0,0,0,.75-1.75c0-1.35-.07-2.2-.07-2.2a1.48,1.48,0,0,0,.5-1.78c-.49-1.07-.89-1.62-1-1.38s-.71,2.38-.71,2.38a5,5,0,0,1-.43-2.25c.22-.66.73-1.77.45-2.13s-.54-.74-1-.21a11.74,11.74,0,0,0-1,2,1.94,1.94,0,0,0-1.11,1.56c-.12,1.17-.78,18.43-1,22.44s-3.84,22.68-4.34,25.53-.84,6.11.21,7.55,6,3.36,6,3.36l-12.64-2.84s-2.42-.18-2.34,2S92.06,132,92.06,132l8.78.18s-.51-2-1.18-2.5a6.3,6.3,0,0,0-1.55-.71l-.2-1.66,1.79.28a2.78,2.78,0,0,0,1.71,1.82c1.27.31,13.52,2.31,13.52,2.31l-.11.48,13.57-.11s.71-2.66-.75-3.62a21.84,21.84,0,0,0-3.3-1.7s4.51-14.49,4.62-14.87.46-.71-.07-2.25a4.09,4.09,0,0,0-3.41-3l-12.07,4,2.93-9.11s4.24,5.56,6.73,5.13a41.62,41.62,0,0,1,5.3-.47,12.7,12.7,0,0,1,1.91.93c.47.36.66,1,1.38.77a17.85,17.85,0,0,0,2.37-1,1.65,1.65,0,0,0,1.34,0C136,106.54,135.82,104.74,135.82,104.74ZM114.57,120a1,1,0,0,1,1.26-.33c-.26-.11-.16,0,0-.11a3.24,3.24,0,0,0,.36-.2,6.24,6.24,0,0,1,.83-.49.94.94,0,0,1,1.26.33.92.92,0,0,1-.34,1.25.75.75,0,0,1,0,.15c0,.42-.12.83-.19,1.25a1.38,1.38,0,0,1-.09.51.92.92,0,0,1-1.78-.41s0,0-.05,0a2,2,0,0,0-.3-.28,3.21,3.21,0,0,0-.68-.38A.93.93,0,0,1,114.57,120Z"/><path class="cls-4" d="M111.45,84.18a2.3,2.3,0,0,1,.34,1.5,4.32,4.32,0,0,1-.43,1.36l-.77-.68s-1.46-.58-1.71,0-.18.93.21,1.23a3.91,3.91,0,0,0,1.45.38s-.05.53-.11.8a5.27,5.27,0,0,1-.18.59L109.06,89l-.52-1s-2.17-.39-2.57-2.11-1-2.69.41-4.57,5.37-3.89,5.37-3.89l.06,2.05,1.82-.8-1.36,2.3a2.89,2.89,0,0,1,.25,1.82A4.41,4.41,0,0,1,111.45,84.18Z"/><path class="cls-4" d="M124.26,126.62l.14-.61-7.55.23-.59,1.59s2.65-1.33,3.53.59.91,2,.91,2l5.13.41a2.36,2.36,0,0,0,.55-2.09,3.76,3.76,0,0,0-.91-1.46Z"/><path class="cls-4" d="M99.31,127.24l-1.41,0,.16,1.71.68.22-1.16,1.44a3.44,3.44,0,0,1-1.09-1.78c-.21-1-1-5.18-1-5.18a1.35,1.35,0,0,0,1.25-.8,3.66,3.66,0,0,0,.3-1.34l1.41.12a4.39,4.39,0,0,1,1.34,2.88A6.54,6.54,0,0,1,99.31,127.24Z"/><path class="cls-1" d="M127.1,107c-1.37-1-3,.18-3,.18l-9.61,2.78-1.16.59a22.79,22.79,0,0,1-4.84,2.41c-3,1.13-9.12,1.13-9.12,1.13s0,1.09-.14,3.82,3.44,4,3.44,4l2.34,1.34-4.14-1a12.76,12.76,0,0,1,1.93,3.91,4.32,4.32,0,0,1-.57,3.43l12.78,2,2.5-6.29,7.25-.37s3.22-8.4,4.23-11.89S128.46,108,127.1,107Zm-10,16.41-2.79-3.22,4.45-1.28Z"/><path class="cls-4" d="M107.71,64.68c.22-.58,0-1.74.64-1.87.45-.09.76.32,1,.55a2.44,2.44,0,0,1,.39,2.07c-.07.31-.28.55-.32.79a6.53,6.53,0,0,0,.07,1,4.58,4.58,0,0,1-.3,2.18c-.07.16-.14.34-.23.5a2.94,2.94,0,0,0-.25.46,5.13,5.13,0,0,0,0,1c.1,2.29.14,4.76.22,7.07.31-.18.74-.47,1.23-.75s1.11-.74,1.59-.53.43.88.48,1.5c.33-.09,1.45-.9,1.7-.27.12.29-.1.67-.22.91s-.31.5-.44.75c1,.21,1.28,1,1.64,1.93a4.77,4.77,0,0,1,.23.87,2.82,2.82,0,0,0,.18.91c.21.31,1.06.16,1,.7s-1.16,0-1.37-.11c-.49-.4-.33-1.28-.61-2s-.54-1.59-1.39-1.66a2.2,2.2,0,0,0-.34.5,3.48,3.48,0,0,1,.28,1.53c-.09.64-.68,1.1-1,1.5a5.4,5.4,0,0,1,.29.91c.27-.66.55-1.41,1.48-1.32a.44.44,0,0,1,.16.32c0,.39-.37.24-.64.47s-.23,1.33-.91.94a2.5,2.5,0,0,1-.2,1.06c-.07.21-.19.72-.5.75s-.38-.25-.61-.29c-.53-.1-1.43.35-1.46-.18,0-.38.43-.33.68-.34,0-.24-.46-.37-.72-.3s-.4.54-.28.84.59.4.94.41,1-.3.86.3c0,.2-.23.25-.41.31.29.29.17,1.3-.27,1.41a2.65,2.65,0,0,1-1.16-.25A2.94,2.94,0,0,0,109,90c1,0,2-.09,3-.09.18-.48.3-1,.47-1.52-.35,0-1,.19-1-.27s.71-.39,1.14-.46a2.72,2.72,0,0,0,1.18-.41c-.06-.17-.37-.2-.36-.47,0-.48.6-.21.82,0a3.42,3.42,0,0,0,.47-.73c.21-.38.48-1,.89-.48a1.67,1.67,0,0,1-.36.91,3,3,0,0,1-2,1.75c-.23.94-.53,1.81-.79,2.73.86.18,1.63.22,2.34.43a7.85,7.85,0,0,1,1.91.84A11.14,11.14,0,0,1,119.37,95c1.62,2,3.18,4.25,4.77,6.28,1.1.1,2.36.25,3.52.38a5.62,5.62,0,0,0,1.21.09,8.16,8.16,0,0,0,1-.31,3.09,3.09,0,0,1,2.16,0,5.67,5.67,0,0,0,.91.39,2.68,2.68,0,0,0,1,0c.59-.11,1.54-.43,1.48.5a2,2,0,0,1-1.43,1.66c.07.22.32.41.52.64s.5.42.45.72a.33.33,0,0,1-.27.28c-.29,0-.59-.41-.8-.64s-.44-.55-.65-.75c-.31.11-.6,0-.6-.3s.47-.37.8-.47c.63-.2,1.14-.43,1.27-1.09a3.73,3.73,0,0,1-2.52-.07,2.4,2.4,0,0,0-1.16-.34,7.6,7.6,0,0,0-1.23.27c-.13.32.06.41.19.7a3.37,3.37,0,0,1-.07,2.71c0,.15.16.23.11.43s-.33.24-.59.27a10.35,10.35,0,0,1,1.5.91c.16.12.3.31.45.34a2.43,2.43,0,0,0,.71,0,4.06,4.06,0,0,0,1.52-.59c0-.14-.24-.19-.2-.43a.34.34,0,0,1,.27-.27c.22,0,.4.16.57.25.47.22,1.33.27,1.43-.39a1.94,1.94,0,0,0-.18-.82c-.1-.28-.32-.86.25-.77.34,0,.61,1.09.61,1.48a1.39,1.39,0,0,1-1.43,1.36c-.19,0-.36-.11-.52-.09s-.46.26-.68.38a5.8,5.8,0,0,1-.71.35,3.24,3.24,0,0,1-1.86.2,2.59,2.59,0,0,1-.75-.5,11.18,11.18,0,0,0-2.25-1.23c-.44.08-.92.12-1.37.18a4.48,4.48,0,0,1,2.64,4.48,8.45,8.45,0,0,1-.5,2.07c-1.37,4.52-3,9.07-4.52,13.36,1.42.63,3.34,1.12,4,2.53a7.31,7.31,0,0,1,.48,2.43c0,.24.08.7-.05.86s-1.21.14-1.63.14H116.44a8.58,8.58,0,0,1-1.78,0c-.12,0-.17-.14-.2-.37-4-.69-8.16-1.51-12.21-2.22a3.5,3.5,0,0,1-1.77-.64,4.9,4.9,0,0,1-1-1.36c-.44,0-.83-.13-1.27-.16a6.79,6.79,0,0,0,.2,1A3.11,3.11,0,0,1,100.8,131c.13.39.58,1.39-.07,1.48a8.1,8.1,0,0,1-1.09,0c-2.16,0-4.38-.09-6.57-.09a3.08,3.08,0,0,1-1-.07c-.2-.12-.25-.71-.32-1.05-.38-1.89-.72-3.72-1.16-5.54a14,14,0,0,1-.45-2.23c-.12-1.67.25-2.73,1.31-3.2s2.61,0,3.78.22c2.44.53,4.82,1.17,7.27,1.73-.63-.34-1.36-.65-2-1a4.14,4.14,0,0,1-.59-.5,3.56,3.56,0,0,1-1.14-1.91,15.44,15.44,0,0,1-.07-3.87,64.85,64.85,0,0,1,1.09-7c.85-4.63,1.7-9.12,2.57-13.71a71.09,71.09,0,0,0,1-7.11c.23-2.51.29-5.12.41-7.73.22-4.49.38-9,.69-13.55a9.33,9.33,0,0,1,.18-1.84,4,4,0,0,1,.5-1,3.05,3.05,0,0,1,.68-.87c.33-.55.57-1.48,1.16-1.72s1.18.46,1.23.88a2.9,2.9,0,0,1-.28,1.14A5.24,5.24,0,0,0,107.71,64.68Zm.36,1a6.49,6.49,0,0,1-.47.82c-.13.18-.38.67-.66.66a.32.32,0,0,1-.32-.27c-.05-.41.55-.74.59-1.07a4.06,4.06,0,0,0-.09-.57,7,7,0,0,1,.09-2.93c.14-.49.54-1.18,0-1.34a3,3,0,0,0-.66,1,4.65,4.65,0,0,0-.39,1.21,12.23,12.23,0,0,0,0,2.27c0,.45.11,1-.34.93s-.32-.73-.34-1.18,0-1,0-1.48a5.66,5.66,0,0,0-.29,2c-.11,1.64-.19,3.41-.25,5a4.08,4.08,0,0,1,2.84,0c.1,0,.2.13.29.09-.12-.64.17-.88.39-1.34a3.86,3.86,0,0,0,.34-.86,5.41,5.41,0,0,0,0-1.66,4.21,4.21,0,0,1-.06-.91c0-.21.25-.4.31-.61a1.81,1.81,0,0,0-.2-1.59c-.07-.09-.15-.26-.23-.21A6.81,6.81,0,0,1,108.07,65.72Zm-2,21a6.23,6.23,0,0,1-1-3,4,4,0,0,1,1.11-2.84,12.93,12.93,0,0,1,1.48-1.48c.14-.12.48-.32.52-.48a4.57,4.57,0,0,0,0-.89c0-1.57-.06-3-.13-4.52a9.27,9.27,0,0,0-.1-1.77c-.1-.28-.53-.43-.86-.52a2.4,2.4,0,0,0-2.32.34c-.2,3.75-.39,7.59-.57,11.34a78,78,0,0,1-1.13,10.77c-1.27,6.74-2.62,13.31-3.68,20.14a28.76,28.76,0,0,0,8-1,12.37,12.37,0,0,0,3.18-1.37,25.26,25.26,0,0,1,2.93-1.61c.71-2.92,1.53-5.72,2.37-8.5a6.85,6.85,0,0,0-.57-.68c-.16-.18-.55-.46-.5-.78a.32.32,0,0,1,.29-.25c.3,0,.53.39.71.6.64.73,1.25,1.39,1.84,2.06a35.28,35.28,0,0,0,2.52,2.71,4.63,4.63,0,0,0,1.57,1,6.4,6.4,0,0,0,2.36.12c1.12-.07,2.41-.27,3.5-.41a9.84,9.84,0,0,0,1.16-.16c1.13-.29.89-2.8,0-3.16,0,0,0,0,0,0-.74-.14-1.64-.19-2.48-.27l-1.23-.14a6.17,6.17,0,0,1-1.25-.14c-.18-.07-.48-.51-.63-.72-1.37-1.84-2.77-3.73-4.12-5.48s-2.83-3.55-5.7-3.89c-.8-.09-2.11-.12-1.64-1.23-1,.06-2,.07-3,.12a3.94,3.94,0,0,1-.43.84c-.14.21-.39.61-.75.52a.35.35,0,0,1-.2-.23c-.06-.3.26-.49.41-.72a3.74,3.74,0,0,0,.38-.78,3.34,3.34,0,0,0,.23-1.88A4.06,4.06,0,0,1,106.09,86.75Zm5.28-8.87a10.24,10.24,0,0,0-1.82,1,11.89,11.89,0,0,0-1.55,1.2c-.93.89-2.08,1.86-2.18,3.34a4.43,4.43,0,0,0,.41,2.07,3.29,3.29,0,0,0,1.8,2c.26.12.75.22.91.45a2.67,2.67,0,0,1,.18.6,5.67,5.67,0,0,0,.88.29,1.8,1.8,0,0,0,0-.41c0-.12.11-.21.07-.25a2.25,2.25,0,0,1-1.44-.61,1.4,1.4,0,0,1,.48-1.93,1.44,1.44,0,0,1,.61,0c.52,0,1.24.21,1.23.66.13,0,.31.28.39.23a1.85,1.85,0,0,0,0-1.64,2.2,2.2,0,0,1-.23-.75c0-.19.39-.5.55-.68a2,2,0,0,0,.47-.77,1.79,1.79,0,0,0-.11-.85,1.81,1.81,0,0,1-.18-.7c0-.16.18-.32.29-.5.32-.51.63-1,.89-1.52a3.58,3.58,0,0,0-.59.29c-.19.1-.41.3-.66.25-.54-.1-.06-1.36-.41-1.75Zm2.91,31.87c2.92-1,5.84-1.93,8.82-2.84a4.88,4.88,0,0,1-3.87-1.93c-.93-1-1.83-2-2.75-3C115.7,104.49,115,107.08,114.28,109.75Zm14,3a7.15,7.15,0,0,0,.46-1.79,3.91,3.91,0,0,0-1.77-3.61,2.63,2.63,0,0,0-1.48-.39,28.51,28.51,0,0,0-3.3.89c-2.68.82-5.32,1.7-7.93,2.56-.53.18-1.09.33-1.57.55s-.88.54-1.32.79a15.11,15.11,0,0,1-4.47,1.87,29.61,29.61,0,0,1-7.57.86,16.89,16.89,0,0,0,0,4.18,3.34,3.34,0,0,0,2.18,2.3,12.18,12.18,0,0,0,3.91.55,13.35,13.35,0,0,0,4-.48c4.45-1.22,8.45-2.64,12.68-4.07.17-.06.69-.22.71.2s-.54.44-.85.55c-1.1.39-2.1.72-3.15,1.07-.63,2-1.25,3.91-1.87,5.86,2.5,0,5-.11,7.43-.16C125.72,120.7,127.13,116.77,128.32,112.79Zm-13.63,7.41c.71.89,1.44,1.75,2.18,2.62.31-1.07.73-2.22,1-3.25a1.08,1.08,0,0,0,.09-.46C116.91,119.48,115.8,119.85,114.69,120.2Zm-.71.25c-.7.19-1.51.45-2.27.69A19.45,19.45,0,0,1,107,122.2c-.89,0-1.82,0-2.81,0,.63.22,1.18.64,1.81.85s1.44.35,2.14.52l1.09.25c.37.09.85.16.82.52a.34.34,0,0,1-.3.3,4.45,4.45,0,0,1-1.06-.25c-2.5-.62-5.1-1.24-7.48-1.82a8.72,8.72,0,0,1,1.61,5.32,4.35,4.35,0,0,1-.34,1.27c4.09.72,8.13,1.49,12.21,2.23.73-2,1.51-4,2.22-6-1.31.26-.4-1.2-.29-1.72C115.78,122.53,114.87,121.51,114,120.45Zm-19,8.37c-.43-1.56-.82-3.19-1.21-4.82a9.85,9.85,0,0,0-.88-3c-.12-.18-.24-.41-.44-.39a2.16,2.16,0,0,0-1.25.57,2.86,2.86,0,0,0-.4,1.84,9.75,9.75,0,0,0,.38,2.18c.5,2,1,4.45,1.34,6.39,1.22,0,2.42,0,3.64,0A6.3,6.3,0,0,1,95,128.82Zm-.57-5.07c.38,1.6.77,3.26,1.18,4.8a10.1,10.1,0,0,0,.73,2.27,2.83,2.83,0,0,0,.45.48c.16.13.38.37.53.4a3.3,3.3,0,0,0,.77,0l2.27.05a2.87,2.87,0,0,0-1.59-2.3,7.47,7.47,0,0,0-.61.71c-.16.22-.31.7-.64.7s-.47-.36-.64-.59a8.8,8.8,0,0,1-.47-.75,6.18,6.18,0,0,1-.62-1.86c-.22-1.06-.39-2-.59-3.09A3.08,3.08,0,0,1,95,123.5c.07-.21.37-.23.61-.3a1.75,1.75,0,0,0,.66-.27c.37-.35.3-.92.23-1.48-1-.19-2-.49-3-.63A9.63,9.63,0,0,1,94.39,123.75Zm1.34.14c.19,1,.4,2.19.61,3.27a5.06,5.06,0,0,0,1.14,2.77,2.06,2.06,0,0,1,.48-.61,3,3,0,0,1-.39-1.27c-.07-.33-.26-.67-.18-1,.14-.52,1.06,0,1.5-.07s.56-.63.59-1.09a4.88,4.88,0,0,0-.59-2.73,3.22,3.22,0,0,0-1.2-1.45,3.43,3.43,0,0,0-.44-.09A1.83,1.83,0,0,1,95.73,123.89Zm4.09,3.25c.8.07,1.53.2,2.32.27a8,8,0,0,0-.57-2.75c-.5-1.26-1.12-2.4-2.57-2.61C99.86,123.12,100.64,125.67,99.82,127.14Zm17.84-1.78a2.7,2.7,0,0,0-.18.5l6.5-.11c0-.19.14-.35.18-.55C122,125.26,119.81,125.29,117.66,125.36Zm-.45,1.19c-.09.27-.2.53-.3.79a2.92,2.92,0,0,1,3.53,1.27,4.82,4.82,0,0,1,.34,1.64c1.57,0,3.11.07,4.7.07a1.46,1.46,0,0,0,.41-.71,2.7,2.7,0,0,0-1.18-2.34c-.19,0-.3-.12-.5-.13-.16.28-.12.74-.5.75a.31.31,0,0,1-.34-.28c-.06-.41.35-.81.36-1.18Zm9.3,3.4c-.1.31-.48.94-.78,1a5.12,5.12,0,0,1-1.41,0c-1,0-1.87,0-2.88,0-.48,0-1.14,0-1.28-.2a3.65,3.65,0,0,1-.11-1,2.75,2.75,0,0,0-.25-.89,2.61,2.61,0,0,0-2-1.07c-.48,0-.9.39-1.25.5-.43,1.15-.85,2.31-1.29,3.46h13a6.77,6.77,0,0,0-.48-2.57,3.57,3.57,0,0,0-1.54-1.18A3.21,3.21,0,0,1,126.51,130Z"/><path class="cls-4" d="M113.35,84.71a.36.36,0,0,1,.47.18l.19.44a.37.37,0,0,1-.19.47.35.35,0,0,1-.46-.19l-.19-.44A.35.35,0,0,1,113.35,84.71Z"/><path class="cls-3" d="M50.93,54a1.7,1.7,0,0,1-1.44-.82,2.22,2.22,0,0,1-.21-.37,2.6,2.6,0,0,1-1.59-.29A4.42,4.42,0,0,1,46.08,51a3.37,3.37,0,0,1-2.32-1c-1.17-1-1-1.19-.91-1.35l.29.22.26.24-.26-.24.28-.21a4.57,4.57,0,0,0,2.31,1.58,2.89,2.89,0,0,1,0-2.25,1.62,1.62,0,0,1,1.44-1.1,1.24,1.24,0,0,1,1.12.78c.15.36.37,1.32-.83,2.58a2.32,2.32,0,0,1-.7.53A3.61,3.61,0,0,0,48,51.92a2,2,0,0,0,1,.24,4,4,0,0,1,.47-3.38,1.18,1.18,0,0,1,1.55-.19c.78.43.92,1.56.32,2.67A3.22,3.22,0,0,1,50,52.64l.1.17a1,1,0,0,0,1.34.42.35.35,0,0,1,.26.66A2.24,2.24,0,0,1,50.93,54Zm-.58-4.93a.42.42,0,0,0-.33.16A3.44,3.44,0,0,0,49.71,52a2.37,2.37,0,0,0,1-1c.35-.65.43-1.47,0-1.72A.76.76,0,0,0,50.35,49.1Zm-3.16-1.49c-.29,0-.58.25-.78.68a2.3,2.3,0,0,0,0,1.87,1.72,1.72,0,0,0,.54-.38c.94-1,.77-1.64.69-1.82a.52.52,0,0,0-.48-.35Z"/><path class="cls-3" d="M136.37,50.17l4.74,3,.22-5.6Z"/><rect class="cls-3" x="111.68" y="34.05" width="3.71" height="0.95" transform="translate(8.84 90.4) rotate(-45)"/><rect class="cls-3" x="113.06" y="32.67" width="0.95" height="3.71" transform="translate(8.84 90.41) rotate(-45.01)"/></svg>