<svg xmlns="http://www.w3.org/2000/svg" viewBox="0 0 2000 2000"><defs><style>.cls-1{isolation:isolate;}.cls-2{fill:#e3ebff;}.cls-3{fill:#8a9bc6;}.cls-4,.cls-8{fill:#e29fd6;}.cls-4{mix-blend-mode:multiply;}.cls-5{fill:#7287b2;}.cls-6{fill:#203085;}.cls-7{fill:#2ff44f;}.cls-9{fill:#86eab6;}.cls-10{fill:#5e867e;}.cls-11{fill:#3be287;}.cls-12{fill:#ffb548;}.cls-13{fill:#162463;}.cls-14{fill:#fcc7b9;}.cls-15{fill:#ef9f37;}.cls-16{fill:#edb6ab;}.cls-17{fill:#001e3a;}.cls-18{fill:#f9b75f;}.cls-19{fill:#f2f5fa;}</style></defs><g class="cls-1"><g id="Layer_1" data-name="Layer 1"><path class="cls-2" d="M1603.6,1514c51.43-36.87,58.09-108.73,73.63-170.08,14.38-56.75,40.16-111.6,41.21-170.14.77-43.08-12-85.11-24.62-126.3-11.84-38.6-23.84-77.58-44-112.59-33.45-58.22-89.35-103.15-153.4-123.3-129.53-40.75-279.32,18-402-40.22-40.9-19.42-75-50.4-109.54-79.62-44.71-37.78-92.63-74-148.51-91.44-47.52-14.82-98.21-15.23-148-14.27-38.12.73-76.87,2.29-113,14.52s-69.81,36.68-84.61,71.82c-13.19,31.29-10.22,67.23-21.15,99.37C438.16,864.36,308.9,890,268.46,979.14c-31.75,70,2.69,150,25.62,223.38a732.35,732.35,0,0,1,33.2,226.81c-.35,28.57-2.78,58.44-17.83,82.73Z"/><rect class="cls-3" x="764.88" y="1032.54" width="774.63" height="70.92" transform="translate(2304.39 2136) rotate(180)"/><rect class="cls-3" x="833.06" y="1103.46" width="635.53" height="204.57"/><polygon class="cls-4" points="833.07 1103.46 833.07 1179.72 1468.59 1106.29 1468.59 1103.46 833.07 1103.46"/><rect class="cls-5" x="1468.59" y="1103.46" width="46.37" height="408.6" transform="translate(2983.55 2615.52) rotate(180)"/><rect class="cls-5" x="786.7" y="1103.46" width="46.37" height="409.14" transform="translate(1619.76 2616.05) rotate(180)"/><rect class="cls-6" x="605.79" y="1207.69" width="182.19" height="304.37"/><path class="cls-7" d="M695.82,1257h0a10.72,10.72,0,0,1-10.72-10.72h0a10.71,10.71,0,0,1,10.72-10.71h0a10.7,10.7,0,0,1,10.71,10.71h0A10.71,10.71,0,0,1,695.82,1257Z"/><rect class="cls-4" x="625.08" y="1265.56" width="145.75" height="225.06"/><rect class="cls-8" x="642.95" y="1287" width="105.03" height="4.29"/><rect class="cls-8" x="642.95" y="1314.86" width="105.03" height="4.29"/><rect class="cls-8" x="642.95" y="1342.73" width="105.03" height="4.29"/><rect class="cls-4" x="642.23" y="1370.59" width="105.03" height="38.58"/><rect class="cls-4" x="642.23" y="1432.75" width="105.03" height="38.58"/><path class="cls-9" d="M509.89,1399.75c-24.13-14.58-46.24-33.12-62.15-56.39s-25.31-51.53-23.27-79.64c1-13.76,4.65-27.18,6.51-40.85a157.66,157.66,0,0,0-4.1-62.5c-4.7-17.21-12.37-33.94-12.72-51.77-.45-23.38,11.68-44.93,23.45-65.14a241.32,241.32,0,0,0,4.73,50.52c2,10,4.81,20.19,11,28.32,4.3,5.67,10,10,15.32,14.8,34.48,31,49.7,77.57,63.52,121.86,2.72,8.72,5.46,17.51,6.61,26.58,1.28,10,.59,20.18-.4,30.23-2.82,28.47-8.45,57.56-24.17,81.46"/><path class="cls-10" d="M453.2,1181.34c-.05.68-4.35,68.09,22,122.81,11.59,24.08,15.87,41.57,19.31,55.62,4.43,18.09,7.92,32.38,24.31,50l1.75-1.63c-16-17.2-19.22-30.53-23.73-49-3.47-14.16-7.78-31.79-19.48-56.09-26.06-54.16-21.81-120.93-21.76-121.6Z"/><path class="cls-9" d="M674.26,1191.75c-4.81,27-33.43,42.32-59.78,49.76s-55.61,12-74.54,31.78c-9.24,9.65-15,22.07-19.68,34.6-10.78,29-15.9,62.81-2.69,90.28-.43-24.08,20.08-45.37,42.22-56.55,23.93-12.08,51.22-17.2,73.72-31.78C671.15,1285.44,688.84,1234.17,674.26,1191.75Z"/><path class="cls-10" d="M514.55,1391.92l-2.4-.09c0-.77,3.54-76.49,59.23-100.56,54.37-23.5,64.34-43.26,64.43-43.46l2.17,1c-.39.84-10.23,20.69-65.65,44.64C518,1316.94,514.58,1391.17,514.55,1391.92Z"/><path class="cls-11" d="M561.52,1128.12c4-24.07.84-52.65-19.21-66.55,1,12.74-4.9,25.08-12.46,35.38s-16.84,19.27-24.06,29.81c-8.42,12.28-13.8,26.33-19.11,40.24-3.85,10.08-7.75,20.37-8.35,31.15-.72,12.89,3.31,25.51,5.07,38.3a109.79,109.79,0,0,1-1.32,37.44c-1.83,8.71-4.72,17.21-6,26-2.84,19.44,2.38,39.38,11.18,56.94,7.79,15.54,18.27,29.51,29,43.21.91-28.91,22.55-54.5,40.67-78.24,5-6.56,9.88-13.35,12.72-21.09,6-16.29,2.2-34.51-3.52-50.89s-13.39-32.38-15.22-49.64C548.35,1175.94,557.53,1152.18,561.52,1128.12Z"/><path class="cls-10" d="M516.15,1401.07c-.23-.64-22.45-64.42-11.76-124.2,4.71-26.31,4.14-44.3,3.68-58.77-.59-18.61-1.05-33.31,10-54.72l2.13,1.1c-10.76,20.85-10.32,34.57-9.72,53.55.46,14.57,1,32.71-3.72,59.26-10.58,59.16,11.43,122.35,11.66,123Z"/><path class="cls-6" d="M456.47,1381.47h98.28a0,0,0,0,1,0,0v120.21a11.63,11.63,0,0,1-11.63,11.63h-75a11.63,11.63,0,0,1-11.63-11.63V1381.47A0,0,0,0,1,456.47,1381.47Z"/><path class="cls-12" d="M1192.28,547.46a19.24,19.24,0,0,0-9.51-2.5H1044.06a19.3,19.3,0,0,0-19.3,19.31V637.2h0a19.29,19.29,0,0,0,19.3,19.3h138.71a19.3,19.3,0,0,0,19.3-19.3V564.27A19.3,19.3,0,0,0,1192.28,547.46Z"/><path class="cls-13" d="M1089.77,589.9l-27,10.23,27,10.24v14.87l-43.46-18.83V593.86L1089.77,575Z"/><path class="cls-13" d="M1178.86,593.86v12.55l-43.46,18.83V610.37l27-10.24-27-10.23V575Z"/><polygon class="cls-13" points="1115.51 572.13 1095.97 627.9 1109.39 627.9 1128.93 572.13 1115.51 572.13"/><path class="cls-14" d="M733.53,683.52s7.25-20.42,11-29.54,8.78-.68,8.78-.68,15.41-13.44,21.43-8.28c14.19,12.14-27,50.65-27,50.65Z"/><path class="cls-15" d="M542.32,751.3s71.57,12.11,91,6.2S731,679.3,731,679.3l20.94,13.83S708.43,787,652.74,809s-111.22,17.44-111.22,17.44Z"/><polygon class="cls-14" points="352.66 1440.54 332.7 1469.44 306.03 1471.56 302.84 1451.29 317.25 1424.09 352.66 1440.54"/><polygon class="cls-14" points="630.33 1437.96 626.74 1472.9 604.38 1487.6 591.83 1471.37 591.38 1440.59 630.33 1437.96"/><path class="cls-14" d="M743.71,782.42s11.35-20.95,17-30.24,10.24.53,10.24.53,19.76-12.27,26-5.85c14.63,15.1-38.54,50.66-38.54,50.66Z"/><path class="cls-6" d="M304.79,1430.5c11.82-8.42.09,34.89,39.89,21.15,0,0,27.18,53.88,27.07,58.47S366,1521,366,1521l-88.62-56.27S289.85,1441.16,304.79,1430.5Z"/><path class="cls-6" d="M585.55,1463.25c6.3-13.07,16.87,30.53,45.14-.67,0,0,49.76,34.15,51.88,38.23s.18,12.31.18,12.31L578,1506.46S577.59,1479.79,585.55,1463.25Z"/><path class="cls-13" d="M597.24,929.76s53.37,159.86,64.94,197.81-24.62,323.23-24.62,323.23l-52.13-4.4s-7.87-241.07-10.36-273.25-68.2-128.5-68.2-128.5S521.51,955,597.24,929.76Z"/><path class="cls-6" d="M597.45,934.35s-29.4,36.51-36.49,56.48-45.44,221.46-45.44,221.46L350.8,1453.78,310.19,1431l118.69-250.87,33.7-261.55Z"/><path class="cls-12" d="M568.51,804.45s40,32.22,56.23,42S751,766.05,751,766.05l19.42,22.78s-79,92.19-130.25,113.82-106.69-38.09-106.69-38.09Z"/><polygon class="cls-16" points="543.65 711.46 547.22 757.54 494.89 737.31 521.87 686.66 543.65 711.46"/><path class="cls-14" d="M600.52,653.05c-7.46,56.73-15,80.16-58,70.06-30-8.39-23.83-72-23.83-72l39.1-10.39Z"/><path class="cls-17" d="M540.77,674.16l5.9-9.28,20.77,11.63-5.75-17.21s40.68,12.3,71.9-12.19c16.53-14.52,20.58-19.25,20.58-19.25s-22.11-.5-38.32-10.28L631,614.2s-10-14.68-40.85-14.5-72.41,5.61-75.1,27.89c0,0-14.17,16.55-3,46.58Z"/><path class="cls-14" d="M540.92,675.21a15.4,15.4,0,1,1-13.26-17.28A15.4,15.4,0,0,1,540.92,675.21Z"/><path class="cls-12" d="M592.77,825.47a108.39,108.39,0,0,0-46.2-79.29l-.24-.16-41.17-28s-13.82,1.91-21.75,13.56c0,0-64.47,22.64-25.39,213.86,0,0,83.05,17.85,145.67-.24Z"/><rect class="cls-13" x="681.37" y="479" width="143.7" height="134.9"/><path class="cls-12" d="M825.07,514.69V613.9H681.37s8.8-79.18,46.92-79.18S769.35,567,819.2,520.06C821.28,518.09,823.25,516.3,825.07,514.69Z"/><rect class="cls-15" x="296.49" y="684.9" width="135.79" height="101.18"/><polygon class="cls-18" points="432.28 684.9 363.06 735.49 296.5 684.9 432.28 684.9"/><polygon class="cls-12" points="432.28 684.9 391.98 714.35 432.28 786.08 432.28 684.9"/><polygon class="cls-12" points="296.13 684.9 336.43 714.35 296.13 786.08 296.13 684.9"/><path class="cls-9" d="M1574.9,1399.75c-24.13-14.58-46.24-33.12-62.15-56.39s-25.31-51.53-23.27-79.64c1-13.76,4.65-27.18,6.51-40.85a157.47,157.47,0,0,0-4.11-62.5c-4.69-17.21-12.36-33.94-12.71-51.77-.45-23.38,11.68-44.93,23.45-65.14a241.32,241.32,0,0,0,4.73,50.52c2,10,4.81,20.19,11,28.32,4.3,5.67,10,10,15.32,14.8,34.48,31,49.7,77.57,63.52,121.86,2.72,8.72,5.46,17.51,6.61,26.58,1.28,10,.59,20.18-.41,30.23-2.81,28.47-8.44,57.56-24.16,81.46"/><path class="cls-10" d="M1518.21,1181.34c0,.68-4.35,68.09,22,122.81,11.59,24.08,15.87,41.57,19.31,55.62,4.42,18.09,7.92,32.38,24.31,50l1.75-1.63c-16-17.2-19.22-30.53-23.73-49-3.47-14.16-7.78-31.79-19.48-56.09-26.07-54.16-21.81-120.93-21.76-121.6Z"/><path class="cls-9" d="M1739.27,1191.75c-4.81,27-33.43,42.32-59.78,49.76s-55.61,12-74.54,31.78c-9.24,9.65-15,22.07-19.68,34.6-10.78,29-15.91,62.81-2.69,90.28-.43-24.08,20.08-45.37,42.21-56.55,23.93-12.08,51.23-17.2,73.73-31.78C1736.16,1285.44,1753.85,1234.17,1739.27,1191.75Z"/><path class="cls-10" d="M1579.56,1391.92l-2.4-.09c0-.77,3.54-76.49,59.23-100.56,54.37-23.5,64.34-43.26,64.43-43.46l2.17,1c-.39.84-10.23,20.69-65.65,44.64C1583,1316.94,1579.59,1391.17,1579.56,1391.92Z"/><path class="cls-11" d="M1626.53,1128.12c4-24.07.84-52.65-19.21-66.55,1,12.74-4.9,25.08-12.46,35.38s-16.84,19.27-24.06,29.81c-8.42,12.28-13.81,26.33-19.12,40.24-3.85,10.08-7.74,20.37-8.34,31.15-.72,12.89,3.31,25.51,5.07,38.3a109.79,109.79,0,0,1-1.32,37.44c-1.83,8.71-4.72,17.21-6,26-2.84,19.44,2.38,39.38,11.18,56.94,7.78,15.54,18.27,29.51,29,43.21.91-28.91,22.55-54.5,40.67-78.24,5-6.56,9.88-13.35,12.72-21.09,6-16.29,2.2-34.51-3.53-50.89s-13.38-32.38-15.21-49.64C1613.35,1175.94,1622.54,1152.18,1626.53,1128.12Z"/><path class="cls-10" d="M1581.16,1401.07c-.23-.64-22.45-64.42-11.76-124.2,4.71-26.31,4.14-44.3,3.68-58.77-.59-18.61-1-33.31,10-54.72l2.13,1.1c-10.76,20.85-10.32,34.57-9.72,53.55.46,14.57,1,32.71-3.72,59.26-10.58,59.16,11.43,122.35,11.66,123Z"/><path class="cls-6" d="M1521.48,1381.47h98.28a0,0,0,0,1,0,0v120.21a11.63,11.63,0,0,1-11.63,11.63h-75a11.63,11.63,0,0,1-11.63-11.63V1381.47A0,0,0,0,1,1521.48,1381.47Z"/><polygon class="cls-6" points="1241.13 1032.08 1077.88 1032.08 1129.96 1000.76 1129.96 964.01 1189.53 964.01 1189.53 1000.54 1239.17 1030.89 1241.13 1032.08"/><rect class="cls-13" x="1009.33" y="747.54" width="298.09" height="219.5"/><rect class="cls-19" x="1018.69" y="766.19" width="279.37" height="162.59"/><circle class="cls-19" cx="1158.74" cy="946.4" r="10.84"/><polygon class="cls-13" points="1239.17 1030.89 1179.07 1007.37 1141.13 999.24 1189.53 999.24 1189.53 1000.54 1239.17 1030.89"/><rect class="cls-3" x="1041.24" y="783.47" width="202.49" height="13.06"/><rect class="cls-3" x="1041.24" y="812.87" width="112.68" height="14.15"/><rect class="cls-3" x="1041.24" y="845.53" width="158.4" height="11.98"/><rect class="cls-3" x="1041.24" y="874.92" width="202.49" height="13.06"/><path class="cls-12" d="M883.21,1006.54c.54,14.45,13.36,26,29.14,26,16.13,0,29.19-12.07,29.19-26.95V955.56H883.16v8.06c-11,1.83-19.46,10.74-19.46,21.46S872.14,1004.73,883.21,1006.54Zm-14.53-21.46c0-8.17,6.2-15,14.48-16.78v33.55C874.88,1000.1,868.68,993.25,868.68,985.08Z"/><polygon class="cls-14" points="1276.52 1438.58 1274.84 1470.13 1292.65 1486.31 1306.08 1473.63 1310.77 1446.34 1276.52 1438.58"/><polygon class="cls-14" points="1457.97 1444.89 1467.82 1474.91 1490.29 1483.54 1498.21 1466.87 1492.71 1439.73 1457.97 1444.89"/><path class="cls-14" d="M1120,640.05c13.28-11.2,29.29,8.33,29.29,8.33s-1-14.19,6.21-8.75,1,14.19,7.36,21.22,4.9,14.14,4.9,14.14l98.55,79.13.22.19,92-27.92s27.8,15.46-3.06,75c0,0-72.59,10.4-96.92,3.57-.88-.25-1.7-.53-2.47-.82-21.4-8.43-105.49-113.95-105.49-113.95C1127.57,677.05,1106.75,651.25,1120,640.05Z"/><path class="cls-13" d="M1323.61,933.3s-37.61,178.19-45.53,233.63-5.94,281.14-5.94,281.14l41.57,7.92,43.56-261.35,63.36-172.24,7.91-99Z"/><path class="cls-6" d="M1323.61,933.3s23.76,39.6,37.62,59.4c0,0,11.88,164.33,15.84,198s79.19,265.3,79.19,265.3l39.6-13.86s-37.62-190.07-39.6-247.49-5.94-261.34-5.94-261.34Z"/><path class="cls-15" d="M1266.34,754.12,1258.57,805c24.33,6.83,96.92-3.57,96.92-3.57,30.86-59.54,3.06-75,3.06-75l-92,27.92Z"/><path class="cls-12" d="M1400.83,717.5s23.76,5.94,35.63,39.6,19.8,182.14,19.8,182.14-104.93,17.82-142.55,4c0,0-5.94-110.87,9.9-166.3s33.66-49.5,33.66-49.5Z"/><path class="cls-16" d="M1357.27,687.8v39.6s-12.72,14,0,17.82c19.8,5.94,43.56-27.72,43.56-27.72l-11.23-29.7Z"/><path class="cls-14" d="M1332.52,629.4c0,51.47,4,73.25,43.56,69.29,27.72-4,29.7-61.37,29.7-61.37l-33.66-13.86Z"/><path class="cls-6" d="M1312.79,1467.3c-3.78-12.5-19.26,24.78-40-6.89,0,0-49,23.41-51.43,26.73s-1.88,10.92-1.88,10.92l94,8.7S1317.56,1483.1,1312.79,1467.3Z"/><path class="cls-6" d="M1502.18,1458.53c-8-10.28-9,30.08-39.81,8.07,0,0-37.19,39.56-38.26,43.54s2.2,10.86,2.2,10.86l90.8-25.94S1512.35,1471.54,1502.18,1458.53Z"/><path class="cls-17" d="M1367.17,640.29c-27.72,7.92-47,.48-43.56-23.76,4-27.72,57.42-39.6,77.22-7.92,27.08,43.33,86.51,30.19,65.33,91.07-15.84,45.54-73.25,31.68-79.19-25.74l-19.8-7.92Z"/><circle class="cls-14" cx="1381.03" cy="666.02" r="13.86" transform="translate(-88.85 229.82) rotate(-9.22)"/><path class="cls-14" d="M1068.21,792.73c7.92-17.81,33.66-5.93,33.66-5.93s-7.92-13.86,2-11.88,7.92,13.86,17.82,17.81,11.88,11.88,11.88,11.88l138.27,31.6.32.08L1351.33,763s35.64,2,33.66,77.21c0,0-68.19,46.07-96.1,51.1-1,.18-2,.3-2.89.38-25.74,2-162.35-63.36-162.35-63.36C1094,826.39,1060.29,810.55,1068.21,792.73Z"/><path class="cls-12" d="M1271.82,836.21l17.07,55.14c27.91-5,96.1-51.1,96.1-51.1,2-75.23-33.66-77.21-33.66-77.21l-79.19,73.25Z"/></g></g></svg>