<svg xmlns="http://www.w3.org/2000/svg" viewBox="0 0 2000 2000"><defs><style>.cls-1{isolation:isolate;}.cls-2,.cls-4{fill:#3483fa;}.cls-2{opacity:0.09;}.cls-3{fill:#f8ad8d;}.cls-5{fill:#e35330;}.cls-6{fill:#f26135;}.cls-7{fill:#231f20;}.cls-8{fill:#2c3637;}.cls-9{mix-blend-mode:color-burn;opacity:0.76;}.cls-10{fill:#e69dc4;}.cls-11{fill:#2d7aea;}.cls-12{fill:#eed249;}.cls-13{fill:#e4c540;}.cls-14{fill:#3764ae;}.cls-15{fill:#fff;}.cls-16{opacity:0.27;}.cls-17{fill:#f16134;}.cls-18{fill:#aabf00;}</style></defs><g class="cls-1"><g id="Layer_1" data-name="Layer 1"><path class="cls-2" d="M1669.44,1409.37c-125.55,186.46-383.55,181.88-759.22,175.21-307.48-5.47-488.87-8.69-591.64-147.28-149.48-201.59-50.61-579,142.2-678,152.09-78.08,254.24,72.74,553.09,36.6C1287.33,762.87,1349,618.79,1482.68,663.6,1687.67,732.31,1832,1168,1669.44,1409.37Z"/><polygon class="cls-3" points="657.34 1527.38 669.4 1632.66 706.33 1632.21 718.49 1522.91 657.34 1527.38"/><path class="cls-4" d="M664.39,1609.12s23.18,24,47.58,0a35.64,35.64,0,0,0,21.15,14.64c14.23,3.26,41.07,9.36,41.07,43.52H646.09S644.05,1621.73,664.39,1609.12Z"/><polygon class="cls-3" points="495.11 1537.94 490.47 1637.18 520.84 1637.18 547.36 1545.33 495.11 1537.94"/><path class="cls-4" d="M485.46,1609.12s23.18,24,47.58,0a35.64,35.64,0,0,0,21.15,14.64c14.23,3.26,41.07,9.36,41.07,43.52H467.16S465.12,1621.73,485.46,1609.12Z"/><path class="cls-5" d="M707.55,983.68s51.25,120.48,12,552.1c0,0-24.09,30.37-61,10.85,0,0-45.16-315.84-34.74-472.88C623.83,1073.75,634,971.64,707.55,983.68Z"/><path class="cls-6" d="M535.48,1014.7S498.07,1333,494.81,1554.22c0,0,13,11.93,47.72,6.51,0,0,116.92-369.8,126.75-462s-7.46-115-7.46-115S539.36,980.2,535.48,1014.7Z"/><path class="cls-7" d="M700.71,1528.62l-3.2-.61c7.66-39.77,6.74-102,6.73-102.61l3.26-.05C707.51,1426,708.43,1488.52,700.71,1528.62Z"/><path class="cls-8" d="M514.33,1554.8l-.3,0a1.64,1.64,0,0,1-1.3-1.9c.38-2,37.66-199,37.8-258.93.13-60.13,17.73-208,17.9-209.5a1.61,1.61,0,0,1,1.81-1.42,1.64,1.64,0,0,1,1.43,1.81c-.18,1.49-17.76,149.18-17.89,209.12-.13,60.18-37.47,257.54-37.85,259.53A1.63,1.63,0,0,1,514.33,1554.8Z"/><path class="cls-3" d="M697.27,711.19l-10,45-1.46,6.47S652.51,797,622.84,739.26l15.42-47.85,6.21-19.26S683,685.16,697.27,711.19Z"/><g class="cls-9"><path class="cls-10" d="M697.27,711.19l-10,45c-33.8-21.31-46.2-44.61-49-64.74l6.21-19.26S683,685.16,697.27,711.19Z"/></g><path class="cls-3" d="M823.14,970s33.62,7.18,43.79,5.15l-19.12,42.29s-30.91-11.79-34.57-18.71C813.24,998.69,810.67,978.63,823.14,970Z"/><path class="cls-11" d="M817.46,1004.94s-7.65-.36-18.74-1.5c-24.79-2.57-66.86-9-78.87-24,0,0-27.65-47.17,0-70.47,0,0,30.62,29.25,90.61,50,5.34,1.85,10.93,3.64,16.76,5.33C827.22,964.27,833.17,992.45,817.46,1004.94Z"/><path class="cls-12" d="M713.41,985.68s-45.35,50.43-125.45,0l16.43-253.83s3.06-.88,14.12-.65c2.34.06,5,.16,8.1.32,12.17,48,57.16,40,63,21.41a79,79,0,0,1,8.88,7.29,133.44,133.44,0,0,1,12.23,13.69Z"/><path class="cls-4" d="M620.88,973.22,603,1022.87l-9.76,27.07s-34.16,47.17-104.93-4.88c0,0,.79-12.43,2.41-32.28,5.86-70.7,22.81-235.68,55.6-269.74,0,0,40.57-11.58,70.6-11.88a94.6,94.6,0,0,1,9.7.36s7.64,33.58,10.8,80.36C640.63,859.15,639.3,920,620.88,973.22Z"/><path class="cls-4" d="M736.12,1045.61c-19,12.46-33.9,13.27-33.9,13.27q-6-16.39-10.15-32C674.34,960,681,905.06,681.33,871c.13-13.47,1.14-31.56,2.44-49.55,2.44-34.49,5.86-68.52,5.86-68.52a167.3,167.3,0,0,1,15.61,14.83c17.38,18.65,41.91,52.45,32.51,87.52-14.12,52.58-10.87,130.14-1.63,145.85.65,1.11,1.3,2.18,1.92,3.29C746.56,1019.09,753.75,1034,736.12,1045.61Z"/><path class="cls-13" d="M698.51,760.22c-9.73,8.06-28.73,20.75-47.83,17-20.75-4.1-29.28-32.47-32.17-46,2.34.06,5,.16,8.1.32,12.17,48,57.16,40,63,21.41A79,79,0,0,1,698.51,760.22Z"/><path class="cls-3" d="M662.77,894.18s30.91,0,38.64-5.29,17.48-23,22.77-19.45.81,15.79-6.91,21.48c0,0,15,1.22,32.12-17.08s13,36.6-26,49.21c0,0-19.93,5.7-29.69,3.26S662.77,930,662.77,930Z"/><path class="cls-4" d="M870.33,1044.85l-31.39-12a10.86,10.86,0,0,1-6.25-14l31-81,51.65,19.78-31,81A10.85,10.85,0,0,1,870.33,1044.85Z"/><path class="cls-14" d="M637.41,811.88c-6.28-6.57-15.94-18.84-23.29-37.93-7.88-20.4-2-35.14,2.79-42.79a94.6,94.6,0,0,1,9.7.36S634.25,765.1,637.41,811.88Z"/><path class="cls-14" d="M705.24,767.76c-.84,15.23-4.65,44.51-21.47,53.69,2.44-34.49,5.86-68.52,5.86-68.52A167.3,167.3,0,0,1,705.24,767.76Z"/><path class="cls-14" d="M603,1022.87l-9.76,27.07s-34.16,47.17-104.93-4.88c0,0,.79-12.43,2.41-32.28C507.44,1026.77,545,1047.76,603,1022.87Z"/><path class="cls-14" d="M736.12,1045.61c-19,12.46-33.9,13.27-33.9,13.27q-6-16.39-10.15-32c11.35-3,29.77-9.4,46-22.48C746.56,1019.09,753.75,1034,736.12,1045.61Z"/><path class="cls-8" d="M877.91,928.15a1.63,1.63,0,0,1,0-3.26c.07,0,7.75-.18,12.75-5.63,3.37-3.67,4.83-8.92,4.35-15.61-1.16-16.27-1.46-36.75,3.73-41.94A1.63,1.63,0,0,1,901,864c-1.23,1.23-5,7.69-2.78,39.41.54,7.64-1.22,13.71-5.23,18.07-6,6.49-14.72,6.65-15.09,6.66Z"/><path class="cls-8" d="M899.87,937.89a1.61,1.61,0,0,1-1.51-1,1.63,1.63,0,0,1,.9-2.12c1-.39,24.17-9.92,18.81-30.33-5.86-22.27,4.27-40.11,9.11-43.13a1.63,1.63,0,0,1,1.73,2.76c-3.75,2.34-13.18,18.68-7.7,39.54,6.1,23.21-20.47,34.08-20.74,34.19A1.59,1.59,0,0,1,899.87,937.89Z"/><path class="cls-14" d="M817.46,1004.94s-7.65-.36-18.74-1.5c9.37-13.2,11.42-32.92,11.74-44.5,5.34,1.85,10.93,3.64,16.76,5.33C827.22,964.27,833.17,992.45,817.46,1004.94Z"/><circle class="cls-3" cx="690.78" cy="667.66" r="56.39" transform="translate(-111.17 1196.64) rotate(-77.43)"/><path class="cls-8" d="M637.42,702.36s-35.79-24.4-19-86.22,46.09-37.41,46.09-37.41,29.28-25,78.09-10.3l-11.39,15.72s91,17.62,78.35,52.19-48.39,18.71-56.93,13.42l8.54,31.72-59-65.88L699,638.37l-22.78-15S638.51,676.47,637.42,702.36Z"/><path class="cls-11" d="M668.87,940.39l-15.16,3.35L524.09,972.41s-40.67,14.08-26.58-73.76S521.91,777.2,546.31,743c0,0,80.82,15.16,34.17,142L647.76,883l18.93-.59S698.15,914.92,668.87,940.39Z"/><path class="cls-14" d="M668.87,940.39l-15.16,3.35c6.28-21.76-1-47.37-6-60.77l18.93-.59S698.15,914.92,668.87,940.39Z"/><rect class="cls-7" x="560.37" y="886.56" width="37.6" height="3.25" transform="translate(-451.46 1137.39) rotate(-70.49)"/><circle class="cls-3" cx="657.01" cy="653.49" r="18.65"/><path class="cls-8" d="M1257.55,1085.82a12.17,12.17,0,0,0,11.85-9.51l36.9-167.5a12.15,12.15,0,0,0-23.72-5.29L1245.67,1071a12.15,12.15,0,0,0,11.88,14.8Z"/><path class="cls-8" d="M1301.32,917.15a12.14,12.14,0,0,0,4.4-14.54l-51.44-127.76a12.15,12.15,0,1,0-22.55,9.06l51.43,127.75a12.11,12.11,0,0,0,18.16,5.49Z"/><path class="cls-8" d="M1140.42,814.3a11.49,11.49,0,0,0,1.13,2.43,12.12,12.12,0,0,0,11.93,5.77,12.68,12.68,0,0,0,2.32-.51l91.35-30.47a12.16,12.16,0,0,0-7.71-23.07l-74,24.68-17.37,5.79A12.17,12.17,0,0,0,1140.42,814.3Z"/><path class="cls-4" d="M1140.42,814.3a11.49,11.49,0,0,0,1.13,2.43,12.12,12.12,0,0,0,11.93,5.77l17.37-5.79a12.15,12.15,0,0,0-5.39-23.58l-17.37,5.79A12.17,12.17,0,0,0,1140.42,814.3Z"/><path class="cls-4" d="M1066.38,805.55,1152.6,873a55.64,55.64,0,0,0,5.94-9.37,54.74,54.74,0,0,0-84.47-66.07A53.78,53.78,0,0,0,1066.38,805.55Z"/><path class="cls-11" d="M1066.38,805.55,1152.6,873a55.64,55.64,0,0,0,5.94-9.37l-84.47-66.07A53.78,53.78,0,0,0,1066.38,805.55Z"/><circle class="cls-4" cx="1243.17" cy="782.33" r="18.76"/><circle class="cls-4" cx="1294.74" cy="905.41" r="18.76"/><path class="cls-4" d="M1205.64,1085.82h117c0-27.27-26.21-49.38-58.53-49.38S1205.64,1058.55,1205.64,1085.82Z"/><rect class="cls-8" x="315.2" y="1086.81" width="1038.54" height="23.3"/><polygon class="cls-8" points="434.96 1098.44 249.72 1667.28 237.49 1667.28 423.89 1094.82 434.96 1098.44"/><polygon class="cls-8" points="651.35 1667.28 639.12 1667.28 453.88 1098.44 464.95 1094.82 651.35 1667.28"/><polygon class="cls-8" points="1210.18 1098.44 1024.94 1667.28 1012.71 1667.28 1199.11 1094.82 1210.18 1098.44"/><polygon class="cls-8" points="1426.57 1667.28 1414.34 1667.28 1229.1 1098.44 1240.17 1094.82 1426.57 1667.28"/><path class="cls-4" d="M390.16,1418.76c-8.53-10.46-13.73-57.67,31-60.27,38.67-2.24,68.72,41,41.58,105.1,0,0-17.9-28.3-40.42-31.76C403.57,1428.94,397.65,1427.93,390.16,1418.76Z"/><path class="cls-4" d="M386.69,1338.9s-18.92-31.08,7.5-47.54,82.22,3.46,85.93,67.56c0,0-32.89-16-49.67-12.56S395.93,1352.62,386.69,1338.9Z"/><path class="cls-4" d="M226.58,1198.24s48,9.87,69.87,11.26c27.14,1.74,91.24,16.46,64.39,91,0,0-15.3,35.52-64.39,26s-49.75-55.47-50.82-73.63C243.9,1223.36,226.58,1198.24,226.58,1198.24Z"/><path class="cls-4" d="M226.58,1375.34s33.85,19.15,71.95,19c41.63-.22,59.29,50.35,34.67,67.91S255.45,1499,226.58,1375.34Z"/><path class="cls-8" d="M364.59,1582.55a1.74,1.74,0,0,1-1.72-1.52c-.19-1.56-19.6-156.73-15-211.71,5-60.07-15.45-109.72-52.12-126.48a1.73,1.73,0,0,1,1.44-3.15c38,17.38,59.26,68.37,54.14,129.92-4.56,54.62,14.8,209.43,15,211a1.72,1.72,0,0,1-1.5,1.93Z"/><path class="cls-8" d="M382.49,1582.55a1.73,1.73,0,0,1-1.69-1.38c-1.37-6.48-33.23-159.17,4.43-194,7.68-7.09,17.71-8.86,29.81-5.27a1.73,1.73,0,1,1-1,3.32c-11-3.26-19.66-1.79-26.47,4.49-36.23,33.47-3.72,189.13-3.39,190.7a1.73,1.73,0,0,1-1.34,2A1.47,1.47,0,0,1,382.49,1582.55Z"/><path class="cls-8" d="M347.85,1586.3h0a1.73,1.73,0,0,1-1.7-1.77c0-1.11,2.28-111.28-23.72-136.44a1.73,1.73,0,1,1,2.41-2.49c27.08,26.21,24.89,134.42,24.78,139A1.73,1.73,0,0,1,347.85,1586.3Z"/><path class="cls-8" d="M360.84,1586.3h0a1.73,1.73,0,0,1-1.68-1.78c0-1,2.36-98.38-17.26-164.9-10.21-34.64-1.94-68.73,21.59-89,21.37-18.4,50.37-21.13,79.56-7.51a1.73,1.73,0,0,1-1.47,3.14c-27.89-13-55.53-10.47-75.83,7-22.48,19.34-30.35,52-20.52,85.36,19.77,67.06,17.42,165,17.39,166A1.72,1.72,0,0,1,360.84,1586.3Z"/><polygon class="cls-8" points="295.09 1553.08 440.82 1553.08 424.29 1667.28 311.44 1667.28 295.09 1553.08"/><rect class="cls-14" x="813.41" y="1065.02" width="160.95" height="21.79" transform="translate(1787.76 2151.83) rotate(180)"/><polygon class="cls-4" points="911.64 1086.81 1103.27 1086.81 1153.32 922.14 962.92 918.1 911.64 1086.81"/><circle class="cls-15" cx="1043.92" cy="1002.45" r="19.06"/><circle class="cls-4" cx="1413.83" cy="506.2" r="86.65" transform="translate(56.17 1147.99) rotate(-45)"/><circle class="cls-4" cx="1158.5" cy="419.06" r="86.65" transform="translate(43 941.92) rotate(-45)"/><circle class="cls-4" cx="979.7" cy="603.27" r="86.65" transform="translate(-139.63 869.44) rotate(-45)"/><rect class="cls-15" x="941.09" y="595.05" width="17.55" height="41.44"/><rect class="cls-15" x="969.02" y="585.56" width="17.55" height="50.93"/><rect class="cls-15" x="996.95" y="574.9" width="17.55" height="61.59"/><path class="cls-15" d="M1210.77,414.7h-48.85V365.82A48.86,48.86,0,0,1,1210.77,414.7Z"/><path class="cls-15" d="M1203.93,423.53a48.85,48.85,0,1,1-48.85-48.89v48.89Z"/><rect class="cls-15" x="1357.44" y="492.67" width="31.7" height="31.7" rx="4.78"/><rect class="cls-15" x="1397.4" y="492.67" width="31.7" height="31.7" rx="4.78"/><rect class="cls-15" x="1438.52" y="492.67" width="31.7" height="31.7" rx="4.78"/><g class="cls-16"><path class="cls-8" d="M1695.15,1060.73H1622V997.42h73.17Zm-72.38-.8h71.58V998.22h-71.58Z"/><path class="cls-8" d="M1695.15,1129.22H1622v-63.31h73.17Zm-72.38-.8h71.58v-61.71h-71.58Z"/><path class="cls-8" d="M1773.42,1060.72h-73.16V997.41h73.16Zm-72.37-.8h71.58V998.21h-71.58Z"/><path class="cls-8" d="M1773.42,1129.2h-73.16v-63.3h73.16Zm-72.37-.79h71.58v-61.72h-71.58Z"/></g><g class="cls-16"><path class="cls-8" d="M991.46,1342.27H951.87V1308h39.59Zm-39.16-.43H991v-33.4H952.3Z"/><path class="cls-8" d="M991.46,1379.33H951.87v-34.26h39.59Zm-39.16-.43H991v-33.4H952.3Z"/><path class="cls-8" d="M1033.81,1342.26H994.22V1308h39.59Zm-39.16-.43h38.73v-33.39H994.65Z"/><path class="cls-8" d="M1033.81,1379.32H994.22v-34.25h39.59Zm-39.16-.43h38.73V1345.5H994.65Z"/></g><g class="cls-16"><path class="cls-8" d="M344.33,929.51H271.16v-63.3h73.17ZM272,928.72h71.58V867H272Z"/><path class="cls-8" d="M344.33,998H271.16V934.69h73.17ZM272,997.2h71.58V935.49H272Z"/><path class="cls-8" d="M422.6,929.5H349.44V866.2H422.6Zm-72.37-.79h71.58V867H350.23Z"/><path class="cls-8" d="M422.6,998H349.44V934.68H422.6Zm-72.37-.8h71.58V935.48H350.23Z"/></g><path class="cls-3" d="M1457,1522.27l-9.43,106.23,33-.89L1504.51,1521S1467.12,1509.47,1457,1522.27Z"/><path class="cls-3" d="M1633.1,1517.5l14.7,105.62,32-8.29-.64-109.27S1640.14,1502.74,1633.1,1517.5Z"/><path class="cls-3" d="M1385.69,790.65s-14.08-23.91-15.81-29.14c-8.32-25.2-26.38-49.39-40.07-55.54S1341,738.74,1341,738.74s5.73,10.56.38,14.27c-2.34,1.63-28.11,15.71-11.46,30.12s25.25,22.87,27.59,29.32C1357.47,812.45,1383.8,813.5,1385.69,790.65Z"/><path class="cls-5" d="M1613,1239.5c-44,67.32-105.79,286.94-105.79,286.94-29.8,9.82-53.29,1.43-53.29,1.43-1.56-78.06,28.22-299.26,46.09-424.17,1.09-7.66,2.12-15,3.11-21.85,5.91-40.71,9.9-66.79,9.9-66.79l100.64-2.7S1657,1172.18,1613,1239.5Z"/><path class="cls-17" d="M1560.23,1011.67s7.79,239.11,71.53,524c0,0,25.6,8.92,52-8,0,0,10.22-184.64,12-291.92,1.26-77-18.68-225.12-18.68-225.12Z"/><path class="cls-4" d="M1497.32,1607.72s.45,16.7-1,36.25c-.74,10.43-2.08,18.88-4.51,20.18l-128.19,3.44a24,24,0,0,1,6.65-23c12-11.62,30.22-17.84,43.86-18.21,28-.75,28.92-17.84,28.92-17.84l26.63,9.08Z"/><path class="cls-14" d="M1441.41,1609.22s18.63,30.07,55.84,1.51c0,0,3.53-14.1-9.18-11.52,0,0-2.45,11.34-16,12S1449,1600,1449,1600,1439.31,1599.75,1441.41,1609.22Z"/><path class="cls-4" d="M1689.5,1602.33s.45,16.7-1,36.25c-.74,10.42-2.08,18.87-4.51,20.17l-128.18,3.44a24,24,0,0,1,6.64-23c12-11.62,30.22-17.84,43.86-18.21,28-.75,28.92-17.84,28.92-17.84l26.61,8.32Z"/><path class="cls-14" d="M1633.59,1603.82s18.63,30.07,55.84,1.51c0,0,3.53-14.1-9.18-11.52,0,0-2.45,11.34-16,12s-23.1-11.14-23.1-11.14S1631.5,1594.35,1633.59,1603.82Z"/><path class="cls-8" d="M1587.32,1291.44a1.51,1.51,0,0,1-1.52-1.22c-.24-1.33-24.67-133.33-24.14-169.16a1.49,1.49,0,0,1,1.53-1.48,1.51,1.51,0,0,1,1.48,1.53c-.53,35.53,23.84,167.23,24.09,168.56a1.51,1.51,0,0,1-1.21,1.75Z"/><path class="cls-8" d="M1659.57,1529.84h-.16a1.51,1.51,0,0,1-1.38-1.62c.15-1.88,14.87-188.49,14-230.84s-22.73-196-23-197.51a1.5,1.5,0,1,1,3-.42c.22,1.54,22.13,155.35,23,197.87s-13.89,229.26-14,231.14A1.5,1.5,0,0,1,1659.57,1529.84Z"/><path class="cls-3" d="M1631.16,783.65c.38,15.08-10.84,19.38-22.77,19.7s-20.08-3.46-20.49-18.54l-.62-13.09-1.93-41.56,43.26-1.16.56,11.86Z"/><g class="cls-9"><path class="cls-10" d="M1629.17,740.86c-10,14.49-23.79,27.79-41.89,30.86l-1.93-41.56,43.26-1.16Z"/></g><path class="cls-18" d="M1516,791.91A77.38,77.38,0,0,0,1504.33,805c-26.07,36.78-54.48,70.61-54.48,70.61L1382.44,772l-39.83,28.37s69,133.44,86,153.27,88.91-47.48,88.91-47.48,21.22-40.4,1.66-101.51Z"/><path class="cls-18" d="M1682.35,1028.7s-124.93,18.39-169.67-5.46c0,0,5.17-143.44,4.34-174.48s-1-56.85-1-56.85c17-15.1,39.45-18.62,52.24-19.32,6.19-.32,18.12-5.55,18.12-5.55,10.16,28.48,43,16.56,44.29-1.76,4.46.36,20.59,7.22,24.69,8.46,20.12,6.19,34.89,21,34.89,21S1678,971.7,1682.35,1028.7Z"/><path class="cls-18" d="M1684,789.67s39.8,23.22,83,150.58c0,0,19,35.56-23,74.77s-84.2,73.91-84.2,73.91l-28.21-24.29,83-98.43-41.36-47.5S1662.67,793.77,1684,789.67Z"/><polygon class="cls-5" points="1634.04 1045.53 1677.28 1088.46 1664.59 1100.83 1619.87 1058.94 1634.04 1045.53"/><path class="cls-5" d="M1541.82,1062.54s-16,32.53-41.86,41.16c1.09-7.66,2.12-15,3.11-21.85,9.12-7.67,21.17-20,23.82-33.43Z"/><path class="cls-8" d="M1682.36,948a1.49,1.49,0,0,1-1.53-1.38c0-.42-3.28-41.95-1.92-71.3a1.5,1.5,0,0,1,1.57-1.43,1.51,1.51,0,0,1,1.44,1.57c-1.36,29.17,1.87,70.51,1.9,70.92a1.5,1.5,0,0,1-1.38,1.62Z"/><path class="cls-3" d="M1608.08,745.85h0A51.72,51.72,0,0,1,1555,695.54l-1.39-51.7L1657,641.07l1.39,51.69A51.72,51.72,0,0,1,1608.08,745.85Z"/><path class="cls-8" d="M1626.68,701.38s13.8,10.15,17.48-20.76,53.83-10.84,12.45,15.82c0,0,2,17.61-10.95,25.85S1623.85,707.85,1626.68,701.38Z"/><path class="cls-8" d="M1559,659.23s-28.58-19.27-17.61-58.65,49.87.66,92.44,4.78,64.39,60.65,28.86,109c0,0-29.66,15.07-30.94-14s-1.07-40.06-1.07-40.06S1573.22,664.86,1559,659.23Z"/></g></g></svg>