<svg id="Layer_1" data-name="Layer 1" xmlns="http://www.w3.org/2000/svg" viewBox="0 0 2100 2100"><defs><style>.cls-1{fill:#edf2f9;}.cls-2{fill:#c6ddff;}.cls-3{fill:#97bff7;}.cls-4{fill:#8dbffc;}.cls-5{fill:#013bff;}.cls-6{fill:#007aff;}.cls-7{fill:#192684;}.cls-8{fill:#ef4923;}.cls-9{fill:#f3c04c;}.cls-10{fill:#499d75;}.cls-11{fill:#fff;}.cls-12{fill:#f8b91e;}.cls-13{fill:#98bef7;}.cls-14{fill:#ec6639;}.cls-15{fill:#cadcfc;}.cls-16{fill:#3478f6;}.cls-17{fill:#2253f6;}.cls-18{fill:#fac896;}.cls-19{fill:#e52822;}.cls-20{fill:#ed5858;}.cls-21{fill:#b01f1a;}.cls-22{fill:#dfccc3;}.cls-23{fill:#f39c55;}.cls-24{fill:#f97700;}.cls-25{fill:#e62822;}.cls-26{fill:#231f20;}.cls-27{fill:#f74000;}.cls-28{fill:#129f72;}.cls-29{fill:#017643;}.cls-30{fill:#037a4a;}.cls-31{fill:#ce3a2f;}.cls-32{fill:#fcbc2e;}.cls-33{fill:#e87c30;}.cls-34{fill:#2355f5;}.cls-35{fill:#55312f;}</style></defs><g id="Web_development" data-name="Web development"><g id="background"><path id="Path_121" data-name="Path 121" class="cls-1" d="M1539.85,1057.46c-145.11-94.61-172.94-538.62-537.17-464.3s-83,333-458.2,396.94C516.29,994.91,467.61,980,424.9,1131s-51.26,462.83-51.26,462.83H1726.7S1714.66,1312,1668,1178,1561.18,1071.37,1539.85,1057.46Z"/><path id="Path_122" data-name="Path 122" class="cls-2" d="M1562.52,1380.91c-169.8-66.54-376-39.83-550.71-28.57C971,1355,930,1356.17,889.16,1354c-35.24-1.9-70.21-7.66-105.18-13-82.63-12.62-167.25-7.93-248.38,21.54-17.1,6.21-34.66,13.17-50,24.41-10.45,7.68-18,24-12.82,41,6,19.94,18.86,30.33,34.72,37,16.62,7,34.16,10.21,51.69,11.76,35.64,3.14,71.34,0,107,1.83,22.28,1.16,44.85,2.09,67.06,4.5,18.09,2,44.77,4.1,57.29,22.45,9.92,14.55,5.76,35.19-6.09,46.1-15,13.85-34.77,19.49-52.17,27.69-7.43,3.5-17,8-24.7,14.55h849.91c-1.14-13.88-7-27.42-9.12-41-4.35-27.33,13.46-46,30.15-61,14.63-13.12,34.92-39.42,29.21-65.87C1601.45,1396.74,1584.86,1389.67,1562.52,1380.91Z"/><path id="Path_2212" data-name="Path 2212" class="cls-3" d="M741.8,1380H1299a9.37,9.37,0,0,1,9.36,9.37v12.44a9.36,9.36,0,0,1-9.36,9.36H741.8a9.36,9.36,0,0,1-9.36-9.36h0v-12.44A9.37,9.37,0,0,1,741.8,1380Z"/></g><g id="plant"><path id="Path_123" data-name="Path 123" class="cls-4" d="M532.12,1107.13c0,.67,1.68,7.38,1.68,11.42s-15.83,22.16-5.23,34.25,10.26,15.44,7.91,25.52-3.69,15.78,5.37,24.18c5.53,5.11,11.42,13.83,15.48,20.86,0,.09,9.62,34.28,7.36,53.35.5.51,4.47.22,4.47.22S568.38,1142.05,532.12,1107.13Z"/><path id="Path_124" data-name="Path 124" class="cls-4" d="M564.69,1276.71s9.89-158.92,31.39-174c-.83.11,1.24,18.13,1.47,19.57.8,5,3,9.66,3.51,14.82s.7,10.48-.64,15.44a13.65,13.65,0,0,1-3.85,6.37c-2,2.14-2.72,5.21-3.17,8-.82,5-1.12,10.17.1,15.08,1.35,5.4,2.13,9.34.15,14.68a29.2,29.2,0,0,1-9.16,12.57c-9.22,7.3-13.25,40.24-14,67.72C570.48,1277.21,564.69,1276.71,564.69,1276.71Z"/><path id="Path_125" data-name="Path 125" class="cls-4" d="M568,1274.19s-44.83-91.93-71.52-111.32c-.25-.5,3,8.06,0,16.88s-1.51,28.71,14.6,34.75,14.11,14.86,17.63,23.68,16.63,6.55,23.18,14.6,12.84,23.93,12.84,23.93Z"/><path id="Path_126" data-name="Path 126" class="cls-4" d="M561.21,1286.38s52-104.63,83-126.7c.29-.58-3.51,9.17,0,19.2s1.75,32.68-17,39.56-16.36,16.91-20.45,27-19.29,7.45-26.88,16.62-14.9,27.23-14.9,27.23Z"/><path id="Path_127" data-name="Path 127" class="cls-5" d="M580,1379.75H556.07a21.43,21.43,0,0,1-21.29-19l-9.8-84h86.09l-9.8,84A21.43,21.43,0,0,1,580,1379.75Z"/><path id="Path_2214" data-name="Path 2214" class="cls-6" d="M525.9,1272.08h84.25a3.85,3.85,0,0,1,3.86,3.85h0v5.13a3.86,3.86,0,0,1-3.86,3.86H525.9a3.86,3.86,0,0,1-3.86-3.86v-5.12a3.86,3.86,0,0,1,3.86-3.86Z"/></g><g id="element"><path id="Path_128" data-name="Path 128" class="cls-7" d="M612,1060.48a11.18,11.18,0,0,1-2.88-.4,10.64,10.64,0,0,1-2.36-19.51,10.52,10.52,0,0,1,8.08-1,10.64,10.64,0,0,1-2.84,20.89Zm0-19.12a8.46,8.46,0,0,0-8.15,6.2h0a8.48,8.48,0,1,0,8.15-6.2Z"/><g id="Group_36" data-name="Group 36"><g id="Group_26" data-name="Group 26"><path id="Path_129" data-name="Path 129" class="cls-8" d="M875.85,677.63a9.81,9.81,0,1,1,9.81-9.81A9.82,9.82,0,0,1,875.85,677.63Zm0-16.54a6.73,6.73,0,1,0,6.73,6.73,6.74,6.74,0,0,0-6.73-6.73Z"/></g><g id="Group_27" data-name="Group 27"><path id="Path_130" data-name="Path 130" class="cls-9" d="M869.12,623.8a9.81,9.81,0,1,1,9.81-9.8A9.81,9.81,0,0,1,869.12,623.8Z"/></g><g id="Group_35" data-name="Group 35"><g id="Group_30" data-name="Group 30"><g id="Group_28" data-name="Group 28"><path id="Path_131" data-name="Path 131" class="cls-9" d="M915,625.87a1.54,1.54,0,0,1-1.54-1.53v-6.78a1.54,1.54,0,0,1,3.08,0v6.78A1.54,1.54,0,0,1,915,625.87Z"/></g><g id="Group_29" data-name="Group 29"><path id="Path_132" data-name="Path 132" class="cls-9" d="M915,637.74a1.53,1.53,0,0,1-1.54-1.53v-6.79a1.54,1.54,0,0,1,3.08,0v6.79A1.53,1.53,0,0,1,915,637.74Z"/></g></g><g id="Group_34" data-name="Group 34"><g id="Group_32" data-name="Group 32"><g id="Group_31" data-name="Group 31"><path id="Path_133" data-name="Path 133" class="cls-9" d="M924.52,628.42h-6.09a1.54,1.54,0,0,1,0-3.08h6.09a1.54,1.54,0,0,1,0,3.08Z"/></g></g><g id="Group_33" data-name="Group 33"><path id="Path_134" data-name="Path 134" class="cls-9" d="M911.57,628.42h-6.09a1.54,1.54,0,0,1-1.54-1.54h0a1.54,1.54,0,0,1,1.54-1.54h6.09a1.54,1.54,0,0,1,1.54,1.54h0a1.54,1.54,0,0,1-1.54,1.54Z"/></g></g></g></g><g id="Group_47" data-name="Group 47"><g id="Group_37" data-name="Group 37"><path id="Path_135" data-name="Path 135" class="cls-10" d="M1251.13,1443.72a10.12,10.12,0,1,1,9.65-10.11A9.9,9.9,0,0,1,1251.13,1443.72Z"/></g><g id="Group_38" data-name="Group 38"><path id="Path_136" data-name="Path 136" class="cls-11" d="M1244.51,1388.21a10.12,10.12,0,1,1,9.65-10.11A9.89,9.89,0,0,1,1244.51,1388.21Zm0-17a6.95,6.95,0,1,0,6.63,6.94A6.79,6.79,0,0,0,1244.51,1371.16Z"/></g><g id="Group_46" data-name="Group 46"><g id="Group_41" data-name="Group 41"><g id="Group_39" data-name="Group 39"><path id="Path_137" data-name="Path 137" class="cls-11" d="M1289.64,1390.35a1.55,1.55,0,0,1-1.51-1.59h0v-7a1.55,1.55,0,0,1,1.51-1.59h0a1.55,1.55,0,0,1,1.52,1.59h0v7a1.56,1.56,0,0,1-1.51,1.59Z"/></g><g id="Group_40" data-name="Group 40"><path id="Path_138" data-name="Path 138" class="cls-11" d="M1289.64,1402.59a1.55,1.55,0,0,1-1.51-1.59h0v-7a1.55,1.55,0,0,1,1.51-1.59h0a1.55,1.55,0,0,1,1.52,1.59h0v7a1.55,1.55,0,0,1-1.51,1.59Z"/></g></g><g id="Group_45" data-name="Group 45"><g id="Group_43" data-name="Group 43"><g id="Group_42" data-name="Group 42"><path id="Path_139" data-name="Path 139" class="cls-11" d="M1299,1393h-6a1.55,1.55,0,0,1-1.52-1.59h0a1.55,1.55,0,0,1,1.51-1.59h6a1.55,1.55,0,0,1,1.52,1.58h0A1.55,1.55,0,0,1,1299,1393Z"/></g></g><g id="Group_44" data-name="Group 44"><path id="Path_140" data-name="Path 140" class="cls-11" d="M1286.27,1393h-6a1.55,1.55,0,0,1-1.52-1.59h0a1.55,1.55,0,0,1,1.51-1.59h6a1.55,1.55,0,0,1,1.52,1.58h0a1.55,1.55,0,0,1-1.52,1.59Z"/></g></g></g></g><path id="Path_141" data-name="Path 141" class="cls-12" d="M1547.75,912a15.08,15.08,0,1,1,14.57-19h0a15.1,15.1,0,0,1-10.69,18.47A14.92,14.92,0,0,1,1547.75,912Zm0-27.29a12.36,12.36,0,0,0-3.14.41,12.22,12.22,0,1,0,3.14-.41Z"/><path id="Path_142" data-name="Path 142" class="cls-10" d="M1539.09,1064.12a9.36,9.36,0,1,1,9.06-11.76h0a9.34,9.34,0,0,1-6.63,11.44A9.06,9.06,0,0,1,1539.09,1064.12Z"/><path id="Path_143" data-name="Path 143" class="cls-1" d="M1524,557.9v-.46c0-30.47-25.31-55.17-56.52-55.17a56.7,56.7,0,0,0-50.07,29.53,28.72,28.72,0,0,0-15.91-4.74c-15.54,0-28.14,12.12-28.14,27.08v.27c-16,7.16-27.14,22.72-27.14,40.77,0,24.83,21,45,47,45a49,49,0,0,0,6.06-.37h110.62c.62-.08,1.25-.14,1.88-.2,2.16-.18,4.46-.09,6.55-.73v-.2c22.49-2.73,39.83-20,39.83-40.88C1558.15,578.66,1543.66,562.61,1524,557.9Z"/><path id="Path_144" data-name="Path 144" class="cls-13" d="M626.42,739.24v-.31c0-20.22-16.79-36.61-37.51-36.61a37.59,37.59,0,0,0-33.22,19.6,19.06,19.06,0,0,0-10.56-3.15c-10.32,0-18.68,8.05-18.68,18a1.09,1.09,0,0,0,0,.18,29.79,29.79,0,0,0-18,27.06c0,16.48,13.95,29.84,31.17,29.84a31.83,31.83,0,0,0,4-.25h73.41l1.25-.13a21.23,21.23,0,0,0,4.35-.48v-.14c14.92-1.81,26.43-13.26,26.43-27.13C649.08,753,639.47,742.36,626.42,739.24Z"/><g id="carpet"><path id="Path_145" data-name="Path 145" class="cls-4" d="M809.36,1494.81l51.88-69.47h321.37l-45.84,69.47Z"/><g id="Group_61" data-name="Group 61"><g id="Group_48" data-name="Group 48"><path id="Path_146" data-name="Path 146" class="cls-11" d="M873.66,1443.72a1.24,1.24,0,0,1-.64-.18,1.21,1.21,0,0,1-.38-1.67h0l10.74-17.17a1.21,1.21,0,0,1,2.06,1.28l-10.75,17.17A1.2,1.2,0,0,1,873.66,1443.72Z"/></g><g id="Group_49" data-name="Group 49"><path id="Path_147" data-name="Path 147" class="cls-11" d="M872.18,1474.53a1.12,1.12,0,0,1-.64-.19,1.19,1.19,0,0,1-.38-1.66l30-48a1.21,1.21,0,0,1,2.05,1.28h0l-30,48A1.22,1.22,0,0,1,872.18,1474.53Z"/></g><g id="Group_50" data-name="Group 50"><path id="Path_148" data-name="Path 148" class="cls-11" d="M912.79,1443.72a1.25,1.25,0,0,1-.65-.18,1.22,1.22,0,0,1-.38-1.67l10.75-17.17a1.21,1.21,0,0,1,2,1.28l-10.75,17.17A1.19,1.19,0,0,1,912.79,1443.72Z"/></g><g id="Group_51" data-name="Group 51"><path id="Path_149" data-name="Path 149" class="cls-11" d="M917.1,1474.53a1.17,1.17,0,0,1-.65-.19,1.2,1.2,0,0,1-.38-1.66l30-48a1.21,1.21,0,0,1,2,1.28l-30,48A1.22,1.22,0,0,1,917.1,1474.53Z"/></g><g id="Group_52" data-name="Group 52"><path id="Path_150" data-name="Path 150" class="cls-11" d="M957.7,1443.72a1.19,1.19,0,0,1-.64-.18,1.22,1.22,0,0,1-.39-1.67l10.75-17.17a1.21,1.21,0,0,1,2.05,1.28l-10.74,17.17A1.2,1.2,0,0,1,957.7,1443.72Z"/></g><g id="Group_53" data-name="Group 53"><path id="Path_151" data-name="Path 151" class="cls-11" d="M963.07,1474.53a1.14,1.14,0,0,1-.64-.19,1.19,1.19,0,0,1-.38-1.66l30-48a1.21,1.21,0,0,1,2.06,1.28h0l-30,48A1.22,1.22,0,0,1,963.07,1474.53Z"/></g><g id="Group_54" data-name="Group 54"><path id="Path_152" data-name="Path 152" class="cls-11" d="M1003.67,1443.72a1.2,1.2,0,0,1-1-1.85l10.75-17.17a1.21,1.21,0,0,1,2.05,1.28l-10.75,17.17A1.2,1.2,0,0,1,1003.67,1443.72Z"/></g><g id="Group_55" data-name="Group 55"><path id="Path_153" data-name="Path 153" class="cls-11" d="M1008,1474.53a1.12,1.12,0,0,1-.64-.19,1.2,1.2,0,0,1-.39-1.66l30-48a1.21,1.21,0,0,1,2,1.28l-30,48A1.18,1.18,0,0,1,1008,1474.53Z"/></g><g id="Group_56" data-name="Group 56"><path id="Path_154" data-name="Path 154" class="cls-11" d="M1048.59,1443.72a1.2,1.2,0,0,1-1-1.85l10.74-17.17a1.21,1.21,0,0,1,2,1.28l-10.74,17.17A1.2,1.2,0,0,1,1048.59,1443.72Z"/></g><g id="Group_57" data-name="Group 57"><path id="Path_155" data-name="Path 155" class="cls-11" d="M1052.9,1474.53a1.14,1.14,0,0,1-.64-.19,1.19,1.19,0,0,1-.38-1.66l30-48A1.21,1.21,0,0,1,1084,1426l-30,48A1.22,1.22,0,0,1,1052.9,1474.53Z"/></g><g id="Group_58" data-name="Group 58"><path id="Path_156" data-name="Path 156" class="cls-11" d="M1093.51,1443.72a1.19,1.19,0,0,1-.64-.18,1.22,1.22,0,0,1-.39-1.67h0l10.75-17.17a1.21,1.21,0,0,1,2,1.28l-10.75,17.17A1.19,1.19,0,0,1,1093.51,1443.72Z"/></g><g id="Group_59" data-name="Group 59"><path id="Path_157" data-name="Path 157" class="cls-11" d="M1097.82,1474.53a1.12,1.12,0,0,1-.64-.19,1.2,1.2,0,0,1-.39-1.66l30-48a1.21,1.21,0,0,1,2,1.28l-30,48A1.22,1.22,0,0,1,1097.82,1474.53Z"/></g><g id="Group_60" data-name="Group 60"><path id="Path_158" data-name="Path 158" class="cls-11" d="M1138.42,1443.72a1.19,1.19,0,0,1-.64-.18,1.2,1.2,0,0,1-.38-1.67h0l10.74-17.17a1.21,1.21,0,0,1,2,1.28h0l-10.74,17.17A1.2,1.2,0,0,1,1138.42,1443.72Z"/></g></g></g><g id="HTML"><path id="Path_159" data-name="Path 159" class="cls-3" d="M1264.34,1485.92l184.19-36.59,25.52,60.09s-183.35,35.6-185.36,45C1289.36,1555.76,1264.34,1485.92,1264.34,1485.92Z"/><path id="Path_160" data-name="Path 160" class="cls-14" d="M1266.32,1478.07l180.06-40.5,23.1,62.69-176.43,49.46Z"/><g id="Group_62" data-name="Group 62"><path id="Path_161" data-name="Path 161" class="cls-11" d="M1291.43,1495.66l10-2.74,4.11,11.59,10.92-3-4.12-11.58,10-2.75,11.76,33.11-10,2.75-4.76-13.39-10.91,3,4.75,13.4-10,2.74Z"/><path id="Path_162" data-name="Path 162" class="cls-11" d="M1326.75,1486l30.37-8.33,2.91,8.18-10.2,2.79,8.86,24.94-10,2.74-8.86-24.94-10.19,2.8Z"/><path id="Path_163" data-name="Path 163" class="cls-11" d="M1361.53,1476.44l13.14-3.6,12.23,18.76-2.13-21.53,13.14-3.6,11.76,33.11-8.18,2.24-9-25.25,2.66,27-7.4,2-15.27-23.53,9,25.25-8.18,2.25Z"/><path id="Path_164" data-name="Path 164" class="cls-11" d="M1404.28,1464.72l10-2.74,8.87,25,15.59-4.28,2.9,8.16-25.59,7Z"/></g></g></g><g id="computer"><path id="Path_2211" data-name="Path 2211" class="cls-7" d="M678,794.74h696.11a14.65,14.65,0,0,1,14.64,14.64v490.77a14.64,14.64,0,0,1-14.64,14.64H678a14.64,14.64,0,0,1-14.65-14.64V809.38A14.65,14.65,0,0,1,678,794.74Z"/><path id="Path_2210" data-name="Path 2210" class="cls-1" d="M693.86,814.57h665.56a7.9,7.9,0,0,1,7.9,7.9h0v411.6a7.9,7.9,0,0,1-7.9,7.9H693.86a7.9,7.9,0,0,1-7.9-7.9h0V822.47a7.9,7.9,0,0,1,7.9-7.9Z"/><path id="Path_2209" data-name="Path 2209" class="cls-15" d="M796.62,1011.76H903a5.77,5.77,0,0,1,5.77,5.77v195a5.77,5.77,0,0,1-5.77,5.77H796.62a5.77,5.77,0,0,1-5.77-5.77h0v-195A5.77,5.77,0,0,1,796.62,1011.76Z"/><path id="Path_2208" data-name="Path 2208" class="cls-15" d="M796.62,868.71h457.92a5.77,5.77,0,0,1,5.77,5.77h0v91.21a5.77,5.77,0,0,1-5.77,5.77H796.62a5.77,5.77,0,0,1-5.77-5.77V874.48A5.77,5.77,0,0,1,796.62,868.71Z"/><g id="Group_63" data-name="Group 63"><path id="Path_2213" data-name="Path 2213" class="cls-7" d="M962.38,1264.59h132.77V1382.4H962.38Z"/><path id="Path_165" data-name="Path 165" class="cls-7" d="M1163.36,1399.78H888.63s4.16-30.9,137.47-30.9S1163.36,1399.78,1163.36,1399.78Z"/></g><path id="Path_2207" data-name="Path 2207" class="cls-11" d="M690.35,814.57h672.54a4.43,4.43,0,0,1,4.43,4.44h0v27H685.58V819.34a4.77,4.77,0,0,1,4.77-4.77Z"/><circle id="Ellipse_1" data-name="Ellipse 1" class="cls-16" cx="713.12" cy="830.29" r="8.58" transform="translate(-22.88 20.22) rotate(-1.6)"/><circle id="Ellipse_2" data-name="Ellipse 2" class="cls-13" cx="747.43" cy="830.29" r="8.58"/><path id="Ellipse_3" data-name="Ellipse 3" class="cls-15" d="M781.74,821.71a8.58,8.58,0,1,1-8.58,8.58A8.58,8.58,0,0,1,781.74,821.71Z"/></g><g id="girl"><g id="Object"><rect id="Rectangle_9" data-name="Rectangle 9" class="cls-16" x="961.11" y="1015.79" width="299.2" height="202.49" rx="2.89"/><g id="Group_65" data-name="Group 65"><path id="Path_210" data-name="Path 210" class="cls-9" d="M1091.51,1147.37l-55.63-23.08v-14.52l55.63-23.12V1104l-33.81,13,33.81,13Z"/><path id="Path_211" data-name="Path 211" class="cls-9" d="M1114.75,1080h10.17l-18,74.17h-10.07Z"/><path id="Path_212" data-name="Path 212" class="cls-9" d="M1129.91,1130.09l33.81-13-33.81-13v-17.38l55.63,23.12v14.52l-55.63,23.08Z"/></g></g><ellipse id="Ellipse_4" data-name="Ellipse 4" class="cls-3" cx="1358.68" cy="1425.44" rx="35.91" ry="5.91"/><path id="Ellipse_5" data-name="Ellipse 5" class="cls-3" d="M1516.07,1416.17c17.44,0,31.58,2.08,31.58,4.63s-14.14,4.64-31.58,4.64-31.57-2.08-31.57-4.64S1498.64,1416.17,1516.07,1416.17Z"/><path id="Path_166" data-name="Path 166" class="cls-16" d="M1451.21,1181.17l29.22-1.42a96.4,96.4,0,0,1,6,32.49c0,17.62-1,13.34-1.26,23.17s25.18,60.19,29.71,80.84c3.64,16.54,13.46,52.29,17.23,65.87a7.4,7.4,0,0,1-3.27,8.3h0a7.4,7.4,0,0,1-9.39-1.38c-15.81-17.74-71.65-83.27-77.77-130.4-7.14-55-7.89-57-7.89-57Z"/><path id="Path_167" data-name="Path 167" class="cls-7" d="M1515.19,1384.13s4,8.14.25,10.66-20.91,14.61-21.16,19.9.67,5.29,11.42,2.52,33.41-12.85,33.41-19.4-8.56-21.66-8.56-21.66Z"/><path id="Path_168" data-name="Path 168" class="cls-17" d="M1456.24,1229.4a12,12,0,0,1,2.57,9.48c-2.27,14.28-7.52,56.74,6.29,77.55.12.2-26.65-37.9-25.81-75.65C1439.92,1213,1450.62,1222.46,1456.24,1229.4Z"/><path id="Path_169" data-name="Path 169" class="cls-18" d="M1393.83,1043.92l18.19,32.47,22-16.43-24.47-32.26Z"/><path id="Path_170" data-name="Path 170" class="cls-18" d="M1370.49,1119.92a19.07,19.07,0,0,0-23.58-6.93c-21.64,9.52-60.73,26.21-71.49,27.47-9.57,1-39.54,3.27-37.27,17.63,2.77,6.8,5.86,8.16,30,6.29,35.61-2.76,69.19-9.9,91.15-15.41a19.09,19.09,0,0,0,11.22-29Z"/><path id="Path_171" data-name="Path 171" class="cls-19" d="M1374.56,1151.23l-14.71,44.25a2.89,2.89,0,0,0,.68,2.93c3.68,3.75,15.81,14.18,36.79,13.81a2.85,2.85,0,0,0,2.25-1.15c2.39-3.15,8.34-12.07,10.41-15.17a2.88,2.88,0,0,0,.38-2.35l-7.69-28.34a2,2,0,0,1-.05-.24l-4.49-24.88a2.88,2.88,0,0,0-3.35-2.33l-.11,0-16.82,3.7a2.88,2.88,0,0,0-2.24,2.43l-.93,6.8A2.44,2.44,0,0,1,1374.56,1151.23Z"/><g id="Group_64" data-name="Group 64"><path id="Path_172" data-name="Path 172" class="cls-20" d="M1370.74,1184.43l-2.06-2.06a1,1,0,0,0-1.39,1.39l2.06,2.06a1,1,0,1,0,1.39-1.39Z"/><path id="Path_173" data-name="Path 173" class="cls-20" d="M1369.35,1203.26a1,1,0,1,0,1.39-1.39l-2.06-2.06a1,1,0,0,0-1.39,1.39Z"/><path id="Path_174" data-name="Path 174" class="cls-20" d="M1378.9,1157.8h0a1,1,0,0,0-1.39,0l-2.06,2.06a1,1,0,0,0,0,1.39h0a1,1,0,0,0,1.39,0l2.06-2.07A1,1,0,0,0,1378.9,1157.8Z"/><path id="Path_175" data-name="Path 175" class="cls-20" d="M1378.9,1149.08a1,1,0,0,0-1.39,0l-2.06,2.06a1,1,0,0,0,0,1.38h0a1,1,0,0,0,1.39,0l2.06-2.06A1,1,0,0,0,1378.9,1149.08Z"/><path id="Path_176" data-name="Path 176" class="cls-20" d="M1370.74,1170a1,1,0,0,0,0-1.39l-1.46-1.46-.7,2.08.77.77A1,1,0,0,0,1370.74,1170Z"/><path id="Path_177" data-name="Path 177" class="cls-20" d="M1371.5,1175.71l-2.07-2.06a1,1,0,0,0-1.38,1.39l2.06,2.06a1,1,0,0,0,1.39-1.39Z"/><path id="Path_178" data-name="Path 178" class="cls-20" d="M1368.68,1191.09a1,1,0,0,0-1.39,1.39l2.06,2.06a1,1,0,1,0,1.39-1.39Z"/><path id="Path_179" data-name="Path 179" class="cls-20" d="M1375.61,1143.91l0,.14a1,1,0,0,0,.49-.25l2.06-2.06a.87.87,0,0,0,.22-.37l-.51.12A2.87,2.87,0,0,0,1375.61,1143.91Z"/><path id="Path_180" data-name="Path 180" class="cls-20" d="M1374.69,1177.1a1,1,0,0,0,1.39,0l2.06-2.07a1,1,0,0,0,0-1.38,1,1,0,0,0-1.39,0l-2.06,2.06a1,1,0,0,0,0,1.38Z"/><path id="Path_181" data-name="Path 181" class="cls-20" d="M1378.9,1166.52a1,1,0,0,0-1.39,0l-2.06,2.06a1,1,0,0,0,0,1.39h0a1,1,0,0,0,1.39,0l2.06-2.06A1,1,0,0,0,1378.9,1166.52Z"/><path id="Path_182" data-name="Path 182" class="cls-20" d="M1378.9,1191.09a1,1,0,0,0-1.39,0l-2.06,2.06a1,1,0,0,0,0,1.39h0a1,1,0,0,0,1.39,0l2.06-2.06A1,1,0,0,0,1378.9,1191.09Z"/><path id="Path_183" data-name="Path 183" class="cls-20" d="M1407.21,1182.37a1,1,0,0,0-1.39,0l-2.06,2.06a1,1,0,1,0,1.39,1.39l2.06-2.06a1,1,0,0,0,.26-.83l-.07-.28A.92.92,0,0,0,1407.21,1182.37Z"/><path id="Path_184" data-name="Path 184" class="cls-20" d="M1377.51,1199.81l-2.06,2.06a1,1,0,0,0,0,1.39h0a1,1,0,0,0,1.39,0l2.06-2.06a1,1,0,0,0-1.39-1.39Z"/><path id="Path_185" data-name="Path 185" class="cls-20" d="M1378.9,1182.37a1,1,0,0,0-1.39,0l-2.06,2.06a1,1,0,0,0,0,1.39h0a1,1,0,0,0,1.39,0l2.06-2.06A1,1,0,0,0,1378.9,1182.37Z"/><path id="Path_186" data-name="Path 186" class="cls-20" d="M1378.14,1206.94a1,1,0,0,0-1.39,0l-1.28,1.28c.65.27,1.3.54,2,.79l.68-.68a.93.93,0,0,0,.11-1.35A.09.09,0,0,0,1378.14,1206.94Z"/><path id="Path_187" data-name="Path 187" class="cls-20" d="M1397.67,1203.26a1,1,0,1,0,1.39-1.39l-2.07-2.06a1,1,0,0,0-1.38,1.39Z"/><path id="Path_188" data-name="Path 188" class="cls-20" d="M1405.15,1194.54l2.07-2.06a1,1,0,1,0-1.39-1.39l-2.06,2.06a1,1,0,0,0,1.38,1.39Z"/><path id="Path_189" data-name="Path 189" class="cls-20" d="M1399.81,1175.71l-2.06-2.06a1,1,0,1,0-1.39,1.39l2.06,2.06a1,1,0,0,0,1.39-1.39Z"/><path id="Path_190" data-name="Path 190" class="cls-20" d="M1397.75,1140.35a1,1,0,0,0-1.39,1.39l2.06,2.07a1,1,0,0,0,.42.23l-.56-3.16Z"/><path id="Path_191" data-name="Path 191" class="cls-20" d="M1407.21,1199.81a1,1,0,0,0-1.39,0l-2.06,2.06a1,1,0,0,0,0,1.39,1,1,0,0,0,1.18.14l2.35-3.48S1407.25,1199.84,1407.21,1199.81Z"/><path id="Path_192" data-name="Path 192" class="cls-20" d="M1404.4,1177.1l1.17-1.18-.59-2.19-2,2a1,1,0,1,0,1.39,1.39Z"/><path id="Path_193" data-name="Path 193" class="cls-20" d="M1403.77,1170a1.19,1.19,0,0,0,.23.16l-.36-1.36A1,1,0,0,0,1403.77,1170Z"/><path id="Path_194" data-name="Path 194" class="cls-20" d="M1397.67,1152.52a1,1,0,0,0,1.39-1.38l-2.07-2.06a1,1,0,0,0-1.38,1.38Z"/><path id="Path_195" data-name="Path 195" class="cls-20" d="M1395.61,1159.18l2.06,2.07a1,1,0,0,0,1.39-1.39l-2.07-2.06a1,1,0,0,0-1.38,0h0a1,1,0,0,0,0,1.38Z"/><path id="Path_196" data-name="Path 196" class="cls-20" d="M1399.81,1209l-2.06-2.06a1,1,0,1,0-1.39,1.39l2.06,2.06a1,1,0,1,0,1.39-1.39Z"/><path id="Path_197" data-name="Path 197" class="cls-20" d="M1395.61,1192.48l2.06,2.06a1,1,0,0,0,1.39-1.39l-2.07-2.06a1,1,0,0,0-1.38,0A1.1,1.1,0,0,0,1395.61,1192.48Z"/><path id="Path_198" data-name="Path 198" class="cls-20" d="M1395.61,1167.91l2.06,2.06a1,1,0,1,0,1.39-1.39l-2.07-2.06a1,1,0,0,0-1.38,1.39Z"/><path id="Path_199" data-name="Path 199" class="cls-20" d="M1395.61,1183.76l2.06,2.06a1,1,0,0,0,1.39-1.39l-2.07-2.06a1,1,0,0,0-1.39,1.39Z"/></g><path id="Path_200" data-name="Path 200" class="cls-16" d="M1399.42,1182l62.37-1s18.64,38-18.38,75.56c-10.58,13.35-22.16,22.92-37.78,95.45-8.67,29.13-14.82,45.15-17.81,52.31a7.73,7.73,0,0,1-7,4.74h0a7.75,7.75,0,0,1-7.88-7.62v-.16c.12-25.53.9-105.69,6-134.14C1385,1233.39,1388.24,1197.88,1399.42,1182Z"/><path id="Path_201" data-name="Path 201" class="cls-17" d="M1418.05,1178.48l8,27a9.64,9.64,0,0,0,10.56,6.82c15-2.1,45.25-7.61,47.22-18,0,0-3.24-16.92-5.43-18.36S1418.05,1178.48,1418.05,1178.48Z"/><path id="Path_202" data-name="Path 202" class="cls-21" d="M1375.34,1149.4s7,28.27,21.19,37.47c-.14.32,11.16-18.6,11.16-18.6l-23.36-31.88Z"/><path id="Path_203" data-name="Path 203" class="cls-11" d="M1384.41,1138.85c1.87,9.5,7.45,35.66,13.41,42.2a4.06,4.06,0,0,0,3.23,1.28c3.94-.17,16.8,0,24.6.05a4.28,4.28,0,0,0,4.33-4.22,4.23,4.23,0,0,0-.26-1.54l-17.5-47.91a4.3,4.3,0,0,0-5.51-2.56l-.13,0-19.55,7.86A4.26,4.26,0,0,0,1384.41,1138.85Z"/><path id="Path_204" data-name="Path 204" class="cls-22" d="M1385,1141.82l.93,4.4s14.48-3.46,16.92,0,13.18,36.06,13.18,36.06h8.06l-10.25-45.89-21,1.46Z"/><path id="Path_205" data-name="Path 205" class="cls-23" d="M1396.06,1048.1l6.84,11.89,10-9.68c3-2.89-.84-7.33-5.17-6Z"/><path id="Path_206" data-name="Path 206" class="cls-24" d="M1384,1006a7.27,7.27,0,0,0-12.24.5c-2.65,4.54-4.45,10.47-1.61,16.51,5.93,12.65,18.45-10.43,18.45-10.43Z"/><ellipse id="Ellipse_6" data-name="Ellipse 6" class="cls-18" cx="1397.07" cy="1030.68" rx="20.99" ry="23.2"/><path id="Path_207" data-name="Path 207" class="cls-23" d="M1400.83,1021.22c-6-3-12.65-6.06-17.86-6.35l-5.28,2s-.19,2.16-.21,5.44c2.38,3.8,6.76,8.81,13.07,8.21a88.47,88.47,0,0,1,17.6,0S1410.59,1026,1400.83,1021.22Z"/><path id="Path_208" data-name="Path 208" class="cls-24" d="M1375.34,1016.79c-1.92-9.46,8.08-20.37,16.31-26.93,11.43-9.13,21.66,1.09,40.34-5.44,18.36-6.42,15.3-18.68,32.19-24.94,21.2-7.84,31.4,9.48,54.86,2.73,20.57-5.93,25-22.79,36.72-20,11.13,2.7,16.37,20.18,17.22,30.82,1.71,21.29-11.7,45.23-28.1,48.06-13.48,2.33-19.45-11.23-31.74-7.71-12.89,3.7-10.3,19.76-27.65,31.28-1.9,1.27-19,12.3-33.1,6.35-12.8-5.4-15.78-21.65-21.76-20.4-4.53.95-3.07,10.35-10.88,15.41-6.06,3.94-15.2,3.62-17.37,0-2.55-4.24,5.22-11.9,2.86-14.51-2-2.19-8.94-.64-14.89-2.64C1383.29,1026.56,1375.65,1018.34,1375.34,1016.79Z"/><path id="Path_209" data-name="Path 209" class="cls-7" d="M1372.89,1397.47s.06,10.61-4.93,11.28-29.37,4-32,9.08-1.7,5.47,10.51,7.85,42,3.87,42.83-3.1c1.09-8.53,1-25.14,1-25.14Z"/><path id="Path_213" data-name="Path 213" class="cls-18" d="M1356.74,1058.26s-56.13-10.74-72.76-17.54c-10.83-4-5.92-8.4-22-13.26-7.55-.58-10.51-5.52-14.79-5.27s0,9.13,4.25,10.89,8.91,4.87,8.91,7.14-5.54,14.86,6,19.9c6.3,3.52,78.55,37.34,78.55,37.34h0C1364.93,1104.12,1377.54,1061.69,1356.74,1058.26Z"/><path id="Path_214" data-name="Path 214" class="cls-19" d="M1341.35,1098.58c-.15-8.16,0-37.66,10.39-41a2.55,2.55,0,0,1,1.37,0c5.8,1.39,49.85,9.48,68.8,6,15.37,1.76,8.58,34.35,8.58,34.35l-57.6,7.31-13.57,1-15.94-4.93A2.86,2.86,0,0,1,1341.35,1098.58Z"/><g id="Group_66" data-name="Group 66"><path id="Path_215" data-name="Path 215" class="cls-20" d="M1351.62,1067.55l-2.06,2.06A1,1,0,0,0,1351,1071l2.06-2.06a1,1,0,1,0-1.39-1.39Z"/><path id="Path_216" data-name="Path 216" class="cls-20" d="M1404.87,1067.55a1,1,0,0,0-1.39,0l-2.06,2.06a1,1,0,0,0,1.39,1.39l2.06-2.06A1,1,0,0,0,1404.87,1067.55Z"/><path id="Path_217" data-name="Path 217" class="cls-20" d="M1402.72,1092.12l-2.06,2.06a1,1,0,0,0,1.39,1.39l2.06-2.06a1,1,0,0,0-1.39-1.39Z"/><path id="Path_218" data-name="Path 218" class="cls-20" d="M1404.87,1085a1,1,0,0,0-1.39,0l-2.06,2.06a1,1,0,0,0,1.39,1.39l2.06-2.06A1,1,0,0,0,1404.87,1085Z"/><path id="Path_219" data-name="Path 219" class="cls-20" d="M1404.87,1076.27a1,1,0,0,0-1.39,0l-2.06,2.06a1,1,0,1,0,1.39,1.39l2.06-2.06A1,1,0,0,0,1404.87,1076.27Z"/><path id="Path_220" data-name="Path 220" class="cls-20" d="M1393.26,1077.66l2.06,2.06a1,1,0,0,0,1.39-1.39l-2.06-2.06a1,1,0,0,0-1.39,1.39Z"/><path id="Path_221" data-name="Path 221" class="cls-20" d="M1379.18,1092.12l-2.06,2.06a1,1,0,0,0,1.39,1.39l2.06-2.06a1,1,0,0,0-1.39-1.39Z"/><path id="Path_222" data-name="Path 222" class="cls-20" d="M1381.33,1085a1,1,0,0,0-1.39,0l-2.06,2.06a1,1,0,0,0,0,1.39,1,1,0,0,0,1.38,0l2.07-2.06A1,1,0,0,0,1381.33,1085Z"/><path id="Path_223" data-name="Path 223" class="cls-20" d="M1393.26,1086.38l2.06,2.06a1,1,0,0,0,1.39-1.39l-2.06-2.06a1,1,0,1,0-1.39,1.39Z"/><path id="Path_224" data-name="Path 224" class="cls-20" d="M1395.32,1071a1,1,0,0,0,1.39-1.39l-2.06-2.06a1,1,0,1,0-1.39,1.39Z"/><path id="Path_225" data-name="Path 225" class="cls-20" d="M1396.08,1095.57a1,1,0,1,0,1.39-1.39l-2.07-2.06a1,1,0,0,0-1.38,0,1,1,0,0,0,0,1.39Z"/><path id="Path_226" data-name="Path 226" class="cls-20" d="M1353,1076.27a1,1,0,0,0-1.39,0l-2.06,2.06a1,1,0,0,0,1.39,1.39l2.06-2.06A1,1,0,0,0,1353,1076.27Z"/><path id="Path_227" data-name="Path 227" class="cls-20" d="M1350.19,1062.28l2.06-2.06a1,1,0,0,0-1.39-1.39l-2.06,2.06a1,1,0,1,0,1.39,1.39Z"/><path id="Path_228" data-name="Path 228" class="cls-20" d="M1344.85,1071a1,1,0,0,0,0-1.39l-.72-.72c-.2.71-.38,1.44-.55,2.19A1,1,0,0,0,1344.85,1071Z"/><path id="Path_229" data-name="Path 229" class="cls-20" d="M1353,1085a1,1,0,0,0-1.39,0l-2.06,2.06a1,1,0,0,0,1.39,1.39l2.06-2.06A1,1,0,0,0,1353,1085Z"/><path id="Path_230" data-name="Path 230" class="cls-20" d="M1350.86,1092.12l-2.06,2.06a1,1,0,1,0,1.39,1.39l2.06-2.06a1,1,0,0,0-1.39-1.39Z"/><path id="Path_231" data-name="Path 231" class="cls-20" d="M1342.27,1100.59a3,3,0,0,0,.79.53l-.27-.27A.92.92,0,0,0,1342.27,1100.59Z"/><path id="Path_232" data-name="Path 232" class="cls-20" d="M1344.85,1079.72a1,1,0,0,0,0-1.39l-2.06-2.06-.16-.11c-.13.8-.23,1.6-.33,2.4l1.16,1.16A1,1,0,0,0,1344.85,1079.72Z"/><path id="Path_233" data-name="Path 233" class="cls-20" d="M1345.61,1095.57a1,1,0,0,0,0-1.39l-2.06-2.06a1,1,0,0,0-1.39,1.39l2.06,2.06A1,1,0,0,0,1345.61,1095.57Z"/><path id="Path_234" data-name="Path 234" class="cls-20" d="M1343.46,1088.44a1,1,0,0,0,1.39-1.39l-2.06-2.06a1,1,0,0,0-1.09-.19c0,.59-.08,1.18-.11,1.77Z"/><path id="Path_235" data-name="Path 235" class="cls-20" d="M1353,1100.84a1,1,0,0,0-1.39,0l-2.06,2.07a.76.76,0,0,0-.15.23l2.06.64,1.54-1.55A1,1,0,0,0,1353,1100.84Z"/><path id="Path_236" data-name="Path 236" class="cls-20" d="M1423.64,1071a1,1,0,0,0,1.38-1.39l-2.06-2.06a1,1,0,1,0-1.38,1.39Z"/><path id="Path_237" data-name="Path 237" class="cls-20" d="M1422.33,1092.12a1,1,0,0,0,0,1.39l2.07,2.06a1,1,0,0,0,1.38,0,1,1,0,0,0,0-1.39l-2.06-2.06A1,1,0,0,0,1422.33,1092.12Z"/><path id="Path_238" data-name="Path 238" class="cls-20" d="M1423.64,1088.44a1,1,0,0,0,1.38,0,1,1,0,0,0,0-1.38L1423,1085a1,1,0,1,0-1.38,1.39Z"/><path id="Path_239" data-name="Path 239" class="cls-20" d="M1421.58,1077.66l2.06,2.06a1,1,0,0,0,1.38-1.39l-2.06-2.06a1,1,0,0,0-1.39,1.39Z"/><path id="Path_240" data-name="Path 240" class="cls-20" d="M1404.87,1100.84a1,1,0,0,0-1.39,0l-.54.55,2.11-.27A1,1,0,0,0,1404.87,1100.84Z"/><path id="Path_241" data-name="Path 241" class="cls-20" d="M1429.74,1071a1,1,0,0,0,.64.28c-.2-.57-.42-1.12-.65-1.65A1,1,0,0,0,1429.74,1071Z"/><path id="Path_242" data-name="Path 242" class="cls-20" d="M1430.37,1095.57l.63-.63c.14-.87.28-1.9.41-3a.94.94,0,0,0-.37.22l-2.06,2.06a1,1,0,0,0,1.39,1.39Z"/><path id="Path_243" data-name="Path 243" class="cls-20" d="M1393.26,1100.84a1,1,0,0,0,0,1.39l.34.34,2.46-.31-1.41-1.42A1,1,0,0,0,1393.26,1100.84Z"/><path id="Path_244" data-name="Path 244" class="cls-20" d="M1429.74,1078.33a1,1,0,1,0,1.38,1.39l.72-.71c-.07-.85-.15-1.69-.26-2.52Z"/><path id="Path_245" data-name="Path 245" class="cls-20" d="M1429.74,1087.05a1,1,0,1,0,1.38,1.39l.68-.68c.07-.93.12-1.89.15-2.87a.56.56,0,0,0-.15.1Z"/><path id="Path_246" data-name="Path 246" class="cls-20" d="M1369.72,1077.66l2.06,2.06a1,1,0,0,0,1.39-1.39l-2.07-2.06a1,1,0,1,0-1.38,1.39Z"/><path id="Path_247" data-name="Path 247" class="cls-20" d="M1377.12,1062.28a1,1,0,0,0,1.39,0l.4-.41-2.08-.28A1,1,0,0,0,1377.12,1062.28Z"/><path id="Path_248" data-name="Path 248" class="cls-20" d="M1381.33,1102.23a1,1,0,1,0-1.39-1.39l-2.06,2.07a1,1,0,0,0,0,1.38.89.89,0,0,0,.37.23l.84-.11a.66.66,0,0,0,.17-.12Z"/><path id="Path_249" data-name="Path 249" class="cls-20" d="M1373.92,1062.28a1,1,0,0,0,.21-1.08l-3.14-.48,1.55,1.56A1,1,0,0,0,1373.92,1062.28Z"/><path id="Path_250" data-name="Path 250" class="cls-20" d="M1381.33,1067.55a1,1,0,0,0-1.39,0l-2.06,2.06a1,1,0,0,0,0,1.39,1,1,0,0,0,1.38,0l2.07-2.06A1,1,0,0,0,1381.33,1067.55Z"/><path id="Path_251" data-name="Path 251" class="cls-20" d="M1381.33,1076.27a1,1,0,0,0-1.39,0l-2.06,2.06a1,1,0,0,0,1.38,1.39l2.07-2.06A1,1,0,0,0,1381.33,1076.27Z"/><path id="Path_252" data-name="Path 252" class="cls-20" d="M1372.53,1095.57a1,1,0,0,0,1.39-1.39l-2.06-2.06a1,1,0,0,0-1.39,1.39Z"/><path id="Path_253" data-name="Path 253" class="cls-20" d="M1371.78,1104.29a1,1,0,0,0,1.39,0,1,1,0,0,0,0-1.38l-2.07-2.07a1,1,0,1,0-1.38,1.39Z"/><path id="Path_254" data-name="Path 254" class="cls-20" d="M1369.72,1086.38l2.06,2.06a1,1,0,0,0,1.39-1.39l-2.07-2.06a1,1,0,1,0-1.38,1.39Z"/><path id="Path_255" data-name="Path 255" class="cls-20" d="M1371.78,1071a1,1,0,0,0,1.39-1.39l-2.07-2.06a1,1,0,1,0-1.38,1.39Z"/></g><path id="Path_256" data-name="Path 256" class="cls-21" d="M1344.15,1101.51s5.18-6.2,18.38-8.9c12.18-2.5,23.34-9.27,25.22-7.39,13.46,13.46-29.72,20.59-29.72,20.59Z"/><g id="Group_69" data-name="Group 69"><path id="Path_257" data-name="Path 257" class="cls-25" d="M1371.57,1093.52l-29.92,16.9a4.22,4.22,0,0,0-2.13,4.23c1.19,9,5.9,36.48,19.57,39.21.25,0,61.7-15.87,70.77-26.7.5.26-30.18-49.92-30.18-49.92Z"/><g id="Group_68" data-name="Group 68"><path id="Path_258" data-name="Path 258" class="cls-19" d="M1487.28,1120.87c-9.27-8.17-40.76-44.43-53.24-60.91-2.42-3.2-6.28-2.2-23,6.94-13,7.11-26.28,18.92-39.48,26.62l-29.92,16.9a4.22,4.22,0,0,0-2.13,4.23c1.07,8.13,5,31.29,15.82,37.75a8.31,8.31,0,0,0,6.38.79c7-1.85,26.7-7.27,43.31-13.37h0c.91,4.88,2,9.54,3.23,14a168.8,168.8,0,0,0,21.58,47.8,2.84,2.84,0,0,0,2.11,1.26c49.26,4.54,89.81-56,89.81-56S1497.86,1130.19,1487.28,1120.87Z"/><g id="Group_67" data-name="Group 67"><path id="Path_259" data-name="Path 259" class="cls-20" d="M1432.94,1105.55l2.06,2.06a1,1,0,0,0,1.39,0,1,1,0,0,0,0-1.38l-2.06-2.06a1,1,0,0,0-1.39,0,1,1,0,0,0,0,1.38Z"/><path id="Path_260" data-name="Path 260" class="cls-20" d="M1432.94,1114.24l2.06,2a1,1,0,0,0,1.39,0,1,1,0,0,0,0-1.38l-2.06-2.05a1,1,0,0,0-1.39,0,1,1,0,0,0,0,1.38Z"/><path id="Path_261" data-name="Path 261" class="cls-20" d="M1432.94,1096.87l2.06,2.05a1,1,0,0,0,1.39,0,1,1,0,0,0,0-1.38l-2.06-2a1,1,0,0,0-1.39,0,1,1,0,0,0,0,1.38Z"/><path id="Path_262" data-name="Path 262" class="cls-20" d="M1432.94,1130l2.06,2.06a1,1,0,1,0,1.39-1.39l-2.06-2a1,1,0,0,0-1.39,0,1,1,0,0,0,0,1.38Z"/><path id="Path_263" data-name="Path 263" class="cls-20" d="M1432.94,1147.39l2.06,2.06a1,1,0,1,0,1.39-1.39l-2.06-2a1,1,0,0,0-1.39,0,1,1,0,0,0,0,1.38Z"/><path id="Path_264" data-name="Path 264" class="cls-20" d="M1432.94,1138.71l2.06,2a1,1,0,0,0,1.39,0,1,1,0,0,0,0-1.38l-2.06-2.05a1,1,0,0,0-1.39,0,1,1,0,0,0,0,1.38Z"/><path id="Path_265" data-name="Path 265" class="cls-20" d="M1432.94,1081.08l2.06,2.06a1,1,0,1,0,1.39-1.39l-2.06-2a1,1,0,0,0-1.39,0,1,1,0,0,0,0,1.38Z"/><path id="Path_266" data-name="Path 266" class="cls-20" d="M1432.94,1163.18l2.06,2a1,1,0,0,0,1.39,0,1,1,0,0,0,0-1.38l-2.06-2a1,1,0,0,0-1.39,0,1,1,0,0,0,0,1.38Z"/><path id="Path_267" data-name="Path 267" class="cls-20" d="M1494.35,1140.76l2.06-2a1,1,0,0,0,0-1.38,1,1,0,0,0-1.39,0l-2.06,2.05a1,1,0,0,0,0,1.38h0A1,1,0,0,0,1494.35,1140.76Z"/><path id="Path_268" data-name="Path 268" class="cls-20" d="M1435,1065.77a1,1,0,0,0,1.39,0,1,1,0,0,0,0-1.38l-2.06-2.06a1,1,0,0,0-1.39,0,1,1,0,0,0,0,1.38h0Z"/><path id="Path_269" data-name="Path 269" class="cls-20" d="M1444.55,1112.86a1,1,0,0,0-1.39,0l-2.06,2.05a1,1,0,0,0,0,1.38h0a1,1,0,0,0,1.39,0l2.06-2A1,1,0,0,0,1444.55,1112.86Z"/><path id="Path_270" data-name="Path 270" class="cls-20" d="M1444.55,1104.17a1,1,0,0,0-1.39,0l-2.06,2a1,1,0,0,0,0,1.38h0a1,1,0,0,0,1.39,0l2.06-2.06A1,1,0,0,0,1444.55,1104.17Z"/><path id="Path_271" data-name="Path 271" class="cls-20" d="M1432.94,1072.4l2.06,2a1,1,0,0,0,1.39,0,1,1,0,0,0,0-1.38l-2.06-2a1,1,0,0,0-1.39,0,1,1,0,0,0,0,1.38Z"/><path id="Path_272" data-name="Path 272" class="cls-20" d="M1444.55,1128.64a1,1,0,0,0-1.39,0l-2.06,2a1,1,0,0,0,0,1.38h0a1,1,0,0,0,1.39,0l2.06-2.06A1,1,0,0,0,1444.55,1128.64Z"/><path id="Path_273" data-name="Path 273" class="cls-20" d="M1441.1,1074.45a1,1,0,0,0,1.39,0l1.6-1.59-1.25-1.52-1.74,1.73A1,1,0,0,0,1441.1,1074.45Z"/><path id="Path_274" data-name="Path 274" class="cls-20" d="M1444.55,1079.7a1,1,0,0,0-1.39,0l-2.06,2a1,1,0,0,0,0,1.38h0a1,1,0,0,0,1.39,0l2.06-2.06A1,1,0,0,0,1444.55,1079.7Z"/><path id="Path_275" data-name="Path 275" class="cls-20" d="M1486.19,1170.48a1,1,0,0,0-1.39,0,1,1,0,0,0,0,1.38h0l2.06,2.06a1,1,0,0,0,1.39-1.39Z"/><path id="Path_276" data-name="Path 276" class="cls-20" d="M1432.94,1171.86l2.06,2.06a1,1,0,0,0,1.39-1.39l-2.06-2a1,1,0,0,0-1.39,0,1,1,0,0,0,0,1.38Z"/><path id="Path_277" data-name="Path 277" class="cls-20" d="M1486.86,1140.76a1,1,0,0,0,1.39,0,1,1,0,0,0,0-1.38l-2.07-2.05a1,1,0,0,0-1.38,1.38h0Z"/><path id="Path_278" data-name="Path 278" class="cls-20" d="M1488.25,1163.85l-2.06-2a1,1,0,0,0-1.39,0,1,1,0,0,0,0,1.38h0l2.06,2a1,1,0,0,0,1.39,0A1,1,0,0,0,1488.25,1163.85Z"/><path id="Path_279" data-name="Path 279" class="cls-20" d="M1488.25,1181.22l-2.06-2a1,1,0,0,0-1.39,0,1,1,0,0,0,0,1.38h0l2.06,2a1,1,0,0,0,.5.25l1.17-.92A1,1,0,0,0,1488.25,1181.22Z"/><path id="Path_280" data-name="Path 280" class="cls-20" d="M1489,1155.16l-2.06-2.05a1,1,0,0,0-1.39,0,1,1,0,0,0,0,1.38h0l2.06,2.06a1,1,0,0,0,1.39,0,1,1,0,0,0,0-1.38Z"/><path id="Path_281" data-name="Path 281" class="cls-20" d="M1493,1149.45a1,1,0,0,0,1.38,0l2.07-2.06a1,1,0,0,0,0-1.38,1,1,0,0,0-1.39,0l-2.06,2a.91.91,0,0,0-.21,1.31A.21.21,0,0,0,1493,1149.45Z"/><path id="Path_282" data-name="Path 282" class="cls-20" d="M1486.19,1128.64a1,1,0,0,0-1.39,0,1,1,0,0,0,0,1.38h0l2.06,2.06a1,1,0,0,0,1.39-1.39Z"/><path id="Path_283" data-name="Path 283" class="cls-20" d="M1484.8,1147.39l2.06,2.06a1,1,0,0,0,1.39-1.39l-2.07-2a1,1,0,0,0-1.38,0A1,1,0,0,0,1484.8,1147.39Z"/><path id="Path_284" data-name="Path 284" class="cls-20" d="M1435.76,1189.7a1,1,0,0,0,1.39,0,1,1,0,0,0,0-1.38l-2.07-2.06a1,1,0,0,0-1.38,0,1,1,0,0,0,0,1.39h0Z"/><path id="Path_285" data-name="Path 285" class="cls-20" d="M1437.15,1155.16l-2.06-2.05a1,1,0,0,0-1.39,0,1,1,0,0,0,0,1.38h0l2.06,2a1,1,0,0,0,1.39,0A1,1,0,0,0,1437.15,1155.16Z"/><path id="Path_286" data-name="Path 286" class="cls-20" d="M1461.26,1195a1,1,0,0,0,0,1.38h0l1.19,1.2c.66-.27,1.31-.54,2-.82l-1.76-1.76A1,1,0,0,0,1461.26,1195Z"/><path id="Path_287" data-name="Path 287" class="cls-20" d="M1432.94,1180.55l2.06,2a1,1,0,0,0,1.39,0,1,1,0,0,0,0-1.38l-2.06-2a1,1,0,0,0-1.39,0,1,1,0,0,0,0,1.38Z"/><path id="Path_288" data-name="Path 288" class="cls-20" d="M1437.15,1122l-2.07-2a1,1,0,0,0-1.39,1.38h0l2.06,2.05a1,1,0,0,0,1.39,0A1,1,0,0,0,1437.15,1122Z"/><path id="Path_289" data-name="Path 289" class="cls-20" d="M1435,1198.39a1,1,0,1,0,1.39-1.39l-2.06-2a1,1,0,0,0-1.39,0,1,1,0,0,0,0,1.38h0Z"/><path id="Path_290" data-name="Path 290" class="cls-20" d="M1437.15,1088.86l-2.07-2.06a1,1,0,0,0-1.39,1.38h0l2.06,2.06a1,1,0,0,0,1.39,0A1,1,0,0,0,1437.15,1088.86Z"/><path id="Path_291" data-name="Path 291" class="cls-20" d="M1444.55,1095.49a1,1,0,0,0-1.39,0l-2.06,2a1,1,0,0,0,0,1.38h0a1,1,0,0,0,1.39,0l2.06-2.05A1,1,0,0,0,1444.55,1095.49Z"/><path id="Path_292" data-name="Path 292" class="cls-20" d="M1469.42,1107.61a1,1,0,0,0,1.38,0l1.83-1.82-1.32-1.45-1.89,1.88a1,1,0,0,0,0,1.38Z"/><path id="Path_293" data-name="Path 293" class="cls-20" d="M1472.87,1112.86a1,1,0,0,0-1.39,0l-2.06,2.05a1,1,0,0,0,0,1.38h0a1,1,0,0,0,1.38,0l2.07-2a1,1,0,0,0,0-1.38Z"/><path id="Path_294" data-name="Path 294" class="cls-20" d="M1472.87,1128.64a1,1,0,0,0-1.39,0l-2.06,2a1,1,0,0,0,0,1.38h0a1,1,0,0,0,1.38,0l2.07-2.06a1,1,0,0,0,0-1.38Z"/><path id="Path_295" data-name="Path 295" class="cls-20" d="M1444.55,1137.33a1,1,0,0,0-1.39,0l-2.06,2.05a1,1,0,0,0,0,1.38h0a1,1,0,0,0,1.39,0l2.06-2A1,1,0,0,0,1444.55,1137.33Z"/><path id="Path_296" data-name="Path 296" class="cls-20" d="M1461.26,1105.55l2.06,2.06a1,1,0,0,0,1.39-1.38h0l-2.06-2.06a1,1,0,0,0-1.38,0,1,1,0,0,0,0,1.38Z"/><path id="Path_297" data-name="Path 297" class="cls-20" d="M1461.26,1130l2.06,2.06a1,1,0,0,0,1.39-1.38h0l-2.06-2a1,1,0,0,0-1.38,0,1,1,0,0,0,0,1.38Z"/><path id="Path_298" data-name="Path 298" class="cls-20" d="M1461.26,1114.24l2.06,2a1,1,0,0,0,1.38,0,1,1,0,0,0,0-1.38h0l-2.06-2.05a1,1,0,0,0-1.39,0A1,1,0,0,0,1461.26,1114.24Z"/><path id="Path_299" data-name="Path 299" class="cls-20" d="M1463.32,1098.92a1,1,0,0,0,1.39-1.38h0l-2.06-2a1,1,0,0,0-1.38,0,1,1,0,0,0,0,1.38h0Z"/><path id="Path_300" data-name="Path 300" class="cls-20" d="M1468.66,1156.55a1,1,0,0,0,1.39,0l2.06-2.06a1,1,0,0,0,0-1.38h0a1,1,0,0,0-1.39,0l-2.06,2.05a1,1,0,0,0,0,1.38Z"/><path id="Path_301" data-name="Path 301" class="cls-20" d="M1470.05,1123.39l2.06-2.05a1,1,0,0,0,0-1.38h0a1,1,0,0,0-1.39,0l-2.06,2a1,1,0,0,0,0,1.38h0A1,1,0,0,0,1470.05,1123.39Z"/><path id="Path_302" data-name="Path 302" class="cls-20" d="M1472.87,1146a1,1,0,0,0-1.39,0l-2.06,2a1,1,0,0,0,0,1.38h0a1,1,0,0,0,1.38,0l2.07-2.06a1,1,0,0,0,0-1.38Z"/><path id="Path_303" data-name="Path 303" class="cls-20" d="M1461.26,1138.71l2.06,2a1,1,0,0,0,1.39-1.38h0l-2.06-2.05a1,1,0,0,0-1.38,0,1,1,0,0,0,0,1.38Z"/><path id="Path_304" data-name="Path 304" class="cls-20" d="M1468.66,1189.7a1,1,0,0,0,1.39,0l2.06-2a1,1,0,0,0,0-1.39h0a1,1,0,0,0-1.39,0l-2.06,2.06a1,1,0,0,0,0,1.38Z"/><path id="Path_305" data-name="Path 305" class="cls-20" d="M1472.87,1179.17a1,1,0,0,0-1.39,0l-2.06,2a1,1,0,0,0,0,1.38h0a1,1,0,0,0,1.38,0l2.07-2a1,1,0,0,0,0-1.38Z"/><path id="Path_306" data-name="Path 306" class="cls-20" d="M1472.87,1161.8a1,1,0,0,0-1.39,0l-2.06,2a1,1,0,0,0,0,1.38h0a1,1,0,0,0,1.38,0l2.07-2a1,1,0,0,0,0-1.38Z"/><path id="Path_307" data-name="Path 307" class="cls-20" d="M1472.87,1170.48a1,1,0,0,0-1.39,0l-2.06,2a1,1,0,0,0,0,1.39h0a1,1,0,0,0,1.38,0l2.07-2.06a1,1,0,0,0,0-1.38Z"/><path id="Path_308" data-name="Path 308" class="cls-20" d="M1472.87,1137.33a1,1,0,0,0-1.39,0l-2.06,2.05a1,1,0,0,0,0,1.38h0a1,1,0,0,0,1.38,0l2.07-2a1,1,0,0,0,0-1.38Z"/><path id="Path_309" data-name="Path 309" class="cls-20" d="M1461.26,1163.18l2.06,2a1,1,0,0,0,1.39-1.38h0l-2.06-2a1,1,0,0,0-1.38,0,1,1,0,0,0,0,1.38Z"/><path id="Path_310" data-name="Path 310" class="cls-20" d="M1440.34,1156.55a1,1,0,0,0,1.39,0l2.06-2.06a1,1,0,0,0,0-1.38h0a1,1,0,0,0-1.39,0l-2.06,2.05A1,1,0,0,0,1440.34,1156.55Z"/><path id="Path_311" data-name="Path 311" class="cls-20" d="M1440.34,1189.7a1,1,0,0,0,1.39,0l2.06-2a1,1,0,0,0,0-1.39h0a1,1,0,0,0-1.39,0l-2.06,2.06A1,1,0,0,0,1440.34,1189.7Z"/><path id="Path_312" data-name="Path 312" class="cls-20" d="M1444.55,1179.17a1,1,0,0,0-1.39,0l-2.06,2a1,1,0,0,0,0,1.38h0a1,1,0,0,0,1.39,0l2.06-2A1,1,0,0,0,1444.55,1179.17Z"/><path id="Path_313" data-name="Path 313" class="cls-20" d="M1444.55,1170.48a1,1,0,0,0-1.39,0l-2.06,2a1,1,0,0,0,0,1.39h0a1,1,0,0,0,1.39,0l2.06-2.06A1,1,0,0,0,1444.55,1170.48Z"/><path id="Path_314" data-name="Path 314" class="cls-20" d="M1444.55,1146a1,1,0,0,0-1.39,0l-2.06,2a1,1,0,0,0,0,1.38h0a1,1,0,0,0,1.39,0l2.06-2.06A1,1,0,0,0,1444.55,1146Z"/><path id="Path_315" data-name="Path 315" class="cls-20" d="M1444.55,1161.8a1,1,0,0,0-1.39,0l-2.06,2a1,1,0,0,0,0,1.38h0a1,1,0,0,0,1.39,0l2.06-2A1,1,0,0,0,1444.55,1161.8Z"/><path id="Path_316" data-name="Path 316" class="cls-20" d="M1442.49,1198.39l2.06-2.06a1,1,0,0,0,0-1.38,1,1,0,0,0-1.39,0l-2.06,2a1,1,0,0,0,0,1.38h0A1,1,0,0,0,1442.49,1198.39Z"/><path id="Path_317" data-name="Path 317" class="cls-20" d="M1464.07,1189.7a1,1,0,0,0,1.39,0,1,1,0,0,0,0-1.38h0l-2.06-2.06a1,1,0,0,0-1.39,0,1,1,0,0,0,0,1.39Z"/><path id="Path_318" data-name="Path 318" class="cls-20" d="M1441.73,1090.24l2.06-2.06a1,1,0,0,0,0-1.38h0a1,1,0,0,0-1.39,0l-2.06,2.06a1,1,0,0,0,0,1.38A1,1,0,0,0,1441.73,1090.24Z"/><path id="Path_319" data-name="Path 319" class="cls-20" d="M1461.26,1171.86l2.06,2.06a1,1,0,0,0,1.38-1.39h0l-2.06-2a1,1,0,0,0-1.38,0,1,1,0,0,0,0,1.38Z"/><path id="Path_320" data-name="Path 320" class="cls-20" d="M1461.26,1180.55l2.06,2a1,1,0,0,0,1.39-1.38h0l-2.06-2a1,1,0,0,0-1.38,0,1,1,0,0,0,0,1.38Z"/><path id="Path_321" data-name="Path 321" class="cls-20" d="M1440.34,1123.39a1,1,0,0,0,1.39,0l2.06-2.05a1,1,0,0,0,0-1.38h0a1,1,0,0,0-1.39,0l-2.06,2A1,1,0,0,0,1440.34,1123.39Z"/><path id="Path_322" data-name="Path 322" class="cls-20" d="M1465.46,1122l-2.06-2a1,1,0,0,0-1.39,0,1,1,0,0,0,0,1.38l2.06,2.05a1,1,0,0,0,1.39,0A1,1,0,0,0,1465.46,1122Z"/><path id="Path_323" data-name="Path 323" class="cls-20" d="M1465.46,1155.16l-2.06-2.05a1,1,0,0,0-1.39,0,1,1,0,0,0,0,1.38l2.06,2.06a1,1,0,0,0,1.39,0,1,1,0,0,0,.08-1.36A.1.1,0,0,0,1465.46,1155.16Z"/><path id="Path_324" data-name="Path 324" class="cls-20" d="M1461.26,1147.39l2.06,2.06a1,1,0,0,0,1.39-1.38h0l-2.06-2a1,1,0,0,0-1.38,0,1,1,0,0,0,0,1.38Z"/><path id="Path_325" data-name="Path 325" class="cls-20" d="M1421,1146a1,1,0,0,0-1.39,0l-2.06,2a1,1,0,0,0,0,1.38h0a1,1,0,0,0,1.39,0l2.06-2.06a.94.94,0,0,0,.09-1.35A.08.08,0,0,0,1421,1146Z"/><path id="Path_326" data-name="Path 326" class="cls-20" d="M1421,1161.8a1,1,0,0,0-1.39,0l-2.06,2a1,1,0,0,0,0,1.38h0a1,1,0,0,0,1.39,0l2.06-2a1,1,0,0,0,.09-1.35A.06.06,0,0,0,1421,1161.8Z"/><path id="Path_327" data-name="Path 327" class="cls-20" d="M1421,1128.64a1,1,0,0,0-1.39,0l-2.06,2a1,1,0,0,0,0,1.38h0a1,1,0,0,0,1.39,0L1421,1130a.94.94,0,0,0,.09-1.35A.08.08,0,0,0,1421,1128.64Z"/><path id="Path_328" data-name="Path 328" class="cls-20" d="M1419.62,1170.48l-2.06,2a1,1,0,0,0,0,1.39h0a1,1,0,0,0,1.38,0l2.07-2.06a1,1,0,0,0,0-1.38A1,1,0,0,0,1419.62,1170.48Z"/><path id="Path_329" data-name="Path 329" class="cls-20" d="M1421,1079.7a1,1,0,0,0-1.39,0l-2.06,2a1,1,0,0,0,0,1.38h0a1,1,0,0,0,1.39,0l2.06-2.06A1.06,1.06,0,0,0,1421,1079.7Z"/><path id="Path_330" data-name="Path 330" class="cls-20" d="M1421,1095.49a1,1,0,0,0-1.39,0l-2.06,2a1,1,0,0,0,0,1.38h0a1,1,0,0,0,1.39,0l2.06-2.05A1,1,0,0,0,1421,1095.49Z"/><path id="Path_331" data-name="Path 331" class="cls-20" d="M1421,1104.17a1,1,0,0,0-1.39,0l-2.06,2a1,1,0,0,0,0,1.38h0a1,1,0,0,0,1.39,0l2.06-2.06a.94.94,0,0,0,.09-1.35A.08.08,0,0,0,1421,1104.17Z"/><path id="Path_332" data-name="Path 332" class="cls-20" d="M1421,1112.86a1,1,0,0,0-1.39,0l-2.06,2.05a1,1,0,0,0,0,1.38h0a1,1,0,0,0,1.39,0l2.06-2a1,1,0,0,0,.09-1.35A.08.08,0,0,0,1421,1112.86Z"/><path id="Path_333" data-name="Path 333" class="cls-20" d="M1421,1137.33a1,1,0,0,0-1.39,0l-2.06,2.05a1,1,0,0,0,0,1.38h0a1,1,0,0,0,1.39,0l2.06-2A1,1,0,0,0,1421,1137.33Z"/><path id="Path_334" data-name="Path 334" class="cls-20" d="M1383.14,1098.92a1,1,0,0,0,1.39,0,1,1,0,0,0,0-1.38h0l-2.06-2a1,1,0,0,0-1.39,0,1,1,0,0,0,0,1.38Z"/><path id="Path_335" data-name="Path 335" class="cls-20" d="M1416.8,1156.55a1,1,0,0,0,1.39,0l2.06-2.06a1,1,0,0,0,0-1.38,1,1,0,0,0-1.39,0l-2.06,2.05a1,1,0,0,0,0,1.38Z"/><path id="Path_336" data-name="Path 336" class="cls-20" d="M1381.08,1114.24l2.06,2a1,1,0,0,0,1.39,0,1,1,0,0,0,0-1.38h0l-2.06-2.05a1,1,0,0,0-1.39,0,.94.94,0,0,0-.09,1.35A.08.08,0,0,0,1381.08,1114.24Z"/><path id="Path_337" data-name="Path 337" class="cls-20" d="M1496.41,1161.8a1,1,0,0,0-1.39,0l-2.06,2a1,1,0,0,0,0,1.38h0a1,1,0,0,0,1.39,0l2.06-2A1,1,0,0,0,1496.41,1161.8Z"/><path id="Path_338" data-name="Path 338" class="cls-20" d="M1385.29,1122l-2.07-2a1,1,0,0,0-1.38,1.38l2.06,2.05a1,1,0,0,0,1.39,0,1,1,0,0,0,0-1.38Z"/><path id="Path_339" data-name="Path 339" class="cls-20" d="M1418.19,1090.24l2.06-2.06a1,1,0,0,0,0-1.38,1,1,0,0,0-1.39,0l-2.06,2.06a1,1,0,0,0,0,1.38h0A1,1,0,0,0,1418.19,1090.24Z"/><path id="Path_340" data-name="Path 340" class="cls-20" d="M1382.47,1137.33a1,1,0,0,0-1.39,0,1,1,0,0,0,0,1.38l2.06,2a1,1,0,0,0,1.39,0,1,1,0,0,0,0-1.38h0Z"/><path id="Path_341" data-name="Path 341" class="cls-20" d="M1416.8,1123.39a1,1,0,0,0,1.39,0l2.06-2.05a1,1,0,0,0,0-1.38,1,1,0,0,0-1.39,0l-2.06,2a1,1,0,0,0,0,1.38Z"/><path id="Path_342" data-name="Path 342" class="cls-20" d="M1411.46,1149.45a1,1,0,1,0,1.39-1.39l-2.07-2a1,1,0,0,0-1.38,1.38h0Z"/><path id="Path_343" data-name="Path 343" class="cls-20" d="M1413.6,1088.86l-2.06-2.06a1,1,0,0,0-1.39,1.38h0l2.06,2.06a1,1,0,0,0,1.38,0,1,1,0,0,0,0-1.38Z"/><path id="Path_344" data-name="Path 344" class="cls-20" d="M1413.6,1122l-2.06-2a1,1,0,0,0-1.39,1.38h0l2.06,2.05a1,1,0,0,0,1.38,0,1,1,0,0,0,0-1.38Z"/><path id="Path_345" data-name="Path 345" class="cls-20" d="M1410.15,1153.11a1,1,0,0,0,0,1.38h0l2.07,2a1,1,0,0,0,1.38-1.38h0l-2.06-2.05A1,1,0,0,0,1410.15,1153.11Z"/><path id="Path_346" data-name="Path 346" class="cls-20" d="M1340.83,1112.86a1,1,0,0,0-1.2-.13,4.19,4.19,0,0,0-.2,1.92c0,.27.07.56.12.87l1.28-1.28a1,1,0,0,0,0-1.38Z"/><path id="Path_347" data-name="Path 347" class="cls-20" d="M1412.85,1165.23a1,1,0,0,0,0-1.38l-2.06-2-.11-.08c.43,1.28.86,2.53,1.3,3.76A1,1,0,0,0,1412.85,1165.23Z"/><path id="Path_348" data-name="Path 348" class="cls-20" d="M1421,1179.17a1,1,0,0,0-1.39,0l-1.41,1.4c.29.64.59,1.28.88,1.89l1.92-1.91A1,1,0,0,0,1421,1179.17Z"/><path id="Path_349" data-name="Path 349" class="cls-20" d="M1409.4,1096.87l2.06,2.05a1,1,0,0,0,1.39,0,1,1,0,0,0,0-1.38l-2.07-2a1,1,0,0,0-1.38,0,.94.94,0,0,0-.09,1.35A.08.08,0,0,0,1409.4,1096.87Z"/><path id="Path_350" data-name="Path 350" class="cls-20" d="M1411.46,1074.45a1,1,0,0,0,1.39,0,1,1,0,0,0,0-1.38l-2.07-2a1,1,0,0,0-1.38,1.38h0Z"/><path id="Path_351" data-name="Path 351" class="cls-20" d="M1421,1071a1,1,0,0,0-1.39,0l-2.06,2a1,1,0,0,0,0,1.38h0a1,1,0,0,0,1.39,0l2.06-2a1,1,0,0,0,0-1.37S1421,1071,1421,1071Z"/><path id="Path_352" data-name="Path 352" class="cls-20" d="M1409.4,1081.08l2.06,2.06a1,1,0,1,0,1.39-1.39l-2.07-2a1,1,0,0,0-1.38,0,1,1,0,0,0-.09,1.35A.08.08,0,0,0,1409.4,1081.08Z"/><path id="Path_353" data-name="Path 353" class="cls-20" d="M1409.4,1138.71l2.06,2a1,1,0,0,0,1.39,0,1,1,0,0,0,0-1.38l-2.07-2.05a1,1,0,0,0-1.38,0A1.14,1.14,0,0,0,1409.4,1138.71Z"/><path id="Path_354" data-name="Path 354" class="cls-20" d="M1409.4,1130l2.06,2.06a1,1,0,0,0,1.39-1.39l-2.07-2a1,1,0,0,0-1.38,0,1,1,0,0,0-.08,1.36A.1.1,0,0,0,1409.4,1130Z"/><path id="Path_355" data-name="Path 355" class="cls-20" d="M1409.4,1105.55l2.06,2.06a1,1,0,0,0,1.39,0,1,1,0,0,0,0-1.38l-2.07-2.06a1,1,0,0,0-1.38,0A1.17,1.17,0,0,0,1409.4,1105.55Z"/><path id="Path_356" data-name="Path 356" class="cls-20" d="M1409.4,1114.24l2.06,2a1,1,0,0,0,1.39,0,1,1,0,0,0,0-1.38l-2.07-2.05a1,1,0,0,0-1.38,0,1,1,0,0,0,0,1.37Z"/><path id="Path_357" data-name="Path 357" class="cls-20" d="M1381.08,1105.55l2.06,2.06a1,1,0,0,0,1.39,0,1,1,0,0,0,0-1.38h0l-2.06-2.06a1,1,0,0,0-1.39,0,1,1,0,0,0-.09,1.35A.08.08,0,0,0,1381.08,1105.55Z"/><path id="Path_358" data-name="Path 358" class="cls-20" d="M1369.15,1137.33a1,1,0,0,0-1.39,0l-2.06,2.05a1,1,0,0,0,0,1.38h0a1,1,0,0,0,1.39,0l2.06-2A1,1,0,0,0,1369.15,1137.33Z"/><path id="Path_359" data-name="Path 359" class="cls-20" d="M1366.33,1123.39l2.06-2.05a1,1,0,0,0,0-1.38h0a1,1,0,0,0-1.39,0l-2.06,2a1,1,0,0,0,0,1.38A1,1,0,0,0,1366.33,1123.39Z"/><path id="Path_360" data-name="Path 360" class="cls-20" d="M1367.76,1146l-2.06,2a1,1,0,0,0,0,1.38h0a1,1,0,0,0,1.39,0l2.06-2.06a1,1,0,0,0,0-1.38A1,1,0,0,0,1367.76,1146Z"/><path id="Path_361" data-name="Path 361" class="cls-20" d="M1365.7,1098.93a1,1,0,0,0,1.39,0l2.06-2.06a1,1,0,0,0,0-1.38.91.91,0,0,0-.56-.26l-1.3.73-1.59,1.58a1,1,0,0,0,0,1.38Z"/><path id="Path_362" data-name="Path 362" class="cls-20" d="M1369.15,1112.86a1,1,0,0,0-1.39,0l-2.06,2.05a1,1,0,0,0,0,1.38h0a1,1,0,0,0,1.39,0l2.06-2A1,1,0,0,0,1369.15,1112.86Z"/><path id="Path_363" data-name="Path 363" class="cls-20" d="M1369.15,1104.17a1,1,0,0,0-1.39,0l-2.06,2a1,1,0,0,0,0,1.38h0a1,1,0,0,0,1.39,0l2.06-2.06A1,1,0,0,0,1369.15,1104.17Z"/><path id="Path_364" data-name="Path 364" class="cls-20" d="M1389.24,1081.76a1,1,0,0,0,0,1.38,1,1,0,0,0,1.39,0l2.06-2.06a1,1,0,0,0,0-1.38h0a.92.92,0,0,0-.47-.24l-2.47,1.79Z"/><path id="Path_365" data-name="Path 365" class="cls-20" d="M1384.53,1130.69l-2.06-2a1,1,0,0,0-1.39,0,1,1,0,0,0,0,1.38l2.06,2.06a1,1,0,0,0,1.39,0,1,1,0,0,0,.07-1.36S1384.57,1130.69,1384.53,1130.69Z"/><path id="Path_366" data-name="Path 366" class="cls-20" d="M1492.2,1156.55a1,1,0,0,0,1.39,0l2.06-2.06a1,1,0,0,0,0-1.38,1,1,0,0,0-1.39,0l-2.06,2.05a1,1,0,0,0,0,1.38Z"/><path id="Path_367" data-name="Path 367" class="cls-20" d="M1358.93,1128.64a1,1,0,0,0-1.39,0,1,1,0,0,0,0,1.38h0l2.06,2.06a1,1,0,1,0,1.39-1.39Z"/><path id="Path_368" data-name="Path 368" class="cls-20" d="M1495,1128.64l-2.06,2a1,1,0,0,0,0,1.38h0a1,1,0,0,0,1.38,0l2.07-2.06a1,1,0,0,0,0-1.38A1,1,0,0,0,1495,1128.64Z"/><path id="Path_369" data-name="Path 369" class="cls-20" d="M1495,1170.48l-2.06,2a1,1,0,0,0,0,1.39h0a1,1,0,0,0,1.38,0l2.07-2.06a1,1,0,0,0,0-1.38A1,1,0,0,0,1495,1170.48Z"/><path id="Path_370" data-name="Path 370" class="cls-20" d="M1417.56,1064.39a1,1,0,0,0,0,1.38h0a1,1,0,0,0,1.38,0l2.07-2.06a1,1,0,0,0,0-1.38,1,1,0,0,0-.48-.24l-1.32.65Z"/><path id="Path_371" data-name="Path 371" class="cls-20" d="M1513.87,1153.11a1,1,0,0,0,0,1.38l1.09,1.08c.43-.52.84-1,1.23-1.53l-.93-.93A1,1,0,0,0,1513.87,1153.11Z"/><path id="Path_372" data-name="Path 372" class="cls-20" d="M1486,1119.73a.88.88,0,0,0-.41.23,1,1,0,0,0,0,1.38h0l2.06,2.05a1,1,0,0,0,1.39,0,.94.94,0,0,0,.27-.76c-.74-.62-1.44-1.22-2.09-1.79C1486.82,1120.52,1486.4,1120.14,1486,1119.73Z"/><path id="Path_373" data-name="Path 373" class="cls-20" d="M1515.18,1149.45a1,1,0,0,0,1.39-1.38h0l-2.06-2a1,1,0,0,0-1.39,0,1,1,0,0,0,0,1.38Z"/><path id="Path_374" data-name="Path 374" class="cls-20" d="M1369.15,1128.64a1,1,0,0,0-1.39,0l-2.06,2a1,1,0,0,0,0,1.38h0a1,1,0,0,0,1.39,0l2.06-2.06A1,1,0,0,0,1369.15,1128.64Z"/><path id="Path_375" data-name="Path 375" class="cls-20" d="M1392.69,1104.17a1,1,0,0,0-1.39,0l-2.06,2a1,1,0,1,0,1.39,1.39l2.06-2.06a1,1,0,0,0,0-1.37Z"/><path id="Path_376" data-name="Path 376" class="cls-20" d="M1392.69,1112.86a1,1,0,0,0-1.39,0l-2.06,2.05a1,1,0,0,0,0,1.38,1,1,0,0,0,1.39,0l2.06-2A1,1,0,0,0,1392.69,1112.86Z"/><path id="Path_377" data-name="Path 377" class="cls-20" d="M1389.87,1123.39l2.06-2.05a1,1,0,0,0,0-1.38h0a1,1,0,0,0-1.38,0l-2.07,2a1,1,0,0,0,0,1.38A1,1,0,0,0,1389.87,1123.39Z"/><path id="Path_378" data-name="Path 378" class="cls-20" d="M1390.55,1086.8l-2.07,2a1,1,0,1,0,1.39,1.39l2.06-2.06a1,1,0,0,0,0-1.38h0A1,1,0,0,0,1390.55,1086.8Z"/><path id="Path_379" data-name="Path 379" class="cls-20" d="M1392.69,1095.49a1,1,0,0,0-1.39,0l-2.06,2a1,1,0,0,0,0,1.38,1,1,0,0,0,1.39,0l2.06-2.05a1,1,0,0,0,.09-1.35A.08.08,0,0,0,1392.69,1095.49Z"/><path id="Path_380" data-name="Path 380" class="cls-20" d="M1381.84,1088.18l2.06,2.06a1,1,0,0,0,1.39,0,1,1,0,0,0,0-1.38h0l-2.06-2a1,1,0,0,0-.89-.25l-.63.45A1,1,0,0,0,1381.84,1088.18Z"/><path id="Path_381" data-name="Path 381" class="cls-20" d="M1358.93,1137.33a1,1,0,0,0-1.39,0,1,1,0,0,0,0,1.38h0l2.06,2a1,1,0,0,0,1.39,0,1,1,0,0,0,0-1.38Z"/><path id="Path_382" data-name="Path 382" class="cls-20" d="M1391.3,1137.33l-2.06,2.05a1,1,0,0,0,0,1.38,1,1,0,0,0,1.39,0l2.06-2a1,1,0,0,0,0-1.38h0A1,1,0,0,0,1391.3,1137.33Z"/><path id="Path_383" data-name="Path 383" class="cls-20" d="M1359.6,1107.61a1,1,0,0,0,1.39,0,1,1,0,0,0,0-1.38l-2.06-2.06a1,1,0,0,0-1.39,0,1,1,0,0,0,0,1.38h0Z"/><path id="Path_384" data-name="Path 384" class="cls-20" d="M1361.75,1122l-2.07-2a1,1,0,0,0-1.39,1.38h0l2.06,2.05a1,1,0,0,0,1.39,0A1,1,0,0,0,1361.75,1122Z"/><path id="Path_385" data-name="Path 385" class="cls-20" d="M1392.69,1128.64a1,1,0,0,0-1.39,0l-2.06,2a1,1,0,1,0,1.39,1.39l2.06-2.06a.94.94,0,0,0,.08-1.35A.08.08,0,0,0,1392.69,1128.64Z"/><path id="Path_386" data-name="Path 386" class="cls-20" d="M1357.54,1114.24l2.06,2a1,1,0,0,0,1.39,0,1,1,0,0,0,0-1.38l-2.06-2.05a1,1,0,0,0-1.39,0,1,1,0,0,0,0,1.38Z"/><path id="Path_387" data-name="Path 387" class="cls-20" d="M1381.08,1146a1,1,0,0,0,0,1.38l.11.11,2.13-.64-.85-.85A1,1,0,0,0,1381.08,1146Z"/><path id="Path_388" data-name="Path 388" class="cls-20" d="M1359.88,1153.31l-.2-.2a1,1,0,0,0-1.38,0,.71.71,0,0,0-.1.14A9.44,9.44,0,0,0,1359.88,1153.31Z"/><path id="Path_389" data-name="Path 389" class="cls-20" d="M1359.6,1149.45a1,1,0,1,0,1.39-1.39l-2.06-2a1,1,0,0,0-1.39,0,1,1,0,0,0,0,1.38h0Z"/></g><path id="Path_390" data-name="Path 390" class="cls-21" d="M1405,1139.82c0,.24.1.46.15.69.88,4.63,1.93,9.07,3.1,13.29l.06.2c.93-5.19,5.24-11,9.3-15.54a5.21,5.21,0,0,0,1.28-4.32C1415.07,1136,1409.88,1138,1405,1139.82Z"/></g></g><circle id="Ellipse_7" data-name="Ellipse 7" class="cls-26" cx="1379.24" cy="1030.67" r="1.23"/><path id="Path_391" data-name="Path 391" class="cls-27" d="M1380.46,1042.77s6.58-1,8.18-3.24C1388.92,1039.26,1385.92,1050.56,1380.46,1042.77Z"/><path id="Path_392" data-name="Path 392" class="cls-18" d="M1376.44,1030.26s-2.78,8.8-2,10,3.83-.14,4.2-.28S1376.44,1030.26,1376.44,1030.26Z"/><g id="Group_70" data-name="Group 70"><path id="Path_393" data-name="Path 393" class="cls-26" d="M1381.7,1028.93a.36.36,0,0,1-.34-.24,2.75,2.75,0,0,0-1.54-1.82,2.9,2.9,0,0,0-2.16.25.36.36,0,0,1-.49-.12.37.37,0,0,1,.13-.5,3.55,3.55,0,0,1,2.76-.31,3.44,3.44,0,0,1,2,2.26.37.37,0,0,1-.22.46Z"/></g><path id="Path_394" data-name="Path 394" class="cls-18" d="M1398.78,1030.16s1.08-6.57,4.52-4.13,4.67,11,0,11.29S1398.78,1030.16,1398.78,1030.16Z"/></g><g id="boy"><path id="Path_395" data-name="Path 395" class="cls-28" d="M639.74,1170.93s-29.39,18.89-27.79,69.26c-.16,7.31-70,155.88-71.44,159.68.25,1.51,11.88,10.05,17.42,10.05s69.94-68.48,90.36-104.75c7.32-13.85,27-45.08,12.86-74.3s1.76-64,1.76-64Z"/><g id="Group_71" data-name="Group 71"><path id="Path_396" data-name="Path 396" class="cls-29" d="M558.14,1398.71a.57.57,0,0,1-.38-.14.6.6,0,0,1-.09-.85c.34-.41,33.8-41.19,59.93-75.29s31.81-73.62,31.87-74a.61.61,0,1,1,1.2.16h0c-.06.4-5.87,40.35-32.11,74.59s-59.62,74.91-59.95,75.32A.62.62,0,0,1,558.14,1398.71Z"/></g><ellipse id="Ellipse_8" data-name="Ellipse 8" class="cls-3" cx="551.07" cy="1461.02" rx="37.11" ry="7.11"/><path id="Path_397" data-name="Path 397" class="cls-30" d="M654,1236.3s6.8,49.44-8.35,73.3c0,0,24.64-36.25,21.79-61.94S654,1236.3,654,1236.3Z"/><path id="Ellipse_9" data-name="Ellipse 9" class="cls-3" d="M755.15,1453.78c19.35,0,35,2.64,35,5.9s-15.69,5.91-35,5.91-35-2.65-35-5.91S735.8,1453.78,755.15,1453.78Z"/><path id="Path_398" data-name="Path 398" class="cls-28" d="M651.33,1173.11s-16.46,63.3,27.19,97.72c7.73,7.73,17.63,31.57,26,69.35s20.43,89.2,20.43,89.2,13.82,4,24.15-2.32c.25-.75,6-113.08,0-137s-14.36-57.68-25.19-79.09c-4-8.06-6.55-41.5-6.55-41.5Z"/><g id="Group_72" data-name="Group 72"><path id="Path_399" data-name="Path 399" class="cls-29" d="M740,1417.09h-.11a.61.61,0,0,1-.49-.7c3.13-16.61-6.34-111.89-9.91-147.76l-.42-4.19c-3.22-32.48-22.63-64.15-22.83-64.47a.61.61,0,0,1,1-.64h0c.2.31,19.75,32.23,23,65l.42,4.19c3.57,35.91,13.06,131.32,9.9,148.1A.59.59,0,0,1,740,1417.09Z"/></g><path id="Path_400" data-name="Path 400" class="cls-30" d="M633.57,1175.09l-6.91,9.49s39.65,15.94,58.67,16.83a195.71,195.71,0,0,0,35.55-1.77l-1.67-11.3Z"/><path id="Path_401" data-name="Path 401" class="cls-18" d="M748.85,1082.82a22.15,22.15,0,0,1-3.19-23.78,7.3,7.3,0,0,1,2.08-2.86c5.84-3.83,15.58-10.46,22.33-16.28,8.35-7.22,36.34-42.57,45.08-53,2-2.36,8-3.89,8-3.89,8.41-.34,14.07,8.31,10.21,15.62-10.2,19.27-30,56-37.42,65.34-7.18,9-17.63,21.87-24.15,29.87a7.48,7.48,0,0,1-4.93,2.58,11.08,11.08,0,0,1-10-4Z"/><path id="Path_402" data-name="Path 402" class="cls-31" d="M724.91,1429.38s21.37,0,24.26-4c0,0-2.18,10.07,8.94,15.33,10.85,5.12,20.88,6.13,25.69,11.58,2,4.57-1.76,5.54-16.62,6s-38,4.53-40.55-4C725.17,1448.31,724.65,1446.25,724.91,1429.38Z"/><path id="Path_403" data-name="Path 403" class="cls-31" d="M541.22,1398.26s14.85,3.41,20.24,11.18c0,0-8.93,11.94-2.27,20.55,6.31,8.15,14.86,15.73,15.34,20.28,0,4-4.59,5.6-16.59.35-8.83-3.85-22.48-9.52-28.4-15.7a9.15,9.15,0,0,1-1.45-10C532,1415.92,534.42,1411.86,541.22,1398.26Z"/><g id="Group_73" data-name="Group 73"><path id="Path_404" data-name="Path 404" class="cls-18" d="M785.39,967.87h0a12.58,12.58,0,0,0-15.87-3l-77.38,48.33c-2.67,1.67-4.91,7-4.15,13.33.49,4,.65,7.65,4.16,11.79l3,3.25a17.76,17.76,0,0,0,15,5.92,13.56,13.56,0,0,0,6.1-2.06c16.25-11.19,52.64-45.8,68.34-61.55A11.93,11.93,0,0,0,785.39,967.87Z"/></g><path id="Path_405" data-name="Path 405" class="cls-23" d="M720,1017.42l4,21.66-2.19,2.05-13.3-24.34Z"/><path id="Path_406" data-name="Path 406" class="cls-32" d="M654.85,1073.46l11.65-28.27a5.77,5.77,0,0,1,7.53-3.14,5.85,5.85,0,0,1,2.5,2l21.88,30.59a5.79,5.79,0,0,0,7.17,1.86l41.94-19.89a5.76,5.76,0,0,1,5.85.53c5.65,4.07,17.66,14.73,19.75,32.85a5.86,5.86,0,0,1-1.39,4.52c-6.2,7.1-28.48,32.1-34.35,38.7a5.73,5.73,0,0,0-1.46,3.76l-.57,47.06a5.77,5.77,0,0,1-2.16,4.44c-6.53,5.25-29.43,17.56-86.65-2-18.27-7.31-26.95-11.87-31-14.64a5.73,5.73,0,0,1-2-7.14Z"/><path id="Path_407" data-name="Path 407" class="cls-33" d="M681.18,1071.12c1.9,1,4.76-.71,6.23-2a12.72,12.72,0,0,0,3.41-5.13l-17.49-24.45a11.86,11.86,0,0,0-4.89.93l-3.71,9a14.7,14.7,0,0,0,4.07,8.53c3.35,3.14,7,2.25,9.45,6.21C680.16,1067.33,679.23,1070.14,681.18,1071.12Z"/><path id="Path_408" data-name="Path 408" class="cls-33" d="M736,1134.79l-14.12,15,14-7.49Z"/><g id="Object-2"><path id="Path_409" data-name="Path 409" class="cls-11" d="M970.72,896.92H782.25a11.53,11.53,0,0,0-11.54,11.54h0v71a18.2,18.2,0,0,0,18.19,18.2H970.72a11.54,11.54,0,0,0,11.54-11.54h0V908.45A11.53,11.53,0,0,0,970.72,896.92Z"/><g id="Group_74" data-name="Group 74"><path id="Path_410" data-name="Path 410" class="cls-34" d="M833.72,949.41l10.5,3.17a19.21,19.21,0,0,1-3.33,7.38,14.49,14.49,0,0,1-5.64,4.47,21.21,21.21,0,0,1-8.59,1.51,24.8,24.8,0,0,1-10.32-1.84,16.35,16.35,0,0,1-6.92-6.46q-2.91-4.62-2.91-11.84,0-9.62,5.12-14.79t14.48-5.16q7.32,0,11.51,3t6.23,9.1l-10.58,2.35a9.14,9.14,0,0,0-1.16-2.59,6.89,6.89,0,0,0-2.46-2.12,7.17,7.17,0,0,0-3.25-.74,7,7,0,0,0-6.24,3.28q-1.63,2.43-1.64,7.63c0,4.3.65,7.24,2,8.84a7.72,7.72,0,0,0,10.69.46A11.89,11.89,0,0,0,833.72,949.41Z"/><path id="Path_411" data-name="Path 411" class="cls-34" d="M848,952.45l11.4-.72a8.59,8.59,0,0,0,1.51,4.23,6.33,6.33,0,0,0,5.29,2.36,5.86,5.86,0,0,0,4-1.21,3.45,3.45,0,0,0,.07-5.48q-1.32-1.2-6.14-2.25-7.87-1.77-11.24-4.71a9.45,9.45,0,0,1-3.38-7.48,10.16,10.16,0,0,1,1.73-5.65,11.49,11.49,0,0,1,5.21-4.18,24.56,24.56,0,0,1,9.53-1.52q7.43,0,11.33,2.77t4.64,8.79l-11.29.66a5.27,5.27,0,0,0-5.87-5,4.86,4.86,0,0,0-3.15.89,2.71,2.71,0,0,0-1,2.16,2.14,2.14,0,0,0,.87,1.66,9.77,9.77,0,0,0,4,1.43c5.23,1.13,9,2.27,11.25,3.42a11.85,11.85,0,0,1,5,4.3,10.92,10.92,0,0,1,1.54,5.74,12.21,12.21,0,0,1-2.06,6.88,13,13,0,0,1-5.76,4.77,23.31,23.31,0,0,1-9.34,1.63q-9.88,0-13.7-3.81A15.1,15.1,0,0,1,848,952.45Z"/><path id="Path_412" data-name="Path 412" class="cls-34" d="M887.07,952.45l11.39-.72A8.79,8.79,0,0,0,900,956a6.33,6.33,0,0,0,5.29,2.36,5.84,5.84,0,0,0,4-1.21,3.45,3.45,0,0,0,.07-5.48q-1.32-1.2-6.14-2.25-7.87-1.77-11.24-4.71a9.48,9.48,0,0,1-3.38-7.48,10.16,10.16,0,0,1,1.73-5.65,11.54,11.54,0,0,1,5.21-4.18,24.59,24.59,0,0,1,9.53-1.52c5,0,8.73.92,11.34,2.77s4.14,4.77,4.64,8.79l-11.3.66a5.27,5.27,0,0,0-5.87-5,4.76,4.76,0,0,0-3.14.89,2.7,2.7,0,0,0-1.06,2.15,2.16,2.16,0,0,0,.87,1.67,9.83,9.83,0,0,0,4,1.43q7.86,1.69,11.25,3.42a11.85,11.85,0,0,1,5,4.3,10.93,10.93,0,0,1,1.55,5.74,12.24,12.24,0,0,1-2.07,6.87,12.86,12.86,0,0,1-5.76,4.78,23.31,23.31,0,0,1-9.34,1.62q-9.89,0-13.7-3.8A15,15,0,0,1,887.07,952.45Z"/></g></g><path id="Path_413" data-name="Path 413" class="cls-18" d="M768.91,965.89s4.8-7.41,9-8.83c2.19-.73,3.9-1.18,5-1.44a1.06,1.06,0,0,1,1.27.79,1.08,1.08,0,0,1,0,.59,9.4,9.4,0,0,1-4.33,5c-4.42,2.47-5.44,25.82-17.14,13.07C759.35,971.36,768.91,965.89,768.91,965.89Z"/><path id="Path_414" data-name="Path 414" class="cls-18" d="M816.63,999.48s-.06-8.83,2.7-12.34a52.1,52.1,0,0,1,3.43-4,1.06,1.06,0,0,1,1.49,0,1,1,0,0,1,.29.52,10.74,10.74,0,0,1-.21,7.31c-1.85,4.72,9,23.81-7.79,19.58C811.65,1009.31,816.63,999.48,816.63,999.48Z"/><g id="Group_75" data-name="Group 75"><path id="Path_416" data-name="Path 416" class="cls-1" d="M763,1104.89l-.72-.1c4.09-32-22-44.23-22.31-44.35l.3-.65C740.49,1059.91,767.11,1072.36,763,1104.89Z"/></g><g id="Group_77" data-name="Group 77"><g id="Group_76" data-name="Group 76"><path id="Path_417" data-name="Path 417" class="cls-11" d="M716.24,1032.65a.59.59,0,0,1-.47-.25.57.57,0,0,1,.16-.78l1.35-.89a.56.56,0,1,1,.62.94l-1.35.89A.56.56,0,0,1,716.24,1032.65Z"/></g></g><g id="Group_79" data-name="Group 79"><g id="Group_78" data-name="Group 78"><path id="Path_418" data-name="Path 418" class="cls-11" d="M701.29,1040.62a.56.56,0,0,1-.5-.3.57.57,0,0,1,.23-.76h0l9.91-5.23a.55.55,0,0,1,.75.23.55.55,0,0,1-.23.76h0l-9.91,5.24A.58.58,0,0,1,701.29,1040.62Z"/></g></g><g id="Group_80" data-name="Group 80"><path id="Path_419" data-name="Path 419" class="cls-11" d="M696.17,1103.89a3.41,3.41,0,1,0-3.4,3.4A3.41,3.41,0,0,0,696.17,1103.89Zm-6.19,0a2.79,2.79,0,1,1,2.79,2.79,2.79,2.79,0,0,1-2.79-2.79Z"/><path id="Path_420" data-name="Path 420" class="cls-11" d="M714.31,1112.4a3.41,3.41,0,0,0-3.41,3.41c0,.06,0,.12,0,.18s0,.12,0,.18a3.41,3.41,0,0,0,6.81,0,1.1,1.1,0,0,0,0-.18c0-.06,0-.12,0-.18A3.41,3.41,0,0,0,714.31,1112.4Zm0,6.2a2.61,2.61,0,1,1,2.77-2.61,2.79,2.79,0,0,1-2.77,2.61Z"/><path id="Path_421" data-name="Path 421" class="cls-11" d="M713.85,1157.13a3.4,3.4,0,1,0,3.4,3.4A3.41,3.41,0,0,0,713.85,1157.13Zm0,6.19a2.79,2.79,0,0,1-2.79-2.79h0a2.79,2.79,0,1,1,2.79,2.79Z"/><path id="Path_422" data-name="Path 422" class="cls-11" d="M715.85,1137.64a3.4,3.4,0,1,0-6.14-2.87,3.36,3.36,0,0,0-.42,1.61,3.4,3.4,0,0,0,6.56,1.26Zm-5.77-1.62a2.76,2.76,0,0,1,.2-1,2.78,2.78,0,0,1,5.2,1.38,2.73,2.73,0,0,1-.2,1,2.78,2.78,0,0,1-5.2-1.38Z"/><path id="Path_423" data-name="Path 423" class="cls-11" d="M713.85,1176a3.41,3.41,0,1,0,3.4,3.41A3.41,3.41,0,0,0,713.85,1176Zm0,6.2a2.79,2.79,0,1,1,2.79-2.79,2.79,2.79,0,0,1-2.79,2.79Z"/><path id="Path_424" data-name="Path 424" class="cls-11" d="M694.38,1124.75a3.41,3.41,0,1,0,3.41,3.41A3.41,3.41,0,0,0,694.38,1124.75Zm0,6.2a2.79,2.79,0,1,1,2.79-2.79,2.8,2.8,0,0,1-2.79,2.79Z"/><path id="Path_425" data-name="Path 425" class="cls-11" d="M712.33,1095.3l.18,0,.18,0a3.41,3.41,0,0,0,0-6.81l-.18,0-.18,0a3.41,3.41,0,0,0,0,6.81Zm.18-6.17a2.77,2.77,0,1,1-2.61,2.77,2.79,2.79,0,0,1,2.61-2.77Z"/><path id="Path_426" data-name="Path 426" class="cls-11" d="M732.44,1172.88a3.41,3.41,0,0,0,3.41,3.41,3.15,3.15,0,0,0,.43,0v-.61a3.42,3.42,0,0,1-.44,0,2.79,2.79,0,0,1,0-5.58,3,3,0,0,1,.51.06v-.62a2.94,2.94,0,0,0-.51,0A3.41,3.41,0,0,0,732.44,1172.88Z"/><path id="Path_427" data-name="Path 427" class="cls-11" d="M736.31,1074.25a3.41,3.41,0,1,0,3.4,3.4A3.41,3.41,0,0,0,736.31,1074.25Zm0,6.19a2.79,2.79,0,1,1,2.79-2.79A2.79,2.79,0,0,1,736.31,1080.44Z"/><path id="Path_428" data-name="Path 428" class="cls-11" d="M711.3,1196.11l1.07-.12a2.67,2.67,0,0,1,1.48-.44,2.93,2.93,0,0,1,.73.11l1.08-.19a3.33,3.33,0,0,0-1.81-.53A3.37,3.37,0,0,0,711.3,1196.11Z"/><path id="Path_429" data-name="Path 429" class="cls-11" d="M692.77,1151.78a3.41,3.41,0,1,0-3.41-3.41A3.41,3.41,0,0,0,692.77,1151.78Zm0-6.2a2.79,2.79,0,1,1-2.79,2.79,2.78,2.78,0,0,1,2.79-2.79Z"/><path id="Path_430" data-name="Path 430" class="cls-11" d="M734.87,1151.78a3.39,3.39,0,0,0,1.72-.49v-.75a2.74,2.74,0,0,1-1.73.62,2.79,2.79,0,1,1,0-5.58,2.83,2.83,0,0,1,1.78.66v-.75a3.36,3.36,0,0,0-1.79-.52,3.41,3.41,0,0,0,0,6.81Z"/><path id="Path_431" data-name="Path 431" class="cls-11" d="M694.38,1074.25a3.41,3.41,0,1,0,3.41,3.4A3.4,3.4,0,0,0,694.38,1074.25Zm0,6.19a2.79,2.79,0,1,1,2.79-2.79A2.8,2.8,0,0,1,694.38,1080.44Z"/><path id="Path_432" data-name="Path 432" class="cls-11" d="M739.71,1128.16a3.41,3.41,0,1,0-3.4,3.4A3.41,3.41,0,0,0,739.71,1128.16Zm-3.4,2.79a2.79,2.79,0,1,1,2.79-2.79,2.79,2.79,0,0,1-2.79,2.79Z"/><path id="Path_433" data-name="Path 433" class="cls-11" d="M673.29,1112.76a3.41,3.41,0,1,0,3.4,3.41A3.41,3.41,0,0,0,673.29,1112.76Zm0,6.2a2.79,2.79,0,1,1,2.79-2.79,2.79,2.79,0,0,1-2.79,2.79Z"/><path id="Path_434" data-name="Path 434" class="cls-11" d="M737.73,1104.25a3.41,3.41,0,1,0-3.4,3.4A3.41,3.41,0,0,0,737.73,1104.25Zm-6.19,0a2.79,2.79,0,1,1,2.79,2.79,2.79,2.79,0,0,1-2.79-2.79Z"/><path id="Path_435" data-name="Path 435" class="cls-11" d="M651.57,1151.78a3.41,3.41,0,1,0-3.41-3.41A3.42,3.42,0,0,0,651.57,1151.78Zm0-6.2a2.79,2.79,0,1,1-2.79,2.79,2.79,2.79,0,0,1,2.79-2.79Z"/><path id="Path_436" data-name="Path 436" class="cls-11" d="M655,1103.89a3.41,3.41,0,1,0-3.4,3.4A3.42,3.42,0,0,0,655,1103.89Zm-6.19,0a2.79,2.79,0,1,1,2.79,2.79,2.79,2.79,0,0,1-2.79-2.79Z"/><path id="Path_437" data-name="Path 437" class="cls-11" d="M671.67,1139.79a3.41,3.41,0,1,0-3.4-3.41A3.41,3.41,0,0,0,671.67,1139.79Zm0-6.2a2.79,2.79,0,1,1-2.79,2.79,2.79,2.79,0,0,1,2.79-2.79Z"/><path id="Path_438" data-name="Path 438" class="cls-11" d="M652.72,1169.12a3.4,3.4,0,1,0,3.41,3.4A3.4,3.4,0,0,0,652.72,1169.12Zm0,6.19a2.79,2.79,0,1,1,2.79-2.79,2.8,2.8,0,0,1-2.79,2.79Z"/><path id="Path_439" data-name="Path 439" class="cls-11" d="M673.29,1062.26a3.4,3.4,0,1,0,3.4,3.4A3.4,3.4,0,0,0,673.29,1062.26Zm0,6.19a2.79,2.79,0,1,1,2.79-2.79,2.79,2.79,0,0,1-2.79,2.79Z"/><path id="Path_440" data-name="Path 440" class="cls-11" d="M675.07,1091.9a3.41,3.41,0,1,0-3.4,3.4A3.41,3.41,0,0,0,675.07,1091.9Zm-6.19,0a2.79,2.79,0,1,1,2.79,2.79,2.79,2.79,0,0,1-2.79-2.79Z"/><path id="Path_441" data-name="Path 441" class="cls-11" d="M672.83,1176a3.41,3.41,0,1,0,3.4,3.41A3.43,3.43,0,0,0,672.83,1176Zm0,6.2a2.79,2.79,0,1,1,2.79-2.79,2.79,2.79,0,0,1-2.79,2.79Z"/><path id="Path_442" data-name="Path 442" class="cls-11" d="M671.67,1044.79a3.39,3.39,0,0,0,3.38-3.13,6.13,6.13,0,0,0-.6-.22,2.78,2.78,0,0,1-5.36,1,6.4,6.4,0,0,0-.49.42A3.4,3.4,0,0,0,671.67,1044.79Z"/><path id="Path_443" data-name="Path 443" class="cls-11" d="M672.83,1157.13a3.4,3.4,0,1,0,3.4,3.4A3.41,3.41,0,0,0,672.83,1157.13Zm0,6.19a2.79,2.79,0,1,1,2.79-2.79A2.79,2.79,0,0,1,672.83,1163.32Z"/><path id="Path_444" data-name="Path 444" class="cls-11" d="M693.92,1169.12a3.4,3.4,0,1,0,3.41,3.4A3.4,3.4,0,0,0,693.92,1169.12Zm0,6.19a2.79,2.79,0,1,1,2.79-2.79,2.79,2.79,0,0,1-2.79,2.79Z"/><path id="Path_445" data-name="Path 445" class="cls-11" d="M753,1116.11l.79-.87a2.75,2.75,0,0,1,1.38-1.56l.77-.87A3.41,3.41,0,0,0,753,1116.11Z"/><path id="Path_446" data-name="Path 446" class="cls-11" d="M754.43,1095.66a3.41,3.41,0,1,0-3.4-3.4A3.4,3.4,0,0,0,754.43,1095.66Zm0-6.19a2.79,2.79,0,1,1-2.79,2.79A2.79,2.79,0,0,1,754.43,1089.47Z"/><path id="Path_447" data-name="Path 447" class="cls-11" d="M653.18,1124.75a3.41,3.41,0,1,0,3.41,3.41A3.41,3.41,0,0,0,653.18,1124.75Zm0,6.2a2.79,2.79,0,1,1,2.79-2.79,2.78,2.78,0,0,1-2.79,2.79Z"/><path id="Path_448" data-name="Path 448" class="cls-11" d="M753,1065.66a3.41,3.41,0,1,0,3.4-3.4A3.4,3.4,0,0,0,753,1065.66Zm6.19,0a2.79,2.79,0,1,1-2.79-2.79A2.79,2.79,0,0,1,759.2,1065.66Z"/><path id="Path_449" data-name="Path 449" class="cls-11" d="M634.13,1179.08a3.4,3.4,0,0,0-6.41-1.59l.65.31a2.76,2.76,0,0,1,2.24-1.15,2.79,2.79,0,0,1,2.79,2.79,3.17,3.17,0,0,1,0,.53s0,0-.05.08l.59.26a1.41,1.41,0,0,0,.06-.22A3.52,3.52,0,0,0,634.13,1179.08Z"/><path id="Path_450" data-name="Path 450" class="cls-11" d="M656.59,1077.65a3.39,3.39,0,0,0-1.68-2.92l-.25.56a2.79,2.79,0,0,1-1.48,5.15,2.62,2.62,0,0,1-.79-.13l-.26.56a3.47,3.47,0,0,0,1,.19A3.42,3.42,0,0,0,656.59,1077.65Z"/><path id="Path_451" data-name="Path 451" class="cls-11" d="M629.46,1133.59a2.8,2.8,0,0,1,2.79,2.79,3.07,3.07,0,0,1,0,.53,2.77,2.77,0,0,1-5.34-.28l-.51,1.11a3.39,3.39,0,0,0,6.45-.71,3.1,3.1,0,0,0,.17-1,3.4,3.4,0,0,0-3.4-3.4,3.11,3.11,0,0,0-1,.15L628,1134A2.75,2.75,0,0,1,629.46,1133.59Z"/><path id="Path_452" data-name="Path 452" class="cls-11" d="M630.72,1156.77a3.4,3.4,0,0,0-3.33,2.74,3.53,3.53,0,0,0-.18,1,3.41,3.41,0,0,0,6.75.66,3.52,3.52,0,0,0,.17-1A3.41,3.41,0,0,0,630.72,1156.77Zm2.63,4.3a2.78,2.78,0,0,1-5.41-.9,2.32,2.32,0,0,1,0-.53,2.78,2.78,0,0,1,5.42.89,2.48,2.48,0,0,1-.06.54Z"/><path id="Path_453" data-name="Path 453" class="cls-11" d="M693.92,1188a3.41,3.41,0,1,0,3.41,3.41A3.42,3.42,0,0,0,693.92,1188Zm0,6.2a2.79,2.79,0,1,1,2.79-2.79A2.8,2.8,0,0,1,693.92,1194.22Z"/></g><path id="Path_454" data-name="Path 454" class="cls-18" d="M680.54,1071.07a13.09,13.09,0,0,0,4-10.45c-.38-6.8,21.54-4.91,21.54-4.91l3.14,3.4-2.52,16.74s-2.51,7.69-15.86,4.92C683.06,1078.25,679.66,1073.21,680.54,1071.07Z"/><g id="Group_81" data-name="Group 81"><path id="Path_455" data-name="Path 455" class="cls-23" d="M706.78,1073.88l0,.29s-2.51,7.68-15.86,4.91c-6.21-2-9.59-5.58-10.29-8l0,0c-.88,2.14,2.52,7.18,10.33,9.7,13.35,2.77,15.87-4.91,15.87-4.91l.3-2Z"/></g><path id="Path_456" data-name="Path 456" class="cls-23" d="M687.84,1061.11l19.08,13.53,2-13.53Z"/><path id="Path_457" data-name="Path 457" class="cls-18" d="M681.45,1053.69s16.81,16.85,33.91,11,4.23-56.87-20.53-51.28S670.12,1037.34,681.45,1053.69Z"/><path id="Path_458" data-name="Path 458" class="cls-35" d="M666.24,1018.76a8.94,8.94,0,0,0,1.19-.94c2.57-2.45,2.5-6.78,4-9.91a18.5,18.5,0,0,1,5.51-6.81c7.25-5.38,17.86-2.7,24.74,2.1,4.15,2.89,3.9,4.15,8.18,4s7.69-1.14,10.2,3.27.38,11.84-4.53,15.87-9.44,7.68-9.07,15.49a31.75,31.75,0,0,0-3.65,0s-3.9-4.79-6-3.66-2.27,5,3.65,9.57c3.78,2.9,2.64,5.67,2.64,5.67s-1.83,4.64-8.86,7.62a17.15,17.15,0,0,1-11,2.08c-6.68-.76-11.09-4.41-15.49-9.45s-.51-7.3-5.8-13.85c-3.15-2.39-4.4-5.54-3.27-9.95a17.81,17.81,0,0,1,7.24-10.86Z"/><g id="Group_82" data-name="Group 82"><path id="Path_459" data-name="Path 459" class="cls-26" d="M703.16,1024.33a4,4,0,0,1-1.34-.22l.13-.33a3.71,3.71,0,0,0,3.25-.46,4,4,0,0,0,1.41-1.74,2.76,2.76,0,0,1-2.27-.75,1.68,1.68,0,0,1-.53-1.59,1.29,1.29,0,0,1,2.29-.8,2.69,2.69,0,0,1,1.08,2.19,3.59,3.59,0,0,1,0,.46,7.94,7.94,0,0,0,1.77-.89c2.32-1.46.92-4,.86-4.06l.31-.18s1.63,2.89-1,4.55a7.8,7.8,0,0,1-2.06,1,4.37,4.37,0,0,1-1.62,2.12A3.86,3.86,0,0,1,703.16,1024.33Zm1.85-6a.75.75,0,0,0-.26,0,1.08,1.08,0,0,0-.58.9,1.32,1.32,0,0,0,.39,1.25,2.38,2.38,0,0,0,2.18.65,2.24,2.24,0,0,0,.08-.57,2.3,2.3,0,0,0-1-1.9,1.47,1.47,0,0,0-.86-.38Z"/></g><g id="Group_83" data-name="Group 83"><path id="Path_460" data-name="Path 460" class="cls-26" d="M681.54,1049a5.49,5.49,0,0,1-2.7-.81,17.27,17.27,0,0,1-2.66-1.72,8.41,8.41,0,0,1-3.32-1,7.24,7.24,0,0,1-3.34-3.22l.33-.14a7,7,0,0,0,3.17,3,8.15,8.15,0,0,0,2.73.87,3.16,3.16,0,0,1-1-2.27.83.83,0,0,1,.42-.78,2.32,2.32,0,0,1,2.13,0,1.92,1.92,0,0,1,1.07,1.64,1.57,1.57,0,0,1-.67,1.46,2.18,2.18,0,0,1-.93.31,19.33,19.33,0,0,0,2.28,1.43c3.34,1.84,4.55-.14,4.6-.22l.32.18A2.79,2.79,0,0,1,681.54,1049Zm-5.41-5.87a1.64,1.64,0,0,0-.81.19.5.5,0,0,0-.25.46,2.88,2.88,0,0,0,1.25,2.32,2.2,2.2,0,0,0,1.15-.27,1.22,1.22,0,0,0,.5-1.14,1.53,1.53,0,0,0-.87-1.34A2.15,2.15,0,0,0,676.13,1043.12Z"/></g><g id="Group_84" data-name="Group 84"><path id="Path_461" data-name="Path 461" class="cls-24" d="M717,1052.07a5.78,5.78,0,0,1-4.26-1.66.38.38,0,0,1,0-.52h0a.37.37,0,0,1,.51,0h0c2.3,2.4,6.14,1.08,6.18,1.07a.35.35,0,0,1,.46.22.36.36,0,0,1-.22.46A9,9,0,0,1,717,1052.07Z"/></g><g id="Group_85" data-name="Group 85"><path id="Ellipse_10" data-name="Ellipse 10" class="cls-24" d="M707.51,1043.48a.29.29,0,1,1-.29.29A.29.29,0,0,1,707.51,1043.48Z"/></g><g id="Group_86" data-name="Group 86"><path id="Ellipse_11" data-name="Ellipse 11" class="cls-24" d="M709,1044.27a.3.3,0,1,1-.3.3A.29.29,0,0,1,709,1044.27Z"/></g><g id="Group_87" data-name="Group 87"><path id="Ellipse_12" data-name="Ellipse 12" class="cls-24" d="M709.53,1042.6a.29.29,0,1,1-.29.29A.29.29,0,0,1,709.53,1042.6Z"/></g><g id="Group_88" data-name="Group 88"><path id="Ellipse_13" data-name="Ellipse 13" class="cls-24" d="M711.24,1043.18a.3.3,0,1,1-.3.3A.29.29,0,0,1,711.24,1043.18Z"/></g><g id="Group_90" data-name="Group 90"><g id="Group_89" data-name="Group 89"><path id="Path_462" data-name="Path 462" class="cls-11" d="M717.19,1045.14a4.29,4.29,0,0,1-2.74-1.24,11.55,11.55,0,0,1-2.92-4.4c-1.54-3.91-1.06-7.64,1.09-8.49s5,1.56,6.58,5.47h0a11.48,11.48,0,0,1,.86,5.21c-.17,1.68-.86,2.85-1.95,3.28A2.59,2.59,0,0,1,717.19,1045.14ZM713.53,1032a1.43,1.43,0,0,0-.5.09c-1.35.53-1.85,3.48-.45,7a10.3,10.3,0,0,0,2.61,4,2.62,2.62,0,0,0,2.51.87c.67-.26,1.12-1.12,1.24-2.35a10.42,10.42,0,0,0-.79-4.68h0C716.92,1033.75,714.91,1032,713.53,1032Z"/></g></g><g id="Group_91" data-name="Group 91"><path id="Ellipse_14" data-name="Ellipse 14" class="cls-26" d="M714.42,1035.08a1.46,1.46,0,1,1-1.46,1.45A1.46,1.46,0,0,1,714.42,1035.08Z"/></g><g id="Group_92" data-name="Group 92"><path id="Path_463" data-name="Path 463" class="cls-26" d="M709.53,1034.16h0a.37.37,0,0,1-.33-.39,5.58,5.58,0,0,1,2.05-3.83,4.83,4.83,0,0,1,4.24-.39.36.36,0,0,1,.24.45.35.35,0,0,1-.44.24,4.21,4.21,0,0,0-3.63.29,4.92,4.92,0,0,0-1.74,3.3A.35.35,0,0,1,709.53,1034.16Z"/></g></g></g><path class="cls-2" d="M1899.83,1598.73h0l-1699.33-.48a4.84,4.84,0,0,1,0-9.68h0l1699.32.49a4.84,4.84,0,1,1,0,9.67Z"/></svg>