<svg id="Calque_1" data-name="Calque 1" xmlns="http://www.w3.org/2000/svg" viewBox="0 0 300 300"><path d="M274.53,309.53c-2.41-1.08-5.8-1.65-10.14-1.69H239.44V334.5h24.61c4.39,0,7.83-.59,10.27-1.76,4.44-2.19,6.66-6.33,6.66-12.48C281,315.05,278.84,311.48,274.53,309.53Z" transform="translate(-150 -150)"/><path d="M274.81,288.81q4.11-2.47,4.11-8.77c0-4.67-1.81-7.74-5.43-9.24a38.84,38.84,0,0,0-12-1.56H239.44V291.3h24.65Q270.66,291.3,274.81,288.81Z" transform="translate(-150 -150)"/><path d="M300,150A150,150,0,1,0,450,300,150,150,0,0,0,300,150Zm24,106.54h43.43V269H324Zm-26.19,81.08a27.85,27.85,0,0,1-18.62,12.89,71.45,71.45,0,0,1-14.31,1.34H219.24v-100h49q18.54.27,26.27,10.65a25.23,25.23,0,0,1,4.64,15.26q0,9.15-4.68,14.72a24.24,24.24,0,0,1-7.73,5.69A22.79,22.79,0,0,1,298.42,307a26.23,26.23,0,0,1,3.94,14.65A28.83,28.83,0,0,1,297.84,337.62Zm85.37-17.29h-54.6c.33,7.41,2.91,12.61,7.85,15.59a20.12,20.12,0,0,0,10.81,2.79c4.44,0,8.08-1.14,10.86-3.39a15.94,15.94,0,0,0,4-5.09h20q-.8,6.57-7.26,13.37-10.07,10.77-28.19,10.77a41.08,41.08,0,0,1-26.39-9.09q-11.47-9.09-11.45-29.59,0-19.23,10.32-29.48T346,276a43,43,0,0,1,17.63,3.48,30.11,30.11,0,0,1,12.94,10.93,35.89,35.89,0,0,1,6,15.29A93.72,93.72,0,0,1,383.21,320.33Z" transform="translate(-150 -150)"/><path d="M357.65,295.88a17.41,17.41,0,0,0-11.64-4c-5,0-8.92,1.4-11.69,4.22s-4.51,6.63-5.23,11.44h33.78C362.51,302.44,360.76,298.55,357.65,295.88Z" transform="translate(-150 -150)"/></svg>