<svg id="Calque_1" data-name="Calque 1" xmlns="http://www.w3.org/2000/svg" viewBox="0 0 300 300"><path d="M328.67,243.3h-62c-13.65,0-24.82,11.4-24.82,25.34v61c0,13.94,11.17,25.34,24.82,25.34h62c13.65,0,24.81-11.4,24.81-25.34v-61C353.48,254.7,342.32,243.3,328.67,243.3Zm-31,90.75c-18.88,0-34.19-15.63-34.19-34.92s15.3-34.92,34.19-34.92,34.19,15.64,34.19,34.92S316.53,334.05,297.65,334.05Zm36-63.83a7.89,7.89,0,1,1,7.72-7.88A7.8,7.8,0,0,1,333.68,270.22Z" transform="translate(-150 -150)"/><path d="M297.65,276.6a22.54,22.54,0,1,0,22.06,22.53A22.3,22.3,0,0,0,297.65,276.6Z" transform="translate(-150 -150)"/><path d="M300,150A150,150,0,1,0,450,300,150,150,0,0,0,300,150Zm65.66,180.51c0,20.14-16.13,36.62-35.85,36.62H265.5c-19.71,0-35.84-16.48-35.84-36.62V267.74c0-20.14,16.13-36.61,35.84-36.61h64.31c19.72,0,35.85,16.47,35.85,36.61Z" transform="translate(-150 -150)"/></svg>