<svg id="Calque_1" data-name="Calque 1" xmlns="http://www.w3.org/2000/svg" viewBox="0 0 300 300"><path d="M300,150A150,150,0,1,0,450,300,150,150,0,0,0,300,150ZM265.6,360.75H236v-94H265.6ZM250,255h-.21c-10.74,0-17.7-7.18-17.7-16.29,0-9.28,7.17-16.31,18.12-16.31s17.66,7,17.88,16.29C268.11,247.83,261.17,255,250,255ZM384.25,360.75H350.63V312.13c0-12.73-5.26-21.41-16.83-21.41-8.84,0-13.76,5.86-16.05,11.51-.86,2-.73,4.85-.73,7.68v50.84H283.71s.43-86.13,0-94H317v14.75c2-6.45,12.61-15.65,29.6-15.65,21.08,0,37.63,13.52,37.63,42.62Z" transform="translate(-150 -150)"/></svg>