<svg xmlns="http://www.w3.org/2000/svg" viewBox="0 0 463.09 463.09"><defs><style>.cls-1{fill:#1d1d1b;}</style></defs><g id="Calque_2" data-name="Calque 2"><path class="cls-1" d="M283.46,51.92c-127.87,0-231.54,103.67-231.54,231.54S155.59,515,283.46,515,515,411.34,515,283.46,411.34,51.92,283.46,51.92Zm99.76,104.82a5.48,5.48,0,0,1,7.74,0l19.47,19.51a5.46,5.46,0,0,1,0,7.73l-18.11,18.08-27.2-27.24Zm-20.81,20.78,27.2,27.25-10.46,10.44L352,188Zm-206.89,6c1-1,2.06-1.19,2.86-.34,2.52,2.7,5.5,4.93,8.06,7.59,4.86,5.06,10.3,9.52,15.38,14.37,3.38,3.22,6.9,6.31,10.35,9.46,3.61,3.31,7.29,6.55,10.83,9.94,1.93,1.86,2.84,1.67,5-.68,1-1.08,1.12-1.92.16-2.86-5.33-5.24-10.59-10.55-15.88-15.83l-5.92-5.92-21.58-21.58c-1.25-1.26-1.26-2.1-.05-3.36a2.25,2.25,0,0,1,3.47-.06c4.67,4.36,9.28,8.78,14,13.06q8.37,7.53,16.59,15.22c4.92,4.61,10,9.08,14.95,13.64.79.74,1.43.58,2.24-.3s1.45-1.56.52-2.51c-2.33-2.38-4.58-4.84-6.87-7.25-6.48-6.81-13-13.57-19.44-20.44-4.73-5.06-9.41-10.17-14.26-15.11-.85-.87-1.61-1.82-2.41-2.74s-.42-1.92.47-2.74a1.79,1.79,0,0,1,2.7-.17c5.46,5,10.74,10.12,16.11,15.17S203.32,190,208.61,195q6.75,6.3,13.46,12.66c1.08,1,1.87.2,2.74-.63s1.4-1.63.47-2.62q-9.85-10.45-19.84-20.79c-7.78-8.06-15.4-16.28-23.13-24.38a1.63,1.63,0,0,1,0-2.44,1.92,1.92,0,0,1,2.64-.66,24,24,0,0,1,3,2.47c4.73,4.07,9.69,7.88,14.22,12.19,2.81,2.68,6,4.94,9,7.42,2.05,1.67,4.07,3.39,6.11,5.07,3.25,2.68,6.52,5.34,9.77,8,2,1.69,4.1,3.35,6.08,5.11,4,3.54,7.94,7.13,12.16,10.43a43.7,43.7,0,0,1,6.9,6,25.61,25.61,0,0,1,5.9,13.15c.52,3.79.9,7.61,1.47,11.39.43,2.93.31,6,1,8.86a21.49,21.49,0,0,0,8,12.66c2.09,1.56,3.73,3.63,5.76,5.29.22.18.43.37.64.56l74.39-74.27,5.32,5.33-160,159.74a7.53,7.53,0,0,1-10.65,0L266,273.74l-.26-.28a110.21,110.21,0,0,0-8.2-8.4c-4.12-3.65-9.18-5.39-15.27-5.3a50.76,50.76,0,0,1-8-.49c-2.52-.35-5.05-.67-7.59-1-4-.48-7.19-2.37-10.51-4.07a20.17,20.17,0,0,1-6.6-6c-1-1.31-2.21-2.47-3.27-3.76-2.39-2.92-5.07-5.59-7.47-8.5-4.74-5.78-9.9-11.15-14.86-16.73-4-4.46-7.8-9-11.73-13.54-3-3.38-5.83-6.84-8.83-10.18-2.75-3.08-5.38-6.27-8.08-9.39A1.71,1.71,0,0,1,155.52,183.5Zm-.12,227.89,9-18.42a47.16,47.16,0,0,1,9.4,9.39Zm22-10.82a51,51,0,0,0-5.15-6,49.93,49.93,0,0,0-6.11-5.22L181,359.47a10,10,0,0,0,11.57,1.29,10,10,0,0,0,13.6,13.62,10,10,0,0,0,1.2,11.5Zm20.29-31.43a7.52,7.52,0,0,1,0-10.65l160-159.73,10.64,10.66-160,159.73A7.52,7.52,0,0,1,197.72,369.14Zm214.07,33.17a9.42,9.42,0,0,1-1.5,3.67,12.42,12.42,0,0,1-12.37,5.64c-6-1-10.29-4.1-13.83-8.46-1.84-2.27-3.81-4.44-5.86-6.53-5.72-5.85-11-12.11-16.58-18.1-4.26-4.57-8.41-9.25-12.6-13.89-4.57-5.07-9.23-10.07-13.74-15.19-4.11-4.66-8.44-9.1-12.66-13.65-3-3.3-6.17-6.54-9.15-9.9-4.48-5-9-10-13.58-15-2.64-2.89-5.25-5.81-7.88-8.72l-80.72,80.59a7.54,7.54,0,0,1,0-10.66l160-159.73,5.32,5.33-73.24,73.12a.34.34,0,0,1,.09.08c3,2.62,5.83,5.49,8.77,8.2q10.13,9.31,20.28,18.6c1.65,1.53,3.19,3.18,4.83,4.72,4.82,4.52,9.6,9.09,14.51,13.52,5.34,4.81,10.61,9.7,15.89,14.59,6.34,5.86,12.79,11.6,19.16,17.43,4.52,4.13,9,8.26,13.45,12.5,2,2,4.18,3.82,6.23,5.78,2.64,2.52,4,5.86,5,9.5A14.75,14.75,0,0,1,411.79,402.31Z" transform="translate(-51.92 -51.92)"/></g></svg>