<svg id="Calque_1" data-name="Calque 1" xmlns="http://www.w3.org/2000/svg" viewBox="0 0 300 300"><path d="M300,150A150,150,0,1,0,450,300,150,150,0,0,0,300,150Zm60.41,126.45c0,1.32.07,2.66.07,4,0,40.78-30.26,87.79-85.61,87.79a83.76,83.76,0,0,1-46.12-13.86,58.66,58.66,0,0,0,7.18.43,59.43,59.43,0,0,0,37.37-13.22,30.2,30.2,0,0,1-28.11-21.41,29.36,29.36,0,0,0,5.66.54,28.81,28.81,0,0,0,7.93-1.08,30.68,30.68,0,0,1-24.14-30.25V289a29.58,29.58,0,0,0,13.63,3.85,31.09,31.09,0,0,1-13.39-25.68A31.43,31.43,0,0,1,239,251.65a84.66,84.66,0,0,0,62,32.24,31.14,31.14,0,0,1-.77-7c0-17,13.47-30.85,30.07-30.85a29.67,29.67,0,0,1,22,9.73,59,59,0,0,0,19.12-7.47,30.73,30.73,0,0,1-13.23,17.06,58.55,58.55,0,0,0,17.28-4.86A61.67,61.67,0,0,1,360.41,276.45Z" transform="translate(-150 -150)"/></svg>