<svg id="Layer_1" data-name="Layer 1" xmlns="http://www.w3.org/2000/svg" viewBox="0 0 2000 2000"><defs><style>.cls-1{opacity:0.1;}.cls-2{fill:#20a8f9;}.cls-3{fill:#9df;}.cls-4{fill:#fff;}.cls-5{opacity:0.13;}.cls-6{opacity:0.52;}.cls-7{fill:#ffb83b;}.cls-8{fill:#050504;}.cls-9{fill:#fca5a4;}.cls-10{fill:#233551;}.cls-11{opacity:0.21;}.cls-12{fill:#2c4067;}.cls-13{fill:#f4ac38;}.cls-14{fill:#ea9292;}.cls-15{fill:#20181f;}.cls-16{fill:#00a66b;}.cls-17{fill:#00bb86;}.cls-18{fill:#1a95d3;}.cls-19{fill:#1d9bdb;}</style></defs><g class="cls-1"><path class="cls-2" d="M447.2,1573.21l1224.47,3.7c97-428.13,33.52-588.3-51.79-651.08C1457.41,806.28,1214.44,1039,909.61,892.54,759.47,820.39,690.32,702.39,561.88,726.07,461.39,744.6,401.05,835.76,380.61,866.64,203.79,1133.81,426.81,1537.39,447.2,1573.21Z"/></g><rect class="cls-2" x="1379.5" y="1147.79" width="304.99" height="429.12"/><rect class="cls-3" x="1329.85" y="1147.79" width="304.99" height="429.12"/><rect class="cls-4" x="1322.45" y="1177.38" width="288.55" height="162.77"/><rect class="cls-4" x="1322.45" y="1377.15" width="288.55" height="162.77"/><circle class="cls-2" cx="1412.33" cy="540.15" r="66.13" transform="translate(31.72 1156.88) rotate(-45)"/><path class="cls-4" d="M1406.58,559.8l-30.41-16.9a3.15,3.15,0,1,1,3.06-5.5L1405.49,552l39.25-39.26a3.15,3.15,0,0,1,4.46,4.46Z"/><g class="cls-5"><polygon class="cls-2" points="1268.93 1573.21 1235.15 1573.21 1172.12 1204.76 1204.93 1199.1 1268.93 1573.21"/></g><polygon class="cls-2" points="1141.51 1218.85 1095.69 1576.91 1057.08 1576.74 1108.64 1213.64 1141.51 1218.85"/><g class="cls-5"><polygon class="cls-2" points="818.2 1573.21 784.02 1573.21 700.6 1222.4 733.01 1214.82 818.2 1573.21"/></g><polygon class="cls-2" points="677.48 1221.44 622.18 1573.21 588.88 1573.21 644.97 1214.34 677.48 1221.44"/><polygon class="cls-3" points="1206.67 1225.48 636.98 1225.48 692.47 485.62 1262.16 485.62 1206.67 1225.48"/><polygon class="cls-4" points="1173.24 1177.38 677.61 1177.38 725.89 533.71 1221.52 533.71 1173.24 1177.38"/><g class="cls-6"><path class="cls-3" d="M1102.82,992.42h-338a24.8,24.8,0,0,1-24.63-27.69l2-17a24.8,24.8,0,0,1,24.63-21.92h338a24.8,24.8,0,0,1,24.64,27.69l-2,17A24.8,24.8,0,0,1,1102.82,992.42Z"/></g><g class="cls-6"><path class="cls-3" d="M1102.82,1096h-338a24.8,24.8,0,0,1-24.63-27.69l2-17a24.8,24.8,0,0,1,24.63-21.92h338a24.8,24.8,0,0,1,24.64,27.69l-2,17A24.8,24.8,0,0,1,1102.82,1096Z"/></g><g class="cls-6"><path class="cls-3" d="M1112.2,877.74h-315a40.43,40.43,0,0,1-40.32-43.46l15.58-207.67a40.43,40.43,0,0,1,40.32-37.41h314.95a40.43,40.43,0,0,1,40.32,43.45l-15.58,207.68A40.43,40.43,0,0,1,1112.2,877.74Z"/></g><path class="cls-4" d="M1043.36,746.36,929.88,822a7.6,7.6,0,0,1-11.79-7l14.24-169.21A7.6,7.6,0,0,1,945.12,641l99.24,93.55a7.6,7.6,0,0,1-1,11.86Z"/><rect class="cls-7" x="1656.25" y="1005.09" width="65.64" height="65.64" transform="translate(-239.2 1498.35) rotate(-45)"/><path class="cls-8" d="M1686.63,1048.34l-.33-.33-46.74-46.74.32-.33,46.75-46.74.33.32,46.74,46.75-.33.33Zm-45.76-47.07,45.76,45.76,45.76-45.76-45.76-45.76Z"/><rect class="cls-2" x="1426.16" y="759.05" width="41.8" height="41.8" transform="translate(-127.67 1251.67) rotate(-45)"/><path class="cls-8" d="M1445.51,786.82l-.33-.32-29.88-29.88.32-.33,29.89-29.88.33.32,29.88,29.89-.33.33Zm-28.9-30.2,28.9,28.9,28.9-28.9-28.9-28.9Z"/><rect class="cls-2" x="280.73" y="1128.67" width="62.37" height="62.37" transform="translate(-728.78 560.26) rotate(-45)"/><path class="cls-8" d="M309.59,1170.11l-.49-.49L264.51,1125l.49-.49L309.59,1080l.49.48L354.66,1125l-.48.49ZM266.46,1125l43.13,43.13L352.71,1125l-43.12-43.12Z"/><polygon class="cls-9" points="1389.84 1486.16 1394.03 1538.5 1366.81 1538.5 1358.44 1490.35 1389.84 1486.16"/><polygon class="cls-9" points="1201.43 1507.1 1195.15 1553.15 1165.84 1551.06 1170.03 1507.1 1201.43 1507.1"/><path class="cls-10" d="M1113.45,1569.81a5.32,5.32,0,0,0,5.33,5.32h81.61a5.33,5.33,0,0,0,5.32-5.36c-.12-27.93,1-35.42-7.06-31.91-19.53,19.52-35.5-3.55-35.5-3.55a54.1,54.1,0,0,1-9.82,8.31,139.41,139.41,0,0,1-14,8.34c-7.3,3.83-14.5,7.06-19.45,9.14a10.5,10.5,0,0,0-6.43,9.71Z"/><g class="cls-11"><path class="cls-4" d="M1139.33,1551c1.42,5.13,4.22,13,7.84,11.75,4.19-1.4,2.9-6.07,2.15-8,1.07,2.16,4.21,7.68,8.5,6.24,3.29-1.1-.83-10.91-4.49-18.31A139.41,139.41,0,0,1,1139.33,1551Z"/></g><path class="cls-10" d="M1322.15,1576.25a5.32,5.32,0,0,0,6.55,3.72l78.7-21.6a5.33,5.33,0,0,0,3.71-6.58c-7.51-26.91-8.4-34.43-15.26-28.9-13.66,24-35.17,6-35.17,6a53.47,53.47,0,0,1-7.26,10.61,138.06,138.06,0,0,1-11.3,11.75c-6,5.63-12.11,10.65-16.34,14a10.51,10.51,0,0,0-3.49,5A10.65,10.65,0,0,0,1322.15,1576.25Z"/><g class="cls-11"><path class="cls-4" d="M1342.12,1551.22c2.73,4.57,7.5,11.38,10.68,9.25,3.66-2.46,1.18-6.62-.06-8.3,1.6,1.8,6.09,6.3,9.86,3.77,2.87-1.93-3.7-10.3-9.18-16.47A138.06,138.06,0,0,1,1342.12,1551.22Z"/></g><polygon class="cls-10" points="1224.46 962.8 1190.96 1243.32 1165.84 1519.65 1203.52 1519.65 1262.14 1245.41 1314.47 1025.6 1310.29 956.52 1224.46 962.8"/><polygon class="cls-12" points="1228.64 973.26 1268.42 1038.16 1306.1 1285.19 1358.44 1507.1 1394.03 1500.81 1375.18 1274.72 1366.81 973.26 1228.64 973.26"/><path class="cls-9" d="M1069.54,879.06s-10.47-12.56-18.84-16.75,0,6.28-4.19,8.37-14.65-8.37-23,0,16.74,31.41,39.77,31.41Z"/><path class="cls-13" d="M1218.18,793.23s-20.94,27.21-23,44-10.47,79.55-10.47,79.55l-115.14-41.87L1057,904.18s108.86,69.08,127.7,69.08,44-33.49,44-33.49Z"/><polygon class="cls-14" points="1306.1 734.61 1322.85 776.48 1297.73 799.51 1272.61 784.85 1276.79 734.61 1306.1 734.61"/><path class="cls-9" d="M1251.67,667.62c-4.19,48.15-1.65,87.86,41.87,81.64,29.31-4.18,31.4-39.77,29.31-67S1251.67,667.62,1251.67,667.62Z"/><path class="cls-15" d="M1272.61,682.27s-29.31,12.56-39.78-25.12a36.23,36.23,0,0,1,0-23s23,10.47,50.24,0,39.78,0,44,14.66c0,0,22.47,27.72-3.42,59.91v-10l-13.32,8.73L1304,682.27s-8.38,10.47-35.59,10.47Z"/><circle class="cls-9" cx="1317.62" cy="704.26" r="11.51"/><path class="cls-7" d="M1270.51,766s12.56,33.5,52.34,0c0,0,27.21,10.47,35.59,18.84s8.37,184.23,8.37,184.23-96.3,29.31-148.63,4.18v-180S1249.58,770.2,1270.51,766Z"/><path class="cls-9" d="M1301.91,994.2s-18.84,6.28-23,10.47,6.28,6.28,6.28,6.28-12.56,8.37-6.28,16.74,25.12-2.09,35.59-16.74Z"/><path class="cls-13" d="M1358.44,784.85s33.49,14.66,41.87,83.74,0,79.55,0,79.55l-85.83,69.09-16.75-23s56.52-62.8,62.8-73.27-14.65-79.55-14.65-79.55S1339.6,805.79,1358.44,784.85Z"/><path class="cls-16" d="M1551.94,948.79c-28.72,68.86-77.82,113.91-77.82,113.91s-2.53-66.59,26.19-135.44S1580.66,879.94,1551.94,948.79Z"/><path class="cls-17" d="M1467.7,981.91c11.88,42.32,5.64,81.08,5.64,81.08s-25.5-29.86-37.37-72.17S1455.82,939.59,1467.7,981.91Z"/><path class="cls-16" d="M1432,1000.18c25.56,28.41,35.63,61,35.63,61s-31.37-13.45-56.93-41.85S1406.42,971.78,1432,1000.18Z"/><path class="cls-17" d="M1512.22,1007.22c-25.56,28.41-35.63,61-35.63,61s31.37-13.44,56.93-41.85S1537.78,978.82,1512.22,1007.22Z"/><polygon class="cls-12" points="1517.87 1146.65 1438.86 1146.65 1427.01 1051.85 1529.72 1051.85 1517.87 1146.65"/><polygon class="cls-9" points="407.98 1489.79 403.95 1540.11 430.12 1540.11 438.17 1493.82 407.98 1489.79"/><polygon class="cls-9" points="589.11 1509.92 595.14 1554.19 623.32 1552.18 619.29 1509.92 589.11 1509.92"/><path class="cls-10" d="M673.68,1570.21a5.12,5.12,0,0,1-5.12,5.12H590.11a5.13,5.13,0,0,1-5.12-5.16c.12-26.85-1-34.05,6.79-30.68,18.77,18.77,34.13-3.41,34.13-3.41a51.88,51.88,0,0,0,9.43,8,133.93,133.93,0,0,0,13.46,8c7,3.68,13.94,6.79,18.7,8.78a10.09,10.09,0,0,1,6.18,9.34Z"/><g class="cls-11"><path class="cls-4" d="M646.85,1552.09c-1.37,4.93-4.06,12.45-7.54,11.29-4-1.35-2.79-5.83-2.07-7.71-1,2.08-4,7.39-8.17,6-3.16-1.06.8-10.5,4.31-17.61A134.09,134.09,0,0,0,646.85,1552.09Z"/></g><path class="cls-10" d="M473.05,1576.4a5.11,5.11,0,0,1-6.29,3.58l-75.66-20.77a5.12,5.12,0,0,1-3.57-6.32c7.22-25.87,8.07-33.1,14.67-27.79,13.13,23.07,33.81,5.74,33.81,5.74a51.62,51.62,0,0,0,7,10.2,132,132,0,0,0,10.86,11.3c5.79,5.41,11.65,10.24,15.71,13.42a10.09,10.09,0,0,1,3.49,10.64Z"/><g class="cls-11"><path class="cls-4" d="M453.85,1552.34c-2.62,4.39-7.21,10.93-10.26,8.89-3.53-2.36-1.14-6.36.05-8-1.54,1.74-5.85,6-9.47,3.63-2.76-1.86,3.55-9.91,8.82-15.84A132,132,0,0,0,453.85,1552.34Z"/></g><path class="cls-10" d="M562.18,985.62s17.18,69.53,20.47,102c4.28,42.17,16.52,168.72,16.52,168.72L623.32,1522H587.09l-56.35-263.64s-29.06-87.08-36.09-116.61c-5.55-23.29-14.22-94.7-14.22-94.7l4-66.41Z"/><path class="cls-12" d="M562.94,996.73,521.47,1058l-33,238.61-50.31,213.33-34.22-6,18.12-217.35S410.2,1125,407.59,1070.68c-1.88-39.06,15.17-90.71,15.17-90.71Z"/><path class="cls-18" d="M648.79,779.77l9.22-37.9a12.74,12.74,0,0,1,5.06-7.43,13.09,13.09,0,0,1,9.85-2.22l66.49,11.65a12.75,12.75,0,0,1,10.11,16.21l-12.13,40.09A13,13,0,0,1,722.14,809L658.57,795.2A12.74,12.74,0,0,1,648.79,779.77Z"/><path class="cls-9" d="M662.71,801.26s11.1-1.21,12.59-8.11S665.21,783,665.21,783s-10.09-10.14-11.06-19c-1.06-9.67-11.81,13.5-5.25,34.28Z"/><path class="cls-9" d="M727.06,814.46s-1.7-15.54-.21-22.45,8.64-3.19,8.64-3.19,12.88-26.12,12.63-28.34,19.46,13.61,16.72,29.63-14.13,35.24-14.13,35.24Z"/><path class="cls-19" d="M556.15,936.46c28.58,14.86,61.6,29.22,80-29s33.25-107,33.25-107l-22.93-4.24L594,871.67S558.77,857.54,556.79,860,556.15,936.46,556.15,936.46Z"/><polygon class="cls-14" points="531.55 772.9 531.72 815.56 490.82 790.82 502.63 773.09 531.55 772.9"/><path class="cls-9" d="M575.52,711.94c-13.87,49.66-31.29,88.38-72.43,65.85-27.7-15.17-16.45-51.5-4.16-77.9S575.52,711.94,575.52,711.94Z"/><path class="cls-15" d="M534.09,734.42s40.69,2.3,51.1-25.8-24.06-55.78-40.85-45-27.9,12-41.22,13.49c-16,1.74-31.56-1-33.58,21.64s-13.88,37.46-36.33,37.66-50.34,12.24-40.52,40.37,36.49,5,50.74,32.66,51.07-5.58,66-54.38Z"/><circle class="cls-9" cx="520.51" cy="743.77" r="16.75" transform="translate(-246.31 257.86) rotate(-22.65)"/><path class="cls-2" d="M535.43,808.42s-34.48-27.69-56.2-20.83-32.1,40.73-60.79,210.11c0,0,45.38,29.62,152.92,26.86,0,0-2.13-91.77-3.51-145.54S535.43,808.42,535.43,808.42Z"/><path class="cls-2" d="M535.43,808.42s90.15,64.3,121,78.91l69.71-81.75,28.82,17.07S695.74,939.2,671.8,946.3s-120.54-34-120.54-34Z"/></svg>